<svg id="Layer_1" enable-background="new 0 0 512 512" viewBox="0 0 512 512" xmlns="http://www.w3.org/2000/svg"><path d="m352.12 323.75c0-2.3-.9-4.46-2.54-6.09l-12.72-12.73c4.33-7.52 7.63-15.48 9.86-23.76h17.97c4.73 0 8.57-3.84 8.57-8.57v-33.2c0-4.76-3.84-8.62-8.57-8.62h-17.97c-2.24-8.3-5.54-16.24-9.86-23.71l12.72-12.72c1.63-1.63 2.54-3.8 2.54-6.09s-.9-4.46-2.54-6.09l-23.51-23.5c-3.27-3.27-8.66-3.32-12.13 0l-12.71 12.76c-7.54-4.37-15.5-7.67-23.76-9.83v-17.99c0-4.75-3.84-8.62-8.57-8.62h-33.2c-4.75 0-8.62 3.87-8.62 8.62v17.99c-8.29 2.18-16.24 5.47-23.72 9.83l-12.76-12.76c-3.28-3.28-8.68-3.31-12.13 0l-23.58 23.58c-3.23 3.37-3.23 8.65.08 12.11l12.75 12.7c-4.35 7.46-7.65 15.41-9.86 23.71h-17.96c-4.75 0-8.62 3.87-8.62 8.62v33.2c0 4.72 3.87 8.57 8.62 8.57h17.95c2.21 8.28 5.51 16.24 9.87 23.76l-12.83 12.8c-3.24 3.37-3.24 8.65.08 12.11l23.5 23.45c1.64 1.64 3.79 2.53 6.08 2.53h.1c2.3-.03 4.44-.96 5.94-2.53l12.76-12.72c7.42 4.31 15.37 7.6 23.73 9.82v18.01c0 4.72 3.86 8.57 8.62 8.57h33.2c4.81 0 8.57-3.76 8.57-8.57v-17.99c8.33-2.2 16.29-5.5 23.77-9.82l12.71 12.71c1.64 1.64 3.79 2.53 6.08 2.53h.1c2.3-.03 4.44-.96 5.94-2.53l23.51-23.45c1.64-1.63 2.54-3.79 2.54-6.09zm-32.1 20.46-14.18-14.18c-1.78-1.78-4.55-2.07-6.67-.73-8.69 5.55-18.17 9.47-28.19 11.65-2.46.54-4.21 2.71-4.21 5.23v20.08h-28.97v-20.08c0-2.52-1.75-4.69-4.21-5.23-10.08-2.21-19.55-6.12-28.13-11.64-2.1-1.34-4.89-1.07-6.68.71l-14.24 14.19-20.5-20.46 14.24-14.2c1.78-1.78 2.09-4.55.73-6.68-5.6-8.76-9.54-18.24-11.71-28.19-.53-2.46-2.71-4.21-5.23-4.21h-20.07v-28.97h20.08c2.52 0 4.69-1.75 5.23-4.21 2.19-10 6.13-19.46 11.7-28.13 1.36-2.12 1.07-4.91-.72-6.69l-14.25-14.2 20.51-20.51 14.23 14.24c1.78 1.79 4.57 2.08 6.68.72 8.7-5.59 18.15-9.51 28.1-11.64 2.47-.53 4.24-2.71 4.24-5.24v-20.13h28.97v20.13c0 2.53 1.77 4.71 4.24 5.24 9.89 2.11 19.37 6.03 28.16 11.65 2.11 1.35 4.9 1.06 6.67-.73l14.17-14.22 20.51 20.51-14.2 14.21c-1.77 1.78-2.08 4.54-.73 6.66 5.53 8.69 9.47 18.17 11.71 28.18.55 2.44 2.72 4.18 5.22 4.18h20.03v28.97h-20.03c-2.51 0-4.68 1.74-5.22 4.19-2.22 9.95-6.17 19.45-11.72 28.23-1.34 2.12-1.04 4.88.74 6.65l14.2 14.21zm-67.71-138.64c-27.81 0-50.44 22.63-50.44 50.44s22.63 50.44 50.44 50.44 50.44-22.63 50.44-50.44-22.63-50.44-50.44-50.44zm0 90.18c-21.91 0-39.73-17.82-39.73-39.73s17.82-39.73 39.73-39.73 39.73 17.82 39.73 39.73-17.82 39.73-39.73 39.73zm0-111.7c-39.68 0-71.97 32.29-71.97 71.97 0 39.65 32.29 71.92 71.97 71.92s71.97-32.26 71.97-71.92c-.01-39.69-32.29-71.97-71.97-71.97zm0 133.17c-33.78 0-61.26-27.46-61.26-61.21 0-33.78 27.48-61.26 61.26-61.26s61.26 27.48 61.26 61.26c-.01 33.75-27.49 61.21-61.26 61.21zm242.35 73.47h-136.44c-6.26 0-11.35 5.09-11.35 11.35v27.63c0 6.27 5.09 11.35 11.35 11.35h4.34v9.1h-4.34c-6.26 0-11.35 5.09-11.35 11.35v27.63c0 6.26 5.09 11.35 11.35 11.35h136.44c6.27 0 11.35-5.09 11.35-11.35v-27.63c0-6.26-5.09-11.35-11.35-11.35h-4.39v-9.1h4.39c6.27 0 11.35-5.09 11.35-11.35v-27.63c.01-6.27-5.08-11.35-11.35-11.35zm0 70.14c.32 0 .64.32.64.64v27.63c0 .37-.32.64-.64.64h-136.44c-.38 0-.64-.27-.64-.64v-27.63c0-.32.27-.64.64-.64zm-121.39-10.71v-9.1h106.29v9.1zm122.04-20.45c0 .37-.32.64-.64.64h-136.45c-.38 0-.64-.27-.64-.64v-27.63c0-.32.27-.64.64-.64h136.44c.32 0 .64.32.64.64v27.63zm-50.07-13.82c0 3.43-2.78 6.21-6.21 6.21s-6.21-2.78-6.21-6.21 2.78-6.21 6.21-6.21c3.42 0 6.21 2.79 6.21 6.21zm20.4 0c0 3.43-2.78 6.21-6.21 6.21s-6.21-2.78-6.21-6.21 2.78-6.21 6.21-6.21 6.21 2.79 6.21 6.21zm20.4 0c0 3.43-2.78 6.21-6.21 6.21s-6.21-2.78-6.21-6.21 2.78-6.21 6.21-6.21 6.21 2.79 6.21 6.21zm-53.22 59.44c0-3.43 2.78-6.21 6.21-6.21s6.21 2.78 6.21 6.21-2.78 6.21-6.21 6.21-6.21-2.78-6.21-6.21zm20.4 0c0-3.43 2.78-6.21 6.21-6.21s6.21 2.78 6.21 6.21-2.78 6.21-6.21 6.21-6.21-2.78-6.21-6.21zm20.4 0c0-3.43 2.78-6.21 6.21-6.21s6.21 2.78 6.21 6.21-2.78 6.21-6.21 6.21-6.21-2.78-6.21-6.21zm-440.97-354h136.44c6.27 0 11.35-5.09 11.35-11.35v-27.64c0-6.26-5.09-11.35-11.35-11.35h-4.39v-9.1h4.39c6.27 0 11.35-5.09 11.35-11.35v-27.63c0-6.21-5.09-11.35-11.35-11.35h-136.44c-6.26 0-11.35 5.14-11.35 11.35v27.63c0 6.27 5.09 11.35 11.35 11.35h4.34v9.1h-4.34c-6.26 0-11.35 5.09-11.35 11.35v27.63c0 6.27 5.09 11.36 11.35 11.36zm0-70.15c-.37 0-.64-.27-.64-.64v-27.63c0-.32.27-.64.64-.64h136.44c.38 0 .64.32.64.64v27.63c0 .37-.27.64-.64.64zm121.34 10.71v9.1h-106.29v-9.1zm-121.98 20.45c0-.32.27-.64.64-.64h136.44c.38 0 .64.32.64.64v27.63c0 .37-.27.64-.64.64h-136.44c-.37 0-.64-.27-.64-.64zm87.66-45.62c0 3.43-2.78 6.26-6.21 6.26s-6.21-2.84-6.21-6.26c0-3.43 2.78-6.21 6.21-6.21 3.42 0 6.21 2.79 6.21 6.21zm20.4 0c0 3.43-2.78 6.26-6.21 6.26s-6.21-2.84-6.21-6.26c0-3.43 2.78-6.21 6.21-6.21s6.21 2.79 6.21 6.21zm20.4 0c0 3.43-2.78 6.26-6.21 6.26s-6.21-2.84-6.21-6.26c0-3.43 2.78-6.21 6.21-6.21s6.21 2.79 6.21 6.21zm-53.22 59.44c0-3.43 2.78-6.21 6.21-6.21s6.21 2.78 6.21 6.21-2.78 6.26-6.21 6.26c-3.43.01-6.21-2.83-6.21-6.26zm20.4 0c0-3.43 2.78-6.21 6.21-6.21s6.21 2.78 6.21 6.21-2.78 6.26-6.21 6.26c-3.43.01-6.21-2.83-6.21-6.26zm20.4 0c0-3.43 2.78-6.21 6.21-6.21s6.21 2.78 6.21 6.21-2.78 6.26-6.21 6.26c-3.43.01-6.21-2.83-6.21-6.26zm11.65 331.44c-1.67-22.67-19.53-40.58-41.24-40.58-19.02 0-34.94 13.43-39.81 32.07-5.2-3.44-11.24-5.31-17.53-5.31-16.6 0-30.4 13.02-32.83 29.96-15.15.68-27.29 13.97-27.29 30.22 0 16.68 12.8 30.25 28.53 30.25h129.47c19.86 0 36.02-17.19 36.02-38.31-.01-20.86-15.78-37.89-35.32-38.3zm-.71 65.9h-129.46c-9.83 0-17.82-8.77-17.82-19.54s7.99-19.54 17.82-19.54c.97 0 1.91.11 2.84.28 1.55.27 3.15-.34 4.36-1.35 1.21-1.02 1.9-2.7 1.9-4.28 0-13.55 10.09-24.57 22.5-24.57 6.6 0 12.85 3.17 17.15 8.68 1.39 1.79 3.77 2.51 5.89 1.8 2.15-.7 3.62-2.68 3.69-4.93.52-18.11 13.96-32.3 30.61-32.3 16.91 0 30.66 14.96 30.66 33.35 0 .46-.03.92-.06 1.37l-.04.61c-.09 1.62.56 3.19 1.76 4.28 1.21 1.09 2.88 1.57 4.44 1.3 1.44-.23 2.64-.34 3.76-.34 13.96 0 25.31 12.38 25.31 27.6 0 15.2-11.35 27.58-25.31 27.58zm-96.62-39.51c-7.36 0-13.36 5.99-13.36 13.35s5.99 13.35 13.36 13.35 13.35-5.99 13.35-13.35-5.99-13.35-13.35-13.35zm0 15.99c-1.46 0-2.65-1.19-2.65-2.64s1.19-2.64 2.65-2.64c1.45 0 2.64 1.19 2.64 2.64s-1.19 2.64-2.64 2.64zm38.5-15.99c-7.36 0-13.36 5.99-13.36 13.35s5.99 13.35 13.36 13.35 13.35-5.99 13.35-13.35-5.99-13.35-13.35-13.35zm0 15.99c-1.46 0-2.65-1.19-2.65-2.64s1.19-2.64 2.65-2.64c1.45 0 2.64 1.19 2.64 2.64s-1.19 2.64-2.64 2.64zm38.5-15.99c-7.36 0-13.35 5.99-13.35 13.35s5.99 13.35 13.35 13.35 13.36-5.99 13.36-13.35-6-13.35-13.36-13.35zm0 15.99c-1.45 0-2.64-1.19-2.64-2.64s1.19-2.64 2.64-2.64c1.46 0 2.65 1.19 2.65 2.64s-1.19 2.64-2.65 2.64zm206.14-344.93h129.47c19.86 0 36.02-17.18 36.02-38.31 0-20.87-15.77-37.89-35.3-38.3-1.67-22.67-19.54-40.58-41.25-40.58-19.02 0-34.94 13.43-39.81 32.07-5.2-3.44-11.24-5.31-17.53-5.31-16.6 0-30.4 13.02-32.83 29.96-15.16.68-27.3 13.98-27.3 30.23.01 16.67 12.8 30.24 28.53 30.24zm0-49.79c.97 0 1.92.12 2.85.28 1.56.27 3.15-.34 4.36-1.36s1.9-2.7 1.9-4.28c0-13.55 10.09-24.57 22.5-24.57 6.6 0 12.85 3.17 17.15 8.68 1.39 1.79 3.76 2.52 5.89 1.8 2.15-.7 3.62-2.68 3.69-4.93.52-18.11 13.96-32.3 30.61-32.3 16.91 0 30.67 14.96 30.67 33.35 0 .44-.03.87-.06 1.3l-.04.68c-.09 1.62.56 3.19 1.76 4.28 1.21 1.09 2.87 1.57 4.44 1.3 1.44-.23 2.64-.34 3.76-.34 13.96 0 25.31 12.38 25.31 27.6s-11.35 27.6-25.31 27.6h-129.48c-9.83 0-17.82-8.77-17.82-19.54.01-10.79 8-19.55 17.82-19.55zm32.84 26.27c7.36 0 13.35-5.99 13.35-13.35s-5.99-13.35-13.35-13.35-13.35 5.99-13.35 13.35 5.99 13.35 13.35 13.35zm0-15.99c1.45 0 2.64 1.19 2.64 2.64 0 1.46-1.19 2.64-2.64 2.64-1.46 0-2.65-1.18-2.65-2.64.01-1.46 1.2-2.64 2.65-2.64zm38.51 15.99c7.36 0 13.35-5.99 13.35-13.35s-5.99-13.35-13.35-13.35-13.36 5.99-13.36 13.35 5.99 13.35 13.36 13.35zm0-15.99c1.45 0 2.64 1.19 2.64 2.64 0 1.46-1.19 2.64-2.64 2.64-1.46 0-2.65-1.18-2.65-2.64s1.19-2.64 2.65-2.64zm38.5 15.99c7.36 0 13.36-5.99 13.36-13.35s-5.99-13.35-13.36-13.35c-7.36 0-13.35 5.99-13.35 13.35s5.98 13.35 13.35 13.35zm0-15.99c1.46 0 2.65 1.19 2.65 2.64 0 1.46-1.19 2.64-2.65 2.64-1.45 0-2.64-1.18-2.64-2.64-.01-1.46 1.18-2.64 2.64-2.64zm-335.12 157.21c0 2.96-2.4 5.35-5.35 5.35h-33.76c-2.96 0-5.35-2.4-5.35-5.35v-97.71c0-2.96 2.4-5.35 5.35-5.35 2.96 0 5.35 2.4 5.35 5.35v92.35h28.4c2.96.01 5.36 2.41 5.36 5.36zm0 22.86c0 2.96-2.4 5.35-5.35 5.35h-28.4v92.35c0 2.96-2.4 5.35-5.35 5.35-2.96 0-5.35-2.4-5.35-5.35v-97.71c0-2.96 2.4-5.35 5.35-5.35h33.75c2.95.01 5.35 2.41 5.35 5.36zm310.85-22.86c0 2.96-2.39 5.35-5.35 5.35h-33.75c-2.96 0-5.35-2.4-5.35-5.35s2.39-5.35 5.35-5.35h28.4v-92.36c0-2.96 2.4-5.35 5.35-5.35 2.96 0 5.35 2.4 5.35 5.35zm-10.71 120.57v-92.35h-28.4c-2.96 0-5.35-2.4-5.35-5.35s2.39-5.35 5.35-5.35h33.75c2.96 0 5.35 2.4 5.35 5.35v97.71c0 2.96-2.39 5.35-5.35 5.35-2.95 0-5.35-2.4-5.35-5.36z"/></svg>