<svg id="Layer_2" viewBox="0 0 64 64" xmlns="http://www.w3.org/2000/svg" data-name="Layer 2"><path d="m58.09 24.62c0-.69-.29-1.34-.79-1.82-.06-.11-.15-.18-.25-.22-.44-.32-.95-.5-1.5-.5h-20.37c-.56 0-1.08.18-1.52.52-.08.04-.14.09-.19.17-.52.48-.83 1.14-.83 1.85v9.16c0 .77.34 1.49.94 1.98.01 0 .02.01.03.02.01 0 .02.02.03.02.44.33.98.51 1.53.51h7.87c.28 0 .51-.23.51-.51s-.23-.51-.51-.51h-7.87s-.05-.01-.08-.01l10.26-5.51 10.26 5.51s-.05.01-.08.01h-7.85c-.28 0-.51.23-.51.51s.23.51.51.51h7.85c.54 0 1.08-.18 1.52-.51.02-.01.04-.03.07-.04 0 0 .01 0 .02-.01.6-.49.94-1.21.94-1.98v-9.16zm-2.54-1.52s.07.02.1.02l-10.28 5.52-10.28-5.52s.06-.02.1-.02h20.37zm-21.56 11.64c-.22-.27-.34-.61-.34-.96v-9.16c0-.35.12-.68.33-.94l10.31 5.53zm22.75-11.05c.21.27.33.59.33.94v9.16c0 .35-.12.69-.33.95l-10.3-5.52z"/><path d="m8.01 36.28s.03.02.05.02h.04c.12.02.23.04.36.04h16.99c.12 0 .24-.02.36-.04h.03c.02 0 .03-.02.05-.02 1.19-.21 2.1-1.25 2.1-2.5v-9.16c0-1.4-1.14-2.54-2.54-2.54h-17c-1.4 0-2.54 1.14-2.54 2.54v9.16c0 1.25.91 2.28 2.1 2.5zm12.6-.97-1.91-2.51 1.81-2.37c.1-.13.2-.22.4-.2.16 0 .3.08.4.2l3.55 4.88h-4.24zm-2.91-2.15s0 0 0 .01l1.63 2.14h-10.29l4.64-6.38c.09-.13.24-.2.4-.2.15-.02.3.07.4.2l3.22 4.24zm-10.77-8.53c0-.84.68-1.52 1.52-1.52h16.99c.84 0 1.52.68 1.52 1.52v9.16c0 .63-.39 1.18-.94 1.41l-3.9-5.36c-.28-.39-.72-.62-1.21-.62-.52.01-.93.21-1.22.6l-1.64 2.15-2.78-3.65c-.29-.38-.73-.6-1.2-.6h-.02c-.48 0-.92.23-1.21.62l-4.99 6.86c-.55-.23-.94-.77-.94-1.41v-9.16z"/><path d="m46.68 40.54c-.84 0-1.52.68-1.52 1.52v9.89c0 .84.68 1.52 1.52 1.52h9.89c.84 0 1.52-.68 1.52-1.52v-9.89c0-.84-.68-1.52-1.52-1.52zm10.4 11.21-4.74-4.74 4.74-4.74v9.47zm-10.9-9.47 4.73 4.73-4.73 4.73zm5.45 5.45 4.73 4.73h-9.46zm0-1.44-4.73-4.73h9.47l-4.73 4.73z"/><path d="m8.43 45.57h29.09c1.39 0 2.52-1.13 2.52-2.52s-1.13-2.52-2.52-2.52h-29.09c-1.39 0-2.52 1.13-2.52 2.52s1.13 2.52 2.52 2.52zm0-4.02h29.09c.83 0 1.5.67 1.5 1.5s-.67 1.5-1.5 1.5h-29.09c-.83 0-1.5-.67-1.5-1.5s.67-1.5 1.5-1.5z"/><path d="m8.43 53.48h29.08c1.39 0 2.52-1.13 2.52-2.52s-1.13-2.51-2.52-2.51h-.84c-.28 0-.51.23-.51.51s.23.51.51.51h.84c.83 0 1.5.67 1.5 1.49s-.67 1.5-1.5 1.5h-29.08c-.83 0-1.5-.67-1.5-1.5s.67-1.49 1.5-1.49h23.57c.28 0 .51-.23.51-.51s-.23-.51-.51-.51h-23.57c-1.39 0-2.52 1.13-2.52 2.51s1.13 2.52 2.52 2.52z"/><path d="m49.94 11.38c0-1.39-1.13-2.52-2.52-2.52s-2.52 1.13-2.52 2.52 1.13 2.52 2.52 2.52 2.52-1.13 2.52-2.52zm-4.02 0c0-.83.67-1.5 1.5-1.5s1.5.67 1.5 1.5-.67 1.5-1.5 1.5-1.5-.67-1.5-1.5z"/><path d="m58.09 11.38c0-1.39-1.13-2.52-2.52-2.52s-2.52 1.13-2.52 2.52 1.13 2.52 2.52 2.52 2.52-1.13 2.52-2.52zm-4.02 0c0-.83.67-1.5 1.5-1.5s1.5.67 1.5 1.5-.67 1.5-1.5 1.5-1.5-.67-1.5-1.5z"/><path d="m60.48 5.09h-56.96c-1.39 0-2.52 1.13-2.52 2.52v12.77c0 .28.23.51.51.51s.51-.23.51-.51v-2.71h36.63c.28 0 .51-.23.51-.51s-.23-.51-.51-.51h-36.63v-9.04c0-.83.67-1.5 1.5-1.5h56.96c.83 0 1.5.67 1.5 1.5v9.04h-18.67c-.28 0-.51.23-.51.51s.23.51.51.51h18.67v38.73c0 .83-.67 1.5-1.5 1.5h-29.38c-.28 0-.51.23-.51.51s.23.51.51.51h29.38c1.39 0 2.52-1.13 2.52-2.52v-48.79c0-1.39-1.13-2.52-2.52-2.52z"/><path d="m1.51 28.63c.28 0 .51-.23.51-.51v-3.09c0-.28-.23-.51-.51-.51s-.51.23-.51.51v3.09c0 .28.23.51.51.51z"/><path d="m3.52 58.91h22.92c.28 0 .51-.23.51-.51s-.23-.51-.51-.51h-22.92c-.83 0-1.5-.67-1.5-1.5v-23.61c0-.28-.23-.51-.51-.51s-.51.23-.51.51v23.61c0 1.39 1.13 2.52 2.52 2.52z"/></svg>