<svg id="&#x421;&#x43B;&#x43E;&#x439;_1" enable-background="new 0 0 4000 4000" viewBox="0 0 4000 4000" xmlns="http://www.w3.org/2000/svg"><g><path d="m2835.105 1773.348c-33.934-197.34-137.84-377.043-292.578-506.051-17.609-14.684-42.52-16.816-62.371-5.359l-124.961 72.16c-8.777-5.359-17.774-10.555-27.07-15.641v-144.785c0-22.914-14.274-43.395-35.766-51.324-187.387-69.07-397.332-69.07-584.719 0-21.492 7.93-35.766 28.41-35.766 51.324v144.758c-9.269 5.086-18.266 10.281-27.07 15.641l-124.961-72.16c-19.852-11.457-44.762-9.324-62.371 5.359-154.738 129.008-258.645 308.711-292.578 506.051-3.883 22.558 6.699 45.145 26.523 56.602l125.18 72.352c-.137 5.141-.192 10.363-.192 15.695s.055 10.555.192 15.641l-125.18 72.352c-19.824 11.457-30.406 34.043-26.523 56.601 33.933 197.34 137.84 377.043 292.578 506.051 17.609 14.684 42.52 16.816 62.371 5.359l124.988-72.16c8.777 5.359 17.773 10.555 27.043 15.641v144.758c0 22.914 14.274 43.395 35.793 51.324 93.68 34.563 192.063 52.09 292.332 52.09s198.652-17.527 292.332-52.035c21.492-7.93 35.793-28.41 35.793-51.324v-144.758c9.27-5.086 18.266-10.281 27.043-15.641l124.988 72.16c19.851 11.457 44.762 9.324 62.371-5.359 154.738-129.008 258.644-308.711 292.578-506.051 3.883-22.558-6.699-45.145-26.523-56.602l-125.18-72.352c.137-5.141.191-10.363.191-15.695s-.055-10.555-.191-15.641l125.18-72.352c19.825-11.485 30.407-34.071 26.524-56.629zm-235.484 51.078c-18.43 10.637-29.012 31.008-27.098 52.227 1.121 12.769 1.695 26.277 1.695 41.316s-.574 28.547-1.695 41.344c-1.887 21.192 8.668 41.59 27.098 52.227l120.312 69.535c-32.73 144.949-109.238 277.156-219.051 378.629l-120.012-69.289c-18.238-10.527-40.961-9.652-58.352 2.297-22.285 15.34-46.211 29.203-73.172 42.438-18.73 9.188-30.625 28.246-30.625 49.109v138.852c-141.367 43.996-296.133 43.996-437.5 0v-138.852c0-20.863-11.894-39.922-30.625-49.109-26.961-13.207-50.887-27.098-73.172-42.438-17.391-11.977-40.086-12.852-58.352-2.297l-120.012 69.289c-109.812-101.472-186.293-233.679-219.051-378.629l120.313-69.535c18.43-10.637 29.012-31.008 27.098-52.227-1.066-12.797-1.64-26.305-1.64-41.344s.574-28.547 1.695-41.344c1.887-21.192-8.668-41.59-27.098-52.227l-120.313-69.535c32.73-144.949 109.238-277.156 219.051-378.629l120.012 69.289c18.266 10.527 40.988 9.652 58.352-2.297 22.258-15.34 46.184-29.203 73.172-42.438 18.703-9.187 30.598-28.246 30.598-49.109v-138.852c141.34-43.996 296.16-43.996 437.5 0v138.852c0 20.863 11.895 39.922 30.625 49.109 26.988 13.234 50.914 27.098 73.172 42.438 17.391 11.977 40.086 12.852 58.352 2.297l120.012-69.289c109.812 101.473 186.293 233.68 219.051 378.629z"/><path d="m674.977 2507.992c-27.07 13.398-38.145 46.184-24.746 73.281 58.981 119.055 133.41 230.07 221.238 329.848 10.828 12.277 25.895 18.566 41.07 18.566 12.852 0 25.73-4.484 36.121-13.644 22.668-19.961 24.883-54.524 4.922-77.191-81.512-92.641-150.582-195.617-205.324-306.141-13.399-27.07-46.211-38.145-73.281-24.719z"/><path d="m1286.274 2919.516c9.652 6.863 20.727 10.172 31.719 10.172 17.063 0 33.879-7.985 44.57-22.914 17.527-24.582 11.84-58.734-12.77-76.289-180.797-129.008-318.227-306.551-397.414-513.434-10.801-28.219-42.41-42.301-70.629-31.527-28.219 10.801-42.328 42.41-31.527 70.629 86.898 227.035 237.699 421.831 436.051 563.363z"/><path d="m2000 1617.188c-165.84 0-300.781 134.941-300.781 300.781s134.941 300.781 300.781 300.781 300.781-134.941 300.781-300.781-134.941-300.781-300.781-300.781zm0 492.187c-105.547 0-191.406-85.859-191.406-191.406s85.859-191.406 191.406-191.406 191.406 85.859 191.406 191.406-85.859 191.406-191.406 191.406z"/><path d="m3732.281 3190.136-328.125-300.781c-15.996-14.656-39.129-18.457-58.98-9.734-19.852 8.75-32.676 28.383-32.676 50.066v109.375h-136.719c-30.188 0-54.688 24.5-54.688 54.688s24.5 54.688 54.688 54.688h191.406c30.188 0 54.688-24.5 54.688-54.688v-39.758l192.5 176.476-192.5 176.477v-39.757c0-30.188-24.5-54.688-54.688-54.688h-628.906c-30.188 0-54.688 24.5-54.688 54.688s24.5 54.688 54.688 54.688h574.219v109.375c0 21.684 12.824 41.316 32.676 50.066 7.082 3.09 14.574 4.621 22.011 4.621 13.426 0 26.688-4.949 36.969-14.355l328.125-300.781c11.293-10.363 17.719-24.992 17.719-40.332s-6.426-29.97-17.719-40.334z"/><path d="m647.168 2283.062c10.363 11.293 24.992 17.719 40.332 17.719s29.969-6.426 40.332-17.719l300.781-328.125c14.656-15.996 18.457-39.129 9.734-58.98-8.75-19.852-28.383-32.676-50.066-32.676h-107.98c2.543-51.652 8.559-103.195 18.184-153.918 99.886-528.718 563.144-912.488 1101.515-912.488 461.535 0 882.547 290.145 1047.594 721.984 10.773 28.191 42.383 42.328 70.602 31.555s42.328-42.383 31.555-70.629c-181.126-473.867-643.181-792.285-1149.751-792.285-590.898 0-1099.355 421.203-1209.004 1001.547-14.246 75.277-21.465 152.305-21.465 228.922 0 30.187 24.5 54.688 54.688 54.688h39.758l-176.477 192.5-176.477-192.5h39.758c30.188 0 54.688-24.5 54.688-54.688 0-44.598 2.133-89.113 6.316-132.399 66.91-707.738 676.703-1262.132 1388.215-1262.132 534.488 0 1014.098 298.785 1251.715 779.734 13.371 27.07 46.156 38.172 73.254 24.801 27.071-13.371 38.172-46.156 24.801-73.254-256.157-518.547-773.364-840.657-1349.77-840.657-376.086 0-736.34 140.164-1014.398 394.68-276.254 252.848-447.699 596.121-482.672 966.41-2.816 28.93-4.457 58.461-5.523 88.129h-110.688c-21.684 0-41.316 12.824-50.066 32.648-8.723 19.879-4.922 42.984 9.734 58.98z"/><path d="m2000 3421.875c376.086 0 736.34-140.164 1014.398-394.68 276.281-252.875 447.699-596.121 482.699-966.41 2.816-28.93 4.457-58.461 5.523-88.129h110.66c21.684 0 41.316-12.824 50.066-32.648 8.723-19.879 4.922-42.984-9.734-58.98l-300.781-328.125c-20.727-22.586-59.91-22.586-80.637 0l-300.781 328.125c-14.656 15.996-18.457 39.129-9.734 58.98 8.723 19.824 28.356 32.649 50.04 32.649h107.981c-2.543 51.652-8.559 103.195-18.184 153.918-99.887 528.719-563.145 912.488-1101.516 912.488h-1585.938c-90.48 0-164.062 73.582-164.062 164.062v54.688c0 90.481 73.582 164.062 164.062 164.062zm-1640.625-164.063v-54.688c0-30.16 24.527-54.688 54.688-54.688h1585.937c590.898 0 1099.355-421.203 1209.004-1001.547 14.246-75.277 21.465-152.305 21.465-228.922 0-30.187-24.5-54.688-54.688-54.688h-39.758l176.476-192.5 176.476 192.5h-39.758c-30.188 0-54.688 24.5-54.688 54.688 0 44.598-2.133 89.113-6.316 132.398-66.908 707.74-676.701 1262.135-1388.213 1262.135h-1585.938c-30.16 0-54.687-24.527-54.687-54.688z"/></g></svg>