<svg id="Image" height="512" viewBox="0 0 64 64" width="512" xmlns="http://www.w3.org/2000/svg"><g><g><g><path d="m59.265 56.368h-5.92c-1.588 0-2.88-1.308-2.88-2.917v-6.591c0-.557.451-1.008 1.008-1.008s1.008.451 1.008 1.008v6.591c0 .497.388.901.864.901h5.92c.478 0 .865-.404.865-.901v-17.816c0-.497-.388-.901-.865-.901h-5.92c-.477 0-.864.404-.864.901v6.591c0 .557-.451 1.008-1.008 1.008s-1.008-.451-1.008-1.008v-6.591c0-1.608 1.292-2.917 2.88-2.917h5.92c1.589 0 2.881 1.308 2.881 2.917v17.817c0 1.608-1.292 2.916-2.881 2.916z"/></g></g><g><g><path d="m25.079 26.98c-.557 0-1.015-.451-1.015-1.008 0-.454.296-.838.707-.964l35.86-15.283c.311-.132.669-.1.951.086.282.187.452.502.452.841v9.69c0 .557-.451 1.008-1.008 1.008s-1.008-.451-1.008-1.008v-8.165l-34.543 14.722c-.125.054-.26.081-.396.081z"/></g></g><g><g><path d="m3.827 36.178c-.469 0-.933-.134-1.294-.391-.427-.304-.671-.755-.671-1.239l-.005-8.576c0-.557.451-1.008 1.007-1.008.556 0 1.007.451 1.008 1.007l.005 8.188c.023-.003.047-.008.069-.016l1.385-.479c.527-.181 1.1.097 1.282.623s-.097 1.1-.623 1.282l-1.384.479c-.25.088-.516.13-.779.13z"/></g></g><g><g><path d="m25.078 26.98c-.116 0-.233-.02-.348-.063-11.773-4.333-21.354-.073-21.449-.029-.507.229-1.104.007-1.335-.499s-.008-1.104.499-1.335c.42-.192 10.44-4.644 22.981-.029.522.192.79.771.598 1.294-.15.409-.536.661-.946.661z"/></g></g><g><g><path d="m2.863 26.98c-.392 0-.764-.23-.928-.613-.218-.512.02-1.104.532-1.322l35.948-15.321c.397-.181 10.414-4.634 22.959-.019.522.192.79.771.598 1.294-.191.521-.771.792-1.293.598-11.736-4.319-21.355-.072-21.451-.028l-35.97 15.33c-.129.055-.263.081-.395.081z"/></g></g><g><g><path d="m17.06 42.267c-4.978 0-9.027-4.278-9.027-9.536 0-2.168.708-4.291 1.992-5.977.337-.443.968-.529 1.413-.191.443.337.528.97.191 1.413-1.019 1.337-1.58 3.026-1.58 4.755 0 4.147 3.145 7.521 7.011 7.521 2.099 0 4.07-.998 5.409-2.736.339-.442.973-.524 1.413-.184.441.339.523.972.184 1.413-1.724 2.238-4.277 3.522-7.006 3.522z"/></g></g><g><g><path d="m27.099 40.061c-.395 0-.77-.234-.931-.622-.214-.514.03-1.104.544-1.317l32.283-13.403c.622-.258 1.023-.864 1.023-1.542v-1.309l-33.195 14.142c-.639.274-1.394.21-1.966-.167-.5-.33-.786-.843-.786-1.41l-.007-8.459 2.016-.004.007 8.135 34.544-14.689c.311-.132.669-.1.951.086.282.187.452.502.452.841v2.834c0 1.497-.89 2.833-2.266 3.404l-32.283 13.402c-.127.053-.257.077-.386.078z"/></g></g><g><g><path d="m17.06 37.395c-2.452 0-4.446-2.092-4.446-4.664 0-2.571 1.994-4.664 4.446-4.664 2.451 0 4.445 2.092 4.445 4.664 0 2.571-1.994 4.664-4.445 4.664zm0-7.312c-1.34 0-2.43 1.188-2.43 2.648s1.09 2.648 2.43 2.648 2.43-1.188 2.43-2.648c-.001-1.46-1.091-2.648-2.43-2.648z"/></g></g><g><g><path d="m36.975 45.551c-.557 0-1.008-.451-1.008-1.008v-9.591c0-.557.451-1.008 1.008-1.008s1.008.451 1.008 1.008v9.591c-.001.557-.452 1.008-1.008 1.008z"/></g></g><g><g><path d="m54.059 47.868h-14.783c-1.825 0-3.31-1.492-3.31-3.325v-2.317c0-.557.451-1.008 1.008-1.008s1.008.451 1.008 1.008v2.317c0 .722.58 1.31 1.294 1.31h14.782c.714 0 1.295-.587 1.295-1.31 0-.722-.581-1.309-1.295-1.309h-12.384c-.557 0-1.008-.451-1.008-1.008v-9.225c0-.557.451-1.008 1.008-1.008s1.008.451 1.008 1.008v8.217h11.377c1.825 0 3.311 1.492 3.311 3.325-.001 1.833-1.486 3.325-3.311 3.325z"/></g></g></g></svg>