<svg version="1.1" id="Capa_1" xmlns="http://www.w3.org/2000/svg" xmlns:xlink="http://www.w3.org/1999/xlink" x="0px" y="0px" viewBox="0 0 512 512" style="enable-background:new 0 0 512 512;" xml:space="preserve">
<g>
	<g>
		
			<line style="fill:none;stroke:#000000;stroke-width:15;stroke-linecap:round;stroke-linejoin:round;stroke-miterlimit:10;" x1="152.99" y1="364.76" x2="152.99" y2="264.59"/>
		<path style="fill:none;stroke:#000000;stroke-width:15;stroke-linecap:round;stroke-linejoin:round;stroke-miterlimit:10;" d="&#10;&#9;&#9;&#9;M456.04,356.62v62.52c0,8.93-7.24,16.16-16.16,16.16h-34.35v53.64c0,3.85-3.12,6.97-6.97,6.97c-1.99,0-3.89-0.85-5.21-2.34&#10;&#9;&#9;&#9;l-51.8-58.27h-172.4c-8.92,0-16.16-7.23-16.16-16.16v-19.28"/>
		<path style="fill:none;stroke:#000000;stroke-width:15;stroke-linecap:round;stroke-linejoin:round;stroke-miterlimit:10;" d="&#10;&#9;&#9;&#9;M7.5,89.55v158.87c0,8.93,7.23,16.17,16.16,16.17h34.35v53.64c0,3.84,3.12,6.97,6.97,6.97c1.99,0,3.89-0.85,5.21-2.35l51.79-58.26&#10;&#9;&#9;&#9;h156.24"/>
		<path style="fill:none;stroke:#000000;stroke-width:15;stroke-linecap:round;stroke-linejoin:round;stroke-miterlimit:10;" d="&#10;&#9;&#9;&#9;M7.5,54.45v-22.2c0-8.93,7.23-16.16,16.16-16.16h266.69c11.16,0,20.2,9.04,20.2,20.2V185.4"/>
		
			<line style="fill:none;stroke:#000000;stroke-width:15;stroke-linecap:round;stroke-linejoin:round;stroke-miterlimit:10;" x1="53.967" y1="198.926" x2="264.081" y2="198.926"/>
		<path style="fill:none;stroke:#000000;stroke-width:15;stroke-linecap:round;stroke-linejoin:round;stroke-miterlimit:10;" d="&#10;&#9;&#9;&#9;M78.211,198.926v-92.935c0-4.463,3.618-8.081,8.081-8.081h16.163c4.463,0,8.081,3.618,8.081,8.081v92.935"/>
		<path style="fill:none;stroke:#000000;stroke-width:15;stroke-linecap:round;stroke-linejoin:round;stroke-miterlimit:10;" d="&#10;&#9;&#9;&#9;M142.862,198.926v-62.63c0-4.463,3.618-8.081,8.081-8.081h16.163c4.463,0,8.081,3.618,8.081,8.081v62.63"/>
		<path style="fill:none;stroke:#000000;stroke-width:15;stroke-linecap:round;stroke-linejoin:round;stroke-miterlimit:10;" d="&#10;&#9;&#9;&#9;M207.512,198.926V89.828c0-4.463,3.618-8.081,8.081-8.081h16.163c4.463,0,8.081,3.618,8.081,8.081v109.098"/>
		<path style="fill:none;stroke:#000000;stroke-width:15;stroke-linecap:round;stroke-linejoin:round;stroke-miterlimit:10;" d="&#10;&#9;&#9;&#9;M497.728,242.76l-17.168-3.577c-1.97-6.931-4.732-13.528-8.171-19.694l9.619-14.681c2.208-3.37,1.749-7.828-1.1-10.677&#10;&#9;&#9;&#9;l-19.09-19.09c-2.849-2.849-7.306-3.309-10.677-1.1l-14.681,9.619c-6.167-3.44-12.763-6.201-19.694-8.171l-3.577-17.168&#10;&#9;&#9;&#9;c-0.822-3.945-4.298-6.772-8.328-6.772h-26.998c-4.029,0-7.506,2.827-8.328,6.772l-3.577,17.168&#10;&#9;&#9;&#9;c-6.931,1.97-13.528,4.732-19.694,8.171l-14.681-9.619c-3.37-2.208-7.828-1.749-10.677,1.1l-19.09,19.09&#10;&#9;&#9;&#9;c-2.849,2.849-3.309,7.307-1.1,10.677l9.619,14.681c-3.44,6.167-6.201,12.764-8.171,19.694l-17.168,3.577&#10;&#9;&#9;&#9;c-3.945,0.822-6.772,4.298-6.772,8.328v26.998c0,4.029,2.827,7.506,6.772,8.328l17.168,3.577&#10;&#9;&#9;&#9;c1.97,6.931,4.732,13.528,8.171,19.694l-9.619,14.681c-2.208,3.37-1.749,7.828,1.1,10.677l19.09,19.09&#10;&#9;&#9;&#9;c2.849,2.849,7.307,3.309,10.677,1.1l14.681-9.619c6.167,3.44,12.763,6.201,19.694,8.171l3.577,17.168&#10;&#9;&#9;&#9;c0.822,3.945,4.298,6.772,8.328,6.772h26.998c4.029,0,7.506-2.827,8.328-6.772l3.577-17.168c6.931-1.97,13.528-4.732,19.694-8.171&#10;&#9;&#9;&#9;l14.681,9.619c3.37,2.208,7.828,1.749,10.677-1.1l19.09-19.09c2.849-2.849,3.309-7.307,1.1-10.677l-9.619-14.681&#10;&#9;&#9;&#9;c3.44-6.167,6.201-12.763,8.171-19.694l17.168-3.577c3.945-0.822,6.772-4.298,6.772-8.328v-26.998&#10;&#9;&#9;&#9;C504.5,247.058,501.673,243.581,497.728,242.76z"/>
		<path style="fill:none;stroke:#000000;stroke-width:15;stroke-linecap:round;stroke-linejoin:round;stroke-miterlimit:10;" d="&#10;&#9;&#9;&#9;M363.26,210.88c8.4-4.41,17.96-6.9,28.1-6.9c33.48,0,60.61,27.13,60.61,60.61c0,33.47-27.13,60.61-60.61,60.61&#10;&#9;&#9;&#9;c-33.47,0-60.61-27.14-60.61-60.61c0-10.66,2.75-20.68,7.59-29.38"/>
		
			<polyline style="fill:none;stroke:#000000;stroke-width:15;stroke-linecap:round;stroke-linejoin:round;stroke-miterlimit:10;" points="&#10;&#9;&#9;&#9;415.855,248.257 383.197,280.915 366.868,264.586 &#9;&#9;"/>
	</g>
</g>
<g>
</g>
<g>
</g>
<g>
</g>
<g>
</g>
<g>
</g>
<g>
</g>
<g>
</g>
<g>
</g>
<g>
</g>
<g>
</g>
<g>
</g>
<g>
</g>
<g>
</g>
<g>
</g>
<g>
</g>
</svg>