<?xml version="1.0" encoding="UTF-8"?>
<svg xmlns="http://www.w3.org/2000/svg" id="Filled" viewBox="0 0 32 32" width="512" height="512"><g><path d="M30,19.5a.49971.49971,0,0,0-.5.5v.793L17.35352,8.64648a.49983.49983,0,0,0-.707,0L14,11.293,5.35352,2.64648a.49983.49983,0,0,0-.707,0l-3,3a.49983.49983,0,0,0,0,.707l7,7a.5.5,0,0,0,.707-.707L2.707,6,5,3.707l8.64648,8.64649a.49983.49983,0,0,0,.707,0L17,9.707l12.5,12.5V24.5H27.207l-7.85351-7.85352a.5.5,0,0,0-.707.707L25.793,24.5H25a.5.5,0,0,0,0,1h5a.49971.49971,0,0,0,.5-.5V20A.49971.49971,0,0,0,30,19.5Z"/><path d="M22,28.5h-.5V22a.49511.49511,0,0,0-.5-.5H17.5V15a.49511.49511,0,0,0-.5-.5H9a.49511.49511,0,0,0-.5.5v6.5H5a.49511.49511,0,0,0-.5.5v6.5H4a.5.5,0,0,0,0,1H22a.5.5,0,0,0,0-1ZM9.5,15.5h2V18a.4986.4986,0,0,0,.31.46.47743.47743,0,0,0,.54-.11l.65-.64.65.64a.46889.46889,0,0,0,.35.15.433.433,0,0,0,.19-.04A.4986.4986,0,0,0,14.5,18V15.5h2v6h-7Zm3,13h-7v-6h2V25a.4986.4986,0,0,0,.31.46.47743.47743,0,0,0,.54-.11L9,24.71l.65.64a.46889.46889,0,0,0,.35.15.433.433,0,0,0,.19-.04A.4986.4986,0,0,0,10.5,25V22.5h2Zm8,0h-7v-6h2V25a.4986.4986,0,0,0,.31.46.47743.47743,0,0,0,.54-.11l.65-.64.65.64a.46889.46889,0,0,0,.35.15.433.433,0,0,0,.19-.04A.4986.4986,0,0,0,18.5,25V22.5h2Z"/></g></svg>
