<svg id="Layer_1" enable-background="new 0 0 512 512" height="512" viewBox="0 0 512 512" width="512" xmlns="http://www.w3.org/2000/svg"><path d="m500.162 363.821-28.908-4.627c-1.596-5.018-3.617-9.892-6.042-14.572l17.173-23.719c2.305-3.183 1.956-7.569-.823-10.348l-22.276-22.276c-2.779-2.779-7.165-3.127-10.348-.823l-23.718 17.172c-4.683-2.427-9.558-4.449-14.573-6.044l-4.627-28.905c-.621-3.88-3.969-6.735-7.899-6.735h-31.502c-3.93 0-7.278 2.855-7.899 6.735l-4.627 28.905c-5.018 1.595-9.892 3.616-14.575 6.043l-23.717-17.172c-3.184-2.305-7.57-1.957-10.348.823l-22.275 22.276c-2.779 2.779-3.128 7.165-.823 10.348l17.173 23.718c-2.426 4.682-4.447 9.555-6.042 14.572l-28.908 4.628c-3.881.621-6.735 3.969-6.735 7.899v31.502c0 3.93 2.855 7.278 6.735 7.899l28.907 4.627c1.596 5.018 3.617 9.891 6.043 14.572l-17.173 23.719c-2.305 3.183-1.956 7.569.823 10.348l22.275 22.275c2.779 2.779 7.165 3.128 10.348.823l23.718-17.172c4.682 2.427 9.557 4.449 14.573 6.044l4.627 28.905c.621 3.88 3.969 6.735 7.899 6.735h31.502c3.93 0 7.278-2.855 7.899-6.735l4.627-28.908c5.017-1.595 9.891-3.616 14.573-6.042l23.718 17.173c3.183 2.304 7.569 1.956 10.348-.823l22.276-22.275c2.779-2.779 3.128-7.165.823-10.348l-17.172-23.718c2.427-4.683 4.449-9.557 6.044-14.574l28.906-4.627c3.88-.621 6.735-3.969 6.735-7.899v-31.5c0-3.93-2.855-7.278-6.735-7.899zm-9.265 32.58-27.19 4.353c-3.148.504-5.696 2.829-6.486 5.917-1.807 7.066-4.618 13.843-8.353 20.142-1.626 2.743-1.469 6.189.401 8.772l16.156 22.313-12.629 12.629-22.313-16.156c-2.583-1.871-6.03-2.028-8.771-.401-6.297 3.734-13.074 6.543-20.142 8.352-3.088.79-5.413 3.338-5.917 6.486l-4.355 27.192h-17.86l-4.353-27.19c-.504-3.148-2.829-5.696-5.917-6.486-7.067-1.807-13.843-4.617-20.14-8.353-2.742-1.627-6.19-1.47-8.773.4l-22.314 16.156-12.629-12.629 16.156-22.314c1.87-2.583 2.027-6.029.401-8.772-3.733-6.295-6.543-13.072-8.352-20.142-.79-3.088-3.338-5.413-6.486-5.917l-27.192-4.353v-17.859l27.192-4.354c3.147-.504 5.696-2.829 6.486-5.917 1.808-7.068 4.618-13.845 8.352-20.141 1.626-2.743 1.468-6.189-.401-8.772l-16.156-22.313 12.629-12.629 22.313 16.155c2.583 1.87 6.029 2.027 8.772.401 6.297-3.735 13.074-6.545 20.142-8.352 3.089-.79 5.414-3.338 5.918-6.486l4.353-27.19h17.86l4.353 27.19c.504 3.148 2.829 5.696 5.918 6.486 7.064 1.806 13.841 4.616 20.14 8.353 2.742 1.626 6.189 1.469 8.772-.401l22.313-16.156 12.629 12.629-16.156 22.314c-1.87 2.583-2.027 6.03-.401 8.772 3.733 6.293 6.542 13.07 8.352 20.141.79 3.088 3.338 5.413 6.486 5.917l27.192 4.353zm-108.529-63.477c-30.077 0-54.546 24.47-54.546 54.547s24.469 54.546 54.546 54.546 54.546-24.469 54.546-54.546-24.469-54.547-54.546-54.547zm0 93.094c-21.254 0-38.546-17.292-38.546-38.546 0-21.255 17.292-38.547 38.546-38.547s38.546 17.292 38.546 38.547c.001 21.254-17.291 38.546-38.546 38.546zm-300.127-171.582v13.459c0 9.329 5.912 17.302 14.185 20.374v7.078c0 9.288 5.861 17.23 14.077 20.331v7.121c0 11.979 9.746 21.726 21.725 21.726h17.813c11.979 0 21.725-9.746 21.725-21.726v-7.121c8.216-3.101 14.076-11.043 14.076-20.331v-7.44c7.79-3.305 13.267-11.03 13.267-20.011v-13.466c2.085-34.941 10.746-49.749 19.125-64.067 7.666-13.102 14.907-25.476 14.907-49.448 0-50.986-41.48-92.466-92.465-92.466s-92.466 41.479-92.466 92.465c0 23.972 7.241 36.347 14.907 49.448 8.378 14.319 17.04 29.128 19.124 64.074zm35.848-101.273h-11.628c-6.412 0-11.628-5.216-11.628-11.628s5.216-11.628 11.628-11.628 11.628 5.216 11.628 11.628zm29.172 93.004h-13.172v-77.004h13.172zm35.848 16v5.728c0 3.157-2.568 5.725-5.725 5.725h-73.418c-3.157 0-5.725-2.568-5.725-5.725v-5.728zm-18.991 38.904h-45.966c-3.157 0-5.726-2.568-5.726-5.726v-5.726h57.417v5.726c-.001 3.158-2.569 5.726-5.725 5.726zm-14.077 27.453h-17.813c-3.157 0-5.725-2.568-5.725-5.726v-5.727h29.264v5.727c-.001 3.158-2.569 5.726-5.726 5.726zm-9.366-264.076c42.163 0 76.465 34.302 76.465 76.466 0 19.635-5.612 29.226-12.716 41.368-7.905 13.509-17.613 30.1-20.735 63.886h-20.428v-77.004h11.628c15.234 0 27.628-12.394 27.628-27.628s-12.394-27.628-27.628-27.628-27.628 12.394-27.628 27.628v11.628h-13.172v-11.628c0-15.234-12.394-27.628-27.628-27.628s-27.628 12.394-27.628 27.628 12.394 27.628 27.628 27.628h11.628v77.004h-20.428c-3.122-33.786-12.83-50.376-20.734-63.886-7.104-12.142-12.716-21.732-12.716-41.368-.001-42.164 34.301-76.466 76.464-76.466zm22.586 88.715v-11.628c0-6.412 5.216-11.628 11.628-11.628s11.628 5.216 11.628 11.628-5.216 11.628-11.628 11.628zm-30.585-125.267v-19.896c0-4.418 3.582-8 8-8s8 3.582 8 8v19.896c0 4.418-3.582 8-8 8s-8-3.582-8-8zm-72.583 3.839c-2.209-3.827-.898-8.719 2.928-10.928 3.826-2.208 8.719-.898 10.928 2.928l9.948 17.23c2.209 3.827.898 8.719-2.928 10.928-1.26.727-2.635 1.073-3.993 1.073-2.765 0-5.454-1.435-6.936-4.001zm-22.831 63.867c-1.482 2.566-4.171 4.001-6.936 4.001-1.357 0-2.733-.346-3.993-1.073l-17.23-9.948c-3.826-2.209-5.137-7.102-2.928-10.928 2.209-3.827 7.102-5.138 10.928-2.928l17.23 9.948c3.827 2.209 5.138 7.101 2.929 10.928zm160.191-54.636 9.948-17.23c2.209-3.827 7.101-5.139 10.928-2.928 3.826 2.209 5.137 7.102 2.928 10.928l-9.948 17.23c-1.481 2.566-4.171 4.001-6.936 4.001-1.357 0-2.732-.346-3.993-1.073-3.825-2.209-5.136-7.102-2.927-10.928zm46.636 54.636c-2.209-3.827-.898-8.719 2.928-10.928l17.23-9.948c3.826-2.208 8.719-.898 10.928 2.928 2.209 3.827.898 8.719-2.928 10.928l-17.23 9.948c-1.26.727-2.635 1.073-3.993 1.073-2.764.001-5.453-1.435-6.935-4.001zm8.91 343.374-69.983-51.343c-2.431-1.783-5.658-2.048-8.348-.686s-4.385 4.121-4.385 7.136v18.462c-37.807-1.03-73.134-10.46-85.587-58.952-.814-3.172-3.48-5.527-6.728-5.945-3.25-.419-6.423 1.186-8.013 4.049-14.845 26.713-14.613 58.119.619 84.008 8.949 15.211 22.838 27.826 40.164 36.482 16.979 8.482 36.978 13.22 59.545 14.117v17.696c0 3.107 1.799 5.934 4.615 7.249 1.081.504 2.236.751 3.384.751 1.843 0 3.668-.636 5.136-1.865l69.983-58.574c1.885-1.578 2.939-3.934 2.861-6.391-.078-2.456-1.282-4.74-3.263-6.194zm-66.716 47.896v-8.41c0-4.418-3.582-8-8-8-43.658 0-77.891-15.625-93.919-42.87-8.884-15.1-11.448-32.543-7.671-49.235 8.875 18.366 22.476 31.766 40.621 39.971 20.11 9.094 42.106 10.32 60.97 10.32 4.418 0 8-3.582 8-8v-10.774l49.024 35.967zm66.235-335.298c.079 2.457 1.282 4.741 3.264 6.194l75.008 55.03c2.431 1.784 5.659 2.049 8.348.686 2.689-1.362 4.385-4.121 4.385-7.136v-20.377c40.971 1.024 79.356 11.037 92.863 63.631.814 3.172 3.48 5.527 6.728 5.945.343.044.684.065 1.023.065 2.876 0 5.567-1.554 6.99-4.114 15.811-28.452 15.565-61.898-.656-89.47-9.535-16.207-24.338-29.651-42.81-38.879-18.262-9.124-39.808-14.189-64.139-15.092v-19.518c0-3.107-1.799-5.934-4.615-7.248-2.814-1.315-6.137-.881-8.52 1.113l-75.008 62.779c-1.884 1.578-2.939 3.934-2.861 6.391zm75.004-45.907v10.244c0 4.418 3.582 8 8 8 47.002 0 83.873 16.851 101.158 46.23 9.881 16.795 12.524 36.276 7.908 54.787-9.434-20.321-24.155-35.089-43.955-44.042-21.455-9.702-44.954-11.01-65.111-11.01-4.418 0-8 3.582-8 8v12.681l-54.049-39.653z"/></svg>