<svg height="512" viewBox="0 0 60 60" width="512" xmlns="http://www.w3.org/2000/svg"><g id="Page-1" fill="none" fill-rule="evenodd"><g id="039---Positive-Interactions" fill="rgb(0,0,0)" fill-rule="nonzero" transform="translate(-1 -1)"><path id="Shape" d="m35.293 26.293-7.293 7.293-1.293-1.293c-.3923789-.3789722-1.0160848-.3735524-1.4018186.0121814s-.3911536 1.0094397-.0121814 1.4018186l2 2c.3904999.3903819 1.0235001.3903819 1.414 0l8-8c.3789722-.3923789.3735524-1.0160848-.0121814-1.4018186s-1.0094397-.3911536-1.4018186-.0121814z"/><path id="Shape" d="m47 33c-.049 0-.092 0-.139 0 .6541416-4.9086041-1.0160762-9.8417395-4.5176683-13.3433317-3.5015922-3.5015921-8.4347276-5.1718099-13.3433317-4.5176683 0-.047 0-.09 0-.139.0088959-6.53680498-4.5069632-12.20972085-10.8793082-13.66681282-6.3723451-1.45709198-12.90486482 1.68951624-15.7377135 7.58059992-2.83284868 5.8910837-1.21192508 12.9584427 3.9050217 17.0262129.016.017.039.026.056.042 1.27090443 1.0070517 2.70732067 1.785322 4.245 2.3.02.009.041.015.062.023 1.4036647.4607187 2.871659.6953143 4.349.695h.139c-.6541416 4.9086041 1.0160762 9.8417395 4.5176683 13.3433317 3.5015922 3.5015921 8.4347276 5.1718099 13.3433317 4.5176683v.139c.0021332 4.2622575 1.9492583 8.2905383 5.288 10.94.016.017.039.026.056.042 1.2709044 1.0070517 2.7073207 1.785322 4.245 2.3.02.009.041.015.062.023 2.8248349.9337639 5.8751651.9337639 8.7 0 .021-.008.042-.014.062-.023 1.5374662-.5144651 2.9735891-1.2927598 4.244-2.3.018-.016.041-.025.057-.042 4.660962-3.7016694 6.4687504-9.9475972 4.5054984-15.5665442-1.9632519-5.6189469-7.26745-9.3799569-13.2194984-9.3734558zm0 16c-1.6304754.0095844-3.1621608-.7803939-4.0996548-2.114428-.9374941-1.334034-1.161791-3.0427812-.6003452-4.573572.773913-.7765155 1.4661972-1.6303104 2.066-2.548.7879065-.499026 1.7013567-.7639751 2.634-.764 2.7614237 0 5 2.2385763 5 5s-2.2385763 5-5 5zm-44-34c.0000001-6.62741693 5.37258307-11.99999982 12-11.99999982 6.6274169 0 11.9999999 5.37258289 12 11.99999982 0 .187-.006.36-.013.53-2.112517.5485652-4.0897529 1.5254402-5.809 2.87-.5393902-.4074355-1.1362137-.7326385-1.771-.965 2.3042504-1.8661256 3.182782-4.9815864 2.1929352-7.77661743-.9898468-2.79503102-3.6333054-4.66319596-6.5984352-4.66319596s-5.60858841 1.86816494-6.59843518 4.66319596c-.98984678 2.79503103-.11131525 5.91049183 2.19293518 7.77661743-2.41135072.8873302-4.14414069 3.0226216-4.516 5.565-1.98155199-2.193472-3.07900978-5.0440117-3.08-8zm7-3c0-2.76142375 2.2385763-5 5-5s5 2.23857625 5 5c0 2.7614237-2.2385763 5-5 5-2.7600532-.0033061-4.9966939-2.2399468-5-5zm5 15c-1.012715-.0037569-2.0208273-.1364917-3-.395v-2.605c0-.5522847-.4477153-1-1-1s-1 .4477153-1 1v1.9c-.70276709-.3239366-1.37255259-.7150913-2-1.168v-.732c.00330612-2.7600532 2.2399468-4.9966939 5-5h4c.9311307-.0009033 1.8434258.2622787 2.631.759-1.9798944 2.0058149-3.3943448 4.4993876-4.1 7.228-.172.007-.345.013-.531.013zm2 4c0-7.7319865 6.2680135-14 14-14s14 6.2680135 14 14-6.2680135 14-14 14c-7.7285595-.0082673-13.9917327-6.2714405-14-14zm18 16c0-.187.006-.36.013-.53 1.7850958-.4577335 3.4769754-1.222463 5-2.26.0601596 2.0350482 1.0048405 3.9426681 2.587 5.224-2.4131907.8863118-4.1477593 3.0222872-4.52 5.566-1.981552-2.193472-3.0790098-5.0440117-3.08-8zm9 11.6v-2.6c0-.5522847-.4477153-1-1-1s-1 .4477153-1 1v1.9c-.7027671-.3239366-1.3725526-.7150913-2-1.168v-.732c.0033061-2.7600532 2.2399468-4.9966939 5-5h4c2.7600532.0033061 4.9966939 2.2399468 5 5v.727c-.6272413.4546401-1.2970337.8474733-2 1.173v-1.9c0-.5522847-.4477153-1-1-1s-1 .4477153-1 1v2.6c-1.9653284.5266622-4.0346716.5266622-6 0zm11.92-3.6c-.3722407-2.5437128-2.1068093-4.6796882-4.52-5.566 2.2986786-1.8666274 3.1741763-4.9777001 2.1863552-7.7691926s-3.6252418-4.6594543-6.5863552-4.6648074c-.4097279.0032978-.8183458.0431222-1.221.119.2788564-.6851396.5097463-1.3888359.691-2.106.171-.007.344-.013.53-.013 4.7361761-.0081352 9.0325512 2.7747575 10.9617143 7.1002354 1.9291632 4.325478 1.1289261 9.3814597-2.0417143 12.8997646z"/><path id="Shape" d="m36.707 2.293c-.3904999-.39038194-1.0235001-.39038194-1.414 0l-3 3c-.3903819.39049985-.3903819 1.02350015 0 1.414l3 3c.3923789.3789722 1.0160848.3735524 1.4018186-.01218142.3857338-.3857338.3911536-1.00943969.0121814-1.40181858l-1.244-1.244c12.6550651.78678562 22.5208016 11.271511 22.537 23.951 0 .5522847.4477153 1 1 1s1-.4477153 1-1c-.0163705-13.8176817-10.825563-25.2151176-24.623-25.963l1.33-1.33c.3903819-.39049985.3903819-1.02350015 0-1.414z"/><path id="Shape" d="m4 31c0-.5522847-.44771525-1-1-1s-1 .4477153-1 1c.01637054 13.8176817 10.825563 25.2151176 24.623 25.963l-1.33 1.33c-.2599566.2510745-.3642126.6228779-.2726972.9725073.0915155.3496295.3645604.6226744.7141899.7141899.3496294.0915154.7214328-.0127406.9725073-.2726972l3-3c.3903819-.3904999.3903819-1.0235001 0-1.414l-3-3c-.3923789-.3789722-1.0160848-.3735524-1.4018186.0121814s-.3911536 1.0094397-.0121814 1.4018186l1.244 1.244c-12.6550651-.7867856-22.52080162-11.271511-22.537-23.951z"/></g></g></svg>