<svg id="Layer_1" enable-background="new 0 0 512 512" viewBox="0 0 512 512" xmlns="http://www.w3.org/2000/svg"><path d="m148.729 335.098c0-4.418 3.582-8 8-8h17.225c4.418 0 8 3.582 8 8s-3.582 8-8 8h-17.225c-4.419 0-8-3.582-8-8zm-15.125-60.732h-43.605c-4.418 0-8 3.582-8 8s3.582 8 8 8h43.604c4.418 0 8-3.582 8-8s-3.581-8-7.999-8zm-84-52.73c-4.418 0-8 3.582-8 8s3.582 8 8 8h80.03c4.418 0 8-3.582 8-8s-3.582-8-8-8zm-33.604-36.734h35c4.418 0 8-3.582 8-8s-3.582-8-8-8h-35c-4.418 0-8 3.582-8 8s3.582 8 8 8zm488 48.874v44.447c0 3.31-2.038 6.277-5.126 7.466l-23.348 8.987c-3.344 12.457-8.295 24.397-14.758 35.597l10.162 22.881c1.343 3.024.686 6.564-1.655 8.904l-31.429 31.429c-2.34 2.341-5.879 2.998-8.904 1.654l-22.872-10.158c-11.197 6.463-23.141 11.415-35.608 14.762l-8.984 23.341c-1.188 3.089-4.156 5.126-7.466 5.126h-44.447c-3.31 0-6.277-2.038-7.466-5.126l-8.987-23.348c-12.458-3.345-24.399-8.296-35.597-14.758l-22.881 10.162c-1.166.518-2.407.732-3.628.673-.103.004-75.26.016-75.26.016-4.418 0-8-3.582-8-8s3.582-8 8-8h56.328l-17.772-17.771c-2.34-2.34-2.998-5.879-1.654-8.904l10.158-22.872c-6.462-11.196-11.414-23.142-14.761-35.608l-23.342-8.984c-3.089-1.188-5.126-4.156-5.126-7.466v-44.447c0-3.31 2.038-6.277 5.126-7.466l23.346-8.986c3.346-12.461 8.296-24.402 14.759-35.6l-10.161-22.878c-1.343-3.024-.686-6.564 1.655-8.904l17.772-17.772h-50.257c-4.418 0-8-3.582-8-8s3.582-8 8-8c0 0 69.118.011 69.21.014 1.214-.055 2.448.16 3.607.675l22.881 10.163c11.198-6.463 23.139-11.414 35.596-14.758l8.988-23.349c1.189-3.088 4.156-5.126 7.466-5.126h44.446c3.31 0 6.277 2.038 7.466 5.126l8.987 23.349c12.458 3.345 24.398 8.295 35.597 14.758l22.881-10.162c3.024-1.345 6.564-.686 8.904 1.654l31.429 31.428c2.34 2.34 2.998 5.879 1.655 8.904l-10.159 22.873c6.464 11.199 11.415 23.143 14.762 35.608l23.341 8.984c3.088 1.185 5.126 4.153 5.126 7.462zm-16 5.493-22.079-8.499c-2.462-.947-4.298-3.048-4.909-5.614-3.255-13.68-8.653-26.702-16.045-38.705-1.383-2.247-1.57-5.031-.5-7.442l9.61-21.638-23.661-23.66-21.646 9.614c-2.411 1.069-5.195.883-7.441-.5-12.005-7.392-25.024-12.789-38.695-16.042-2.566-.611-4.667-2.447-5.614-4.909l-8.501-22.086h-33.46l-8.502 22.087c-.947 2.461-3.048 4.298-5.614 4.909-13.671 3.253-26.69 8.65-38.694 16.042-2.246 1.383-5.03 1.569-7.441.5l-21.646-9.614-23.66 23.661 9.612 21.644c1.071 2.411.884 5.195-.5 7.442-7.392 12.003-12.789 25.023-16.043 38.698-.611 2.566-2.447 4.667-4.909 5.614l-22.084 8.5v33.461l22.08 8.499c2.462.947 4.298 3.047 4.909 5.614 3.256 13.683 8.655 26.706 16.045 38.705 1.384 2.247 1.571 5.031.5 7.442l-9.61 21.638 23.661 23.661 21.646-9.614c2.41-1.071 5.195-.884 7.441.5 12.004 7.391 25.022 12.788 38.695 16.042 2.566.611 4.667 2.447 5.614 4.909l8.501 22.086h33.461l8.499-22.08c.947-2.462 3.048-4.298 5.614-4.909 13.682-3.255 26.704-8.654 38.704-16.045 2.246-1.384 5.031-1.571 7.442-.5l21.638 9.61 23.661-23.661-9.614-21.646c-1.07-2.411-.884-5.195.499-7.441 7.392-12.006 12.79-25.025 16.042-38.695.611-2.566 2.447-4.667 4.909-5.614l22.085-8.503zm-58.396 16.731c0 53.936-43.88 97.815-97.816 97.815s-97.815-43.88-97.815-97.815c0-53.936 43.88-97.816 97.815-97.816 53.936 0 97.816 43.88 97.816 97.816zm-16 0c0-45.113-36.703-81.816-81.816-81.816s-81.815 36.703-81.815 81.816 36.702 81.815 81.815 81.815c45.114.001 81.816-36.701 81.816-81.815zm-362.462-123.829h70c4.418 0 8-3.582 8-8s-3.582-8-8-8h-70c-4.418 0-8 3.582-8 8s3.582 8 8 8zm60.1 247.658h-45.165c-4.418 0-8 3.582-8 8s3.582 8 8 8h45.166c4.418 0 8-3.582 8-8s-3.582-8-8.001-8zm66.616-202.927c0-4.418-3.582-8-8-8h-73.907c-4.418 0-8 3.582-8 8s3.582 8 8 8h73.907c4.418 0 8-3.581 8-8zm-120.798 105.464c0-4.418-3.582-8-8-8h-32.272c-4.418 0-8 3.582-8 8s3.582 8 8 8h32.272c4.418 0 8-3.582 8-8zm62.674 44.732h-85.605c-4.418 0-8 3.582-8 8s3.582 8 8 8h85.604c4.418 0 8-3.582 8-8s-3.581-8-7.999-8zm282.058-71.098c0 38.6-31.404 70.004-70.004 70.004s-70.004-31.404-70.004-70.004 31.404-70.004 70.004-70.004 70.004 31.404 70.004 70.004zm-16 0c0-29.778-24.226-54.004-54.004-54.004s-54.004 24.226-54.004 54.004 24.226 54.004 54.004 54.004 54.004-24.226 54.004-54.004zm-23.345 8.464-22.659-13.082v-32.219c0-4.418-3.582-8-8-8s-8 3.582-8 8v36.837c0 2.858 1.525 5.499 4 6.928l26.659 15.392c1.26.728 2.635 1.073 3.993 1.073 2.765 0 5.454-1.435 6.936-4.001 2.208-3.826.897-8.719-2.929-10.928z"/></svg>