<svg id="Layer_1" enable-background="new 0 0 512 512" viewBox="0 0 512 512" xmlns="http://www.w3.org/2000/svg"><path d="m256 137.24c-65.48 0-118.76 53.27-118.76 118.76 0 65.48 53.27 118.76 118.76 118.76s118.76-53.28 118.76-118.76-53.27-118.76-118.76-118.76zm-59.54 202.44c1.04-23.85 20.76-42.93 44.86-42.93h29.34c24.11 0 43.83 19.09 44.87 42.95-16.8 11.98-37.35 19.04-59.52 19.04-22.19 0-42.74-7.06-59.55-19.06zm133.41-12.35c-6.46-26.7-30.55-46.6-59.21-46.6h-29.34c-28.65 0-52.74 19.89-59.21 46.58-17.85-18.49-28.85-43.64-28.85-71.31 0-56.65 46.09-102.74 102.74-102.74s102.75 46.09 102.75 102.74c0 27.68-11.01 52.84-28.88 71.33zm-73.87-145.78c-25.14 0-45.6 20.45-45.6 45.6 0 25.13 20.45 45.57 45.6 45.57 25.13 0 45.57-20.44 45.57-45.57 0-25.15-20.44-45.6-45.57-45.6zm0 75.14c-16.31 0-29.58-13.26-29.58-29.55 0-16.31 13.27-29.58 29.58-29.58 16.29 0 29.55 13.27 29.55 29.58.01 16.3-13.25 29.55-29.55 29.55zm255.07-1.09c-.01-.04-.03-.07-.05-.11-2-4.63-6.34-7.5-11.35-7.5h-22.14c-1.75-48.82-19.81-96.17-51.07-133.73-31.12-37.38-74.1-63.75-121.25-74.45l-36.2-36.2c-3.53-3.53-8.79-4.58-13.36-2.69-4.65 1.89-7.65 6.37-7.65 11.41v22.11c-48.81 1.75-96.18 19.82-133.74 51.09-37.37 31.11-63.73 74.09-74.44 121.22l-36.2 36.22c-3.54 3.54-4.59 8.81-2.67 13.43 1.91 4.62 6.38 7.61 11.37 7.61h22.14c1.76 48.82 19.82 96.18 51.08 133.73 31.11 37.37 74.09 63.74 121.23 74.44l36.2 36.2c2.36 2.37 5.5 3.62 8.7 3.62 1.59 0 3.19-.31 4.73-.94 4.62-1.91 7.61-6.39 7.61-11.4v-22.11c48.8-1.76 96.16-19.83 133.71-51.09 37.37-31.11 63.73-74.08 74.44-121.21l36.3-36.28c3.47-3.55 4.5-8.8 2.61-13.37zm-259.22-205.24c6.71-.08 12.16-5.61 12.16-12.32v-16.78l44.58 44.58-44.58 44.6v-16.69c0-3.34-1.26-6.36-3.65-8.75-.03-.03-.06-.06-.1-.1-2.39-2.32-5.55-3.56-8.89-3.47-39.57 1.03-76.57 14.95-107 40.26-25.94 21.58-45.19 50.46-55.16 82.42l-14.66-14.66c-3.29-3.29-7.99-4.32-12.16-3.11 28.39-79.64 102.9-134.3 189.46-135.98zm132.06 218.67 25.86 25.86c-16.98 67.62-76.03 116.07-145.76 119.52v-21.79c0-5.01-2.99-9.48-7.61-11.39-4.63-1.92-9.9-.87-13.43 2.67l-25.87 25.88c-67.62-17.01-116.06-76.07-119.51-145.78h21.79c4.99 0 9.46-2.99 11.37-7.61s.87-9.89-2.67-13.43l-25.88-25.88c17-67.61 76.07-116.05 145.8-119.5v21.79c0 5 2.97 9.44 7.58 11.35 4.61 1.95 9.88.93 13.44-2.63l25.88-25.89c67.59 17 116.05 76.07 119.53 145.79h-21.78c-5.01 0-9.48 2.99-11.4 7.61-1.9 4.57-.88 9.82 2.66 13.43zm-333.55-9c-.16-6.75-5.57-12.04-12.31-12.04h-16.81l44.6-44.6 21.54 21.54c.23.26.47.5.73.73l22.33 22.33h-16.7c-3.4 0-6.54 1.33-8.84 3.74-2.32 2.37-3.55 5.51-3.47 8.89 1.03 39.57 14.95 76.57 40.26 106.99 21.58 25.93 50.47 45.18 82.43 55.15l-14.68 14.68c-3.27 3.27-4.3 7.97-3.08 12.17-79.64-28.37-134.31-102.9-136-189.58zm209.77 201.61c-6.69.08-12.14 5.6-12.14 12.32v16.81l-44.6-44.6 21.65-21.66c.11-.1.21-.21.31-.31l22.65-22.66v16.72c0 3.35 1.31 6.47 3.7 8.8 2.37 2.35 5.54 3.61 8.94 3.51 39.57-1.03 76.57-14.95 106.98-40.26 25.93-21.58 45.17-50.47 55.13-82.43l14.68 14.68c2.4 2.4 5.56 3.6 8.71 3.6 1.16 0 2.33-.17 3.45-.49-28.4 79.63-102.9 134.29-189.46 135.97zm199.23-166.25c-.06.05-.11.11-.17.17l-13.06 13.05-44.6-44.6h16.72c3.35 0 6.49-1.33 8.82-3.74s3.58-5.57 3.5-8.9c-1.02-38.61-15.11-76.34-39.67-106.25-21.6-26.31-50.71-45.82-83.05-55.89l14.62-14.63c2.37-2.33 3.67-5.44 3.67-8.76 0-1.19-.17-2.35-.5-3.46 79.65 28.4 134.31 102.92 135.97 189.59.16 6.64 5.69 12.03 12.31 12.03h16.83z"/></svg>