<?xml version="1.0" encoding="UTF-8" standalone="no"?>
<!-- Created with Inkscape (http://www.inkscape.org/) -->
<svg xmlns="http://www.w3.org/2000/svg" xmlns:svg="http://www.w3.org/2000/svg" version="1.1" id="svg2382" width="682.66669" height="682.66669" viewBox="0 0 682.66669 682.66669">
  <defs id="defs2386">
    <clipPath clipPathUnits="userSpaceOnUse" id="clipPath2396">
      <path d="M 0,512 H 512 V 0 H 0 Z" id="path2394"/>
    </clipPath>
  </defs>
  <mask id="custom"><rect id="bg" x="0" y="0" width="100%" height="100%" fill="white"/><g transform="matrix(1.3333333,0,0,-1.3333333,0,682.66667)"/></mask><g mask="url(#custom)"><g id="g2388" transform="matrix(1.3333333,0,0,-1.3333333,0,682.66667)">
    <g id="g2390">
      <g id="g2392" clip-path="url(#clipPath2396)">
        <g id="g2398" transform="translate(15.5161,7.5)">
          <path d="M 0,0 H 472.952" style="fill:none;stroke:#000000;stroke-width:15;stroke-linecap:round;stroke-linejoin:round;stroke-miterlimit:10;stroke-dasharray:none;stroke-opacity:1" id="path2400"/>
        </g>
        <g id="g2402" transform="translate(392.2744,312.1138)">
          <path d="M 0,0 V 16.031 H 80.161 V -304.614" style="fill:none;stroke:#000000;stroke-width:15;stroke-linecap:round;stroke-linejoin:round;stroke-miterlimit:10;stroke-dasharray:none;stroke-opacity:1" id="path2404"/>
        </g>
        <g id="g2406" transform="translate(392.2744,7.5)">
          <path d="M 0,0 V 272.546" style="fill:none;stroke:#000000;stroke-width:15;stroke-linecap:round;stroke-linejoin:round;stroke-miterlimit:10;stroke-dasharray:none;stroke-opacity:1" id="path2408"/>
        </g>
        <g id="g2410" transform="translate(272.0322,7.5)">
          <path d="M 0,0 V 240.484 H 80.161 V 0" style="fill:none;stroke:#000000;stroke-width:15;stroke-linecap:round;stroke-linejoin:round;stroke-miterlimit:10;stroke-dasharray:none;stroke-opacity:1" id="path2412"/>
        </g>
        <g id="g2414" transform="translate(151.7905,7.5)">
          <path d="M 0,0 V 160.323 H 80.161 V 0" style="fill:none;stroke:#000000;stroke-width:15;stroke-linecap:round;stroke-linejoin:round;stroke-miterlimit:10;stroke-dasharray:none;stroke-opacity:1" id="path2416"/>
        </g>
        <g id="g2418" transform="translate(111.7095,39.5659)">
          <path d="M 0,0 V -32.066" style="fill:none;stroke:#000000;stroke-width:15;stroke-linecap:round;stroke-linejoin:round;stroke-miterlimit:10;stroke-dasharray:none;stroke-opacity:1" id="path2420"/>
        </g>
        <g id="g2422" transform="translate(31.5483,7.5)">
          <path d="M 0,0 V 80.161 H 80.161 V 64.132" style="fill:none;stroke:#000000;stroke-width:15;stroke-linecap:round;stroke-linejoin:round;stroke-miterlimit:10;stroke-dasharray:none;stroke-opacity:1" id="path2424"/>
        </g>
        <g id="g2426" transform="translate(432.4194,416.3228)">
          <path d="m 0,0 h -0.129 c -17.673,0 -32,14.327 -32,32 V 88.177 H 32 L 32,32 C 32,14.327 17.673,0 0,0 Z" style="fill:none;stroke:#000000;stroke-width:15;stroke-linecap:round;stroke-linejoin:round;stroke-miterlimit:10;stroke-dasharray:none;stroke-opacity:1" id="path2428"/>
        </g>
        <g id="g2430" transform="translate(408.3066,360.2095)">
          <path d="M 0,0 H 48.097" style="fill:none;stroke:#000000;stroke-width:15;stroke-linecap:round;stroke-linejoin:round;stroke-miterlimit:10;stroke-dasharray:none;stroke-opacity:1" id="path2432"/>
        </g>
        <g id="g2434" transform="translate(432.355,416.3228)">
          <path d="M 0,0 V -56.113" style="fill:none;stroke:#000000;stroke-width:15;stroke-linecap:round;stroke-linejoin:round;stroke-miterlimit:10;stroke-dasharray:none;stroke-opacity:1" id="path2436"/>
        </g>
        <g id="g2438" transform="translate(400.2905,488.4678)">
          <path d="m 0,0 h -32.065 v -8.016 c 0,-17.709 14.356,-32.065 32.065,-32.065" style="fill:none;stroke:#000000;stroke-width:15;stroke-linecap:round;stroke-linejoin:round;stroke-miterlimit:10;stroke-dasharray:none;stroke-opacity:1" id="path2440"/>
        </g>
        <g id="g2442" transform="translate(464.4194,488.4678)">
          <path d="M 0,0 H 32.064 V -8.016 C 32.064,-25.725 17.708,-40.081 0,-40.081" style="fill:none;stroke:#000000;stroke-width:15;stroke-linecap:round;stroke-linejoin:round;stroke-miterlimit:10;stroke-dasharray:none;stroke-opacity:1" id="path2444"/>
        </g>
        <g id="g2446" transform="translate(31.5483,173.8345)">
          <path d="M 0,0 332.669,221.78" style="fill:none;stroke:#000000;stroke-width:15;stroke-linecap:round;stroke-linejoin:round;stroke-miterlimit:10;stroke-dasharray:none;stroke-opacity:1" id="path2448"/>
        </g>
        <g id="g2450" transform="translate(305.5522,394.8999)">
          <path d="M 0,0 64.516,3.813 35.046,-53.706" style="fill:none;stroke:#000000;stroke-width:15;stroke-linecap:round;stroke-linejoin:round;stroke-miterlimit:10;stroke-dasharray:none;stroke-opacity:1" id="path2452"/>
        </g>
      </g>
    </g>
  </g></g>
</svg>
