<svg id="Layer_1" enable-background="new 0 0 512 512" viewBox="0 0 512 512" xmlns="http://www.w3.org/2000/svg"><path d="m54.2 368.7v23.1c0 3-2.4 5.3-5.3 5.3-3 0-5.3-2.4-5.3-5.3v-23.1c0-3 2.4-5.3 5.3-5.3 2.9-.1 5.3 2.3 5.3 5.3zm18.2-5.4c-3 0-5.3 2.4-5.3 5.3v23.1c0 3 2.4 5.3 5.3 5.3 3 0 5.3-2.4 5.3-5.3v-23.1c0-2.9-2.3-5.3-5.3-5.3zm23.6 0c-3 0-5.3 2.4-5.3 5.3v23.1c0 3 2.4 5.3 5.3 5.3s5.3-2.4 5.3-5.3v-23.1c0-2.9-2.4-5.3-5.3-5.3zm254.5 74.8c0 3-2.4 5.3-5.3 5.3h-23.7c1.1 9.3.2 19.6-4.7 30-10.3 22.1-37 37.5-64.9 37.5-3.1 0-6.2-.2-9.2-.6-1.1.3-2.3.5-3.5.5h-164c-3 0-5.3-2.4-5.3-5.3s2.4-5.3 5.3-5.3h137.2c-.8-.5-1.6-1-2.4-1.5-15.3-9.9-26.6-25.8-27.9-44.3-.1-1.9-.2-3.9-.1-5.8 0-.1 0-.3 0-.4h-161.4c-1.3 0-2.3 1-2.3 2.3v47.5c0 1.2 1 2.3 2.3 2.3h28.2c3 0 5.3 2.4 5.3 5.3s-2.4 5.3-5.3 5.3h-28.2c-7.2 0-13-5.8-13-12.9v-47.5c0-7.1 5.8-12.9 13-12.9h9.4v-20.7h-9.4c-7.2 0-13-5.8-13-13v-47.5c0-7.1 5.8-12.9 13-12.9h9.4v-20.7h-9.4c-5.7 0-10.7-3.6-12.4-9.1-.4-1.1-.6-2.5-.6-3.9v-47.5c0-7.1 5.8-12.9 13-12.9h57.6v-32c0-2.9 2.4-5.3 5.3-5.3 3 0 5.3 2.4 5.3 5.3v32h74.4c3 0 5.3 2.4 5.3 5.3s-2.4 5.3-5.3 5.3h-142.6c-1.3 0-2.3 1-2.3 2.3v47.5c0 .1.1.7.1.7.3.9 1.2 1.5 2.2 1.5h218.6c1.3 0 2.3-1 2.3-2.3v-47.5c0-1.3-1-2.3-2.3-2.3h-44.9c-3 0-5.3-2.4-5.3-5.3s2.4-5.3 5.3-5.3h44.9c7.1 0 12.9 5.8 12.9 12.9v47.5c0 7.1-5.8 12.9-12.9 12.9h-9.4v20.7h3.2c4.7-7.7 10.1-15 16.3-21.9 1.7-1.9 4.6-2.3 6.8-.9s3.1 4.1 2.1 6.5c-4.6 11.5-6.4 22.6-5.1 32.7.8 6.8 3.1 13.3 6.5 19 1.8 3 4 5.8 6.5 8.2.5.5 2.6 2.3 4.4 3.9 2-2.8 3.6-5.9 4.5-9.1.9-3.3 1.1-6 1.1-6.8.1-1.6 0-3.2-.2-4.8-.3-2.5 1.2-4.8 3.6-5.7 2.4-.8 5 .1 6.3 2.3l3.8 6.2c6.4 10.3 12.9 21 18.5 31.9 2.9 5.8 5.1 10.5 7 15 1.5 3.7 3.1 8 4.3 12.7h25.8c2.9.3 5.3 2.7 5.3 5.6zm-309.9-94.6h178.5v-20.7h-178.5zm146.6 73.4h-146.6v20.7h142.3c.1-.4.1-.8.2-1.2 1-6.4 2.3-12.8 3.9-19.1.1-.1.1-.3.2-.4zm5.3-16.1c2-4.1 3.4-8.6 5.3-12.7 1.3-2.8 2.7-5.9 6.3-5.7 2.9.1 5.2 2.6 5.2 5.5-.1 5.2.9 10.6 3 15.4.4.9.8 1.7 1.2 2.5.1-1.1.2-2.2.3-3.3 1.3-16.5 5.7-32.8 13-47.7.1-.2.2-.4.2-.5h-206.4c-1.3 0-2.3 1-2.3 2.3v47.5c0 1.3 1 2.3 2.3 2.3h169.8c.6-2 1.4-3.8 2.1-5.6zm89 64.5c0-.1-.1-.5-.1-.5-.5-2.7-1.1-5.3-2-8.1-1.6 2.4-3.5 4.6-5.8 6.4-1.6 1.4-3.9 1.6-5.8.6s-3-3-2.9-5.1c.3-4.3.2-8.7-.4-13-.9-6.1-2.6-12.1-5.3-17.8-.7 4.4-2.3 8.7-4.6 12.4-1.4 2.2-3 4.3-4.8 6.1-5.8 5.7-7.6 5.7-8.8 5.7-1.4 0-2.8-.6-3.8-1.6-1.6-1.7-3-3.5-4.2-5.5-1.8 3.1-3.6 6.1-5.2 9.2-1.5 3-2.7 5.4-3.6 7.6-3.8 9.3-4.2 16.3-1.1 22.7 3.7 7.7 14.2 15.9 28.8 15.9 12.7 0 24.1-6.4 29-16.3 2.6-5.4 2.2-10.9.6-18.7zm23.6-41.2c-1.7-4.2-3.8-8.7-6.6-14.2-4.1-8-8.8-16-13.6-23.9-1.9 5.9-5.3 11.4-9.8 16.1-1 1-2.4 1.6-3.8 1.6-1 0-3.7 0-12.8-9.1-3.1-3.1-5.8-6.5-8-10.2-4.2-6.9-7-15-8-23.2-.5-4.1-.6-8.2-.3-12.5-.6 1-1.2 2-1.8 3-11.2 19.4-17.1 41.7-16.3 64.1.1 3.5.9 7.8-2.7 9.7-.8.3-1.4.5-2.1.5-2.8.2-5.2-2-6.9-3.9-4-4.3-7.4-9.3-9.8-14.7-.2-.4-.3-.8-.5-1.2-.1-.1-.1-.3-.2-.4-.9 2.5-1.7 4.9-2.5 7.3-3.6 10.9-6.1 22.8-6.6 34.2-.3 6 .2 12.2 2.3 17.9 2.5 6.9 7.4 13.3 12.8 18.3.8.7 1.5 1.4 2.3 2.1l2.7 2.1c-4.9-11.7-1.6-22.7 1.4-30.1 1.1-2.5 2.3-5.2 4-8.5 3.1-6.1 6.9-12 10.5-17.7l2.1-3.4c1.3-2.1 4-3 6.3-2.2 2.4.8 3.8 3.2 3.5 5.7-.1.6-.1 1.4-.1 2.2 0 .4.1 1.7.5 3.2.2.7.5 1.4.8 2.1.1-.1.3-.2.3-.3 1.2-1.2 2.3-2.6 3.2-4.1 1.8-2.8 2.9-6.1 3.3-9.5.6-5.2-.3-10.8-2.7-16.8-1-2.4-.1-5.1 2.1-6.5s5-1 6.8.9c9.6 10.3 16.1 22.5 19 35.5.7-1.3 1.9-2.3 3.4-2.7 2.4-.6 4.9.6 6.1 2.8 4.1 8.2 6.9 16.5 8.4 24.4 1.6 7.8 2.8 16.5-1.1 25.2 7.6-5.6 13.2-12.4 16.3-18.9 6.1-12.9 5.5-26.7-1.9-44.9zm-261.6-149.6v23.1c0 3 2.4 5.3 5.3 5.3 3 0 5.3-2.4 5.3-5.3v-23.1c0-3-2.4-5.3-5.3-5.3s-5.3 2.4-5.3 5.3zm23.6 0v23.1c0 3 2.4 5.3 5.3 5.3 3 0 5.3-2.4 5.3-5.3v-23.1c0-3-2.4-5.3-5.3-5.3s-5.3 2.4-5.3 5.3zm23.6 0v23.1c0 3 2.4 5.3 5.3 5.3s5.3-2.4 5.3-5.3v-23.1c0-3-2.4-5.3-5.3-5.3s-5.3 2.4-5.3 5.3zm-41.9 182.9c-3 0-5.3 2.4-5.3 5.3v23.1c0 3 2.4 5.3 5.3 5.3 3 0 5.3-2.4 5.3-5.3v-23.1c.1-2.9-2.3-5.3-5.3-5.3zm28.9 28.4v-23.1c0-3-2.4-5.3-5.3-5.3-3 0-5.3 2.4-5.3 5.3v23.1c0 3 2.4 5.3 5.3 5.3 3 .1 5.3-2.3 5.3-5.3zm23.6 0v-23.1c0-3-2.4-5.3-5.3-5.3s-5.3 2.4-5.3 5.3v23.1c0 3 2.4 5.3 5.3 5.3s5.3-2.3 5.3-5.3zm350.8-422.6c-.5 0-1.1 0-1.6 0-.5-13.8-5-26.8-13-37.7-1.8-2.4-5.1-2.9-7.5-1.1s-2.9 5.1-1.1 7.5c7.2 9.7 11 21.4 11 33.8 0 .7 0 1.3-.1 2l-.1 1.3c-.1 1.6.6 3.2 1.8 4.2 1.2 1.1 2.8 1.5 4.4 1.3 2.5-.4 4.4-.6 6.3-.6 23 0 41.6 20.3 41.6 45.2s-18.7 45.2-41.6 45.2h-5.8c0-.4.1-.7.1-1.1.1-.9.2-1.7.3-2.6.2-1.8.2-3.6.3-5.4 0-.4.1-.8.1-1.2 0-43.1-35.1-78.2-78.2-78.2-28.6 0-53.6 15.5-67.2 38.4-8.6 14.5-12.3 31.5-10.5 48.2.1.6.1 1.2.2 1.8h-37.7c-16.6 0-30.2-14.7-30.2-32.8 0-2.9-2.4-5.3-5.3-5.3s-5.3 2.4-5.3 5.3c0 24 18.3 43.5 40.8 43.5h39.9c2.7 9.9 7.4 19.1 13.9 27.4 1.8 2.3 5.2 2.7 7.5.9s2.7-5.2.9-7.5c-16.4-20.8-19-50.4-6.4-73.8 0 0 0-.1.1-.1.2-.3.3-.5.5-.8 11.6-20.6 33.6-34.5 58.9-34.5 37.2 0 67.5 30.3 67.5 67.5 0 4.9-.5 9.8-1.6 14.4-6.6 30.3-33.7 53.1-65.9 53.1-14.6 0-28.4-4.6-40.1-13.2-2.4-1.8-5.7-1.3-7.5 1.1s-1.3 5.7 1.1 7.5c12.1 8.9 26.2 14.1 41.1 15.1v32.2c0 3 2.4 5.3 5.3 5.3s5.3-2.4 5.3-5.3v-32.3c33.5-2.3 61.2-25.7 69.9-57h8c28.9 0 52.3-25.1 52.3-55.8-.1-30.8-23.6-55.9-52.4-55.9zm-76.5 39.4c-2.2-.3-4.5-.4-6.8-.4-26.3 0-47.9 19.5-50.8 45.5l-3.6-4.2c-1.9-2.2-5.3-2.5-7.5-.5-2.2 1.9-2.5 5.3-.5 7.5l12.4 14.3c1 1.1 2.4 1.8 3.9 1.8h.2c1.4 0 2.8-.6 3.8-1.6l12.8-13c2.1-2.1 2.1-5.5 0-7.5-2.1-2.1-5.5-2.1-7.6 0l-3.1 3.1c2.7-19.7 19.9-34.9 40-34.9 1.8 0 3.6.1 5.4.4 2.9.4 5.6-1.7 6-4.6s-1.7-5.5-4.6-5.9zm33.7 50.6c0-.3.1-.5.2-.8l-4.3 4.5c-2 2.1-5.4 2.2-7.5.1-2.1-2-2.2-5.4-.1-7.5l13.2-13.6c1-1.1 2.4-1.6 4-1.6 1.5 0 2.9.7 3.9 1.8l12.1 13.6c2 2.2 1.8 5.6-.4 7.5-1 .9-2.3 1.3-3.5 1.3-1.5 0-2.9-.6-4-1.8l-2.7-3c-.3 27.9-23.1 50.6-51.1 50.6-.8 0-1.5 0-2.3 0-2.9-.1-5.2-2.6-5.1-5.6.1-2.9 2.8-5.1 5.6-5.1h1.8c22 .1 40.2-18.1 40.2-40.4zm4.4-5.1c.3-.1.6-.2.9-.2h.1l-.4-.5zm-330.1 53.2c3 0 5.3-2.4 5.3-5.3v-37.4c0-2.9-2.4-5.3-5.3-5.3-3 0-5.3 2.4-5.3 5.3v37.4c-.1 2.9 2.3 5.3 5.3 5.3zm0-117.4c3 0 5.3-2.4 5.3-5.3v-8h18.7c3 0 5.3-2.4 5.3-5.3s-2.4-5.3-5.3-5.3h-24c-3 0-5.3 2.4-5.3 5.3v13.3c-.1 2.9 2.3 5.3 5.3 5.3zm0 58.7c3 0 5.3-2.4 5.3-5.3v-37.4c0-2.9-2.4-5.3-5.3-5.3-3 0-5.3 2.4-5.3 5.3v37.4c-.1 2.9 2.3 5.3 5.3 5.3zm162.8-72.1h12.6c-2.5 5.3-4.2 11.2-4.8 17.4-14.6-.3-28 7.6-35.6 20.9-1.5 2.6-.6 5.8 2 7.3.8.5 1.7.7 2.6.7 1.9 0 3.7-1 4.6-2.7 5.6-9.7 15.1-15.5 25.6-15.5 1.5 0 3.1.1 4.9.5 1.5.3 3.1-.2 4.3-1.2s1.9-2.5 1.9-4.1v-.5c0-22.3 16.8-40.5 37.4-40.5 11 0 21.4 5.2 28.5 14.4 1.4 1.8 3.7 2.5 5.9 1.8 2.1-.7 3.6-2.7 3.7-4.9.9-29.3 22.8-52.3 49.8-52.3 8.4 0 16.7 2.3 24 6.7 2.5 1.5 5.8.7 7.3-1.9 1.5-2.5.7-5.8-1.9-7.3-9-5.3-19.1-8.2-29.5-8.2-29.2 0-53.4 21.7-59.2 51.2-8.2-6.5-18.2-10.1-28.7-10.1-14.5 0-27.5 6.9-36.3 17.8h-19.3c-3 0-5.3 2.4-5.3 5.3s2.6 5.2 5.5 5.2zm-58.7 0h37.4c3 0 5.3-2.4 5.3-5.3s-2.4-5.3-5.3-5.3h-37.4c-3 0-5.3 2.4-5.3 5.3s2.3 5.3 5.3 5.3zm-58.7 0h37.4c3 0 5.3-2.4 5.3-5.3s-2.4-5.3-5.3-5.3h-37.4c-3 0-5.3 2.4-5.3 5.3s2.3 5.3 5.3 5.3zm239.8 268.5c-3 0-5.3 2.4-5.3 5.3v37.4c0 3 2.4 5.3 5.3 5.3s5.3-2.4 5.3-5.3v-37.4c0-3-2.4-5.3-5.3-5.3zm0-58.8c-3 0-5.3 2.4-5.3 5.3v37.4c0 3 2.4 5.3 5.3 5.3s5.3-2.4 5.3-5.3v-37.4c0-2.9-2.4-5.3-5.3-5.3zm0 117.5c-3 0-5.3 2.4-5.3 5.3v30.7c-1.4 1-2.3 2.6-2.3 4.4 0 3 2.4 5.3 5.3 5.3h2.3c3 0 5.3-2.4 5.3-5.3v-35.1c0-2.9-2.4-5.3-5.3-5.3z"/></svg>