<svg id="Layer_1" viewBox="0 0 512 512" xmlns="http://www.w3.org/2000/svg" data-name="Layer 1"><path d="m378.245 30.767c-2.927-3.265-7.328-4.913-12.5-4.913-5.4 0-10.33 1.78-13.7 5.307-3.088 3.235-5.021 8.107-5.021 14.648a30.748 30.748 0 0 0 5.857 18.712c3.2 4.154 7.48 6.724 12.064 6.724s8.86-2.57 12.064-6.724a30.742 30.742 0 0 0 5.857-18.712c0-6.808-1.728-11.81-4.626-15.042zm-12.5-19.761c9.352 0 17.617 3.32 23.518 9.9 5.295 5.906 8.454 14.242 8.454 24.9a45.648 45.648 0 0 1 -8.99 27.76c-5.968 7.738-14.367 12.524-23.78 12.524s-17.811-4.786-23.78-12.524a45.648 45.648 0 0 1 -8.989-27.76c0-10.649 3.517-18.968 9.139-24.856 6.312-6.611 15.09-9.947 24.428-9.947zm61.285 167.15h-124.164a7.424 7.424 0 0 1 -7.424-7.424v-35.749a43.158 43.158 0 0 1 43.052-43.05h52.912a43.156 43.156 0 0 1 43.051 43.05v35.749a7.424 7.424 0 0 1 -7.424 7.424zm-116.74-14.849h12.5v-11.08a7.424 7.424 0 1 1 14.848 0v11.08h54.625v-11.08a7.424 7.424 0 0 1 14.848 0v11.08h12.5v-28.324a28.306 28.306 0 0 0 -28.2-28.2h-52.917a28.306 28.306 0 0 0 -28.2 28.2v28.324zm131.917 172.434a57.385 57.385 0 1 0 16.806 40.576 57.2 57.2 0 0 0 -16.806-40.576zm-40.575-31.655a72.233 72.233 0 1 1 -51.075 21.157 72 72 0 0 1 51.075-21.157zm-31.424 77a7.407 7.407 0 1 1 10.092-10.847l13.9 12.952 28.5-29.267a7.4 7.4 0 1 1 10.614 10.324l-33.445 34.346a7.409 7.409 0 0 1 -10.469.377l-19.194-17.886zm-141.172-138.586a33.252 33.252 0 1 1 -9.431 23.611 33.153 33.153 0 0 1 9.431-23.611zm23.568 4.761a18.468 18.468 0 1 0 13.113 5.254 18.363 18.363 0 0 0 -13.113-5.254zm19.036-27.341q-2.21-.907-4.449-1.587a7.411 7.411 0 0 1 -5.6-5.688l-1.971-9.138-14.146.176-1.619 8.53a7.417 7.417 0 0 1 -5.229 6.095 49.46 49.46 0 0 0 -4.872 1.739q-2.277.952-4.292 2.03a7.413 7.413 0 0 1 -7.912-.061l-7.888-5.089-9.881 10.129 5.018 7.369a7.408 7.408 0 0 1 .482 7.8 49.514 49.514 0 0 0 -2.229 4.679q-.909 2.21-1.587 4.449a7.413 7.413 0 0 1 -5.688 5.6l-9.139 1.97.175 14.147 8.532 1.619a7.416 7.416 0 0 1 6.095 5.229 49.423 49.423 0 0 0 1.739 4.87q.953 2.277 2.03 4.292a7.411 7.411 0 0 1 -.06 7.912l-5.091 7.89 10.129 9.881 7.368-5.017a7.408 7.408 0 0 1 7.8-.482 49.383 49.383 0 0 0 4.679 2.228q2.211.909 4.451 1.588a7.41 7.41 0 0 1 5.594 5.688l1.971 9.138 14.147-.176 1.619-8.531a7.416 7.416 0 0 1 5.229-6.1 49.19 49.19 0 0 0 4.871-1.74q2.277-.951 4.291-2.029a7.409 7.409 0 0 1 7.911.06l7.891 5.091 9.881-10.129-5.017-7.368a7.408 7.408 0 0 1 -.482-7.8 49.777 49.777 0 0 0 2.229-4.68q.908-2.21 1.586-4.449a7.41 7.41 0 0 1 5.689-5.595l9.138-1.971-.176-14.147-8.532-1.619a7.414 7.414 0 0 1 -6.1-5.229 49.148 49.148 0 0 0 -1.739-4.869q-.951-2.279-2.029-4.293a7.409 7.409 0 0 1 .06-7.911l5.091-7.891-10.13-9.881-7.368 5.017a7.407 7.407 0 0 1 -7.8.482 49.777 49.777 0 0 0 -4.68-2.229zm3.562-14.494-2.356-10.927h-.015a7.4 7.4 0 0 0 -7.323-5.861l-25.879.322a7.406 7.406 0 0 0 -7.579 6.04l-2.007 10.574q-.99.375-1.969.785-1.023.427-2.054.9l-9.421-6.077a7.407 7.407 0 0 0 -9.307 1.07l-18.135 18.592a7.41 7.41 0 0 0 -1.018 9.549l6.073 8.918q-.432.964-.841 1.957-.42 1.021-.806 2.064l-10.928 2.356v.014a7.4 7.4 0 0 0 -5.861 7.324l.322 25.879a7.407 7.407 0 0 0 6.037 7.579l10.575 2.007q.376.988.785 1.967.428 1.023.905 2.054l-6.08 9.424a7.408 7.408 0 0 0 1.07 9.307l18.592 18.135a7.411 7.411 0 0 0 9.549 1.018l8.918-6.072q.963.432 1.957.841 1.022.42 2.065.806l2.359 10.929h.014a7.4 7.4 0 0 0 7.323 5.861l25.879-.322a7.408 7.408 0 0 0 7.58-6.037l2.007-10.575q.988-.377 1.968-.786 1.023-.428 2.053-.9l9.423 6.08a7.405 7.405 0 0 0 9.306-1.069l18.136-18.592a7.412 7.412 0 0 0 1.021-9.56l-6.072-8.917q.432-.965.841-1.958.418-1.021.806-2.064l10.927-2.356v-.014a7.4 7.4 0 0 0 5.861-7.324l-.322-25.878a7.407 7.407 0 0 0 -6.037-7.58l-10.579-2.009q-.376-.988-.785-1.967-.426-1.023-.9-2.054l6.08-9.423a7.405 7.405 0 0 0 -1.069-9.306l-18.592-18.136a7.412 7.412 0 0 0 -9.55-1.017l-8.917 6.071q-.964-.432-1.958-.841-1.022-.42-2.064-.806zm-129.491-88.961h-30.892a7.424 7.424 0 0 1 -7.424-7.424v-30.892h-54.408v124.486h92.724zm12.269-13.05a7.41 7.41 0 0 1 2.579 5.626v101.018a7.424 7.424 0 0 1 -7.424 7.424h-107.573a7.424 7.424 0 0 1 -7.424-7.424v-139.334a7.424 7.424 0 0 1 7.424-7.425h69.3a7.408 7.408 0 0 1 5.632 2.587l37.482 37.527zm-35.737-14.828 13.014 13.03h-13.014zm52.028 279.134-30.053-10.094-57.349 19.262c.278 22.289 2.463 45.105 10.435 64.4 8.055 19.5 22.254 35.7 46.914 44.459 24.66-8.76 38.86-24.961 46.914-44.459 7.973-19.3 10.157-42.115 10.435-64.4l-27.3-9.168zm-27.7-24.92 64.806 21.767a7.4 7.4 0 0 1 5.053 7.019h.022c0 25.462-2.068 52.189-11.628 75.331-9.864 23.881-27.441 43.585-58.311 53.711a7.373 7.373 0 0 1 -4.582 0l-.125-.042c-30.791-10.138-48.335-29.821-58.186-53.668-9.56-23.143-11.628-49.87-11.628-75.332a7.428 7.428 0 0 1 5.637-7.208l64.239-21.579a7.377 7.377 0 0 1 4.7 0zm51.748-232.645a163.182 163.182 0 0 1 16.923-4.929 165.235 165.235 0 0 1 37.6-4.321q6.684 0 13.378.542 6.555.527 13.274 1.623a7.4 7.4 0 0 1 -2.378 14.617q-5.793-.944-12.056-1.45-5.974-.48-12.218-.484a149.441 149.441 0 0 0 -52.081 9.275l11.069 5.394a7.419 7.419 0 0 1 -6.5 13.341l-25.571-12.464a7.419 7.419 0 0 1 -3.422-9.918l12.463-25.568a7.419 7.419 0 1 1 13.34 6.5l-3.823 7.845zm-101.019 210.065-7.85-3.821a7.419 7.419 0 0 0 -6.5 13.34l25.575 12.46a7.419 7.419 0 0 0 9.918-3.422l12.46-25.571a7.419 7.419 0 0 0 -13.34-6.5l-5.394 11.069a149.425 149.425 0 0 1 -9.275-52.081q0-6.24.484-12.218.5-6.261 1.449-12.055a7.4 7.4 0 1 0 -14.616-2.379q-1.092 6.714-1.623 13.274-.538 6.689-.542 13.378a165.25 165.25 0 0 0 4.321 37.6 162.846 162.846 0 0 0 4.933 16.926zm210.061 101.019-3.823 7.845a7.419 7.419 0 1 0 13.34 6.5l12.461-25.571a7.42 7.42 0 0 0 -3.423-9.918l-25.57-12.46a7.419 7.419 0 0 0 -6.5 13.34l11.069 5.394a149.441 149.441 0 0 1 -52.081 9.275q-6.242 0-12.218-.484-6.261-.5-12.056-1.449a7.4 7.4 0 1 0 -2.378 14.616q6.714 1.092 13.274 1.623 6.689.539 13.378.542a165.179 165.179 0 0 0 37.6-4.321 162.864 162.864 0 0 0 16.923-4.929zm101.019-210.065a162.936 162.936 0 0 1 4.929 16.923 165.241 165.241 0 0 1 4.321 37.6q0 6.684-.542 13.378-.526 6.555-1.623 13.274a7.4 7.4 0 0 1 -14.617-2.378q.943-5.793 1.45-12.056.48-5.974.484-12.218a149.441 149.441 0 0 0 -9.275-52.081l-5.394 11.069a7.419 7.419 0 0 1 -13.341-6.5l12.461-25.57a7.42 7.42 0 0 1 9.918-3.423l25.571 12.461a7.419 7.419 0 1 1 -6.5 13.34z" fill-rule="evenodd"/></svg>