<?xml version="1.0"?>
<svg xmlns="http://www.w3.org/2000/svg" id="Layer_1" data-name="Layer 1" viewBox="0 0 512 512"><path d="M235.555,342.97a25.77,25.77,0,0,1-18.051-7.3l-46.883-45.947A25.891,25.891,0,0,1,206.727,252.6l28.688,28.214,69.648-69.333a25.709,25.709,0,0,1,18.264-7.543h.081a25.659,25.659,0,0,1,18.263,7.635,25.958,25.958,0,0,1-.091,36.615l-87.762,87.28A25.807,25.807,0,0,1,235.555,342.97Zm-46.867-81.689h-.15a9.885,9.885,0,0,0-6.755,16.974l.023.023,46.884,45.948a9.9,9.9,0,0,0,13.841-.1l87.763-87.279a9.933,9.933,0,0,0,.018-14.007,9.767,9.767,0,0,0-6.953-2.9,9.882,9.882,0,0,0-7.006,2.881l-75.259,74.918a8,8,0,0,1-11.254.035l-34.3-33.732A9.792,9.792,0,0,0,188.688,261.281ZM256,499A225.511,225.511,0,0,1,96.541,114.013a8,8,0,0,1,5.655-2.341h0a8,8,0,0,1,5.657,2.346L133.2,139.387a8,8,0,0,1,0,11.31A172.5,172.5,0,0,0,82.332,273.475c0,95.745,77.908,173.639,173.668,173.639S429.639,369.22,429.639,273.475c0-93.063-73.594-169.261-165.639-173.457v26.74a8,8,0,0,1-13.287,6L190.677,79.9a8,8,0,0,1,0-12.007L250.712,15A8,8,0,0,1,264,21V48.089A225.524,225.524,0,0,1,415.468,432.943,224.046,224.046,0,0,1,256,499ZM102.3,131.092A207.931,207.931,0,0,0,46.475,273.475C46.475,389.008,140.468,483,256,483s209.525-93.992,209.525-209.525S371.532,63.95,256,63.95a8,8,0,0,1-8-8V38.71L208.068,73.892,248,109.054V91.836a8,8,0,0,1,8-8c104.568,0,189.639,85.072,189.639,189.639S360.568,463.114,256,463.114c-104.583,0-189.668-85.072-189.668-189.639a188.278,188.278,0,0,1,50.011-128.321Z"/></svg>
