<svg height="477pt" viewBox="0 0 477.57322 477" width="477pt" xmlns="http://www.w3.org/2000/svg"><path d="m409.375 57.710938-45.25 22.625c-.320312.15625-.511719.46875-.800781.671874-.453125.21875-.882813.488282-1.277344.796876l-127.722656 127.792968h-41.984375c-2.121094 0-4.152344.84375-5.652344 2.34375l-22.632812 22.625c-2.15625 2.140625-2.914063 5.320313-1.953126 8.203125.957032 2.882813 3.46875 4.976563 6.480469 5.398438l3.960938.566406-14.144531 14.121094 11.3125 11.3125 22.628906-22.632813 3.417968.488282c.085938 1.941406.886719 3.785156 2.246094 5.175781l5.65625 5.65625-11.308594 11.3125 11.308594 11.308593 11.3125-11.308593 5.65625 5.652343c1.390625 1.363282 3.234375 2.164063 5.175782 2.25l.488281 3.40625-22.632813 22.632813 11.3125 11.3125 14.144532-14.144531.570312 4c.417969 3.011718 2.511719 5.523437 5.394531 6.484375 2.882813.957031 6.0625.203125 8.203125-1.957031l22.625-22.628907c1.5-1.5 2.34375-3.535156 2.34375-5.65625v-41.984375l127.769532-127.761718c.371093-.441407.691406-.925782.957031-1.4375.152343-.242188.410156-.386719.539062-.640626l22.621094-45.25c1.542969-3.078124.941406-6.804687-1.496094-9.238281-2.433593-2.4375-6.15625-3.039062-9.238281-1.496093zm-202.890625 179.6875-19.796875-2.832032 8.964844-8.96875h22.625zm45.738281 44.800781-8.96875 8.96875-2.832031-19.800781 11.800781-11.792969zm2.34375-47.601563-4.417968 4.425782-23.871094 23.832031-11.3125-11.3125 23.863281-23.871094 4.425781-4.417969 50.910156-50.910156 11.3125 11.308594zm62.222656-62.222656-11.3125-11.3125 11.3125-11.3125 11.3125 11.3125zm22.632813-22.625-11.320313-11.320312 11.3125-11.3125 11.320313 11.320312zm22.625-22.625-11.320313-11.351562 16.976563-16.976563 11.320313 11.320313zm26.09375-30.480469-6.933594-6.933593 13.863281-6.929688zm0 0"/><path d="m124.457031 296.792969 22.628907-22.632813 11.3125 11.3125-22.625 22.632813zm0 0"/><path d="m169.714844 342.042969 22.628906-22.628907 11.3125 11.316407-22.628906 22.625zm0 0"/><path d="m113.140625 353.359375 67.882813-67.878906 11.316406 11.3125-67.882813 67.882812zm0 0"/><path d="m271.535156 443.871094 14.144532-14.144532.566406 4c.421875 3.007813 2.515625 5.515626 5.398437 6.476563 2.882813.957031 6.0625.199219 8.203125-1.957031l22.621094-22.625c1.5-1.5 2.34375-3.535156 2.34375-5.65625v-41.976563l127.761719-127.765625c.371093-.433594.6875-.90625.953125-1.410156.167968-.246094.429687-.398438.566406-.671875l22.632812-45.246094c1.542969-3.082031.941407-6.804687-1.496093-9.242187-2.4375-2.433594-6.160157-3.039063-9.242188-1.496094l-45.261719 22.632812c-.273437.128907-.425781.402344-.671874.5625-.503907.257813-.976563.570313-1.410157.933594l-127.757812 127.761719h-41.976563c-2.121094 0-4.15625.84375-5.65625 2.34375l-22.632812 22.632813c-2.15625 2.140624-2.914063 5.320312-1.953125 8.203124.960937 2.882813 3.472656 4.972657 6.480469 5.394532l4 .5625-14.183594 14.117187 11.3125 11.320313 22.632812-22.632813 3.40625.488281c.09375 1.941407.894532 3.78125 2.25 5.167969l5.65625 5.65625-11.3125 11.320313 11.3125 11.3125 11.3125-11.320313 5.65625 5.664063c1.394532 1.351562 3.234375 2.148437 5.175782 2.242187l.488281 3.414063-22.632813 22.625zm37.253906-37.25-8.96875 8.96875-2.832031-19.800782 11.800781-11.800781zm142.847657-199.414063-6.910157 13.886719-6.929687-6.925781zm-27.367188 16.046875 11.3125 11.3125-16.96875 16.976563-11.3125-11.320313zm-28.28125 28.28125 11.3125 11.320313-11.320312 11.3125-11.3125-11.3125zm-22.628906 22.632813 11.308594 11.308593-11.308594 11.320313-11.3125-11.320313zm-130.113281 84.855469 8.976562-8.976563h22.632813l-11.808594 11.800781zm39.609375 28.277343-11.320313-11.3125 79.199219-79.199219 11.3125 11.320313zm0 0"/><path d="m181.03125 421.246094 22.628906-22.625 11.3125 11.3125-22.628906 22.625zm0 0"/><path d="m226.285156 466.503906 22.628906-22.628906 11.3125 11.3125-22.625 22.628906zm0 0"/><path d="m181.019531 466.496094 56.570313-56.570313 11.3125 11.316407-56.566406 56.566406zm0 0"/><path d="m45.261719 217.597656 22.664062-22.632812 3.414063.488281c.09375 1.941406.890625 3.78125 2.242187 5.175781l5.664063 5.65625-11.320313 11.3125 11.3125 11.3125 11.320313-11.3125 5.65625 5.65625c1.386718 1.355469 3.226562 2.15625 5.167968 2.25l.488282 3.40625-22.632813 22.632813 11.320313 11.3125 14.144531-14.144531.558594 3.960937c.429687 2.996094 2.515625 5.496094 5.390625 6.453125.816406.277344 1.667968.417969 2.53125.417969 2.121094 0 4.152344-.84375 5.652344-2.34375l22.632812-22.632813c1.5-1.5 2.34375-3.535156 2.34375-5.65625v-41.945312l127.761719-127.757813c.363281-.433593.675781-.90625.933593-1.410156.160157-.246094.433594-.398437.5625-.671875l22.632813-45.253906c1.542969-3.082032.941406-6.804688-1.496094-9.242188-2.4375-2.4375-6.160156-3.039062-9.242187-1.496094l-45.285156 22.632813c-.273438.136719-.425782.402344-.675782.570313-.5.253906-.972656.570312-1.40625.933593l-127.769531 127.761719h-41.902344c-2.121093 0-4.15625.84375-5.65625 2.34375l-22.664062 22.625c-2.15625 2.136719-2.914063 5.316406-1.957031 8.199219.960937 2.882812 3.46875 4.976562 6.476562 5.398437l4 .570313-14.175781 14.117187zm82.511719 8-8.976563 8.976563-2.824219-19.792969 11.800782-11.808594zm142.839843-199.414062-6.925781 13.863281-6.960938-6.953125zm-27.359375 16.054687 11.3125 11.3125-16.96875 16.96875-11.320312-11.3125zm-28.289062 28.28125 11.359375 11.308594-11.359375 11.320313-11.3125-11.308594zm-22.625 22.628907 11.3125 11.3125-11.3125 11.3125-11.316406-11.3125zm-22.628906 22.625 11.320312 11.3125-79.203125 79.199218-11.308594-11.320312zm-98.511719 53.257812h22.628906l-11.796875 11.796875-19.800781-2.828125zm0 0"/><path d="m0 240.222656 22.628906-22.625 11.3125 11.3125-22.628906 22.628906zm0 0"/><path d="m45.253906 285.476562 22.628906-22.625 11.3125 11.3125-22.625 22.628907zm0 0"/><path d="m.0078125 285.480469 56.5703125-56.570313 11.3125 11.316406-56.566406 56.566407zm0 0"/></svg>