<svg enable-background="new 0 0 512 512" viewBox="0 0 512 512" xmlns="http://www.w3.org/2000/svg"><g id="_x32_0_Running_Late"><g><path d="m209.04 260.423c11.922 11.024 17.881 27.436 33.892 23.872l48.744-10.834c27.561-6.133 26.301-46.683 4.482-43.491l-34.72 7.379-45.413-41.292c16.714-3.938 29.227-18.891 29.227-36.791 0-20.889-16.993-37.882-37.882-37.882s-37.889 16.993-37.889 37.882c0 9.3 3.499 17.716 9.081 24.315h-52.215c-12.111 0-23.473 6.466-29.66 16.878l-29.204 49.144c-7.347 12.364-1.839 28.294 11.447 33.564 10.755 4.275 22.809.114 28.675-9.863l28.518-48.551h13.267l-45.904 125.649h-59.511c-12.04 0-21.831 9.792-21.831 21.831 0 12.033 9.792 21.824 21.831 21.824h88.695c4.796 0 9.099-2.662 11.247-6.951l19.498-38.995c.478-.957 1.764-1.28 2.633-.507 35.032 31.325 33.845 29.209 34.713 31.659l19.997 56.23c4.752 13.39 20.185 19.636 32.95 13.267 10.727-5.36 15.765-17.92 11.719-29.218l-26.941-75.143c-.721-2.034-1.827-3.868-3.304-5.474l-38.374-41.679c-1.963-2.141-2.441-5.217-1.22-7.85zm-1.67-124.422c12.832 0 23.266 10.434 23.266 23.266s-10.434 23.266-23.266 23.266-23.273-10.434-23.273-23.266 10.441-23.266 23.273-23.266zm-21.31 171.147 38.667 42.178 26.941 75.157c1.556 4.332-.378 9.149-4.496 11.205-4.843 2.429-10.79.117-12.639-5.089l-19.997-56.23c-2.995-8.426-7.811-9.333-38.802-37.711-8.051-7.121-20.595-4.648-25.393 4.917l-18.934 37.868h-87.432c-3.975 0-7.215-3.233-7.215-7.208s3.24-7.215 7.215-7.215h64.623c3.069 0 5.809-1.92 6.866-4.803l51.242-140.265c1.738-4.745-1.779-9.813-6.866-9.813h-25.806c-3.875 0-7.501 2.077-9.456 5.41l-29.575 50.35c-2.184 3.725-6.694 5.274-10.691 3.683-4.945-1.957-7.015-7.893-4.268-12.511l29.204-49.144c3.568-6.002 10.12-9.727 17.1-9.727h70.304l57.722 52.491c1.734 1.584 4.125 2.227 6.437 1.741l36.619-7.793c1.669 6.453-2.317 13.089-8.921 14.552l-48.744 10.834c-3.737.924-3.764-2.277-21.995-21.774-6.08-6.807-16.911-4.937-20.604 3.047l-14.837 31.951c-3.72 8.012-2.257 17.39 3.731 23.899z"/><path d="m388.636 60.73c-55.916 0-101.406 45.49-101.406 101.406 0 55.909 45.49 101.399 101.406 101.399 55.816 0 101.22-45.49 101.22-101.399.001-55.916-45.403-101.406-101.22-101.406zm0 188.189c-47.859 0-86.79-38.931-86.79-86.783 0-47.859 38.931-86.79 86.79-86.79 47.752 0 86.604 38.931 86.604 86.79.001 47.852-38.852 86.783-86.604 86.783z"/><path d="m388.479 103.893c4.039 0 7.308-3.269 7.308-7.308v-6.473c0-4.039-3.269-7.308-7.308-7.308s-7.308 3.269-7.308 7.308v6.473c0 4.04 3.269 7.308 7.308 7.308z"/><path d="m388.544 217.489c-4.039 0-7.308 3.269-7.308 7.308v6.473c0 4.039 3.269 7.308 7.308 7.308s7.308-3.269 7.308-7.308v-6.473c0-4.04-3.269-7.308-7.308-7.308z"/><path d="m324.406 153.351h-6.466c-4.039 0-7.308 3.269-7.308 7.308s3.269 7.308 7.308 7.308h6.466c4.039 0 7.308-3.269 7.308-7.308s-3.269-7.308-7.308-7.308z"/><path d="m445.316 160.723c0 4.039 3.269 7.308 7.308 7.308h6.466c4.039 0 7.308-3.269 7.308-7.308s-3.269-7.308-7.308-7.308h-6.466c-4.039 0-7.308 3.269-7.308 7.308z"/><path d="m395.802 161.009v-35.891c0-4.039-3.269-7.308-7.308-7.308s-7.308 3.269-7.308 7.308v28.583h-20.054c-4.039 0-7.308 3.269-7.308 7.308s3.269 7.308 7.308 7.308h27.362c4.039 0 7.308-3.269 7.308-7.308z"/></g></g><g id="Layer_1"/></svg>