<svg id="Layer_1" enable-background="new 0 0 66 66" height="512" viewBox="0 0 66 66" width="512" xmlns="http://www.w3.org/2000/svg"><g><g style="fill:none;stroke:#000;stroke-width:2;stroke-linecap:round;stroke-linejoin:round;stroke-miterlimit:10"><path d="m60 51.8c2.2 0 4-1.8 4-4v-35.7c0-2.2-1.8-4-4-4h-3.7m-45.6 0h-4.7c-2.2 0-4 1.8-4 4v35.7c0 2.2 1.8 4 4 4"/><path d="m57.9 51.8h2.1c2.2 0 4-1.8 4-4v-3.1h-13.4"/><path d="m31.2 44.6h-29.2v3.1c0 2.2 1.8 4 4 4h45.3"/><path d="m41 51.8h-16l-5.9 6.2c-.6.6-.9 1.5-.9 2.4 0 1.9 1.5 3.4 3.4 3.4h22.7c1.9 0 3.4-1.5 3.4-3.4 0-.9-.3-1.7-.9-2.4z"/><path d="m10.7 44.6v-32.9h44.6v32.9"/><path d="m14.7 2.2c-2.2 0-4 1.8-4 4v5.5h44.6v-5.5c0-2.2-1.8-4-4-4z"/><path d="m38.1 8.6h-20.2c-.9 0-1.6-.7-1.6-1.6 0-.9.7-1.6 1.6-1.6h20.2c.9 0 1.6.7 1.6 1.6 0 .9-.7 1.6-1.6 1.6z"/><path d="m44.5 5.4 3.2 3.2"/><path d="m47.7 5.4-3.2 3.2"/><circle cx="38.3" cy="35.5" r="11.3"/><circle cx="38.3" cy="35.5" r="7.7"/><path d="m48.6 40.5 2.9 2.9-5.3 5.3-2.9-2.9"/><path d="m59.3 53.2-8.8-8.8-3.3 3.3 8.8 8.8c.9.9 2.4.9 3.3 0 .9-.9.9-2.4 0-3.3z"/></g><g><g><path d="m27.4 18.5c0 4.8-2.4 8.9-6.1 11.3-3.7-2.4-6.1-6.5-6.1-11.2.9-.1 1.7-.2 2.5-.4 1.3-.4 2.5-.9 3.6-1.6 1.1.7 2.3 1.3 3.6 1.6.8.1 1.6.3 2.5.3z" style="fill:none;stroke:#000;stroke-width:2;stroke-linecap:round;stroke-linejoin:round;stroke-miterlimit:10"/></g><g style="fill:none;stroke:#000;stroke-width:2;stroke-linecap:round;stroke-linejoin:round;stroke-miterlimit:10"><path d="m33 17.3h17.9"/><path d="m46.1 22h4.8"/><path d="m16.1 35.4h5.5"/><path d="m16.1 39.9h6.5"/></g></g></g></svg>