<svg id="Layer_1" enable-background="new 0 0 512 512" viewBox="0 0 512 512" xmlns="http://www.w3.org/2000/svg"><path d="m462.15 271.49h-191.84c-4.25-2.85-9.19-4.41-14.32-4.41s-10.06 1.56-14.32 4.41h-191.82c-14.34 0-26.01 11.67-26.01 26v20.01c0 3.31 2.69 6 6 6h169.41l-80.13 102.43h-15.06c-15.13 0-27.44 12.31-27.44 27.44v21.44c0 3.31 2.69 6 6 6h346.74c3.31 0 6-2.69 6-6v-21.44c0-15.13-12.31-27.44-27.44-27.44h-15.06l-80.11-102.43h169.41c3.31 0 6-2.69 6-6v-20c0-14.34-11.67-26.01-26.01-26.01zm-426.31 40.01v-14c0-7.72 6.28-14 14.01-14h180.71l-21.91 28.01h-172.81zm387.53 141.87v15.44h-334.74v-15.44c0-8.51 6.93-15.44 15.44-15.44h303.86c8.52 0 15.44 6.93 15.44 15.44zm-289.01-27.44 110.33-141.04c2.93-3.75 6.94-5.81 11.31-5.81s8.38 2.06 11.31 5.81l110.33 141.04zm341.8-114.43h-172.8l-21.91-28.01h180.71c7.72 0 14.01 6.28 14.01 14v14.01zm-239.59 7.36c0 10.71 8.72 19.43 19.43 19.43s19.43-8.71 19.43-19.43-8.72-19.43-19.43-19.43-19.43 8.72-19.43 19.43zm26.86 0c0 4.1-3.33 7.43-7.43 7.43s-7.43-3.33-7.43-7.43 3.33-7.43 7.43-7.43 7.43 3.33 7.43 7.43zm221-183.53h-15.93c-.29 0-.45-.11-.54-.39-1.2-3.65-2.69-7.25-4.43-10.68-.13-.26-.1-.45.1-.66l11.27-11.27c2.37-2.37 3.68-5.53 3.68-8.89s-1.31-6.52-3.68-8.89l-15.63-15.63c-2.37-2.37-5.53-3.68-8.89-3.68s-6.52 1.31-8.89 3.68l-11.28 11.27c-.21.21-.39.24-.65.1-3.43-1.74-7.03-3.23-10.68-4.43-.28-.09-.39-.24-.39-.54v-15.92c0-6.93-5.64-12.57-12.57-12.57h-22.1c-6.93 0-12.57 5.64-12.57 12.57v15.94c0 .29-.11.45-.39.54-3.65 1.2-7.25 2.69-10.68 4.43-.26.13-.45.1-.66-.1l-11.27-11.27c-2.37-2.37-5.53-3.68-8.89-3.68s-6.52 1.31-8.89 3.68l-15.63 15.63c-2.37 2.37-3.68 5.53-3.68 8.89s1.31 6.52 3.68 8.89l11.27 11.27c.21.21.24.39.1.66-1.74 3.44-3.23 7.03-4.43 10.68-.09.28-.24.39-.54.39h-15.94c-6.93 0-12.57 5.64-12.57 12.57v22.08c0 6.93 5.64 12.57 12.57 12.57h15.94c.29 0 .45.11.54.39 1.2 3.65 2.69 7.25 4.43 10.68.13.26.1.45-.11.66l-11.27 11.27c-2.37 2.37-3.68 5.53-3.68 8.89s1.31 6.52 3.68 8.89l15.63 15.63c2.37 2.37 5.53 3.68 8.89 3.68s6.52-1.31 8.89-3.68l11.28-11.28c.21-.21.39-.24.65-.1 3.44 1.74 7.03 3.23 10.68 4.43.28.09.39.24.39.54v15.94c0 6.93 5.64 12.57 12.57 12.57h22.1c6.93 0 12.57-5.64 12.57-12.57v-15.94c0-.3.11-.45.39-.54 3.65-1.2 7.24-2.69 10.68-4.43.26-.13.45-.1.66.1l11.27 11.27c2.37 2.37 5.53 3.68 8.89 3.68s6.52-1.31 8.89-3.68l15.62-15.63c2.37-2.37 3.68-5.53 3.68-8.89s-1.31-6.52-3.68-8.89l-11.27-11.27c-.21-.21-.24-.39-.1-.66 1.74-3.44 3.23-7.03 4.43-10.68.09-.28.24-.39.54-.39h15.94c6.93 0 12.57-5.64 12.57-12.57v-22.1c.01-6.92-5.63-12.56-12.56-12.56zm.57 34.67c0 .3-.26.57-.57.57h-15.93c-5.44 0-10.24 3.47-11.94 8.64-1.01 3.08-2.27 6.11-3.74 9.01-2.46 4.86-1.53 10.71 2.32 14.56l11.28 11.28c.11.11.16.24.16.4s-.05.29-.16.4l-15.63 15.63c-.21.21-.59.21-.8 0l-11.27-11.27c-3.85-3.85-9.7-4.79-14.56-2.32-2.9 1.47-5.93 2.73-9.01 3.74-5.17 1.7-8.64 6.5-8.64 11.94v15.94c0 .3-.26.57-.57.57h-22.1c-.3 0-.57-.26-.57-.57v-15.94c0-5.44-3.47-10.24-8.64-11.94-3.08-1.01-6.11-2.27-9.01-3.74-1.81-.92-3.76-1.36-5.69-1.36-3.25 0-6.46 1.27-8.88 3.69l-11.28 11.27c-.21.21-.59.21-.8 0l-15.63-15.63c-.11-.11-.16-.24-.16-.4s.05-.29.16-.4l11.27-11.27c3.85-3.85 4.79-9.71 2.32-14.56-1.47-2.9-2.73-5.93-3.74-9.01-1.7-5.17-6.5-8.64-11.94-8.64h-15.94c-.3 0-.57-.26-.57-.57v-22.1c0-.3.26-.57.57-.57h15.94c5.44 0 10.24-3.47 11.94-8.64 1.01-3.08 2.27-6.11 3.74-9.01 2.46-4.86 1.53-10.71-2.33-14.56l-11.27-11.28c-.11-.11-.16-.24-.16-.4s.05-.29.16-.4l15.63-15.63c.21-.21.59-.21.8 0l11.27 11.27c3.85 3.85 9.7 4.79 14.56 2.32 2.9-1.47 5.93-2.72 9.01-3.74 5.17-1.7 8.64-6.5 8.64-11.94v-15.94c0-.3.26-.57.57-.57h22.1c.3 0 .57.26.57.57v15.94c0 5.44 3.47 10.24 8.64 11.94 3.08 1.01 6.11 2.27 9.01 3.74 4.86 2.46 10.71 1.53 14.56-2.32l11.27-11.27c.21-.21.59-.21.8 0l15.63 15.63c.11.11.16.24.16.4s-.05.29-.16.4l-11.28 11.28c-3.85 3.85-4.78 9.71-2.32 14.56 1.47 2.9 2.73 5.93 3.74 9.01 1.7 5.17 6.5 8.64 11.94 8.64h15.94c.3 0 .57.26.57.57v22.08zm-355.06 91.06c63.38 0 114.94-51.56 114.94-114.94s-51.56-114.93-114.94-114.93-114.94 51.56-114.94 114.93 51.56 114.94 114.94 114.94zm0-217.87c56.76 0 102.94 46.18 102.94 102.94s-46.18 102.93-102.94 102.93-102.94-46.18-102.94-102.94 46.18-102.93 102.94-102.93zm0 186.52c46.09 0 83.59-37.5 83.59-83.59s-37.5-83.59-83.59-83.59-83.59 37.5-83.59 83.59 37.5 83.59 83.59 83.59zm0-155.17c39.47 0 71.59 32.11 71.59 71.59s-32.12 71.59-71.59 71.59-71.59-32.11-71.59-71.59 32.11-71.59 71.59-71.59zm14.4 89.48c0-4.51-4.2-6.84-13.8-11.06-1.02-.45-2.05-.9-3.07-1.37-.99-.45-1.98-.88-2.96-1.32-9.83-4.33-20.96-9.23-20.96-22.04 0-11.31 8.73-20.8 20.4-23.26v-12.88c0-3.31 2.69-6 6-6s6 2.69 6 6v12.88c11.67 2.47 20.4 11.96 20.4 23.26 0 3.31-2.69 6-6 6s-6-2.69-6-6c0-6.56-6.46-11.89-14.4-11.89s-14.4 5.33-14.4 11.89c0 4.51 4.2 6.84 13.8 11.06 1.02.45 2.05.9 3.07 1.37.99.45 1.98.88 2.96 1.32 9.83 4.33 20.96 9.23 20.96 22.04 0 11.31-8.73 20.8-20.4 23.26v12.88c0 3.31-2.69 6-6 6s-6-2.69-6-6v-12.88c-11.67-2.47-20.4-11.96-20.4-23.26 0-3.31 2.69-6 6-6s6 2.69 6 6c0 6.56 6.46 11.89 14.4 11.89s14.4-5.34 14.4-11.89zm250.55-51.56c-25.64 0-46.49 20.86-46.49 46.49 0 25.64 20.86 46.49 46.49 46.49 25.64 0 46.49-20.86 46.49-46.49 0-25.64-20.86-46.49-46.49-46.49zm0 80.98c-19.02 0-34.49-15.47-34.49-34.49s15.47-34.49 34.49-34.49 34.49 15.47 34.49 34.49-15.47 34.49-34.49 34.49z"/></svg>