<svg id="_x33_0" enable-background="new 0 0 64 64" height="512" viewBox="0 0 64 64" width="512" xmlns="http://www.w3.org/2000/svg"><g><circle cx="32" cy="30" r="1"/><circle cx="36" cy="31" r="1"/><circle cx="28" cy="31" r="1"/><path d="m61 55.237v-27.263c1.207-.914 2-2.348 2-3.974 0-2.757-2.243-5-5-5s-5 2.243-5 5c0 1.627.793 3.061 2 3.974v25.612c-1.865-.328-4.162-.634-6.999-.898l.631-1.579c.245-.607.368-1.247.368-1.903 0-1.377-.555-2.668-1.509-3.618.897-.519 1.509-1.479 1.509-2.588v-6.101c2.279-.465 4-2.484 4-4.899 0-2.687-2.135-4.869-4.795-4.979.51-2.414 1.406-4.214 2.279-5.96 1.237-2.474 2.516-5.031 2.516-9.061 0-4.962-4.037-9-9-9-1.13 0-2.162.391-3 1.026v-.026c0-1.654-1.346-3-3-3h-12c-1.654 0-3 1.346-3 3v.026c-.838-.635-1.87-1.026-3-1.026-4.963 0-9 4.038-9 9 0 4.03 1.279 6.587 2.516 9.061.873 1.745 1.77 3.545 2.279 5.96-2.66.11-4.795 2.292-4.795 4.979 0 2.414 1.721 4.434 4 4.899v6.101c0 1.109.612 2.069 1.509 2.588-.954.95-1.509 2.241-1.509 3.618 0 .656.123 1.296.366 1.903l.632 1.58c-2.836.264-5.133.57-6.998.898v-25.613c1.207-.914 2-2.348 2-3.974 0-2.757-2.243-5-5-5s-5 2.243-5 5c0 1.627.793 3.061 2 3.974v27.263c-1.998.944-2 1.825-2 2.263 0 5.438 29.734 5.5 31 5.5s31-.063 31-5.5c0-.438-.002-1.319-2-2.263zm-3-34.237c1.654 0 3 1.346 3 3s-1.346 3-3 3-3-1.346-3-3 1.346-3 3-3zm-1 7.899c.323.066.658.101 1 .101s.677-.035 1-.101v25.595c-.578-.173-1.242-.345-2-.514zm-33.448 23.288-.503-1.258c-.032-.081-.049-.166-.049-.252 0-.373.304-.677.677-.677h8.323 8.323c.373 0 .677.304.677.677 0 .086-.017.17-.049.251l-.503 1.259c-5.485-.239-11.411-.239-16.896 0zm18.12 2.327 1.137-2.844c.127-.318.191-.652.191-.993 0-1.476-1.201-2.677-2.677-2.677h-8.323-8.323c-1.476 0-2.677 1.201-2.677 2.677 0 .341.064.675.191.994l1.137 2.844c.321.801.528 1.634.619 2.485h-5.714c.212-.425.559-.778 1.003-1l1.034-.517-2.048-5.118c-.147-.369-.222-.759-.222-1.159 0-1.046.52-2.017 1.391-2.598l.912-.608h12.697 12.697l.912.608c.871.581 1.391 1.552 1.391 2.598 0 .4-.075.79-.224 1.16l-2.047 5.117 1.035.517c.444.222.791.575 1.003 1h-5.714c.091-.852.298-1.684.619-2.486zm-24.672-12.514h30v1c0 .551-.448 1-1 1h-14-14c-.552 0-1-.449-1-1zm5-31c1.302 0 2.402-.839 2.816-2h14.369c.414 1.161 1.514 2 2.816 2 .876 0 1.659-.384 2.208-.985 2.197.151 2.791 2.644 2.791 3.985 0 1.543-1.165 3.872-2.398 6.338-1.689 3.374-3.602 7.199-3.602 10.898v.764h-1.309l1.696-7.632-5.903 2.362-3.484-6.966-3.483 6.966-5.903-2.362 1.695 7.632h-1.309v-.764c0-3.699-1.913-7.523-3.602-10.897-1.233-2.467-2.398-4.796-2.398-6.339 0-1.341.594-3.834 2.792-3.985.549.601 1.332.985 2.208.985zm3.387 16.632 4.097 1.638 2.516-5.034 2.517 5.034 4.097-1.638-1.416 6.368h-10.396zm-2.387 6.368h1.754l.444 2h13.604l.444-2h1.754v6h-18zm28-2c0 1.654-1.346 3-3 3-.552 0-1-.449-1-1s.448-1 1-1h1v-2h-1c-1.654 0-3 1.346-3 3 0 1.302.839 2.402 2 2.816v3.184h-4v-6c0-2.757 2.243-5 5-5 1.654 0 3 1.346 3 3zm-7-27c3.859 0 7 3.14 7 7 0 3.558-1.068 5.693-2.305 8.167-1.008 2.015-2.04 4.107-2.568 7.096-1.07.298-2.036.844-2.835 1.573.572-2.546 1.893-5.195 3.097-7.602 1.401-2.801 2.611-5.219 2.611-7.234 0-2.665-1.376-5.352-4.011-5.895.002-.035.011-.069.011-.105v-1h-2v1c0 .551-.448 1-1 1s-1-.449-1-1c0-1.654 1.346-3 3-3zm-19-1c0-.551.448-1 1-1h12c.552 0 1 .449 1 1v3h-14zm-12 8c0-3.86 3.141-7 7-7 1.654 0 3 1.346 3 3 0 .551-.448 1-1 1s-1-.449-1-1v-1h-2v1c0 .036.009.07.011.105-2.635.543-4.011 3.23-4.011 5.895 0 2.015 1.21 4.433 2.61 7.233 1.204 2.406 2.525 5.056 3.097 7.602-.799-.729-1.764-1.275-2.835-1.573-.528-2.989-1.56-5.08-2.568-7.096-1.236-2.473-2.304-4.608-2.304-8.166zm0 20c0-1.654 1.346-3 3-3 2.757 0 5 2.243 5 5v6h-4v-3.184c1.161-.414 2-1.514 2-2.816 0-1.654-1.346-3-3-3h-1v2h1c.552 0 1 .449 1 1s-.448 1-1 1c-1.654 0-3-1.346-3-3zm-7-11c1.654 0 3 1.346 3 3s-1.346 3-3 3-3-1.346-3-3 1.346-3 3-3zm-1 7.899c.323.066.658.101 1 .101s.677-.035 1-.101v25.082c-.758.168-1.422.34-2 .514zm27 32.101c-16.972 0-27.664-2.027-28.941-3.495.587-.595 3.859-1.989 13.604-2.866-1.039.792-1.663 2.018-1.663 3.361v1h10v-1c0-1.318-.237-2.605-.679-3.838 5.012-.199 10.347-.199 15.359 0-.444 1.234-.68 2.52-.68 3.838v1h10v-1c0-1.343-.624-2.569-1.663-3.361 9.746.877 13.017 2.272 13.604 2.866-1.277 1.468-11.969 3.495-28.941 3.495z"/></g></svg>