<?xml version="1.0" encoding="UTF-8"?>
<svg xmlns="http://www.w3.org/2000/svg" xmlns:xlink="http://www.w3.org/1999/xlink" version="1.1" id="Layer_1" x="0px" y="0px" viewBox="0 0 512 512" style="enable-background:new 0 0 512 512;" xml:space="preserve" width="512" height="512">
<g>
	<g>
		<path style="fill:none;stroke:#000000;stroke-width:15;stroke-linecap:round;stroke-linejoin:round;stroke-miterlimit:10;" d="&#10;&#9;&#9;&#9;M206.652,324.706c-1.438,4.692-2.527,9.999-3.094,15.988"/>
		<path style="fill:none;stroke:#000000;stroke-width:15;stroke-linecap:round;stroke-linejoin:round;stroke-miterlimit:10;" d="&#10;&#9;&#9;&#9;M196.889,380.5h-43.13c-4.532,0-8.294-3.503-8.614-8.031c-0.475-6.714-2.571-16.438-2.571-25.046&#10;&#9;&#9;&#9;c0-10.317,1.861-19.211,4.507-26.641"/>
		<path style="fill:none;stroke:#000000;stroke-width:15;stroke-linecap:round;stroke-linejoin:round;stroke-miterlimit:10;" d="&#10;&#9;&#9;&#9;M191.297,380.5h25.786c4.21,0,7.59-3.51,7.389-7.722c-0.519-10.902-3.366-29.644-20.978-31.045&#10;&#9;&#9;&#9;C203.494,341.733,188.384,346.846,191.297,380.5z"/>
		<path style="fill:none;stroke:#000000;stroke-width:15;stroke-linecap:round;stroke-linejoin:round;stroke-miterlimit:10;" d="&#10;&#9;&#9;&#9;M300.27,358.203l-37.351,19.456c-4.02,2.094-8.974,0.726-11.35-3.142c-3.523-5.735-9.874-13.391-13.851-21.025&#10;&#9;&#9;&#9;c-5.619-10.787-8.03-21.016-8.768-29.811"/>
		<path style="fill:none;stroke:#000000;stroke-width:15;stroke-linecap:round;stroke-linejoin:round;stroke-miterlimit:10;" d="&#10;&#9;&#9;&#9;M296.211,360.317l22.869-11.913c3.733-1.945,5.109-6.62,2.986-10.262c-5.497-9.429-16.681-24.736-32.947-17.842&#10;&#9;&#9;&#9;C289.119,320.301,278.08,331.815,296.211,360.317z"/>
		
			<line style="fill:none;stroke:#000000;stroke-width:15;stroke-linecap:round;stroke-linejoin:round;stroke-miterlimit:10;" x1="465.888" y1="344.133" x2="427.727" y2="364.011"/>
		<path style="fill:none;stroke:#000000;stroke-width:15;stroke-linecap:round;stroke-linejoin:round;stroke-miterlimit:10;" d="&#10;&#9;&#9;&#9;M442.313,317.561c-1.311,6.141-0.691,17.003,9.92,33.684l22.869-11.913c3.733-1.945,5.109-6.62,2.986-10.262&#10;&#9;&#9;&#9;c-2.523-4.328-6.244-9.894-11.105-13.983"/>
		<path style="fill:none;stroke:#000000;stroke-width:15;stroke-linecap:round;stroke-linejoin:round;stroke-miterlimit:10;" d="&#10;&#9;&#9;&#9;M422.662,259.457c8.112-0.909,18.093-3.342,29.563-8.693c32.459-15.144,55.937,14.2,51.803,43.308&#10;&#9;&#9;&#9;c-1.435,10.103-27.641,22.264-62.506,22.264c-8.697,0-29.117,1.601-51.016-2.267"/>
		<path style="fill:none;stroke:#000000;stroke-width:15;stroke-linecap:round;stroke-linejoin:round;stroke-miterlimit:10;" d="&#10;&#9;&#9;&#9;M345.553,147.209c-23.372-12.577-55.27-19.562-98.652-13.483c-134.359,18.829-117.2,129.002-112.934,149.01"/>
		<path style="fill:none;stroke:#000000;stroke-width:15;stroke-linecap:round;stroke-linejoin:round;stroke-miterlimit:10;" d="&#10;&#9;&#9;&#9;M406.84,228.648c-2.207-9.331-10.287-36.774-33.034-60.122"/>
		<path style="fill:none;stroke:#000000;stroke-width:15;stroke-linecap:round;stroke-linejoin:round;stroke-miterlimit:10;" d="&#10;&#9;&#9;&#9;M364.35,294.162c9.709,5.264,30.531,19.324,41.766,47.571"/>
		<path style="fill:none;stroke:#000000;stroke-width:15;stroke-linecap:round;stroke-linejoin:round;stroke-miterlimit:10;" d="&#10;&#9;&#9;&#9;M399.333,380.5h-38.629c-4.532,0-8.294-3.503-8.614-8.031c-0.475-6.714-1.307-16.531-2.571-25.046&#10;&#9;&#9;&#9;c-1.655-11.153-13.733-31.404-19.367-40.379"/>
		<g>
			<path style="fill:none;stroke:#000000;stroke-width:15;stroke-linecap:round;stroke-linejoin:round;stroke-miterlimit:10;" d="&#10;&#9;&#9;&#9;&#9;M197.472,148.45c-0.708,9.874-1.486,22.446-1.761,33.14c0,0,38.303,28.887,62.814,33.997c0,0,41.419-36.88,51.465-57.734&#10;&#9;&#9;&#9;&#9;l-9.525-23.636"/>
			
				<polyline style="fill:none;stroke:#000000;stroke-width:15;stroke-linecap:round;stroke-linejoin:round;stroke-miterlimit:10;" points="&#10;&#9;&#9;&#9;&#9;195.711,181.59 159.948,244.375 132.173,251.698 &#9;&#9;&#9;"/>
			
				<polyline style="fill:none;stroke:#000000;stroke-width:15;stroke-linecap:round;stroke-linejoin:round;stroke-miterlimit:10;" points="&#10;&#9;&#9;&#9;&#9;309.99,157.854 363.781,198.678 390.506,194.812 &#9;&#9;&#9;"/>
			<path style="fill:none;stroke:#000000;stroke-width:15;stroke-linecap:round;stroke-linejoin:round;stroke-miterlimit:10;" d="&#10;&#9;&#9;&#9;&#9;M258.525,215.587c0,0,7.49,53.902,10.701,72.152"/>
			
				<line style="fill:none;stroke:#000000;stroke-width:15;stroke-linecap:round;stroke-linejoin:round;stroke-miterlimit:10;" x1="159.948" y1="244.375" x2="182.632" y2="289.229"/>
			
				<line style="fill:none;stroke:#000000;stroke-width:15;stroke-linecap:round;stroke-linejoin:round;stroke-miterlimit:10;" x1="363.781" y1="198.678" x2="367.822" y2="253.101"/>
		</g>
		<path style="fill:none;stroke:#000000;stroke-width:15;stroke-linecap:round;stroke-linejoin:round;stroke-miterlimit:10;" d="&#10;&#9;&#9;&#9;M193.919,322.436c5.371,0.191,10.987,0.299,16.816,0.299c6.492,0,13.254-0.135,20.229-0.44c34.178-1.494,66.576-6.8,96.296-15.769&#10;&#9;&#9;&#9;c37.503-11.318,70.818-28.525,99.018-51.144c6.463-5.183,7.506-14.632,2.331-21.105c-5.177-6.473-14.61-7.517-21.072-2.335&#10;&#9;&#9;&#9;c-25.079,20.115-54.845,35.488-88.47,45.693c-27.221,8.261-57.029,13.181-88.595,14.623c-54.28,2.477-95.368-6.316-95.776-6.405&#10;&#9;&#9;&#9;c-8.083-1.773-16.069,3.353-17.844,11.449c-1.775,8.099,3.342,16.106,11.429,17.884c0.914,0.201,12.45,2.692,31.198,4.758"/>
		<path style="fill:none;stroke:#000000;stroke-width:15;stroke-linecap:round;stroke-linejoin:round;stroke-miterlimit:10;" d="&#10;&#9;&#9;&#9;M398.242,380.5h22.087c4.21,0,7.59-3.51,7.389-7.722c-0.519-10.902-3.992-29.644-21.604-31.045&#10;&#9;&#9;&#9;C406.114,341.733,395.329,346.846,398.242,380.5z"/>
		<g>
			
				<line style="fill:none;stroke:#000000;stroke-width:15;stroke-linecap:round;stroke-linejoin:round;stroke-miterlimit:10;" x1="7.5" y1="176.642" x2="98.893" y2="176.642"/>
			
				<line style="fill:none;stroke:#000000;stroke-width:15;stroke-linecap:round;stroke-linejoin:round;stroke-miterlimit:10;" x1="7.5" y1="223.309" x2="80.339" y2="223.309"/>
			
				<line style="fill:none;stroke:#000000;stroke-width:15;stroke-linecap:round;stroke-linejoin:round;stroke-miterlimit:10;" x1="7.5" y1="269.976" x2="80.339" y2="269.976"/>
			
				<line style="fill:none;stroke:#000000;stroke-width:15;stroke-linecap:round;stroke-linejoin:round;stroke-miterlimit:10;" x1="7.5" y1="316.642" x2="88.102" y2="316.642"/>
		</g>
	</g>
</g>















</svg>
