<svg id="Capa_1" enable-background="new 0 0 600.262 600.262" height="512" viewBox="0 0 600.262 600.262" width="512" xmlns="http://www.w3.org/2000/svg"><g><g id="Page-1_36_"><g id="_x30_37---Search-Code-for-Bugs"><path id="Path_127_" clip-rule="evenodd" d="m482.746 67.046c3.903 3.902 10.231 3.902 14.134 0l2.929-2.929 2.929 2.929c3.922 3.788 10.157 3.734 14.013-.122s3.91-10.09.122-14.013l-2.929-2.929 2.929-2.929c2.599-2.51 3.641-6.226 2.726-9.721s-3.644-6.224-7.139-7.139-7.211.127-9.721 2.726l-2.929 2.929-2.929-2.929c-3.922-3.788-10.157-3.734-14.013.122s-3.91 10.09-.122 14.013l2.929 2.929-2.929 2.929c-3.903 3.903-3.903 10.231 0 14.134z" fill-rule="evenodd"/><path id="Shape_85_" d="m428.837 230.912c-47.207-47.212-121.19-54.502-176.704-17.413s-77.099 108.227-51.553 169.911c25.546 61.683 91.107 96.732 156.589 83.711s112.648-70.484 112.652-137.248c-.015-37.113-14.755-72.704-40.984-98.961zm-14.145 183.778c-40.467 40.464-103.882 46.708-151.463 14.912s-66.076-92.774-44.174-145.643 78.101-82.906 134.227-71.739c56.127 11.167 96.549 60.426 96.546 117.653-.016 31.81-12.653 62.314-35.136 84.817z"/><path id="Path_126_" clip-rule="evenodd" d="m266.27 276.254c2.651-.001 5.193-1.054 7.067-2.929 14.96-15.047 35.32-23.481 56.538-23.421 5.521 0 9.996-4.475 9.996-9.996s-4.475-9.996-9.996-9.996c-26.522-.07-51.97 10.473-70.672 29.279-2.858 2.859-3.713 7.158-2.166 10.892 1.547 3.735 5.191 6.17 9.233 6.171z" fill-rule="evenodd"/><path id="Shape_84_" d="m533.326 476.816c10.169-5.138 16.549-15.596 16.464-26.989v-419.837c.279-16.249-12.641-29.66-28.889-29.988h-492.008c-16.248.328-29.167 13.74-28.889 29.988v419.836c-.279 16.249 12.641 29.66 28.889 29.988h201.531c62.02 41.092 142.945 39.733 203.55-3.419l21.732 21.742c-.46 1.661-.705 3.374-.73 5.098-.014 5.305 2.095 10.395 5.858 14.135l70.682 70.682c10.039 10.394 24.905 14.563 38.885 10.904s24.897-14.577 28.556-28.556c3.659-13.98-.509-28.846-10.904-38.885zm-504.433-456.822h492.008c5.178.384 9.116 4.809 8.896 9.996v49.98h-509.8v-49.98c-.22-5.187 3.718-9.612 8.896-9.996zm0 439.828c-5.178-.384-9.116-4.809-8.897-9.996v-349.863h509.801v349.863c.219 5.187-3.719 9.612-8.896 9.996h-4.748c-3.576-3.113-8.154-4.834-12.895-4.848-1.728.023-3.445.272-5.108.74l-21.702-21.702c55.233-77.804 40.089-185.201-34.505-244.698s-182.669-50.382-246.244 20.768-60.518 179.566 6.967 247.02c1 1 1.999 1.779 2.999 2.719h-176.772zm187.927-16.853c-45.746-45.74-59.433-114.534-34.679-174.301s83.074-98.737 147.765-98.737 123.011 38.97 147.765 98.737 11.067 128.561-34.679 174.301c-29.852 30.266-70.59 47.305-113.101 47.305s-83.249-17.039-113.101-47.305zm240.316 14.134c2.379-2.379 4.498-4.938 6.727-7.417l18.203 18.203-14.154 14.154-18.243-18.223c2.479-2.229 5.048-4.328 7.437-6.717zm116.784 116.815c-7.909 7.555-20.36 7.555-28.269 0l-70.682-70.682 28.269-28.269 70.682 70.682c7.805 7.807 7.805 20.462 0 28.269z"/><path id="Path_125_" clip-rule="evenodd" d="m57.052 122.884c-3.922-3.788-10.157-3.734-14.013.122s-3.91 10.09-.122 14.013l22.921 22.921-22.921 22.921c-2.599 2.51-3.641 6.226-2.726 9.721s3.644 6.224 7.139 7.139 7.212-.127 9.721-2.726l29.988-29.988c3.902-3.903 3.902-10.231 0-14.134z" fill-rule="evenodd"/><path id="Path_124_" clip-rule="evenodd" d="m159.942 189.928c0-5.521-4.475-9.996-9.996-9.996h-39.984c-5.521 0-9.996 4.475-9.996 9.996s4.475 9.996 9.996 9.996h39.984c5.52 0 9.996-4.475 9.996-9.996z" fill-rule="evenodd"/><path id="Shape_83_" d="m399.848 339.869h-19.992v-5.858l17.063-17.063c3.788-3.922 3.734-10.157-.122-14.013s-10.09-3.91-14.013-.122l-9.076 9.076c-3.521-4.67-8.335-8.204-13.845-10.166v-1.839c0-16.562-13.426-29.988-29.988-29.988s-29.988 13.426-29.988 29.988v1.839c-5.509 1.959-10.322 5.49-13.845 10.156l-9.076-9.076c-3.922-3.788-10.157-3.734-14.013.122s-3.91 10.09-.122 14.013l17.063 17.073v5.858h-19.992c-5.521 0-9.996 4.475-9.996 9.996s4.475 9.996 9.996 9.996h19.992v5.858l-17.063 17.063c-2.599 2.51-3.641 6.226-2.726 9.721s3.644 6.224 7.139 7.139 7.211-.127 9.721-2.726l7.127-7.127c7.91 18.244 25.897 30.05 45.782 30.05s37.872-11.806 45.782-30.05l7.127 7.127c3.922 3.788 10.157 3.734 14.013-.122s3.91-10.09.122-14.013l-17.063-17.063v-5.858h19.992c5.521 0 9.996-4.475 9.996-9.996s-4.474-9.995-9.995-9.995zm-69.973-49.98c5.521 0 9.996 4.475 9.996 9.996h-19.992c0-5.521 4.476-9.996 9.996-9.996zm0 109.957c-16.562 0-29.988-13.426-29.988-29.988v-39.984c0-5.521 4.475-9.996 9.996-9.996h39.984c5.521 0 9.996 4.475 9.996 9.996v39.984c.001 16.562-13.425 29.988-29.988 29.988z"/><g clip-rule="evenodd" fill-rule="evenodd"><circle id="Oval_16_" cx="49.985" cy="49.983" r="9.996"/><circle id="Oval_15_" cx="89.969" cy="49.983" r="9.996"/><circle id="Oval_14_" cx="129.954" cy="49.983" r="9.996"/></g></g></g></g></svg>