<?xml version="1.0"?>
<svg xmlns="http://www.w3.org/2000/svg" id="Icons" viewBox="0 0 60 60" width="512" height="512"><path d="M49,38a4,4,0,0,0,4-4V4a4,4,0,0,0-4-4H11A4,4,0,0,0,7,4V34a4,4,0,0,0,4,4H25v4H20a4,4,0,0,0-4,4V56a4,4,0,0,0,4,4H40a4,4,0,0,0,4-4V46a4,4,0,0,0-4-4H35V38ZM11,2H49a2,2,0,0,1,2,2V8H9V4A2,2,0,0,1,11,2Zm0,34a2,2,0,0,1-2-2V10H51V34a2,2,0,0,1-2,2H35V27h1.18A1.808,1.808,0,0,0,37.8,25.99a1.917,1.917,0,0,0-.175-2.019L31.439,15.73a1.834,1.834,0,0,0-2.878,0l-6.185,8.245a1.917,1.917,0,0,0-.171,2.015A1.808,1.808,0,0,0,23.82,27H25v9ZM42,46V56a2,2,0,0,1-2,2H20a2,2,0,0,1-2-2V46a2,2,0,0,1,2-2H40A2,2,0,0,1,42,46ZM27,42V26a1,1,0,0,0-1-1H24.107L30,17.143,35.94,25H34a1,1,0,0,0-1,1V42Z"/><path d="M25.832,48.445a1,1,0,0,0-1.387-.277l-3,2a1,1,0,0,0,0,1.664l3,2a1,1,0,1,0,1.11-1.664L23.8,51l1.752-1.168A1,1,0,0,0,25.832,48.445Z"/><path d="M34.168,53.555a1,1,0,0,0,1.387.277l3-2a1,1,0,0,0,0-1.664l-3-2a1,1,0,0,0-1.11,1.664L36.2,51l-1.752,1.168A1,1,0,0,0,34.168,53.555Z"/><path d="M31.316,47.052a1,1,0,0,0-1.264.632l-2,6a1,1,0,1,0,1.9.632l2-6A1,1,0,0,0,31.316,47.052Z"/><path d="M12,6h1a1,1,0,0,0,0-2H12a1,1,0,0,0,0,2Z"/><path d="M17,6h1a1,1,0,0,0,0-2H17a1,1,0,0,0,0,2Z"/><path d="M22,6h1a1,1,0,0,0,0-2H22a1,1,0,0,0,0,2Z"/><path d="M44,6h4a1,1,0,0,0,0-2H44a1,1,0,0,0,0,2Z"/></svg>
