<svg id="Layer_1" viewBox="0 0 512 512" xmlns="http://www.w3.org/2000/svg" data-name="Layer 1"><path d="m402.651 306.014c-7.86-6.449-20.4-8.025-29.161 1.434l-42.034 45.423c-2.779-12.399-13.886-21.692-27.125-21.692h-73.084l-8.028-4.643c-9.547-5.497-19.118-8.057-30.119-8.057h-30.671c-16.278 0-30.601 5.924-42.568 17.607l-38.621 37.702-9.219-9.219c-2.342-2.342-6.137-2.342-8.479 0l-32.031 32.031c-2.342 2.341-2.342 6.138 0 8.479l100.658 100.658c1.171 1.171 2.705 1.756 4.239 1.756s3.068-.585 4.239-1.756l32.031-32.031c2.342-2.341 2.342-6.138 0-8.479l-9.45-9.45 4.971-5.704c4.966-5.705 11.312-8.599 18.863-8.599h110.919c20.642 0 39.006-9.637 51.711-27.139l57.317-79.058c7.665-10.574 3.609-22.726-4.358-29.264zm-266.244 187.005-92.18-92.18 23.553-23.553 92.18 92.18zm260.895-164.778-57.314 79.054c-10.538 14.517-25.063 22.189-42.006 22.189h-110.919c-11.017 0-20.667 4.397-27.905 12.714l-4.428 5.081-65.011-65.011 38.518-37.601c9.786-9.553 20.971-14.197 34.193-14.197h30.671c8.936 0 16.38 1.991 24.127 6.451l9.411 5.443c.912.527 1.947.805 3.001.805h74.692c8.714 0 15.804 7.076 15.804 15.774 0 3.858-1.432 7.592-4.031 10.518-3.023 3.359-7.313 5.286-11.773 5.286h-63.666c-3.312 0-5.995 2.684-5.995 5.995s2.684 5.995 5.995 5.995h63.666c7.825 0 15.333-3.349 20.623-9.19.006-.007.014-.011.021-.018l57.314-61.936c4.186-4.517 9.487-2.992 12.756-.31 3.369 2.765 5.982 7.816 2.257 12.957zm79.942-314.486h-74.523c-2.763 0-5.003 2.24-5.003 5.003 0 2.31-.003 4.613-.004 6.921l-91.184-21.01c-.22-.051-.442-.086-.667-.107-17.854-1.632-52.482 33.401-66.364 49.274h-90.253c-3.312 0-5.995 2.684-5.995 5.995v237.713c0 3.312 2.684 5.995 5.995 5.995h186.973c3.312 0 5.995-2.684 5.995-5.995v-135.827c1.301.154 2.537.238 3.754.238 4.152 0 8.094-.949 13.747-3.189l37.892-14.979c0 1.922-.003 3.839-.003 5.762 0 2.763 2.24 5.003 5.003 5.003h74.637c2.763 0 5.003-2.24 5.003-5.003v-130.791c0-2.763-2.24-5.003-5.003-5.003zm-322.002 277.794v-225.722h174.982v40.85c-4.66.588-10.108.724-16.552.265-.203-.014-.405-.016-.608-.006-21.144 1.066-38.069 15.34-39.077 27.39-.242 2.894.072 12.58 14.266 15.713l41.972 9.299v132.212h-174.982zm186.973-196.326c3.529.583 7.334.91 11.357.665-2.936 2.962-6.502 5.689-11.357 7.726zm13.819 54.238c-7.872 3.118-10.538 3.021-18.533 1.241l-47.088-10.433c-4.483-.989-6.655-2.708-6.454-5.109.562-6.728 13.098-17.278 29.316-18.214 35.205 2.425 46.223-11.741 54.273-22.093 1.194-1.536 2.323-2.987 3.43-4.238 1.574-1.78 1.68-4.421.253-6.321-1.428-1.9-3.995-2.533-6.143-1.516-6.894 3.267-13.933 3.991-22.874 2.268v-25.214c0-3.311-2.684-5.995-5.995-5.995h-83.278c18.598-19.999 42.218-39.333 51.465-39.333.087 0 .175.001.26.005l93.042 21.437c-.01 16.087-.026 32.159-.047 48.221-.021 16.278-.038 32.561-.048 48.857l-41.579 16.436zm116.207-4.915h-64.63c.004-20.147.029-40.254.056-60.365.023-17.339.043-34.685.051-52.055 0-.036 0-.072 0-.109.001-2.753.005-5.501.005-8.256h64.518zm-297.411-53.589c0-3.311 2.684-5.995 5.995-5.995h123.846c3.312 0 5.995 2.684 5.995 5.995s-2.684 5.995-5.995 5.995h-123.846c-3.312 0-5.995-2.684-5.995-5.995zm-1.729 28.885c0-3.311 2.684-5.995 5.995-5.995h66.104c3.312 0 5.995 2.684 5.995 5.995s-2.684 5.995-5.995 5.995h-66.104c-3.312 0-5.995-2.684-5.995-5.995zm0 28.885c0-3.311 2.684-5.995 5.995-5.995h66.104c3.312 0 5.995 2.684 5.995 5.995s-2.684 5.995-5.995 5.995h-66.104c-3.312 0-5.995-2.684-5.995-5.995zm137.565 28.885c0 3.312-2.684 5.995-5.995 5.995h-123.846c-3.312 0-5.995-2.684-5.995-5.995s2.684-5.995 5.995-5.995h123.846c3.312 0 5.995 2.684 5.995 5.995zm0 28.914c0 3.312-2.684 5.995-5.995 5.995h-123.846c-3.312 0-5.995-2.684-5.995-5.995s2.684-5.995 5.995-5.995h123.846c3.312 0 5.995 2.684 5.995 5.995zm0 28.885c0 3.312-2.684 5.995-5.995 5.995h-123.846c-3.312 0-5.995-2.684-5.995-5.995s2.684-5.995 5.995-5.995h123.846c3.312 0 5.995 2.684 5.995 5.995zm0 28.885c0 3.312-2.684 5.995-5.995 5.995h-123.846c-3.312 0-5.995-2.684-5.995-5.995s2.684-5.995 5.995-5.995h123.846c3.312 0 5.995 2.684 5.995 5.995z"/></svg>