<svg id="Outline" height="512" viewBox="0 0 64 64" width="512" xmlns="http://www.w3.org/2000/svg"><g><path d="m30 17c-.553 0-1 .447-1 1s.447 1 1 1h24c.553 0 1-.447 1-1v-7c0-.553-.447-1-1-1h-20c-1.654 0-3-1.346-3-3v-4c0-.553-.447-1-1-1s-1 .447-1 1v4c0 2.757 2.243 5 5 5h19v5z"/><path d="m57 32h-4c-.553 0-1 .447-1 1s.447 1 1 1h4c1.654 0 3 1.346 3 3v20c0 1.654-1.346 3-3 3h-20c-1.654 0-3-1.346-3-3v-20c0-1.654 1.346-3 3-3h12c.553 0 1-.447 1-1s-.447-1-1-1h-12c-2.757 0-5 2.243-5 5v20c0 2.757 2.243 5 5 5h20c2.757 0 5-2.243 5-5v-20c0-2.757-2.243-5-5-5z"/><path d="m40.937 56.174c1.803 1.194 3.901 1.826 6.063 1.826 6.065 0 11-4.935 11-11s-4.935-11-11-11-11 4.935-11 11c0 2.162.632 4.26 1.826 6.063.305.461.924.587 1.386.282.461-.305.587-.926.282-1.386-.977-1.476-1.494-3.19-1.494-4.959 0-4.963 4.037-9 9-9s9 4.037 9 9-4.037 9-9 9c-1.769 0-3.483-.517-4.96-1.494-.461-.305-1.082-.179-1.386.282-.304.46-.178 1.081.283 1.386z"/><path d="m43 42c-1.654 0-3 1.346-3 3v4c0 1.654 1.346 3 3 3s3-1.346 3-3v-4c0-1.654-1.346-3-3-3zm1 7c0 .552-.448 1-1 1s-1-.448-1-1v-4c0-.552.448-1 1-1s1 .448 1 1z"/><path d="m51 52c1.654 0 3-1.346 3-3v-4c0-1.654-1.346-3-3-3s-3 1.346-3 3v4c0 1.654 1.346 3 3 3zm-1-7c0-.552.448-1 1-1s1 .448 1 1v4c0 .552-.448 1-1 1s-1-.448-1-1z"/><path d="m26.35 41.81c1.17-1.17 1.17-3.073 0-4.244-.92-.919-2.29-1.103-3.404-.575l-2.91-2.909c-.71-.711-1.722-1.016-2.709-.82l-1.436.287c-.334.062-.668-.037-.904-.273l-2.071-2.071c-.391-.391-1.023-.391-1.414 0l-.527.527-2.975-2.974v-5.758h46c2.757 0 5-2.243 5-5v-7c0-2.757-2.243-5-5-5h-19v-3c0-.553-.447-1-1-1s-1 .447-1 1v4c0 .553.447 1 1 1h20c1.654 0 3 1.346 3 3v7c0 1.654-1.346 3-3 3h-47c-.553 0-1 .447-1 1v7.172c0 .266.105.52.293.707l3.266 3.266-1.414 1.414-3.266-3.266c-.567-.567-.879-1.32-.879-2.122v-7.171c0-1.654 1.346-3 3-3h19c.553 0 1-.447 1-1s-.447-1-1-1h-19c-2.757 0-5 2.243-5 5v7.171c0 1.336.521 2.592 1.465 3.536l3.266 3.266-.887.887c-.391.391-.391 1.023 0 1.414l2.072 2.073c.236.236.339.573.272.901l-.287 1.438c-.197.986.109 1.999.82 2.709l2.908 2.908c-.19.398-.3.832-.3 1.286 0 .801.312 1.555.879 2.121.585.585 1.353.877 2.121.877s1.536-.292 2.121-.877l2.828 2.828c.566.566 1.32.879 2.122.879.801 0 1.555-.312 2.121-.879 1.17-1.17 1.17-3.072 0-4.242l-2.828-2.829 1.414-1.414 2.828 2.83c.585.584 1.354.876 2.121.876.769 0 1.537-.293 2.123-.877 1.168-1.17 1.168-3.073-.001-4.243zm-16.214 2.171c-.236-.237-.339-.575-.273-.903l.287-1.436c.198-.986-.108-2-.82-2.71l-1.364-1.365 4.243-4.242 1.364 1.364c.71.711 1.721 1.017 2.71.82l1.437-.287c.328-.063.665.036.902.273l2.779 2.778-8.486 8.486zm11.971 7.729c.39.39.39 1.024 0 1.414-.379.378-1.035.379-1.414 0l-2.829-2.828 1.415-1.415zm-7.071-1.414c-.391.391-1.023.391-1.414 0-.188-.189-.293-.44-.293-.707 0-.268.104-.518.293-.707l9.899-9.899c.194-.195.451-.293.707-.293s.513.098.707.292c.39.391.39 1.024 0 1.415zm12.729-2.829c-.39.39-1.023.391-1.415.001l-2.828-2.829 1.414-1.414 2.828 2.828c.39.389.39 1.025.001 1.414z"/><circle cx="47" cy="41" r="1"/><circle cx="47" cy="53" r="1"/><path d="m29.189 57.37-1.102-.259 1.269-1.187c.403-.377.425-1.01.048-1.413-.378-.404-1.011-.424-1.413-.048l-2.634 2.462c-.27.252-.379.632-.284.987.096.356.379.632.737.717l1.102.259-1.269 1.187c-.403.377-.425 1.01-.048 1.413.197.211.464.317.73.317.245 0 .49-.089.683-.27l2.634-2.462c.27-.252.379-.632.284-.987-.095-.356-.378-.631-.737-.716z"/><path d="m15.226 54.875-3.342 1.354c-.342.139-.579.454-.618.82-.039.367.127.726.432.934l.935.636-1.609.652c-.512.207-.758.791-.551 1.303.157.389.532.624.927.624.125 0 .253-.023.376-.073l3.342-1.354c.342-.139.579-.454.618-.82.039-.367-.127-.726-.432-.934l-.935-.636 1.609-.652c.512-.207.758-.791.551-1.303s-.793-.759-1.303-.551z"/><path d="m30.076 31.554-1.065.381.421-1.686c.135-.535-.191-1.078-.728-1.212-.526-.133-1.078.19-1.212.728l-.875 3.498c-.09.357.024.735.298.983.274.247.66.323 1.009.2l1.065-.381-.421 1.686c-.135.535.191 1.078.728 1.212.081.021.162.03.243.03.448 0 .855-.303.969-.758l.875-3.498c.09-.357-.024-.735-.298-.983-.274-.247-.661-.323-1.009-.2z"/></g></svg>