<?xml version="1.0" encoding="UTF-8" standalone="no"?>
<!-- Created with Inkscape (http://www.inkscape.org/) -->

<svg
   version="1.1"
   id="svg3642"
   xml:space="preserve"
   width="682.66669"
   height="682.66669"
   viewBox="0 0 682.66669 682.66669"
   xmlns="http://www.w3.org/2000/svg"
   xmlns:svg="http://www.w3.org/2000/svg"><defs
     id="defs3646"><clipPath
       clipPathUnits="userSpaceOnUse"
       id="clipPath3656"><path
         d="M 0,512 H 512 V 0 H 0 Z"
         id="path3654" /></clipPath></defs><g
     id="g3648"
     transform="matrix(1.3333333,0,0,-1.3333333,0,682.66667)"><g
       id="g3650"><g
         id="g3652"
         clip-path="url(#clipPath3656)"><g
           id="g3658"
           transform="translate(262.9023,61.2021)"><path
             d="m 0,0 h -207.639 c -26.39,0 -47.763,21.401 -47.763,47.792 m 456.946,246.246 h 40.054 V 0 H 33.959 m -212.797,294.038 h 316.291"
             style="fill:none;stroke:#000000;stroke-width:14.995;stroke-linecap:round;stroke-linejoin:round;stroke-miterlimit:10;stroke-dasharray:none;stroke-opacity:1"
             id="path3660" /></g><g
           id="g3662"
           transform="translate(84.064,291.0078)"><path
             d="m 0,0 v 150.151 c -8.022,6.067 -17.972,9.639 -28.8,9.639 -26.391,0 -47.764,-21.374 -47.764,-47.764 v -294.04 c 0,26.391 21.373,47.765 47.764,47.765 10.828,0 20.778,-3.571 28.8,-9.638 v 109.899"
             style="fill:none;stroke:#000000;stroke-width:14.995;stroke-linecap:round;stroke-linejoin:round;stroke-miterlimit:10;stroke-dasharray:none;stroke-opacity:1"
             id="path3664" /></g><path
           d="m 124.004,231.055 h 85.918 v 85.918 h -85.918 z"
           style="fill:none;stroke:#000000;stroke-width:14.995;stroke-linecap:round;stroke-linejoin:round;stroke-miterlimit:10;stroke-dasharray:none;stroke-opacity:1"
           id="path3666" /><g
           id="g3668"
           transform="translate(352.0239,274)"><path
             d="m 0,0 h -101.509 m 59.301,-35.773 h -59.301 M 0,35.801 h -101.509"
             style="fill:none;stroke:#000000;stroke-width:14.995;stroke-linecap:round;stroke-linejoin:round;stroke-miterlimit:10;stroke-dasharray:none;stroke-opacity:1"
             id="path3670" /></g><g
           id="g3672"
           transform="translate(464.4463,293.5303)"><path
             d="m 0,0 v 102.474 m -64.091,0 V -136.432 H 0 v 102.445"
             style="fill:none;stroke:#000000;stroke-width:14.995;stroke-linecap:round;stroke-linejoin:round;stroke-miterlimit:10;stroke-dasharray:none;stroke-opacity:1"
             id="path3674" /></g><g
           id="g3676"
           transform="translate(400.7231,156.3613)"><path
             d="m 0,0 31.691,-62.362 31.607,62.22"
             style="fill:none;stroke:#000000;stroke-width:14.995;stroke-linecap:round;stroke-linejoin:round;stroke-miterlimit:10;stroke-dasharray:none;stroke-opacity:1"
             id="path3678" /></g><g
           id="g3680"
           transform="translate(464.4463,396.0039)"><path
             d="m 0,0 v 35.206 c 0,10.772 -8.815,19.588 -19.587,19.588 h -24.889 c -10.8,0 -19.615,-8.816 -19.615,-19.588 V 0 Z"
             style="fill:none;stroke:#000000;stroke-width:14.995;stroke-linecap:round;stroke-linejoin:round;stroke-miterlimit:10;stroke-dasharray:none;stroke-opacity:1"
             id="path3682" /></g><path
           d="m 115.699,93.999 h 61.143 v 47.169 h -61.143 z"
           style="fill:none;stroke:#000000;stroke-width:14.995;stroke-linecap:round;stroke-linejoin:round;stroke-miterlimit:10;stroke-dasharray:none;stroke-opacity:1"
           id="path3684" /><path
           d="m 176.841,93.999 h 61.172 v 97.399 h -61.172 z"
           style="fill:none;stroke:#000000;stroke-width:14.995;stroke-linecap:round;stroke-linejoin:round;stroke-miterlimit:10;stroke-dasharray:none;stroke-opacity:1"
           id="path3686" /><path
           d="m 238.014,93.999 h 61.144 v 76.564 h -61.144 z"
           style="fill:none;stroke:#000000;stroke-width:14.995;stroke-linecap:round;stroke-linejoin:round;stroke-miterlimit:10;stroke-dasharray:none;stroke-opacity:1"
           id="path3688" /><path
           d="m 299.157,93.999 h 61.144 v 47.169 h -61.144 z"
           style="fill:none;stroke:#000000;stroke-width:14.995;stroke-linecap:round;stroke-linejoin:round;stroke-miterlimit:10;stroke-dasharray:none;stroke-opacity:1"
           id="path3690" /><g
           id="g3692"
           transform="translate(432.4146,355.2402)"><path
             d="M 0,0 V -157.407"
             style="fill:none;stroke:#000000;stroke-width:14.995;stroke-linecap:round;stroke-linejoin:round;stroke-miterlimit:10;stroke-dasharray:none;stroke-opacity:1"
             id="path3694" /></g><g
           id="g3696"
           transform="translate(148.7505,274)"><path
             d="M 0,0 12.132,-12.133 36.396,12.132"
             style="fill:none;stroke:#000000;stroke-width:14.995;stroke-linecap:round;stroke-linejoin:round;stroke-miterlimit:10;stroke-dasharray:none;stroke-opacity:1"
             id="path3698" /></g></g></g></g></svg>
