<svg id="a" height="512" viewBox="0 0 100 100" width="512" xmlns="http://www.w3.org/2000/svg"><path d="m94.3 48.57-10.39-28.54c-.09-.25-.28-.45-.52-.56s-.52-.12-.76-.03l-6.98 2.54c-.52.19-.79.76-.6 1.28l.74 2.03-4.58 1.67c-.37.14-.61.47-.65.85h-4.17c-1.46 0-2.9-.23-4.3-.7-3.83-1.27-9.02-2.77-12.01-2.77-3.31 0-9.75 2.37-13.09 4.7l-7.63-1.5c-.1-.26-.3-.47-.58-.58l-4.58-1.67.74-2.03c.19-.52-.08-1.09-.6-1.28l-6.98-2.54c-.5-.19-1.11.09-1.28.6l-10.38 28.53c-.19.52.08 1.09.6 1.28l6.99 2.54c.5.19 1.11-.09 1.28-.6l.4-1.09 4.43 1.61 1.89 1.95c-.84.76-1.38 1.85-1.38 3.07 0 2.29 1.87 4.16 4.16 4.16.12 0 .22-.02.34-.03-.11.4-.18.81-.18 1.25 0 2.67 2.17 4.84 4.84 4.84.22 0 .44-.04.65-.07-.02.19-.06.38-.06.58 0 2.67 2.17 4.84 4.84 4.84 1 0 1.93-.3 2.7-.83.02 2.43 2 4.4 4.43 4.4 1.25 0 2.38-.53 3.19-1.36.08.18.19.34.36.45.02.01 2.08 1.35 3.51 2.53.91.75 2.23 1.19 3.52 1.19.26 0 .51-.02.76-.05 1.26-.18 2.3-.79 2.94-1.72.63-.92.86-1.96.83-2.96.11.09.21.17.29.23.91.75 2.23 1.19 3.52 1.19.26 0 .51-.02.76-.05 1.26-.18 2.3-.79 2.94-1.72.74-1.08.95-2.33.8-3.48.5.13 1.01.22 1.53.22.26 0 .51-.02.76-.05 1.26-.18 2.3-.79 2.94-1.72.59-.87.84-1.83.84-2.78.62.47 1.44.73 2.38.73.26 0 .52-.02.8-.06 1.72-.24 3.37-1.2 4.22-2.44 1.49-2.18.85-5-.61-6.47-.16-.16-.83-.71-1.85-1.54 1.53-.68 3-2.09 4.45-4.26l4.56-1.66.4 1.09c.17.51.78.79 1.28.6l6.99-2.54c.52-.19.79-.76.6-1.28zm-81.28 1.6-5.11-1.86 9.7-26.66 5.11 1.86zm10.5-23 3.61 1.31s0 .03.01.05l-7.83 21.52c-.06.01-.11.02-.17.04l-3.5-1.27zm-1.63 30.17c0-1.19.97-2.16 2.16-2.16s2.16.97 2.16 2.16-.97 2.16-2.16 2.16-2.16-.97-2.16-2.16zm7.15 8.21c-1.57 0-2.84-1.27-2.84-2.84s1.27-2.84 2.84-2.84 2.84 1.27 2.84 2.84c0 .68-.25 1.3-.65 1.78-.13.12-.25.24-.36.37-.5.42-1.13.69-1.83.69zm5.43 5.35c-1.57 0-2.84-1.27-2.84-2.84 0-.68.25-1.3.65-1.78.13-.12.25-.24.36-.37.5-.42 1.13-.69 1.83-.69 1.57 0 2.84 1.27 2.84 2.84s-1.27 2.84-2.84 2.84zm7.13 3.57c-1.34 0-2.44-1.09-2.44-2.44s1.09-2.44 2.44-2.44 2.44 1.09 2.44 2.44-1.09 2.44-2.44 2.44zm35.22-10.97c-.53.78-1.68 1.42-2.84 1.58-.74.1-1.37 0-1.72-.3-1.25-1.05-9.75-8.16-12.37-10.35-.42-.35-1.05-.29-1.4.13-.35.42-.3 1.05.12 1.41 1.8 1.5 6.37 5.33 9.46 7.91.04.08.08.16.15.22.76.76 1.32 2.55.38 3.93-.4.59-1.07.8-1.56.86-.96.14-2.08-.15-2.73-.69-1.48-1.23-9.4-7.48-9.74-7.74-.43-.34-1.06-.27-1.4.17-.34.43-.27 1.06.17 1.4.07.06 6.15 4.85 8.75 6.94.04.06.06.12.11.17.76.76 1.32 2.55.38 3.93-.4.59-1.07.8-1.56.86-.96.13-2.08-.15-2.73-.69-1.49-1.24-8.23-6.3-8.52-6.52-.44-.33-1.07-.24-1.4.2s-.24 1.07.2 1.4c.04.03 2.75 2.07 5.14 3.89.04.08.09.16.15.23.76.76 1.32 2.55.38 3.93-.4.59-1.07.8-1.56.86-.96.13-2.08-.15-2.73-.69-1.52-1.26-3.62-2.62-3.7-2.68-.17-.11-.35-.14-.54-.14.35-.84.46-1.81.2-2.82-.37-1.49-1.56-2.7-3.03-3.13-1.33-.39-2.58-.13-3.58.48 0-.07.02-.14.02-.21 0-2.67-2.17-4.84-4.84-4.84-.22 0-.44.04-.65.07.02-.19.06-.38.06-.58 0-2.67-2.17-4.84-4.84-4.84-.31 0-.61.04-.9.09.03-.2.06-.41.06-.62 0-2.29-1.87-4.16-4.16-4.16-.33 0-.64.05-.95.12-.02-.03-.03-.06-.06-.09l-2.01-2.07 7.88-21.66 6.25 1.23c-.12.18-.21.36-.26.54-.7 2.39-2.18 6.4-3.16 7.44l-.36.38c-1.1 1.13-2.6 2.68-1.09 5.2.86 1.43 3.27 1.72 5.25 1.52 3.07-.31 6.78-1.89 8.27-5.37 1.16-.4 3.68-1.39 5.03-2.69 10.96 8.59 26.81 21.06 27.61 21.85.76.76 1.32 2.55.38 3.93zm-2.48-8.43c-.06.01-.12.05-.17.07-2.4-1.92-5.7-4.53-9.12-7.22 3.32-.06 5.87-1.13 7.74-3.25.37-.41.33-1.05-.09-1.41-.41-.37-1.05-.33-1.41.09-2.3 2.66-8.74 2.47-8.87 2.51-6.05-4.76-11.86-9.31-13.14-10.32-.24-.19-.56-.26-.86-.18s-.55.29-.67.57c-.34.79-2.86 2.05-5 2.75-.3.1-.53.32-.64.62-1.03 2.93-4.29 4.26-6.76 4.51-2 .2-3.15-.27-3.33-.56-.69-1.14-.35-1.58.81-2.78l.38-.4c1.74-1.85 3.6-8.19 3.61-8.24.5-1.28 8.89-5.48 13.25-5.48 2.1 0 6.25.97 11.39 2.67 1.6.53 3.26.8 4.93.8h4.66s.08-.02.12-.02l7.75 21.3c-1.57 2.38-3.1 3.74-4.58 3.99zm6.36-4.92-7.88-21.65 3.64-1.32 7.88 21.65zm6.25.03-9.7-26.66 5.11-1.86 9.7 26.66z"/><path d="m50 84.21c-.55 0-1 .45-1 1v8.79c0 .55.45 1 1 1s1-.45 1-1v-8.79c0-.55-.45-1-1-1z"/><path d="m65.76 81.08c-.33-.44-.96-.53-1.4-.2s-.53.96-.2 1.4l5.28 7.04c.2.26.5.4.8.4.21 0 .42-.06.6-.2.44-.33.53-.96.2-1.4z"/><path d="m82.07 75.51-6.92-3.52c-.49-.25-1.09-.05-1.34.44s-.05 1.09.44 1.34l6.92 3.52c.15.07.3.11.45.11.36 0 .72-.2.89-.55.25-.49.05-1.09-.44-1.34z"/><path d="m88.9 63.34-4.29-.88c-.54-.11-1.07.24-1.18.78s.24 1.07.78 1.18l4.29.88c.07.01.14.02.2.02.46 0 .88-.33.98-.8.11-.54-.24-1.07-.78-1.18z"/><path d="m15.31 62.45-4.29.88c-.54.11-.89.64-.78 1.18.1.47.51.8.98.8.07 0 .13 0 .2-.02l4.29-.88c.54-.11.89-.64.78-1.18s-.64-.89-1.18-.78z"/><path d="m24.94 71.99-6.92 3.52c-.49.25-.69.85-.44 1.34.18.35.53.55.89.55.15 0 .31-.03.45-.11l6.92-3.52c.49-.25.69-.85.44-1.34s-.85-.69-1.34-.44z"/><path d="m34.17 81.08-5.28 7.04c-.33.44-.24 1.07.2 1.4.18.14.39.2.6.2.3 0 .6-.14.8-.4l5.28-7.04c.33-.44.24-1.07-.2-1.4s-1.07-.24-1.4.2z"/><path d="m50 15.79c.55 0 1-.45 1-1v-8.79c0-.55-.45-1-1-1s-1 .45-1 1v8.79c0 .55.45 1 1 1z"/><path d="m64.96 19.32c.3 0 .6-.14.8-.4l5.28-7.04c.33-.44.24-1.07-.2-1.4s-1.07-.24-1.4.2l-5.28 7.04c-.33.44-.24 1.07.2 1.4.18.14.39.2.6.2z"/><path d="m34.17 18.92c.2.26.5.4.8.4.21 0 .42-.06.6-.2.44-.33.53-.96.2-1.4l-5.28-7.04c-.33-.44-.96-.53-1.4-.2s-.53.96-.2 1.4z"/></svg>