<svg id="Layer_1" enable-background="new 0 0 512 512" viewBox="0 0 512 512" xmlns="http://www.w3.org/2000/svg"><path d="m384.172 45.489v-13.994c0-4.418 3.582-8 8-8s8 3.582 8 8v13.994c0 4.418-3.582 8-8 8s-8-3.582-8-8zm48.809 18.936c1.26.727 2.635 1.072 3.992 1.072 2.765 0 5.454-1.435 6.937-4.001l6.997-12.12c2.209-3.826.897-8.72-2.929-10.929-3.826-2.207-8.719-.898-10.929 2.929l-6.997 12.12c-2.208 3.826-.897 8.72 2.929 10.929zm36.811 33.875c1.356 0 2.732-.346 3.992-1.073l12.119-6.997c3.826-2.209 5.138-7.102 2.928-10.928-2.208-3.825-7.099-5.139-10.928-2.928l-12.119 6.997c-3.826 2.209-5.138 7.102-2.928 10.928 1.482 2.566 4.17 4.001 6.936 4.001zm-129.356-36.804c1.481 2.566 4.17 4.001 6.936 4.001 1.356 0 2.732-.346 3.992-1.073 3.826-2.209 5.138-7.102 2.928-10.928l-6.997-12.119c-2.208-3.825-7.1-5.14-10.928-2.928-3.826 2.209-5.138 7.102-2.928 10.928zm-41.996 28.734 12.12 6.997c1.26.727 2.635 1.072 3.992 1.072 2.765 0 5.454-1.435 6.937-4.001 2.209-3.826.897-8.72-2.929-10.929l-12.12-6.997c-3.826-2.207-8.719-.898-10.929 2.929-2.208 3.827-.897 8.72 2.929 10.929zm-184.647 139.734c-26.153 0-47.431-21.276-47.431-47.429s21.277-47.431 47.431-47.431c26.152 0 47.43 21.277 47.43 47.431 0 26.153-21.278 47.429-47.43 47.429zm0-16c17.33 0 31.43-14.099 31.43-31.429 0-17.331-14.1-31.431-31.43-31.431-17.331 0-31.431 14.1-31.431 31.431 0 17.33 14.1 31.429 31.431 31.429zm390.207 77.548c0 14.855-12.085 26.941-26.94 26.941h-212.025l99.703 157.778c1.558 2.464 1.651 5.581.244 8.134-1.407 2.554-4.092 4.14-7.007 4.14h-203.951c-2.915 0-5.6-1.586-7.007-4.14-1.407-2.553-1.313-5.67.244-8.134l99.703-157.778h-212.024c-14.855 0-26.94-12.086-26.94-26.941s12.085-26.94 26.94-26.94h58.4l-2.184-5.673c-5.325-1.576-10.462-3.706-15.349-6.363l-9.841 4.37c-3.026 1.341-6.562.686-8.904-1.654l-15.987-15.987c-2.34-2.341-2.997-5.88-1.654-8.904l4.368-9.835c-2.657-4.887-4.788-10.026-6.365-15.355l-10.037-3.864c-3.088-1.188-5.126-4.156-5.126-7.466v-22.611c0-3.31 2.038-6.277 5.126-7.466l10.039-3.864c1.576-5.325 3.706-10.464 6.364-15.352l-4.369-9.839c-1.343-3.024-.686-6.563 1.654-8.904l15.987-15.987c2.341-2.34 5.878-2.998 8.904-1.654l9.84 4.37c4.888-2.658 10.025-4.788 15.35-6.364l3.865-10.04c1.188-3.088 4.156-5.126 7.466-5.126h22.609c3.31 0 6.277 2.038 7.466 5.127l3.864 10.039c5.324 1.576 10.462 3.707 15.35 6.364l9.84-4.37c3.025-1.342 6.563-.685 8.904 1.654l15.987 15.987c2.34 2.341 2.997 5.88 1.654 8.904l-4.368 9.836c2.658 4.887 4.789 10.027 6.365 15.355l10.037 3.863c3.088 1.188 5.126 4.156 5.126 7.466v22.608c0 3.31-2.038 6.277-5.126 7.466l-10.041 3.865c-1.576 5.325-3.706 10.462-6.364 15.349l4.371 9.841c1.343 3.024.686 6.563-1.654 8.904l-15.987 15.987c-2.341 2.34-5.879 2.998-8.904 1.654l-9.835-4.368c-4.89 2.658-10.028 4.789-15.355 6.365l-2.182 5.669h238.438c-2.747-3.113-4.428-7.187-4.428-11.654v-3.473c-5.854-2.878-9.901-8.886-9.901-15.837v-3.591c-5.721-2.924-9.654-8.864-9.654-15.718v-9.394c-1.439-23.964-7.38-34.122-13.127-43.943-5.314-9.082-10.81-18.474-10.81-35.979 0-37.171 30.24-67.411 67.411-67.411 37.17 0 67.41 30.24 67.41 67.411 0 17.505-5.495 26.896-10.81 35.979-5.747 9.822-11.688 19.979-13.127 43.943v9.394c0 6.853-3.934 12.793-9.654 15.717v3.591c0 6.951-4.048 12.958-9.901 15.836v3.473c0 4.468-1.682 8.541-4.428 11.654h65.397c14.855.004 26.94 12.089 26.94 26.945zm-119.746-38.595c0 .896.758 1.654 1.654 1.654h12.528c.896 0 1.654-.758 1.654-1.654v-1.655h-15.837v1.655zm-9.901-19.31c0 .896.757 1.654 1.653 1.654h32.331c.897 0 1.655-.758 1.655-1.654v-1.654h-35.64v1.654zm-9.655-19.308c0 .896.757 1.654 1.653 1.654h51.641c.896 0 1.654-.758 1.654-1.654v-1.655h-54.948zm9.215-88.879c0-3.201-2.604-5.806-5.807-5.806-3.201 0-5.806 2.604-5.806 5.806s2.604 5.807 5.806 5.807h5.807zm20.519 21.807h-4.519v49.417h4.519zm-53.67-22.244c0 13.168 3.615 19.347 8.619 27.898 5.512 9.419 12.243 20.923 14.686 43.762h9.847v-49.417h-5.807c-12.023 0-21.806-9.782-21.806-21.807 0-12.023 9.782-21.806 21.806-21.806s21.807 9.782 21.807 21.806v5.807h4.519v-5.807c0-12.023 9.782-21.806 21.806-21.806s21.807 9.782 21.807 21.806-9.782 21.807-21.807 21.807h-5.806v49.417h9.847c2.442-22.839 9.174-34.343 14.686-43.762 5.004-8.552 8.619-14.73 8.619-27.898 0-28.349-23.062-51.411-51.41-51.411-28.351 0-51.413 23.063-51.413 51.411zm75.475 6.244c3.202 0 5.807-2.604 5.807-5.807 0-3.201-2.604-5.806-5.807-5.806-3.201 0-5.806 2.604-5.806 5.806v5.807zm-317.225 113.213c2.566.61 4.667 2.446 5.614 4.908l3.355 8.717h11.623l3.354-8.712c.947-2.463 3.048-4.299 5.614-4.91 6.55-1.558 12.786-4.144 18.538-7.685 2.247-1.384 5.032-1.569 7.441-.499l8.54 3.793 8.219-8.219-3.795-8.545c-1.07-2.411-.884-5.194.499-7.441 3.54-5.75 6.125-11.985 7.685-18.533.61-2.566 2.447-4.666 4.908-5.613l8.716-3.355v-11.622l-8.713-3.354c-2.462-.947-4.298-3.048-4.909-5.614-1.559-6.552-4.144-12.788-7.684-18.536-1.384-2.246-1.57-5.031-.5-7.442l3.793-8.541-8.219-8.219-8.545 3.795c-2.408 1.071-5.193.885-7.441-.499-5.751-3.541-11.986-6.126-18.532-7.685-2.566-.61-4.667-2.447-5.614-4.909l-3.354-8.715h-11.623l-3.355 8.716c-.947 2.462-3.048 4.298-5.614 4.908-6.546 1.559-12.781 4.144-18.532 7.685-2.246 1.384-5.032 1.57-7.441.499l-8.545-3.795-8.219 8.219 3.794 8.544c1.07 2.411.884 5.195-.499 7.441-3.541 5.751-6.126 11.986-7.684 18.533-.611 2.566-2.447 4.667-4.909 5.614l-8.715 3.354v11.623l8.713 3.354c2.462.947 4.298 3.048 4.908 5.613 1.561 6.555 4.146 12.792 7.685 18.538 1.384 2.247 1.57 5.031.5 7.442l-3.793 8.54 8.219 8.219 8.546-3.795c2.409-1.071 5.193-.885 7.441.499 5.747 3.541 11.983 6.126 18.53 7.684zm244.445 228.065-87.457-138.399-61.963 98.055h100.88c4.418 0 8 3.582 8 8s-3.582 8-8 8h-110.991l-15.383 24.344zm144.543-180.993c0-6.032-4.908-10.94-10.94-10.94h-442.12c-6.032 0-10.94 4.908-10.94 10.94 0 6.033 4.908 10.941 10.94 10.941h442.12c6.032 0 10.94-4.908 10.94-10.941z"/></svg>