<svg height="512" viewBox="0 0 50 60" width="512" xmlns="http://www.w3.org/2000/svg"><g id="Page-1" fill="none" fill-rule="evenodd"><g id="017---Tower-Of-Babylon" fill="rgb(0,0,0)" fill-rule="nonzero" transform="translate(0 -1)"><path id="Shape" d="m35.228 1.42c-.4832829-.37878859-1.1150173-.5117853-1.71-.36l-18 4.5c-.8926941.21944316-1.5196813 1.02073111-1.518 1.94v4.915l-.479.144c-.8942492.2183568-1.5228059 1.0204795-1.521 1.941v7.4l-.478.128c-.89501.2180523-1.5241563 1.0208132-1.522 1.942v8.5l-.423.106c-.91992201.1924202-1.57842502 1.0041702-1.577 1.944v7.944l-.437.11c-.91004569.2064251-1.55775577 1.012851-1.563 1.946v7.98l-.393.079c-.93448371.1872772-1.60699635 1.0079352-1.607 1.961v4.46h-3c-.55228475 0-1 .4477153-1 1s.44771525 1 1 1h48c.5522847 0 1-.4477153 1-1s-.4477153-1-1-1h-3v-12.061c.0008028-.53022-.2098135-1.0388816-.585205-1.4133346s-.8845787-.5837954-1.414795-.5816654v-8.944c0-1.1045695-.8954305-2-2-2v-7c.001615-.5301938-.2088379-1.0390216-.5844938-1.4131749s-.8853232-.5825651-1.4155062-.5788251v-8.008c.0024065-.5311671-.2075343-1.0412743-.58313-1.41687s-.8857029-.5855365-1.41687-.58313v-7c.002424-.53053171-.2077374-1.03993351-.583541-1.41442176-.3758035-.37448825-.8859391-.5828623-1.416459-.57857824v-3.007c.0021028-.61800076-.2831793-1.20186819-.772-1.58zm-1.228 1.58v3.507l-18 5.315v-4.322zm-19.955 11.488 21.233-6.278.722-.21v7.466l-2 .534v-4c0-.5522847-.4477153-1-1-1s-1 .4477153-1 1v4.539l-2 .536v-4.075c0-.5522847-.4477153-1-1-1s-1 .4477153-1 1v4.611l-2 .536v-4.147c0-.5522847-.4477153-1-1-1s-1 .4477153-1 1v4.683l-2 .537v-4.22c0-.5522847-.4477153-1-1-1s-1 .4477153-1 1v4.756l-2 .536v-4.292c0-.5522847-.4477153-1-1-1s-1 .4477153-1 1v4.828l-1.993.534zm-2.028 9.478 25.983-6.966v8.448l-2 .5v-4.948c0-.5522847-.4477153-1-1-1s-1 .4477153-1 1v5.45l-3 .75v-5.2c0-.5522847-.4477153-1-1-1s-1 .4477153-1 1v5.7l-3 .752v-4.452c0-.5522847-.4477153-1-1-1s-1 .4477153-1 1v4.957l-3 .752v-4.709c0-.5522847-.4477153-1-1-1s-1 .4477153-1 1v5.211l-3 .752v-4.963c0-.5522847-.4477153-1-1-1s-1 .4477153-1 1v5.464l-2 .5zm-1.987 10.555 29.216-7.321.754-.2v7.44l-4 1v-1.44c-.0082058-1.6534434-1.3465566-2.9917942-3-3-1.6568542 0-3 1.3431458-3 3v2.947l-2 .5v-1.447c-.0082058-1.6534434-1.3465566-2.9917942-3-3-1.6568542 0-3 1.3431458-3 3v2.953l-2 .5v-1.453c-.0082058-1.6534434-1.3465566-2.9917942-3-3-1.6568542 0-3 1.3431458-3 3v2.96l-4 1zm23.97 1.423-2 .5v-2.444c0-.5522847.4477153-1 1-1 .2696918-.0006712.5276905.1100548.713.306.1854514.1830903.2889672.4334037.287.694zm-8 2.006-2 .5v-2.45c0-.5522847.4477153-1 1-1 .2696918-.0006712.5276905.1100548.713.306.1854514.1830903.2889672.4334037.287.694zm-8 2.007-2 .5v-2.457c0-.5522847.4477153-1 1-1 .2696918-.0006712.5276905.1100548.713.306.1854514.1830903.2889672.4334037.287.694zm-9.977 4.563 33.977-8.52v9.3l-2 .4v-3.7c-.0082058-1.6534434-1.3465566-2.9917942-3-3-1.6568542 0-3 1.3431458-3 3v4.9l-2 .4v-3.3c-.0082058-1.6534434-1.3465566-2.9917942-3-3-1.6568542 0-3 1.3431458-3 3v4.5l-2 .4v-2.9c-.0082058-1.6534434-1.3465566-2.9917942-3-3-1.6568542 0-3 1.3431458-3 3v4.1l-2 .4v-2.5c-.0082058-1.6534434-1.3465566-2.9917942-3-3-1.6568542 0-3 1.3431458-3 3v3.7l-2 .4zm29.977 1.58-2 .4v-4.5c0-.5522847.4477153-1 1-1 .2696918-.0006712.5276905.1100548.713.306.1854514.1830903.2889672.4334037.287.694zm-8 1.6-2 .4v-4.1c0-.5522847.4477153-1 1-1 .2696918-.0006712.5276905.1100548.713.306.1854514.1830903.2889672.4334037.287.694zm-8 1.6-2 .4v-3.7c0-.5522847.4477153-1 1-1 .2696918-.0006712.5276905.1100548.713.306.1854514.1830903.2889672.4334037.287.694zm-8 1.6-2 .4v-3.3c0-.5522847.4477153-1 1-1 .2696918-.0006712.5276905.1100548.713.306.1854514.1830903.2889672.4334037.287.694zm-8 8.1v-4.46l38-7.6v12.06z"/></g></g></svg>