<svg clip-rule="evenodd" fill-rule="evenodd" height="512" image-rendering="optimizeQuality" shape-rendering="geometricPrecision" text-rendering="geometricPrecision" viewBox="0 0 4335 4335" width="512" xmlns="http://www.w3.org/2000/svg"><g id="Layer_x0020_1"><path d="m2374 3245c-32 0-58-26-58-58v-256c0-76 116-76 116 0v256c0 32-26 58-58 58zm1903 964h-4219c-32 0-57-26-57-58v-611c0-68 74-58 114-58v-2280c0-32 26-58 57-58h1349c40-309 150-540 276-708 122-163 321-322 379-309 80 19 256 158 384 340 111 158 215 379 254 677h1348c32 0 58 26 58 58v2280c40 0 114-10 114 58v611c0 32-25 58-57 58zm-4161-116h4103v-496h-1281l-237 284c-11 13-27 21-44 21h-979c-17 0-34-8-45-21l-236-284h-1281zm1589-306h925l158-190h-1241zm-196-2527h-1279v2222h139v-2026c0-32 26-58 58-58h1078c0-47 1-94 4-138zm2457 2222h139v-2222h-1280c3 44 5 91 5 139h1078c32 0 58 25 58 57zm-2458-1968h-1024v1968h3367v-1968h-1024c-1 12-1 24-2 36 97 114 239 404 239 1121 0 52-64 77-100 39l-313-342c-39 115-30 104-154 104v251c0 32-25 58-57 58h-545c-32 0-57-26-57-58v-251c-125 0-115 11-154-104l-313 342c-36 38-100 13-100-39 0-716 142-1006 239-1121-1-12-2-24-2-36zm659 1816c-31 0-57-26-57-58v-257c0-76 115-76 115 0v257c0 32-26 58-58 58zm215-858h-429v194h429zm-739-230c-56-183-93-351-114-506-62 130-128 365-141 784zm1163-507c-22 156-58 324-114 507l255 278c-13-420-80-655-141-785zm-1005 622h732c261-752 202-1260 61-1589-253 187-600 187-854-1-161 378-177 903 61 1590zm742-1696c-139-258-320-380-376-413-55 33-237 155-375 413 219 176 532 176 751 0zm-376 1265c-161 0-293-132-293-294 0-161 132-293 293-293 162 0 294 132 294 293 0 162-132 294-294 294zm0-471c-98 0-178 79-178 177 0 99 80 178 178 178s178-79 178-178c0-98-80-177-178-177zm-206 1790c-32 0-58-26-58-58v-256c0-76 116-76 116 0v256c0 32-26 58-58 58z"/></g></svg>