<svg id="Capa_1" enable-background="new 0 0 511.991 511.991" height="512" viewBox="0 0 511.991 511.991" width="512" xmlns="http://www.w3.org/2000/svg"><g><path d="m461.292 425.682c-13.856-1.23-28 2.515-40.283 10.408l-45.081-65.182s78.873-.111 79.203-.113c22.377-.658 40.048-19.398 39.391-41.775l-1.259-42.84c-.311-10.57-6.601-20.231-16.384-24.243-9.732-3.991-20.524-1.984-28.177 5.252-9.955 9.411-16.491 22.23-18.823 36.401-9.289-1.536-18.465-3.132-26.026-4.461-5.245-.922-10.518 2.231-11.779 7.405-1.382 5.671 2.322 11.239 7.979 12.234 8.351 1.469 18.713 3.272 29.079 4.969l.806 27.443-204.602-.758c-29.427 0-53.938-21.451-58.71-49.53h111.36c7.572 0 18.189.938 32.461 2.866.454.061.905.091 1.352.091 5.037 0 9.408-3.807 9.937-8.997.553-5.43-3.564-10.235-8.974-10.963-10.735-1.444-19.608-2.354-26.875-2.756l-18.56-75.588c-1.589-6.462-3.945-13.076-6.928-19.646 7.241-10.891 36.232-54.468 36.232-54.468 8.588-12.907 10.806-28.779 6.085-43.546-4.724-14.773-15.742-26.42-30.233-31.955l-79.363-30.299c-15.444-21.081-43.195-31.035-69.437-22.679-28.31 9.014-45.735 36.427-43.327 64.859l-51.005 60.736c-9.878 11.754-13.877 27.144-10.975 42.219 3.212 16.734 15.385 31.11 31.769 37.518l26.432 10.335s.001 255.23.001 283.371c0 5.523 4.478 10 10 10h40.736c5.523 0 10-4.477 10-10v-90.834h90.899v90.834c0 5.523 4.477 10 10 10h40.736c5.523 0 10-4.477 10-10v-115.609c11.047 12.528 99.048 112.809 99.048 112.809 7.425 7.904 17.484 12.443 28.324 12.78.434.014.865.021 1.297.021 10.363 0 20.181-3.883 27.768-11.012l31.671-29.757c7.685-7.219 10.318-17.892 6.874-27.855-3.446-9.974-12.121-16.751-22.639-17.685zm1.15-143.961c2.732-2.582 5.713-1.75 6.868-1.272 1.149.476 3.834 1.984 3.943 5.719l1.276 43.439c.334 11.354-8.632 20.863-19.986 21.197l-4.603.135-1-34.045v.001c-.401-13.653 4.646-26.802 13.502-35.174zm-193.492 88.699v20.736h-172.372v-20.736zm-96.283-20h-35.351v-92.823l6.729 27.411c1.005 4.094 1.688 8.262 2.034 12.463 1.731 21.015 11.661 39.734 26.588 52.949zm110.998-256.447c2.86 8.945 1.517 18.559-3.685 26.379 0 0-25.186 37.86-30.527 45.891-4.017-6.036-8.516-11.844-13.415-17.239-2.562-2.822-5.2-5.468-7.886-7.971 7.326-10.243 14.654-20.488 21.993-30.735 1.188-1.658 1.959-3.612 2.029-5.65.144-4.203-2.271-7.897-5.917-9.527-7.941-3.549-34.768-15.556-34.768-15.556-.254-5.311-1.184-10.673-2.872-15.974l-3.854-12.107 60.585 23.128c8.779 3.353 15.456 10.41 18.317 19.361zm-74.707 6.37s13.744 6.152 17.961 8.039c-4.833 6.752-9.66 13.502-14.488 20.251-4.64-3.028-9.361-5.585-14.109-7.636 4.79-6.162 8.405-13.174 10.636-20.654zm-79.207-78.334c4.275-1.362 8.61-2.009 12.876-2.009 18.027 0 34.804 11.562 40.559 29.634l6.375 20.023c7.114 22.348-5.278 46.318-27.626 53.434s-46.317-5.277-53.435-27.625l-6.375-20.023c-7.114-22.348 5.279-46.318 27.626-53.434zm-19.556 109.534c4.595 3.632 9.672 6.608 15.074 8.833-.883 1.427-1.722 2.913-2.498 4.466-2.37 4.772-6.374 8.281-11.307 9.924-5.107 1.702-10.717.971-15.406-1.673l-1.396-.787zm-72.179 35.447c-1.758-9.135.664-18.457 6.649-25.578l41.675-49.627 3.104 9.749c1.718 5.397 4.115 10.391 7.05 14.936l-24.665 32.971c-1.723 2.303-2.37 5.237-1.777 8.052.594 2.814 2.37 5.237 4.876 6.65 8.933 5.122 19.986 12.235 30.583 11.608 3.802-.001 7.63-.572 11.385-1.725 10.282-3.159 18.953-10.553 23.776-20.263.801-1.603 1.691-3.103 2.667-4.492 1.05-1.506 2.227-2.906 3.493-4.213.745.027 1.492.045 2.24.045 6.269 0 12.646-.952 18.932-2.953 4.682-1.491 9.055-3.5 13.102-5.918 30.57 7.192 59.385 43.919 66.8 74.084l17.329 70.575h-101.606l-12.26-49.944c-.776-3.159-3.04-5.744-6.07-6.929l-87.869-34.359c-10.045-3.93-17.483-12.614-19.414-22.669zm79.301 67.56v115.87h-20.74v-123.98zm-.003 257.44h-20.736v-80.834h20.736zm130.899 0v-80.834h20.736v80.834zm53.421-121.455 49.893.251 54.04 78.137-19.773 18.577c-13.276-14.617-72.43-83.73-84.16-96.965zm161.73 86.111-31.672 29.757c-4.001 3.76-9.214 5.74-14.712 5.578-5.63-.166-10.915-2.77-14.772-6.875l-2.787-2.966 24.822-23.321s0 0 0-.001c9.953-9.352 23.137-14.289 35.281-13.214 3.744.333 5.098 3.116 5.506 4.297.406 1.176 1.057 4.186-1.666 6.745z"/><path d="m355.092 310.84c6.844 1.123 12.677-4.71 11.555-11.554-.68-4.145-4.022-7.487-8.167-8.168-6.844-1.123-12.678 4.71-11.555 11.555.68 4.145 4.023 7.487 8.167 8.167z"/></g></svg>