<svg height="512" viewBox="0 0 96 96" width="512" xmlns="http://www.w3.org/2000/svg"><g id="Layer_4"><g><path d="m87.017 32.394c0-.827-.671-1.499-1.499-1.499h-7.992c-1.378 0-2.498 1.12-2.498 2.498v8.211h-17.391c-1.377 0-2.498 1.12-2.498 2.498v5.067c-1.038-.325-2.788-.69-5.023-.455-1.233.133-3.035.515-4.388 1.188-.68.335-1.444.71-2.245 1.105l-1.988-1.956c.584-.446 1.048-1.037 1.325-1.744.393-1.011.37-2.115-.065-3.106-.436-.995-1.233-1.762-2.245-2.156-1.012-.396-2.117-.375-3.11.064l-2.049.898-2.882-2.835c-1.443-1.417-3.573-1.809-5.426-.997l-2.578 1.128c-.387.17-.685.496-.819.896-.135.4-.095.839.111 1.208l8.014 14.377c-4.347 2.146-8.587 4.242-11.573 5.721l-6.133-3.236c-.872-.464-1.89-.5-2.788-.103l-2.38 1.044c-.411.18-.72.535-.841.966-.121.433-.042.898.215 1.264l5.956 8.513-.521.228c-.758.332-1.103 1.216-.771 1.973.246.562.796.898 1.373.898.201 0 1.121-.355 1.121-.355l2.224 10.148c.096.439.384.812.784 1.015.213.109.446.164.68.164.204 0 .409-.041.601-.127l2.379-1.042c.901-.394 1.562-1.165 1.814-2.117l1.774-6.695s10.268-3.952 12.053-4.639l5.14 15.631c.132.402.427.728.813.899.194.088 1.021.088 1.213.004l2.579-1.132c1.853-.812 3.008-2.642 2.943-4.665l-.132-4.041 2.049-.898c2.052-.901 2.99-3.303 2.089-5.358-.766-1.745-2.618-2.673-4.42-2.359l-.091-2.778c.836-.323 1.633-.63 2.343-.905 1.043-.406 2-.962 2.873-1.624v23.165c0 .827.671 1.499 1.499 1.499.827 0 1.499-.671 1.499-1.499v-26.987c.001-.032.001-.061 0-.094v-14.661h17.392c1.377 0 2.498-1.12 2.498-2.498v-8.211h7.493c.828.001 1.499-.67 1.499-1.498zm-35.326 39.654c.236.54-.011 1.171-.549 1.409l-.951.417-.075-2.302c-.001-.001 1.337-.066 1.575.476zm-13.087-27.195c.261-.115.551-.123.817-.016.266.103.476.304.591.568.113.256.119.554.018.812-.105.269-.737.668-.737.668l-1.641-1.616zm-11.427-2.467 1.069-.468c.725-.314 1.558-.162 2.122.392l10.269 10.1c-1.935.954-4.034 1.989-6.176 3.046zm19.104 40.675-1.07.468-4.671-14.206c2.231-.859 4.407-1.698 6.422-2.475l.47 14.388c.025.791-.426 1.507-1.151 1.825zm8.859-24.118c-.994 1.379-2.354 2.438-3.958 3.062-4.855 1.879-27.722 10.679-27.722 10.679-.824.316-1.676.42-2.532.33-.819-.078-1.564.5-1.657 1.321s.499 1.565 1.321 1.657c.314.035.627.053.939.053.263 0 .522-.048.783-.072l-1.418 5.136-.706.31-1.961-8.949 2.95-1.293c.758-.332 1.103-1.216.771-1.973-.333-.757-1.217-1.102-1.974-.771l-2.95 1.293-5.221-7.462.858-.347 4.573 2.413c-.428.382-.839.789-1.197 1.267-.496.663-.36 1.602.302 2.098.269.201.584.299.896.299.457 0 .907-.207 1.201-.601.542-.726 1.202-1.278 1.977-1.651 6.13-3.04 19.796-9.783 26.641-13.151 1.006-.501 2.45-.794 3.38-.894 2.664-.297 4.591.606 4.702.633v6.613z"/><path d="m74.162 50.293h-10.622c-.828 0-1.499.671-1.499 1.499 0 .827.671 1.499 1.499 1.499h10.621c.827 0 1.499-.671 1.499-1.499s-.671-1.499-1.498-1.499z"/><path d="m74.162 59.397h-10.622c-.828 0-1.499.671-1.499 1.499 0 .827.671 1.499 1.499 1.499h10.621c.827 0 1.499-.671 1.499-1.499s-.671-1.499-1.498-1.499z"/><path d="m74.162 68.499h-10.622c-.828 0-1.499.671-1.499 1.499s.671 1.499 1.499 1.499h10.621c.827 0 1.499-.671 1.499-1.499s-.671-1.499-1.498-1.499z"/><path d="m74.162 77.601h-10.622c-.828 0-1.499.671-1.499 1.499 0 .827.671 1.499 1.499 1.499h10.621c.827 0 1.499-.671 1.499-1.499 0-.827-.671-1.499-1.498-1.499z"/><path d="m86.501 40.886h-2.629c-.828 0-1.499.671-1.499 1.499 0 .827.671 1.499 1.499 1.499h2.629c.828 0 1.499-.671 1.499-1.499s-.671-1.499-1.499-1.499z"/><path d="m86.501 49.988h-2.629c-.828 0-1.499.671-1.499 1.499 0 .827.671 1.499 1.499 1.499h2.629c.828 0 1.499-.671 1.499-1.499s-.671-1.499-1.499-1.499z"/><path d="m86.501 59.092h-2.629c-.828 0-1.499.671-1.499 1.499 0 .827.671 1.499 1.499 1.499h2.629c.828 0 1.499-.671 1.499-1.499 0-.827-.671-1.499-1.499-1.499z"/><path d="m86.501 68.195h-2.629c-.828 0-1.499.671-1.499 1.499 0 .827.671 1.499 1.499 1.499h2.629c.828 0 1.499-.671 1.499-1.499s-.671-1.499-1.499-1.499z"/><path d="m86.501 77.601h-2.629c-.828 0-1.499.671-1.499 1.499 0 .827.671 1.499 1.499 1.499h2.629c.828 0 1.499-.671 1.499-1.499 0-.827-.671-1.499-1.499-1.499z"/><path d="m49.936 55.902c-.332-.757-1.216-1.102-1.974-.771-.758.332-1.103 1.216-.772 1.973l.759 1.733c.246.562.796.898 1.374.898.2 0 .405-.041.6-.127.758-.332 1.103-1.216.772-1.973z"/><path d="m53.273 34.363c-.79-.252-1.629.191-1.877.981 0 0-1.974 5.108-3.63 5.604-.793.238-1.243 1.073-1.005 1.865.194.65.79 1.069 1.435 1.069.142 0 .287-.02.43-.062 2.931-.878 4.594-4.591 5.231-6.353 2.335.07 4.533-1.432 5.266-3.77.43-1.374.3-2.831-.366-4.105-.274-.525-.626-.991-1.04-1.391 1.52-1.623 1.932-4.097.845-6.177-.756-1.444-2.079-2.404-3.555-2.747.696-1.395 1.242-3.182.933-5.069-.393-2.4-2.024-4.375-4.848-5.873-.73-.384-1.638-.109-2.025.622-.388.732-.109 1.639.621 2.027 1.948 1.032 3.056 2.275 3.293 3.697.441 2.64-2.053 5.34-2.076 5.364-.503.531-.549 1.348-.108 1.934.441.583 1.24.763 1.89.425 1.165-.615 2.611-.156 3.219 1.009.609 1.165.156 2.611-1.01 3.221-.123.062-.779.658-.779.658-.386.367-.549.909-.43 1.426.12.519.505.935 1.013 1.093.607.189 1.104.605 1.399 1.169.296.566.353 1.212.162 1.82-.391 1.255-1.733 1.955-2.988 1.563z"/><path d="m40.77 11.392c.812-.158 1.343-.944 1.185-1.758-.158-.812-.946-1.339-1.757-1.184-1.987.386-3.705 1.526-4.837 3.212-1.131 1.68-1.538 3.696-1.149 5.668.485 2.533 2.22 4.577 4.491 5.537-.394.755-.606 1.604-.599 2.478-.008 1.432.544 2.782 1.556 3.801.407.408.867.743 1.367.999-2.368 3.292-2.073 7.92.884 10.878.293.293.676.439 1.06.439.383 0 .767-.146 1.059-.439.585-.585.585-1.534 0-2.119-2.117-2.117-2.117-5.563 0-7.68.1-.1.766-1.266.766-1.266.257-.462.249-1.028-.02-1.485s-.76-.738-1.291-.738c-.645 0-1.249-.25-1.699-.704-.445-.447-.688-1.04-.684-1.69-.007-.866.446-1.643 1.212-2.078.59-.334.882-1.022.712-1.68-.17-.656-.76-1.116-1.438-1.122-2.161-.018-4.025-1.573-4.433-3.701-.235-1.194.011-2.412.694-3.426.683-1.019 1.721-1.71 2.921-1.942z"/></g></g></svg>