<svg id="Layer_1" enable-background="new 0 0 512 512" viewBox="0 0 512 512" xmlns="http://www.w3.org/2000/svg"><path d="m217.2 197.6c-9-.7-16.1 1.7-21.3 5.8-21.6-11.5-101.5-54.2-101.5-54.2-9.4-4.8-16.7 9.1-7.5 14.1l99.9 53.3c-3.6 10.8-1 23.6 7.9 31.4-12.8 14.2-42.9 47.4-42.9 47.4-6.9 7.8 4.7 18.5 11.9 10.8 0 0 46.5-51.4 46.5-51.4 37.8 4.1 44.9-51.8 7-57.2zm-2.9 41.5c-17.1.4-17.9-25.2-.5-25.7 16.6.5 17.1 24.5.5 25.7zm-8.6-147v-18.3c.2-10.5 15.8-10.5 16 0v18.3c-.1 10.6-15.8 10.6-16 0zm-126.9 142.9h-18.3c-10.5-.2-10.5-15.8 0-16h18.3c10.6.2 10.6 15.9 0 16zm355.4 59c12.4-6.9 14.4-26.7 1-34.6 5.1-8.8 12.2-21.1 12.2-21.1 10.5-18.6-4.5-37.2-21.4-37.7-12.8-105.7-104.2-188.3-212.3-188.2-257.3 7.3-290.5 362.2-48.3 421.8-1.6 7.9.3 16.6 5.9 22.7-12.8 14.1-6.6 41.8 18.6 42.6h129.6c5.4.1 10.3-1.5 14.2-4.3 14.9 2.9 32.8 4.3 54.7 4.3 57.1 0 122.6-8.8 122.6-77.8 0-36.8-39.6-87.8-76.8-127.7zm-244.4 120.4c-11.5.2-12.7-18.2 0-18.5h129.6c12.5.1 11.7 18.7 0 18.5zm0-34.6c-12.5-.3-11.8-18.5 0-18.5 3.4.1 96.3 0 129.6 0 12.2.1 11.9 18.4 0 18.5zm109.9-34.5c-36.3 0-109.8 0-109.8 0-25.2.8-31.4 28.5-18.6 42.6-.4.4-.7.9-1.1 1.4-185.9-51.8-157.2-326 43.5-331.8 83.3-.2 153.3 60.7 166.7 141.3-4.9 1.5-9.2 4.4-12.2 8.7-21.1-19.4-53.1 6-38.9 30.9l12.2 21c-12 7.6-12.8 27.6 1.1 34.5-17 18.3-31.4 35.5-42.9 51.4zm96.3-127.7c1.7 2.4 1.4 5.6 1.5 8.4v30.3c-14.5 0-28.3 0-39.3 0l-15-25.9c-5.8-10.4 9.6-19.4 15.7-9.1l5.4 9.3c1.8 3.1 5.5 4.7 9 3.7 5.6-1.5 6.3-6.7 5.9-11.7-.1-9 12-12.5 16.8-5zm-43.7 62.9c-6.1-.3-5-9.3 1.2-8.2h70.9c5.3 0 5.4 8.2 0 8.2 0 0-2.5 0-6.5 0-3.3 0-64.3 0-65.6 0zm81.2-50.2-15 25.9c-5 0-12.7 0-21.1 0 .7-1.2 15.4-26.7 20.3-35 5.4-9.6 21.8-2.1 15.8 9.1zm-219.8-201.8c101 0 186.4 77.5 196.7 177.3-.7.5-1.4 1.1-2 1.7-2.9-4.3-7.2-7-11.9-8.7-13.4-90.1-91-157.3-182.8-157.3-214.5 4.2-254.8 302.7-49.2 363-.2 5.2 1.4 10.1 4.1 14.5-226.5-58.6-189.7-384.6 45.1-390.5zm-23.9 420.5c-12.9-.3-11.2-18.8 0-18.6h129.6c12.2.1 11.9 18.5 0 18.6zm0 34.5c-12.2-.2-12.1-18.3 0-18.5h129.6c8.2-.2 12.1 10.4 6.5 16-1.5 1.5-3.6 2.5-6.5 2.6.1-.1-129.6-.1-129.6-.1zm154.1-2.7c2.1-8.4.2-17.2-6-23.8 8.9-9.2 9-25.3 0-34.6 8.9-9.2 9-25.2 0-34.6 15.1-15 3.4-43.1-18.3-42.5 11.7-15.2 26-31.5 42.5-48.7h52.4c126.6 127.6 103.7 203.2-70.6 184.2zm54.6-92.7c32.1.3 38.9 45.1 8.8 55.1v3.7c-.2 10.5-15.8 10.5-16 0v-3.3c-12.1-3.2-21.1-14.2-21.1-27.3.2-10.5 15.8-10.5 16 0 0 6.8 5.5 12.3 12.3 12.3 16.2-.4 16.2-24.2 0-24.6-33.9-1-38.1-48.1-7.2-55.5v-3.3c.2-10.5 15.8-10.5 16 0v3.8c10.4 3.2 19.1 12.1 19.5 26.7-.2 10.5-15.8 10.5-16 0 0-6.8-5.5-12.3-12.3-12.3-16.2.5-16.2 24.3 0 24.7z"/></svg>