<?xml version="1.0" encoding="UTF-8" standalone="no"?>
<!-- Created with Inkscape (http://www.inkscape.org/) -->

<svg
   version="1.1"
   id="svg561"
   xml:space="preserve"
   width="682.66669"
   height="682.66669"
   viewBox="0 0 682.66669 682.66669"
   xmlns="http://www.w3.org/2000/svg"
   xmlns:svg="http://www.w3.org/2000/svg"><defs
     id="defs565"><clipPath
       clipPathUnits="userSpaceOnUse"
       id="clipPath579"><path
         d="M 0,512 H 512 V 0 H 0 Z"
         id="path577" /></clipPath><clipPath
       clipPathUnits="userSpaceOnUse"
       id="clipPath595"><path
         d="M 0,512 H 512 V 0 H 0 Z"
         id="path593" /></clipPath></defs><g
     id="g567"
     transform="matrix(1.3333333,0,0,-1.3333333,0,682.66667)"><g
       id="g569"
       transform="translate(447.8525,436.2935)"><path
         d="M 0,0 11.692,25.176"
         style="fill:none;stroke:#000000;stroke-width:15;stroke-linecap:round;stroke-linejoin:round;stroke-miterlimit:10;stroke-dasharray:none;stroke-opacity:1"
         id="path571" /></g><g
       id="g573"><g
         id="g575"
         clip-path="url(#clipPath579)"><g
           id="g581"
           transform="translate(482.8857,405.3857)"><path
             d="M 0,0 21.614,11.599"
             style="fill:none;stroke:#000000;stroke-width:15;stroke-linecap:round;stroke-linejoin:round;stroke-miterlimit:10;stroke-dasharray:none;stroke-opacity:1"
             id="path583" /></g></g></g><g
       id="g585"
       transform="translate(401.6357,443.1201)"><path
         d="M 0,0 -5.083,23.998"
         style="fill:none;stroke:#000000;stroke-width:15;stroke-linecap:round;stroke-linejoin:round;stroke-miterlimit:10;stroke-dasharray:none;stroke-opacity:1"
         id="path587" /></g><g
       id="g589"><g
         id="g591"
         clip-path="url(#clipPath595)"><g
           id="g597"
           transform="translate(416.4492,221.7285)"><path
             d="M 0,0 C -0.12,1.54 -0.39,3.04 -0.79,4.48"
             style="fill:none;stroke:#000000;stroke-width:15;stroke-linecap:round;stroke-linejoin:round;stroke-miterlimit:10;stroke-dasharray:none;stroke-opacity:1"
             id="path599" /></g><g
           id="g601"
           transform="translate(379.7793,390.8496)"><path
             d="M 0,0 H 48.061 C 61.311,0 72.61,-10.31 73.08,-23.56 73.57,-37.47 62.44,-48.9 48.64,-48.9 h 43.951 c 13.8,0 24.93,-11.431 24.43,-25.341 -0.47,-13.25 -11.76,-23.55 -25.01,-23.55 H 69.37 c 13.8,0 24.931,-11.44 24.431,-25.34 -0.471,-13.25 -11.761,-23.56 -25.021,-23.56 h -9.03"
             style="fill:none;stroke:#000000;stroke-width:15;stroke-linecap:round;stroke-linejoin:round;stroke-miterlimit:10;stroke-dasharray:none;stroke-opacity:1"
             id="path603" /></g><g
           id="g605"
           transform="translate(162.5674,390.8496)"><path
             d="m 0,0 h 17.4 c 6.06,0 11.86,2.41 16.14,6.69 l 73.36,73.361 c 5.701,5.69 13.171,8.54 20.641,8.54 7.47,0 14.93,-2.85 20.63,-8.54 11.4,-11.401 11.4,-29.881 0,-41.271 l -29.3,-29.3 c -3.5,-3.5 -1.02,-9.48 3.93,-9.48 h 64.41"
             style="fill:none;stroke:#000000;stroke-width:15;stroke-linecap:round;stroke-linejoin:round;stroke-miterlimit:10;stroke-dasharray:none;stroke-opacity:1"
             id="path607" /></g><g
           id="g609"
           transform="translate(428.4229,341.9521)"><path
             d="M 0,0 H -90.941"
             style="fill:none;stroke:#000000;stroke-width:15;stroke-linecap:round;stroke-linejoin:round;stroke-miterlimit:10;stroke-dasharray:none;stroke-opacity:1"
             id="path611" /></g><g
           id="g613"
           transform="translate(449.1504,293.0547)"><path
             d="M 0,0 H -66.025"
             style="fill:none;stroke:#000000;stroke-width:15;stroke-linecap:round;stroke-linejoin:round;stroke-miterlimit:10;stroke-dasharray:none;stroke-opacity:1"
             id="path615" /></g><g
           id="g617"
           transform="translate(71.7061,238.2886)"><path
             d="m 0,0 v 167.981 h 66.361 c 15.01,0 27.17,-12.16 27.17,-27.17 V 77.42"
             style="fill:none;stroke:#000000;stroke-width:15;stroke-linecap:round;stroke-linejoin:round;stroke-miterlimit:10;stroke-dasharray:none;stroke-opacity:1"
             id="path619" /></g><g
           id="g621"
           transform="translate(279.8672,395.6587)"><path
             d="m 0,0 v -41.113 c 0,-17.64 -9.583,-33.041 -23.825,-41.283"
             style="fill:none;stroke:#000000;stroke-width:15;stroke-linecap:round;stroke-linejoin:round;stroke-miterlimit:10;stroke-dasharray:none;stroke-opacity:1"
             id="path623" /></g><g
           id="g625"
           transform="translate(147.2578,74.1494)"><path
             d="m 0,0 6.721,2.079 c 13.57,4.198 28.26,2.725 40.729,-4.077 7.79,-4.251 16.459,-6.422 25.18,-6.424 5.22,0 10.46,0.778 15.54,2.348 l 139.938,43.298 c 12.671,3.918 20.403,17.107 16.945,29.898 -3.638,13.43 -17.657,21.063 -30.837,16.984 l 53.963,16.692 c 12.66,3.918 20.402,17.107 16.934,29.908 -3.637,13.43 -17.646,21.063 -30.827,16.984 l 21.621,6.687 c 12.66,3.918 20.403,17.107 16.935,29.898 -3.638,13.44 -17.647,21.073 -30.827,16.995 l -41.983,-12.994 c 13.181,4.078 20.433,18.287 15.856,31.428 -4.368,12.521 -18.208,19.033 -30.868,15.115 L 68.911,192.71 c -4.72,-1.459 -8.859,3.522 -6.549,7.892 l 19.326,36.657 c 7.523,14.249 2.066,31.9 -12.193,39.422 -4.34,2.291 -9,3.372 -13.58,3.372 -10.489,0.002 -20.621,-5.657 -25.843,-15.575 l -48.404,-91.764 c -2.821,-5.349 -7.662,-9.369 -13.442,-11.158 l -16.611,-5.137"
             style="fill:none;stroke:#000000;stroke-width:15;stroke-linecap:round;stroke-linejoin:round;stroke-miterlimit:10;stroke-dasharray:none;stroke-opacity:1"
             id="path627" /></g><g
           id="g629"
           transform="translate(367.2783,262.4487)"><path
             d="M 0,0 -86.875,-26.892"
             style="fill:none;stroke:#000000;stroke-width:15;stroke-linecap:round;stroke-linejoin:round;stroke-miterlimit:10;stroke-dasharray:none;stroke-opacity:1"
             id="path631" /></g><g
           id="g633"
           transform="translate(401.5371,221.8672)"><path
             d="M 0,0 -106.675,-33.021"
             style="fill:none;stroke:#000000;stroke-width:15;stroke-linecap:round;stroke-linejoin:round;stroke-miterlimit:10;stroke-dasharray:none;stroke-opacity:1"
             id="path635" /></g><g
           id="g637"
           transform="translate(361.4814,158.2808)"><path
             d="M 0,0 -52.159,-16.146"
             style="fill:none;stroke:#000000;stroke-width:15;stroke-linecap:round;stroke-linejoin:round;stroke-miterlimit:10;stroke-dasharray:none;stroke-opacity:1"
             id="path639" /></g><g
           id="g641"
           transform="translate(35.0166,129.5015)"><path
             d="m 0,0 29.992,-96.942 63.395,19.613 c 14.337,4.435 22.363,19.653 17.927,33.99 L 69.868,90.628 c -4.435,14.337 -19.653,22.363 -33.99,17.928 L -27.517,88.943 -9.281,30.001"
             style="fill:none;stroke:#000000;stroke-width:15;stroke-linecap:round;stroke-linejoin:round;stroke-miterlimit:10;stroke-dasharray:none;stroke-opacity:1"
             id="path643" /></g><g
           id="g645"
           transform="translate(109.7207,76.8071)"><path
             d="M 0,0 -3.554,11.482"
             style="fill:none;stroke:#000000;stroke-width:15;stroke-linecap:round;stroke-linejoin:round;stroke-miterlimit:10;stroke-dasharray:none;stroke-opacity:1"
             id="path647" /></g></g></g></g></svg>
