<?xml version="1.0" encoding="UTF-8"?>
<svg xmlns="http://www.w3.org/2000/svg" xmlns:xlink="http://www.w3.org/1999/xlink" version="1.1" id="Capa_1" x="0px" y="0px" viewBox="0 0 512 512" style="enable-background:new 0 0 512 512;" xml:space="preserve" width="512" height="512">
<g>
	<path style="fill:none;stroke:#000000;stroke-width:15;stroke-linecap:round;stroke-linejoin:round;stroke-miterlimit:10;" d="&#10;&#9;&#9;M415.36,36.964h62.85c14.52,0,26.29,11.78,26.29,26.3v385.48c0,14.52-11.77,26.29-26.29,26.29H33.79&#10;&#9;&#9;c-14.52,0-26.29-11.77-26.29-26.29V63.264c0-14.52,11.77-26.3,26.29-26.3h346.57"/>
	
		<line style="fill:none;stroke:#000000;stroke-width:15;stroke-linecap:round;stroke-linejoin:round;stroke-miterlimit:10;" x1="7.5" y1="116.436" x2="504.5" y2="116.436"/>
	
		<line style="fill:none;stroke:#000000;stroke-width:15;stroke-linecap:round;stroke-linejoin:round;stroke-miterlimit:10;" x1="173.167" y1="36.967" x2="173.167" y2="475.036"/>
	
		<line style="fill:none;stroke:#000000;stroke-width:15;stroke-linecap:round;stroke-linejoin:round;stroke-miterlimit:10;" x1="338.83" y1="475.034" x2="338.83" y2="429.164"/>
	
		<line style="fill:none;stroke:#000000;stroke-width:15;stroke-linecap:round;stroke-linejoin:round;stroke-miterlimit:10;" x1="338.83" y1="394.164" x2="338.83" y2="36.964"/>
	<path style="fill:none;stroke:#000000;stroke-width:15;stroke-linecap:round;stroke-linejoin:round;stroke-miterlimit:10;" d="&#10;&#9;&#9;M133.702,227.853H45.444c-5.569,0-10.083-4.514-10.083-10.083v-59.627c0-5.569,4.514-10.083,10.083-10.083h88.258&#10;&#9;&#9;c5.569,0,10.083,4.514,10.083,10.083v59.627C143.785,223.339,139.271,227.853,133.702,227.853z"/>
	<path style="fill:none;stroke:#000000;stroke-width:15;stroke-linecap:round;stroke-linejoin:round;stroke-miterlimit:10;" d="&#10;&#9;&#9;M35.36,313.254v12.31c0,5.57,4.52,10.08,10.08,10.08h88.26c5.57,0,10.08-4.51,10.08-10.08v-59.63c0-5.57-4.51-10.08-10.08-10.08&#10;&#9;&#9;H45.44c-5.56,0-10.08,4.51-10.08,10.08v12.32"/>
	<path style="fill:none;stroke:#000000;stroke-width:15;stroke-linecap:round;stroke-linejoin:round;stroke-miterlimit:10;" d="&#10;&#9;&#9;M133.702,443.438H45.444c-5.569,0-10.083-4.514-10.083-10.083v-59.627c0-5.569,4.514-10.083,10.083-10.083h88.258&#10;&#9;&#9;c5.569,0,10.083,4.514,10.083,10.083v59.627C143.785,438.924,139.271,443.438,133.702,443.438z"/>
	<path style="fill:none;stroke:#000000;stroke-width:15;stroke-linecap:round;stroke-linejoin:round;stroke-miterlimit:10;" d="&#10;&#9;&#9;M465.969,227.853h-88.258c-5.569,0-10.083-4.514-10.083-10.083v-59.627c0-5.569,4.514-10.083,10.083-10.083h88.258&#10;&#9;&#9;c5.569,0,10.083,4.514,10.083,10.083v59.627C476.052,223.339,471.538,227.853,465.969,227.853z"/>
	<path style="fill:none;stroke:#000000;stroke-width:15;stroke-linecap:round;stroke-linejoin:round;stroke-miterlimit:10;" d="&#10;&#9;&#9;M465.969,335.646h-88.258c-5.569,0-10.083-4.514-10.083-10.083v-59.627c0-5.569,4.514-10.083,10.083-10.083h88.258&#10;&#9;&#9;c5.569,0,10.083,4.514,10.083,10.083v59.627C476.052,331.132,471.538,335.646,465.969,335.646z"/>
	<g>
		<path style="fill:none;stroke:#000000;stroke-width:15;stroke-linecap:round;stroke-linejoin:round;stroke-miterlimit:10;" d="&#10;&#9;&#9;&#9;M300.129,227.853h-88.258c-5.569,0-10.083-4.514-10.083-10.083v-59.627c0-5.569,4.514-10.083,10.083-10.083h88.258&#10;&#9;&#9;&#9;c5.569,0,10.083,4.514,10.083,10.083v59.627C310.212,223.339,305.697,227.853,300.129,227.853z"/>
	</g>
	
		<line style="fill:none;stroke:#000000;stroke-width:15;stroke-linecap:round;stroke-linejoin:round;stroke-miterlimit:10;" x1="45.444" y1="76.778" x2="133.702" y2="76.778"/>
	
		<line style="fill:none;stroke:#000000;stroke-width:15;stroke-linecap:round;stroke-linejoin:round;stroke-miterlimit:10;" x1="211.871" y1="76.778" x2="300.129" y2="76.778"/>
	
		<line style="fill:none;stroke:#000000;stroke-width:15;stroke-linecap:round;stroke-linejoin:round;stroke-miterlimit:10;" x1="377.711" y1="76.778" x2="465.969" y2="76.778"/>
	<g>
		
			<line style="fill:none;stroke:#000000;stroke-width:15;stroke-linecap:round;stroke-linejoin:round;stroke-miterlimit:10;" x1="60.048" y1="175.908" x2="119.098" y2="175.908"/>
	</g>
	<g>
		
			<line style="fill:none;stroke:#000000;stroke-width:15;stroke-linecap:round;stroke-linejoin:round;stroke-miterlimit:10;" x1="60.048" y1="283.701" x2="119.098" y2="283.701"/>
	</g>
	<g>
		
			<line style="fill:none;stroke:#000000;stroke-width:15;stroke-linecap:round;stroke-linejoin:round;stroke-miterlimit:10;" x1="60.048" y1="391.493" x2="119.098" y2="391.493"/>
	</g>
	<g>
		
			<line style="fill:none;stroke:#000000;stroke-width:15;stroke-linecap:round;stroke-linejoin:round;stroke-miterlimit:10;" x1="226.475" y1="175.908" x2="285.525" y2="175.908"/>
	</g>
	<g>
		
			<line style="fill:none;stroke:#000000;stroke-width:15;stroke-linecap:round;stroke-linejoin:round;stroke-miterlimit:10;" x1="392.316" y1="283.701" x2="451.365" y2="283.701"/>
	</g>
	<g>
		
			<line style="fill:none;stroke:#000000;stroke-width:15;stroke-linecap:round;stroke-linejoin:round;stroke-miterlimit:10;" x1="392.316" y1="175.908" x2="451.365" y2="175.908"/>
	</g>
</g>















</svg>
