<svg width="134" height="41" viewBox="0 0 134 41" fill="none" xmlns="http://www.w3.org/2000/svg">
<path d="M18.9173 1.72681C8.79206 1.72681 0.583984 9.93492 0.583984 20.0601C0.583984 30.1854 8.79206 38.3935 18.9173 38.3935C28.0015 38.3935 35.5425 31.7865 36.9972 23.1157H36.8656C35.5088 28.3872 30.7235 32.2824 25.0284 32.2824C18.2783 32.2824 12.8062 26.8103 12.8062 20.0601C12.8062 13.31 18.2783 7.83792 25.0284 7.83792C30.7235 7.83792 35.5088 11.733 36.8656 17.0046H36.9972C35.5425 8.33379 28.0015 1.72681 18.9173 1.72681Z" fill="#A8AFBC"/>
<path d="M0.583984 20.0601C0.583984 9.93492 8.7921 1.72681 18.9173 1.72681C28.0015 1.72681 35.5425 8.33379 36.9972 17.0046H24.6434C23.2866 11.7331 18.5013 7.83792 12.8062 7.83792C6.05606 7.83792 0.583984 13.31 0.583984 20.0601Z" fill="#667085"/>
<path d="M0.583984 20.0602C0.583984 30.1854 8.7921 38.3936 18.9173 38.3936C28.0015 38.3936 35.5425 31.7866 36.9972 23.1158H24.6434C23.2866 28.3873 18.5013 32.2824 12.8062 32.2824C6.05606 32.2824 0.583984 26.8104 0.583984 20.0602Z" fill="#667085"/>
<path d="M63.4494 17.1493C62.9273 13.3792 60.0273 11.1917 56.2654 11.1917C51.8324 11.1917 48.4932 14.4232 48.4932 19.9085C48.4932 25.3855 51.791 28.6254 56.2654 28.6254C60.3007 28.6254 62.9771 26.0153 63.4494 22.7755L60.3504 22.7589C59.961 24.7475 58.3369 25.8661 56.3068 25.8661C53.5559 25.8661 51.5838 23.8029 51.5838 19.9085C51.5838 16.0804 53.5393 13.9509 56.3151 13.9509C58.3783 13.9509 59.9941 15.1192 60.3504 17.1493H63.4494Z" fill="#667085"/>
<path d="M69.7944 28.6502C71.7913 28.6502 72.9845 27.7139 73.5313 26.645H73.6308V28.3934H76.5143V19.8754C76.5143 16.5113 73.7716 15.5004 71.3438 15.5004C68.6675 15.5004 66.6125 16.6935 65.9497 19.0136L68.7503 19.4113C69.0486 18.5413 69.8938 17.7956 71.3604 17.7956C72.7524 17.7956 73.5148 18.5082 73.5148 19.7594V19.8091C73.5148 20.6708 72.6116 20.7122 70.3661 20.9525C67.8969 21.2177 65.5354 21.9551 65.5354 24.8221C65.5354 27.3245 67.3666 28.6502 69.7944 28.6502ZM70.5732 26.4461C69.3221 26.4461 68.4272 25.8744 68.4272 24.7724C68.4272 23.6206 69.4298 23.14 70.7721 22.9495C71.5593 22.8417 73.1336 22.6429 73.523 22.328V23.8278C73.523 25.2447 72.3796 26.4461 70.5732 26.4461Z" fill="#667085"/>
<path d="M85.8857 15.6661H83.3751V12.6168H80.3756V15.6661H78.5692V17.9862H80.3756V25.0624C80.359 27.457 82.099 28.6336 84.3528 28.5674C85.2063 28.5425 85.7946 28.3768 86.1177 28.2691L85.6123 25.9241C85.4466 25.9656 85.1068 26.0401 84.734 26.0401C83.98 26.0401 83.3751 25.775 83.3751 24.5652V17.9862H85.8857V15.6661Z" fill="#667085"/>
<path d="M92.0567 28.6502C94.0536 28.6502 95.2468 27.7139 95.7937 26.645H95.8931V28.3934H98.7766V19.8754C98.7766 16.5113 96.034 15.5004 93.6062 15.5004C90.9298 15.5004 88.8749 16.6935 88.212 19.0136L91.0127 19.4113C91.311 18.5413 92.1562 17.7956 93.6228 17.7956C95.0148 17.7956 95.7771 18.5082 95.7771 19.7594V19.8091C95.7771 20.6708 94.874 20.7122 92.6285 20.9525C90.1592 21.2177 87.7977 21.9551 87.7977 24.8221C87.7977 27.3245 89.6289 28.6502 92.0567 28.6502ZM92.8356 26.4461C91.5844 26.4461 90.6895 25.8744 90.6895 24.7724C90.6895 23.6206 91.6921 23.14 93.0345 22.9495C93.8216 22.8417 95.396 22.6429 95.7854 22.328V23.8278C95.7854 25.2447 94.6419 26.4461 92.8356 26.4461Z" fill="#667085"/>
<path d="M104.792 11.4237H101.793V28.3934H104.792V11.4237Z" fill="#667085"/>
<path d="M113.428 28.6419C117.157 28.6419 119.527 26.0153 119.527 22.0794C119.527 18.1353 117.157 15.5004 113.428 15.5004C109.7 15.5004 107.33 18.1353 107.33 22.0794C107.33 26.0153 109.7 28.6419 113.428 28.6419ZM113.445 26.239C111.382 26.239 110.371 24.3995 110.371 22.0711C110.371 19.7428 111.382 17.8784 113.445 17.8784C115.475 17.8784 116.486 19.7428 116.486 22.0711C116.486 24.3995 115.475 26.239 113.445 26.239Z" fill="#667085"/>
<path d="M127.608 33.4312C131.046 33.4312 133.582 31.8569 133.582 28.6005V15.6661H130.624V17.7707H130.458C130.002 16.851 129.049 15.5004 126.804 15.5004C123.862 15.5004 121.551 17.8039 121.551 21.9883C121.551 26.1396 123.862 28.2111 126.796 28.2111C128.975 28.2111 129.994 27.0427 130.458 26.1064H130.607V28.5176C130.607 30.3903 129.364 31.1609 127.657 31.1609C125.851 31.1609 125.056 30.3074 124.691 29.5617L121.99 30.2163C122.537 31.9978 124.368 33.4312 127.608 33.4312ZM127.633 25.8578C125.652 25.8578 124.608 24.3167 124.608 21.9717C124.608 19.6599 125.636 17.9613 127.633 17.9613C129.563 17.9613 130.624 19.5605 130.624 21.9717C130.624 24.3995 129.547 25.8578 127.633 25.8578Z" fill="#667085"/>
</svg>
