<svg width="184" height="49" viewBox="0 0 184 49" fill="none" xmlns="http://www.w3.org/2000/svg">
<path d="M16.2981 33.4885C24.9769 33.4885 32.0124 26.453 32.0124 17.7742C32.0124 16.7906 31.922 15.8281 31.7492 14.8946C30.8156 14.7217 29.8531 14.6313 28.8696 14.6313C20.1908 14.6313 13.1553 21.6669 13.1553 30.3456C13.1553 31.3292 13.2456 32.2917 13.4185 33.2252C14.3521 33.3981 15.3145 33.4885 16.2981 33.4885Z" fill="#4D576B"/>
<path fill-rule="evenodd" clip-rule="evenodd" d="M13.4187 33.2254C6.11516 31.8728 0.583984 25.4695 0.583984 17.7743C0.583984 9.09558 7.61951 2.06006 16.2983 2.06006C23.9934 2.06006 30.3967 7.59123 31.7493 14.8947C30.8158 14.7219 29.8533 14.6315 28.8697 14.6315C20.1909 14.6315 13.1554 21.667 13.1554 30.3458C13.1554 31.3294 13.2458 32.2918 13.4187 33.2254Z" fill="#667085"/>
<path fill-rule="evenodd" clip-rule="evenodd" d="M16.2986 33.4884C24.9773 33.4884 32.0128 26.4529 32.0128 17.7741C32.0128 16.7905 31.9225 15.8281 31.7496 14.8945C39.0531 16.2471 44.5843 22.6504 44.5843 30.3456C44.5843 39.0243 37.5487 46.0599 28.87 46.0599C21.1748 46.0599 14.7715 40.5287 13.4189 33.2252C14.3525 33.3981 15.315 33.4884 16.2986 33.4884Z" fill="#667085"/>
<path d="M74.8124 28.964C74.2524 30.7746 73.2724 32.128 71.8724 33.024C70.4724 33.9013 68.839 34.34 66.9724 34.34C65.143 34.34 63.5564 33.9573 62.2124 33.192C60.887 32.4266 59.8604 31.3346 59.1324 29.916C58.423 28.4973 58.0684 26.7986 58.0684 24.82C58.0684 22.8413 58.4324 21.1426 59.1604 19.724C59.8884 18.3053 60.915 17.2133 62.2404 16.448C63.5657 15.6826 65.1244 15.3 66.9164 15.3C68.8017 15.3 70.4164 15.7013 71.7604 16.504C73.123 17.288 74.0564 18.4826 74.5604 20.088L71.0604 21.572C70.743 20.452 70.2577 19.6586 69.6044 19.192C68.951 18.7066 68.111 18.464 67.0844 18.464C65.5537 18.464 64.331 19.0146 63.4164 20.116C62.5204 21.1986 62.0724 22.7666 62.0724 24.82C62.0724 26.8546 62.5017 28.4226 63.3604 29.524C64.219 30.6253 65.4604 31.176 67.0844 31.176C68.0924 31.176 68.9604 30.9053 69.6884 30.364C70.435 29.8226 70.9577 29.0013 71.2564 27.9L74.8124 28.964Z" fill="#667085"/>
<path d="M79.6456 18.044C78.059 18.044 77.2656 17.3626 77.2656 16C77.2656 14.6186 78.059 13.928 79.6456 13.928C81.2323 13.928 82.0256 14.6186 82.0256 16C82.0256 17.3626 81.2323 18.044 79.6456 18.044ZM81.5496 20.06V34.06H77.7136V20.06H81.5496Z" fill="#667085"/>
<path d="M85.616 34.06V20.06H88.948L89.2 22.804C89.5546 21.852 90.0866 21.1146 90.796 20.592C91.524 20.0506 92.4386 19.78 93.54 19.78C94.1933 19.78 94.6973 19.8826 95.052 20.088L94.604 23.308C94.4173 23.252 94.184 23.2053 93.904 23.168C93.6426 23.112 93.2973 23.084 92.868 23.084C92.2893 23.084 91.7386 23.224 91.216 23.504C90.712 23.7653 90.292 24.176 89.956 24.736C89.62 25.2773 89.452 25.968 89.452 26.808V34.06H85.616Z" fill="#667085"/>
<path d="M103.511 19.78C105.378 19.78 106.824 20.1813 107.851 20.984C108.896 21.7866 109.587 22.7573 109.923 23.896L106.339 25.184C105.966 23.4853 105.042 22.636 103.567 22.636C102.503 22.636 101.672 23.0093 101.075 23.756C100.496 24.5026 100.207 25.6133 100.207 27.088C100.207 28.5813 100.506 29.692 101.103 30.42C101.719 31.1293 102.55 31.484 103.595 31.484C105.219 31.484 106.19 30.6533 106.507 28.992L109.979 30.112C109.662 31.3626 108.952 32.38 107.851 33.164C106.768 33.948 105.359 34.34 103.623 34.34C102.167 34.34 100.888 34.0506 99.787 33.472C98.7044 32.8933 97.8644 32.0626 97.267 30.98C96.6697 29.8973 96.371 28.5906 96.371 27.06C96.371 25.5293 96.6697 24.2226 97.267 23.14C97.883 22.0573 98.723 21.2266 99.787 20.648C100.87 20.0693 102.111 19.78 103.511 19.78Z" fill="#667085"/>
<path d="M119.344 19.78C120.744 19.78 121.985 20.0693 123.068 20.648C124.15 21.2266 124.99 22.0573 125.588 23.14C126.204 24.2226 126.512 25.5293 126.512 27.06C126.512 28.5906 126.204 29.8973 125.588 30.98C124.99 32.0626 124.15 32.8933 123.068 33.472C121.985 34.0506 120.744 34.34 119.344 34.34C117.925 34.34 116.674 34.0506 115.592 33.472C114.528 32.8933 113.688 32.0626 113.072 30.98C112.474 29.8973 112.176 28.5906 112.176 27.06C112.176 25.5293 112.474 24.2226 113.072 23.14C113.688 22.0573 114.528 21.2266 115.592 20.648C116.674 20.0693 117.925 19.78 119.344 19.78ZM119.344 22.636C118.298 22.636 117.477 23.0093 116.88 23.756C116.301 24.484 116.012 25.5853 116.012 27.06C116.012 28.5346 116.301 29.6453 116.88 30.392C117.477 31.12 118.298 31.484 119.344 31.484C120.37 31.484 121.173 31.12 121.752 30.392C122.349 29.6453 122.648 28.5346 122.648 27.06C122.648 25.5853 122.349 24.484 121.752 23.756C121.173 23.0093 120.37 22.636 119.344 22.636Z" fill="#667085"/>
<path d="M136.105 19.78C137.505 19.78 138.747 20.0693 139.829 20.648C140.912 21.2266 141.752 22.0573 142.349 23.14C142.965 24.2226 143.273 25.5293 143.273 27.06C143.273 28.5906 142.965 29.8973 142.349 30.98C141.752 32.0626 140.912 32.8933 139.829 33.472C138.747 34.0506 137.505 34.34 136.105 34.34C134.687 34.34 133.436 34.0506 132.353 33.472C131.289 32.8933 130.449 32.0626 129.833 30.98C129.236 29.8973 128.937 28.5906 128.937 27.06C128.937 25.5293 129.236 24.2226 129.833 23.14C130.449 22.0573 131.289 21.2266 132.353 20.648C133.436 20.0693 134.687 19.78 136.105 19.78ZM136.105 22.636C135.06 22.636 134.239 23.0093 133.641 23.756C133.063 24.484 132.773 25.5853 132.773 27.06C132.773 28.5346 133.063 29.6453 133.641 30.392C134.239 31.12 135.06 31.484 136.105 31.484C137.132 31.484 137.935 31.12 138.513 30.392C139.111 29.6453 139.409 28.5346 139.409 27.06C139.409 25.5853 139.111 24.484 138.513 23.756C137.935 23.0093 137.132 22.636 136.105 22.636Z" fill="#667085"/>
<path d="M150.263 13.928V29.748C150.263 30.4013 150.375 30.8586 150.599 31.12C150.823 31.3813 151.196 31.512 151.719 31.512C152.036 31.512 152.298 31.4933 152.503 31.456C152.708 31.4186 152.97 31.344 153.287 31.232L152.951 33.752C152.634 33.9386 152.232 34.0786 151.747 34.172C151.28 34.284 150.814 34.34 150.347 34.34C148.984 34.34 147.986 34.0133 147.351 33.36C146.735 32.688 146.427 31.624 146.427 30.168V13.928H150.263Z" fill="#667085"/>
<path d="M161.921 34.34C159.718 34.34 157.954 33.7053 156.629 32.436C155.303 31.148 154.641 29.356 154.641 27.06C154.641 25.5293 154.939 24.2226 155.537 23.14C156.134 22.0573 156.965 21.2266 158.029 20.648C159.111 20.0693 160.343 19.78 161.725 19.78C163.143 19.78 164.347 20.0693 165.337 20.648C166.326 21.208 167.082 21.9826 167.605 22.972C168.127 23.9426 168.389 25.0533 168.389 26.304C168.389 26.6773 168.379 27.032 168.361 27.368C168.342 27.704 168.314 28.0026 168.277 28.264H158.393C158.542 29.3466 158.915 30.1586 159.513 30.7C160.129 31.2226 160.922 31.484 161.893 31.484C162.714 31.484 163.377 31.3253 163.881 31.008C164.385 30.6906 164.777 30.252 165.057 29.692L168.109 30.868C167.661 31.9693 166.877 32.828 165.757 33.444C164.637 34.0413 163.358 34.34 161.921 34.34ZM161.697 22.608C159.886 22.608 158.794 23.6066 158.421 25.604H164.721C164.609 24.6333 164.291 23.896 163.769 23.392C163.265 22.8693 162.574 22.608 161.697 22.608Z" fill="#667085"/>
<path d="M177.239 34.34C175.821 34.34 174.523 34.088 173.347 33.584C172.19 33.08 171.247 32.3706 170.519 31.456L172.731 29.216C173.179 29.888 173.777 30.4386 174.523 30.868C175.27 31.2973 176.157 31.512 177.183 31.512C177.911 31.512 178.49 31.4093 178.919 31.204C179.367 30.98 179.591 30.6346 179.591 30.168C179.591 29.8693 179.489 29.6173 179.283 29.412C179.078 29.188 178.667 29.0106 178.051 28.88L175.587 28.376C173.963 28.04 172.806 27.536 172.115 26.864C171.443 26.1733 171.107 25.2866 171.107 24.204C171.107 23.4386 171.331 22.72 171.779 22.048C172.246 21.376 172.937 20.8346 173.851 20.424C174.766 19.9946 175.905 19.78 177.267 19.78C180.105 19.78 182.139 20.648 183.371 22.384L181.075 24.624C180.665 23.9706 180.123 23.476 179.451 23.14C178.798 22.7853 178.107 22.608 177.379 22.608C175.737 22.608 174.915 23.0653 174.915 23.98C174.915 24.2786 175.046 24.54 175.307 24.764C175.569 24.9693 176.045 25.1466 176.735 25.296L179.591 25.884C180.973 26.164 181.962 26.64 182.559 27.312C183.157 27.9653 183.455 28.7586 183.455 29.692C183.455 31.036 182.914 32.1466 181.831 33.024C180.767 33.9013 179.237 34.34 177.239 34.34Z" fill="#667085"/>
</svg>
