<svg width="630" height="750" viewBox="0 0 630 750" fill="none" xmlns="http://www.w3.org/2000/svg">
<path d="M260.586 612.754L274.974 558.853L212.054 557.232L211.415 565.17L199.717 612.832" fill="#C21333"/>
<path d="M200.785 613.084L198.646 612.566L210.322 564.993L210.961 557.143C210.984 556.866 211.11 556.608 211.314 556.42C211.518 556.232 211.786 556.128 212.064 556.129L275.006 557.739C275.172 557.745 275.335 557.789 275.482 557.867C275.629 557.945 275.757 558.056 275.855 558.191C275.954 558.323 276.023 558.476 276.055 558.638C276.088 558.8 276.083 558.967 276.042 559.128L261.643 613.04L259.516 612.467L273.55 559.91L213.067 558.312L212.516 565.214V565.39L200.785 613.084Z" fill="black"/>
<path d="M243.759 562.503L229.272 612.788L260.583 612.755L274.971 558.854L243.759 562.503Z" fill="black"/>
<path d="M152.739 449.033H315.038C320.551 449.035 325.992 450.286 330.952 452.692C335.912 455.098 340.262 458.598 343.676 462.927C347.089 467.256 349.477 472.302 350.66 477.687C351.843 483.071 351.79 488.654 350.506 494.015L330.661 576.593H150.28L152.739 449.033Z" fill="#C21333"/>
<path d="M331.555 577.695H149.157L151.66 447.931H315.04C320.715 447.934 326.316 449.222 331.423 451.7C336.529 454.177 341.008 457.778 344.523 462.234C348.039 466.689 350.5 471.883 351.722 477.426C352.943 482.968 352.894 488.715 351.577 494.236L331.555 577.695ZM151.406 575.49H329.813L349.427 493.762C350.675 488.563 350.728 483.148 349.583 477.926C348.437 472.703 346.123 467.809 342.813 463.61C339.503 459.411 335.284 456.016 330.474 453.683C325.663 451.349 320.386 450.136 315.04 450.136H153.821L151.406 575.49Z" fill="black"/>
<path d="M429.059 403.113L461.759 270.306H628.27L595.581 413.223L429.059 403.113Z" fill="#C21333"/>
<path d="M596.44 414.383L595.514 414.327L427.68 404.129L460.899 269.205H629.659L629.35 270.561L596.44 414.383ZM430.458 402.09L594.731 412.067L626.913 271.41H462.641L430.458 402.09Z" fill="black"/>
<path d="M516.201 403.114H363.504V413.224H516.201V403.114Z" fill="#C21333"/>
<path d="M517.302 414.327H362.401V402.012H517.302V414.327ZM364.606 412.122H515.097V404.217H364.606V412.122Z" fill="black"/>
<path d="M595.581 413.224H516.201V403.114H597.885L595.581 413.224Z" fill="black"/>
<path d="M596.451 414.327H515.098V402.012H599.274L596.451 414.327ZM517.303 412.122H594.731L596.54 404.217H517.303V412.122Z" fill="black"/>
<path d="M435.232 398.504L465.717 276.865H620.861L593.552 397.71L435.232 398.504Z" fill="black"/>
<path d="M433.82 399.607L464.856 275.763H622.293L594.433 398.813L433.82 399.607ZM466.576 277.968L436.654 397.347L592.669 396.575L619.471 277.924L466.576 277.968Z" fill="black"/>
<path d="M521.26 222.436H625.579L582.096 403.114H439.852L484.007 222.436H503.4" fill="white"/>
<path d="M582.955 404.216H438.439L438.781 402.849L483.135 221.333H503.399V223.538H484.866L441.251 402.011H581.225L624.178 223.538H521.259V221.333H626.978L582.955 404.216Z" fill="black"/>
<path d="M519.762 347.304H511.482C507.601 347.304 506.102 345 507.403 341.141C509.211 335.728 510.986 330.304 512.783 324.879C513.012 324.426 513.071 323.905 512.95 323.412C512.829 322.919 512.535 322.485 512.122 322.189C504.492 316.732 501.538 308.551 503.302 297.802C506.08 280.801 521.184 264.363 538.736 258.696C552.153 254.352 564.909 256.998 570.797 267.516C575.372 275.653 575.394 285.266 570.124 296.181C564.835 307.182 556.028 316.105 545.097 321.539C544.459 321.826 543.887 322.243 543.418 322.763C542.949 323.283 542.594 323.895 542.374 324.56C541.036 328.543 539.666 332.531 538.262 336.522C537.6 338.389 536.891 340.252 536.134 342.111C535.512 343.572 534.497 344.832 533.203 345.753C531.91 346.673 530.386 347.218 528.802 347.326C525.782 347.326 522.783 347.326 519.773 347.326L519.762 347.304ZM536.818 310.106C538.703 306.997 537.722 303.171 534.877 302.388C532.907 301.972 530.853 302.277 529.089 303.248C528.339 303.612 527.766 303.557 527.601 302.929C527.435 302.3 527.843 301.771 528.582 301.374C532.242 299.379 536.597 299.533 538.648 301.738C540.698 303.943 540.522 308.353 538.096 311.969C537.844 312.295 537.664 312.671 537.567 313.072C537.369 317.162 535.362 320.613 531.04 323.402C529.848 324.129 528.888 325.18 528.273 326.434H539.497C539.695 325.861 539.905 325.331 540.048 324.824C540.415 323.634 541.034 322.538 541.864 321.609C542.694 320.681 543.714 319.942 544.855 319.444C555.499 314.084 563.949 305.19 568.757 294.285C572.373 286.093 572.572 278.696 570.135 272.036C565.725 259.986 552.021 255.664 536.762 261.43C518.395 268.376 504.172 287.505 505.176 303.932C505.606 310.966 508.417 316.412 513.764 320.161C515.308 321.263 515.727 322.829 514.933 325.034C514.756 325.508 514.602 325.982 514.448 326.445H526.002C527.093 324.328 528.744 322.551 530.776 321.307C531.552 320.784 532.26 320.166 532.882 319.466C534.006 318.295 534.751 316.812 535.021 315.21C534.315 315.607 533.731 315.971 533.124 316.313C530.302 317.691 527.843 317.812 525.859 316.544C524.315 315.552 524.006 313.149 525.054 311.032C525.534 310.025 526.243 309.144 527.123 308.459C528.004 307.774 529.031 307.304 530.125 307.085C530.987 306.832 531.9 306.808 532.773 307.015C533.647 307.221 534.452 307.652 535.109 308.265C535.627 308.816 536.156 309.444 536.762 310.106H536.818ZM538.659 328.848H513.643L512.298 332.751H537.259L538.659 328.848ZM536.52 335.078H511.482L510.225 338.727H535.197L536.52 335.078ZM534.238 341.086H509.652C508.605 343.523 509.487 345.121 511.857 345.132H529.232C530.398 345.11 531.522 344.694 532.421 343.951C533.32 343.208 533.941 342.183 534.183 341.042L534.238 341.086ZM535.021 312.752C534.595 311.464 533.748 310.358 532.617 309.61C532.183 309.351 531.699 309.187 531.197 309.13C530.695 309.073 530.187 309.124 529.706 309.279C529.088 309.42 528.514 309.714 528.038 310.134C527.563 310.553 527.2 311.086 526.983 311.682C526.826 311.976 526.733 312.299 526.71 312.631C526.687 312.963 526.734 313.296 526.848 313.608C526.963 313.92 527.142 314.205 527.374 314.443C527.607 314.681 527.887 314.868 528.196 314.99C530.103 315.64 532.86 314.758 534.965 312.708L535.021 312.752Z" fill="black"/>
<path d="M511.217 292.61C513.128 287.621 515.835 282.974 519.232 278.851C519.519 278.471 519.899 278.172 520.334 277.98C520.698 277.892 521.272 278.057 521.327 278.311C521.364 278.791 521.227 279.268 520.941 279.656C519.618 281.629 518.041 283.537 516.906 285.543C515.483 288.068 514.392 290.67 513.168 293.261C513.058 293.47 513.014 293.691 512.915 293.9C512.81 294.179 512.627 294.421 512.389 294.599C512.151 294.777 511.866 294.882 511.57 294.903C510.886 294.959 510.632 294.584 510.732 293.977C510.854 293.508 511.016 293.051 511.217 292.61Z" fill="black"/>
<path d="M576.694 361.438H460.236V368.053H576.694V361.438Z" fill="black"/>
<path d="M353.524 157.364H347.439C340.016 157.374 332.654 156.022 325.719 153.373L286.569 175.115V99.538L286.691 99.7144C286.636 98.6119 286.569 97.5755 286.569 96.4951C286.559 87.9191 288.365 79.4382 291.869 71.6109C295.373 63.7835 300.496 56.7873 306.9 51.083" fill="white"/>
<path d="M285.469 176.991V96.167C285.521 87.4929 287.39 78.9259 290.957 71.0187C294.523 63.1114 299.707 56.0394 306.174 50.2588L307.641 51.9125C301.364 57.5219 296.341 64.3923 292.901 72.075C289.46 79.7577 287.679 88.0798 287.674 96.4977C287.674 97.3797 287.674 98.2507 287.762 99.1217L287.994 103.355L287.674 102.914V173.243L325.633 152.163L326.118 152.351C332.927 154.946 340.154 156.273 347.441 156.264H353.527V158.469H347.441C340.057 158.477 332.731 157.163 325.81 154.589L285.469 176.991Z" fill="black"/>
<path d="M322.313 41.0293C330.207 37.454 338.774 35.6119 347.44 35.627H388.563C404.706 35.627 420.189 42.04 431.604 53.4552C443.019 64.8704 449.432 80.3527 449.432 96.4962C449.432 112.64 443.019 128.122 431.604 139.537C420.189 150.952 404.706 157.365 388.563 157.365H367.615" fill="white"/>
<path d="M388.565 158.468H367.617V156.263H388.565C404.416 156.263 419.618 149.966 430.826 138.758C442.035 127.549 448.331 112.348 448.331 96.4965C448.331 80.6454 442.035 65.4435 430.826 54.2351C419.618 43.0266 404.416 36.7298 388.565 36.7298H347.441C338.934 36.7086 330.522 38.5211 322.778 42.0439L321.863 40.0263C329.896 36.3776 338.619 34.4976 347.441 34.5138H388.565C405.001 34.5138 420.763 41.0429 432.385 52.6648C444.007 64.2868 450.536 80.0495 450.536 96.4854C450.536 112.921 444.007 128.684 432.385 140.306C420.763 151.928 405.001 158.457 388.565 158.457V158.468Z" fill="black"/>
<path d="M401.587 104.323C407.651 104.323 412.568 99.4068 412.568 93.3422C412.568 87.2776 407.651 82.3613 401.587 82.3613C395.522 82.3613 390.606 87.2776 390.606 93.3422C390.606 99.4068 395.522 104.323 401.587 104.323Z" fill="white"/>
<path d="M401.581 105.426C399.183 105.426 396.838 104.715 394.843 103.382C392.849 102.05 391.295 100.155 390.377 97.9394C389.459 95.7234 389.219 93.285 389.687 90.9325C390.155 88.58 391.31 86.419 393.006 84.723C394.702 83.0269 396.863 81.8719 399.215 81.4039C401.568 80.936 404.006 81.1762 406.222 82.0941C408.438 83.012 410.332 84.5664 411.665 86.5607C412.997 88.5551 413.709 90.8998 413.709 93.2984C413.709 96.5149 412.431 99.5995 410.157 101.874C407.882 104.148 404.798 105.426 401.581 105.426ZM401.581 83.4641C399.619 83.4641 397.7 84.0461 396.068 85.1364C394.437 86.2267 393.165 87.7763 392.414 89.5894C391.663 91.4026 391.466 93.3976 391.849 95.3224C392.232 97.2472 393.177 99.0152 394.565 100.403C395.953 101.791 397.721 102.736 399.645 103.118C401.57 103.501 403.565 103.305 405.378 102.554C407.191 101.803 408.741 100.531 409.831 98.8993C410.922 97.2675 411.504 95.3491 411.504 93.3866C411.504 92.0836 411.247 90.7933 410.748 89.5894C410.25 88.3856 409.519 87.2917 408.597 86.3703C407.676 85.449 406.582 84.7181 405.378 84.2194C404.174 83.7208 402.884 83.4641 401.581 83.4641Z" fill="black"/>
<path d="M371.405 105.426C369.007 105.426 366.662 104.715 364.668 103.382C362.673 102.05 361.119 100.155 360.201 97.9394C359.283 95.7234 359.043 93.285 359.511 90.9325C359.979 88.58 361.134 86.419 362.83 84.723C364.526 83.0269 366.687 81.8719 369.039 81.4039C371.392 80.936 373.83 81.1762 376.046 82.0941C378.262 83.012 380.156 84.5664 381.489 86.5607C382.822 88.5551 383.533 90.8998 383.533 93.2984C383.533 96.5149 382.255 99.5995 379.981 101.874C377.706 104.148 374.622 105.426 371.405 105.426ZM371.405 83.4641C369.443 83.4641 367.524 84.0461 365.893 85.1364C364.261 86.2267 362.989 87.7763 362.238 89.5894C361.487 91.4026 361.291 93.3976 361.674 95.3224C362.056 97.2472 363.001 99.0152 364.389 100.403C365.777 101.791 367.545 102.736 369.47 103.118C371.394 103.501 373.389 103.305 375.203 102.554C377.016 101.803 378.565 100.531 379.656 98.8993C380.746 97.2675 381.328 95.3491 381.328 93.3866C381.328 92.0836 381.071 90.7933 380.573 89.5894C380.074 88.3856 379.343 87.2917 378.422 86.3703C377.5 85.449 376.406 84.7181 375.203 84.2194C373.999 83.7208 372.708 83.4641 371.405 83.4641Z" fill="black"/>
<path d="M342.546 104.323C348.61 104.323 353.527 99.4068 353.527 93.3422C353.527 87.2776 348.61 82.3613 342.546 82.3613C336.481 82.3613 331.565 87.2776 331.565 93.3422C331.565 99.4068 336.481 104.323 342.546 104.323Z" fill="black"/>
<path d="M342.548 105.426C340.15 105.426 337.805 104.715 335.811 103.382C333.816 102.05 332.262 100.155 331.344 97.9394C330.426 95.7234 330.186 93.285 330.654 90.9325C331.122 88.58 332.277 86.419 333.973 84.723C335.669 83.0269 337.83 81.8719 340.182 81.4039C342.535 80.936 344.973 81.1762 347.189 82.0941C349.405 83.012 351.299 84.5664 352.632 86.5607C353.965 88.5551 354.676 90.8998 354.676 93.2984C354.676 96.5149 353.398 99.5995 351.124 101.874C348.85 104.148 345.765 105.426 342.548 105.426ZM342.548 83.4641C340.586 83.4641 338.668 84.0461 337.036 85.1364C335.404 86.2267 334.132 87.7763 333.381 89.5894C332.63 91.4026 332.434 93.3976 332.817 95.3224C333.199 97.2472 334.144 99.0152 335.532 100.403C336.92 101.791 338.688 102.736 340.613 103.118C342.537 103.501 344.533 103.305 346.346 102.554C348.159 101.803 349.708 100.531 350.799 98.8993C351.889 97.2675 352.471 95.3491 352.471 93.3866C352.471 92.0836 352.214 90.7933 351.716 89.5894C351.217 88.3856 350.486 87.2917 349.565 86.3703C348.643 85.449 347.549 84.7181 346.346 84.2194C345.142 83.7208 343.851 83.4641 342.548 83.4641Z" fill="black"/>
<path d="M595.67 303.856H574.094V306.061H595.67V303.856Z" fill="black"/>
<path d="M495.451 303.856H479.42V306.061H495.451V303.856Z" fill="black"/>
<path d="M485.575 280.358L484.458 282.259L498.279 290.38L499.396 288.479L485.575 280.358Z" fill="black"/>
<path d="M498.303 261.499L496.411 262.63L504.636 276.389L506.528 275.258L498.303 261.499Z" fill="black"/>
<path d="M599.426 279.92L581.046 288.889L582.013 290.87L600.393 281.902L599.426 279.92Z" fill="black"/>
<path d="M593.256 263.054L580.835 273.188L582.229 274.896L594.65 264.762L593.256 263.054Z" fill="black"/>
<path d="M538.383 374.723H459.267V381.338H538.383V374.723Z" fill="black"/>
<path d="M478.791 470.951C478.791 470.951 516.894 488.591 526.199 516.837C532.549 536.153 509.441 616.349 448.847 708.673C439.09 723.534 373.348 726.71 373.348 726.71L397.228 679.82C397.228 679.82 456.554 628.344 463.533 543.264" fill="#C21333"/>
<path d="M371.474 727.868L396.28 679.093L396.446 678.961C397.041 678.443 455.551 626.802 462.386 543.177L464.591 543.364C457.877 625.688 401.572 677.384 398.078 680.471L375.168 725.465C386.005 724.792 439.465 720.878 447.933 708.034C510.037 613.45 530.918 534.699 525.163 517.18C516.156 489.772 478.748 472.121 478.373 471.977L479.299 469.971C480.875 470.698 517.942 488.184 527.258 516.518C533.95 536.871 510.213 617.221 449.785 709.269C439.862 724.428 376.127 727.67 373.415 727.802L371.474 727.868Z" fill="black"/>
<path d="M459.766 567.884C467.452 571.45 474.648 575.989 481.177 581.389C481.949 582.059 482.685 582.77 483.382 583.517C472.621 609.977 458.52 646.283 433.163 685.499H418.268L395.623 682.897C395.623 682.897 443.956 632.689 459.766 567.884Z" fill="#961430"/>
<path d="M433.771 686.6H418.137L393.287 683.712L394.83 682.113C395.315 681.606 443.142 631.398 458.687 567.629L459.007 566.317L460.231 566.891C467.993 570.495 475.259 575.082 481.851 580.54C482.672 581.228 483.453 581.965 484.188 582.745L484.673 583.263L482.281 589.084C471.972 614.442 457.871 649.281 434.057 686.104L433.771 686.6ZM418.335 684.395H432.58C456.074 647.947 470.065 613.46 480.274 588.257L482.093 583.77C481.553 583.219 480.991 582.667 480.439 582.238C474.338 577.185 467.644 572.895 460.506 569.459C446.096 626.79 406.142 672.973 397.906 682.025L418.335 684.395Z" fill="black"/>
<path d="M459.762 567.881C461.762 559.801 463.235 551.6 464.172 543.329C464.172 543.329 486.486 546.989 500.135 523.858C500.135 523.858 498.129 547.342 483.41 583.515C482.713 582.767 481.977 582.057 481.205 581.387C474.666 575.984 467.459 571.445 459.762 567.881Z" fill="black"/>
<path d="M483.757 585.522L482.588 584.266C481.907 583.552 481.19 582.875 480.438 582.237C473.991 576.899 466.884 572.412 459.292 568.886L458.477 568.5L458.686 567.629C460.68 559.592 462.153 551.435 463.096 543.208L463.217 542.106L464.32 542.293C465.202 542.437 486.072 545.524 499.159 523.341L501.617 519.174L501.21 523.992C501.21 524.234 499.005 548.059 484.396 583.979L483.757 585.522ZM461.045 567.276C468.501 570.808 475.489 575.252 481.85 580.506C482.235 580.837 482.621 581.168 482.952 581.52C493.194 555.986 497.031 536.869 498.387 528.457C494.668 533.743 489.661 537.992 483.84 540.801C478.019 543.61 471.577 544.887 465.125 544.509C464.221 552.173 462.858 559.775 461.045 567.276Z" fill="black"/>
<path d="M504.813 508.459C494.615 510.399 478.938 516.915 468.365 517.907L478.21 471.315C478.21 471.315 516.313 488.955 525.618 517.202C529.212 528.149 523.038 558.468 506.159 599.603C510.478 586.133 513.458 572.27 515.056 558.215C516.456 541.368 513.953 522.659 504.813 508.459Z" fill="#961430"/>
<path d="M454.81 543.462C467.225 546.461 481.37 532.018 486.397 511.192C491.424 490.365 485.438 471.061 473.024 468.062L455.527 463.023L433.918 538.931L454.81 543.462Z" fill="#C21333"/>
<path d="M458.167 544.962C456.956 544.966 455.75 544.826 454.573 544.543L432.522 539.758L454.771 461.657L473.326 467.004C479.676 468.537 484.66 474.093 487.306 482.627C489.886 490.951 489.941 501.193 487.471 511.457C485.002 521.722 480.261 530.806 474.153 537.035C469.048 542.239 463.536 544.962 458.167 544.962ZM435.301 538.105L455.069 542.393C460.68 543.75 466.91 541.291 472.587 535.492C478.265 529.693 482.951 520.829 485.332 510.906C487.714 500.984 487.681 491.204 485.211 483.244C482.797 475.527 478.387 470.455 472.775 469.099L456.292 464.358L435.301 538.105Z" fill="black"/>
<path d="M467.676 506.656C472.706 485.834 466.717 466.522 454.3 463.523C441.882 460.523 427.738 474.971 422.709 495.793C417.679 516.616 423.668 535.927 436.085 538.926C448.503 541.926 462.647 527.478 467.676 506.656Z" fill="#C21333"/>
<path d="M450.988 463.144C452.102 463.147 453.212 463.28 454.296 463.541C466.71 466.54 472.696 485.856 467.669 506.671C463.083 525.656 450.922 539.338 439.401 539.338C438.287 539.336 437.177 539.203 436.093 538.942C423.679 535.943 417.693 516.627 422.72 495.812C427.306 476.827 439.467 463.144 450.988 463.144ZM450.988 460.939C438.177 460.939 425.388 475.393 420.581 495.293C418.056 505.745 418.123 516.241 420.758 524.708C423.525 533.627 428.784 539.449 435.575 541.091C436.836 541.391 438.127 541.543 439.423 541.543C452.234 541.543 465.023 527.101 469.83 507.189C472.355 496.738 472.288 486.297 469.654 477.775C466.886 468.855 461.616 463.034 454.825 461.403C453.569 461.093 452.281 460.938 450.988 460.939Z" fill="black"/>
<path d="M460.215 504.848C464.077 488.861 459.861 474.127 450.8 471.938C441.738 469.749 431.262 480.935 427.4 496.921C423.539 512.908 427.754 527.642 436.816 529.83C445.877 532.019 456.353 520.834 460.215 504.848Z" fill="#961430"/>
<path d="M448.507 471.688C449.287 471.686 450.065 471.779 450.823 471.964C459.885 474.169 464.053 488.887 460.238 504.874C456.699 519.515 447.614 530.132 439.147 530.132C438.367 530.134 437.59 530.042 436.832 529.856C427.769 527.651 423.602 512.933 427.428 496.947C430.956 482.306 440.051 471.688 448.507 471.688ZM448.507 469.483C438.827 469.483 429.048 480.817 425.278 496.429C421.066 513.859 425.917 529.504 436.303 532.006C437.231 532.227 438.182 532.338 439.136 532.337C448.827 532.337 458.595 521.003 462.366 505.392C466.577 487.95 461.726 472.317 451.341 469.814C450.413 469.593 449.462 469.482 448.507 469.483Z" fill="black"/>
<path d="M452.46 502.568C455.015 491.992 452.432 482.293 446.691 480.906C440.95 479.52 434.224 486.97 431.669 497.546C429.115 508.123 431.698 517.821 437.439 519.208C443.18 520.595 449.905 513.145 452.46 502.568Z" fill="#961430"/>
<path d="M445.297 480.762C445.772 480.762 446.246 480.817 446.708 480.927C452.441 482.316 455.021 492.007 452.475 502.591C450.115 512.304 444.25 519.393 438.859 519.393C438.383 519.393 437.91 519.338 437.447 519.228C431.714 517.839 429.135 508.137 431.692 497.564C434.041 487.84 439.906 480.762 445.297 480.762ZM445.297 478.557C438.759 478.557 432.133 486.274 429.543 497.046C426.665 508.986 429.906 519.669 436.94 521.367C437.568 521.522 438.212 521.599 438.859 521.598C445.396 521.598 452.023 513.815 454.613 503.098C455.933 498.076 456.005 492.808 454.823 487.752C453.522 482.845 450.821 479.659 447.227 478.799C446.595 478.645 445.947 478.567 445.297 478.568V478.557Z" fill="black"/>
<path d="M445.8 491.08C446.194 489.947 445.87 488.805 445.077 488.528C444.283 488.252 443.32 488.947 442.926 490.08C442.532 491.212 442.855 492.355 443.649 492.631C444.442 492.907 445.405 492.213 445.8 491.08Z" fill="black"/>
<path d="M439.915 510.763C440.309 509.631 439.985 508.488 439.192 508.212C438.398 507.936 437.435 508.63 437.041 509.763C436.647 510.896 436.97 512.038 437.764 512.315C438.558 512.591 439.521 511.896 439.915 510.763Z" fill="black"/>
<path d="M443.635 510.126C444.031 508.998 443.712 507.859 442.922 507.582C442.132 507.305 441.171 507.994 440.775 509.121C440.379 510.249 440.698 511.388 441.488 511.665C442.278 511.942 443.239 511.253 443.635 510.126Z" fill="black"/>
<path d="M447.6 497.467C447.995 496.334 447.671 495.191 446.877 494.915C446.084 494.639 445.121 495.333 444.727 496.466C444.332 497.599 444.656 498.741 445.45 499.018C446.243 499.294 447.206 498.599 447.6 497.467Z" fill="black"/>
<path d="M440.361 494.934C440.755 493.801 440.431 492.659 439.638 492.383C438.844 492.107 437.881 492.801 437.487 493.934C437.093 495.067 437.416 496.209 438.21 496.485C439.003 496.762 439.966 496.067 440.361 494.934Z" fill="black"/>
<path d="M438.057 504.645C438.452 503.512 438.128 502.37 437.334 502.094C436.541 501.818 435.578 502.512 435.184 503.645C434.789 504.778 435.113 505.92 435.907 506.196C436.7 506.473 437.663 505.778 438.057 504.645Z" fill="black"/>
<path d="M442.851 500.921C443.246 499.788 442.922 498.645 442.128 498.369C441.335 498.093 440.372 498.788 439.978 499.92C439.583 501.053 439.907 502.196 440.701 502.472C441.494 502.748 442.457 502.054 442.851 500.921Z" fill="black"/>
<path d="M459.012 478.469L452.728 485.768L450.06 482.24L454.26 472.857L459.012 478.469Z" fill="black"/>
<path d="M479.267 506.043L477.15 505.425C484.261 481.17 470.105 468.271 469.962 468.15L471.428 466.496C471.583 466.628 486.775 480.421 479.267 506.043Z" fill="black"/>
<path d="M351.742 737.712C351.742 737.712 389.481 756.157 417.22 745.595C431.398 740.192 461.562 700.712 489.875 637.34" fill="#C21333"/>
<path d="M397.593 749.993C374.694 749.993 352.468 739.288 351.288 738.704L352.258 736.719C352.633 736.907 389.898 754.833 416.865 744.558C430.845 739.233 460.844 699.686 488.891 636.888L490.909 637.792C462.608 701.131 432.035 741.14 417.648 746.62C411.223 748.952 404.427 750.096 397.593 749.993Z" fill="black"/>
<path d="M413.66 661.045C408.622 667.66 403.738 674.462 397.938 680.361C397.938 680.361 415.634 695.796 406.262 720.933C406.262 720.933 423.329 705.211 442.149 670.99C441.079 670.704 440.026 670.358 438.996 669.953C430.218 668.03 421.709 665.039 413.66 661.045Z" fill="black"/>
<path d="M403.624 724.868L405.234 720.547C414.208 696.424 397.914 681.805 397.219 681.187L396.337 680.415L397.153 679.589C401.91 674.537 406.329 669.178 410.383 663.547C411.177 662.445 411.97 661.43 412.775 660.383L413.315 659.655L414.131 660.052C422.099 664 430.518 666.962 439.202 668.872C439.749 668.999 440.282 669.184 440.79 669.423C441.241 669.641 441.719 669.797 442.212 669.887L443.932 670.019L443.105 671.518C424.363 705.508 407.175 721.583 406.998 721.748L403.624 724.868ZM399.501 680.338C404.052 685.118 407.29 690.992 408.903 697.392C410.516 703.791 410.448 710.499 408.707 716.864C414.407 710.756 427.009 695.917 440.503 671.662L439.941 671.43C439.57 671.254 439.182 671.117 438.783 671.022C430.21 669.131 421.888 666.241 413.988 662.412L412.147 664.848C408.244 670.258 404.021 675.431 399.501 680.338Z" fill="black"/>
<path d="M392.974 673.404C403.128 681.121 400.813 701.242 387.814 718.264C374.816 735.287 356.04 742.806 345.919 735.045L330.98 724.637L376.304 660.03L392.974 673.404Z" fill="#C21333"/>
<path d="M355.49 739.123C351.789 739.217 348.162 738.076 345.181 735.882L329.382 724.857L376.018 658.376L393.603 672.477C398.829 676.468 401.144 683.502 400.13 692.421C399.127 701.087 395.058 710.491 388.653 718.881C378.951 731.659 365.952 739.123 355.49 739.123ZM332.458 724.317L346.482 734.096C356.173 741.494 374.287 734.096 386.9 717.558C393.063 709.477 396.988 700.47 397.925 692.201C398.851 684.13 396.822 677.758 392.247 674.252L376.481 661.617L332.458 724.317Z" fill="black"/>
<path d="M372.485 706.587C385.487 689.563 387.796 669.477 377.644 661.723C367.491 653.97 348.721 661.485 335.72 678.508C322.718 695.532 320.408 715.619 330.561 723.372C340.713 731.126 359.483 723.611 372.485 706.587Z" fill="#C21333"/>
<path d="M367.925 658.641C371.416 658.548 374.838 659.623 377.649 661.695C387.803 669.412 385.488 689.533 372.489 706.556C362.963 719.025 350.34 726.401 340.285 726.401C336.798 726.492 333.38 725.417 330.572 723.347C320.418 715.629 322.722 695.509 335.721 678.486C345.246 666.017 357.87 658.641 367.925 658.641ZM367.925 656.436C356.9 656.436 343.57 664.561 333.957 677.141C327.441 685.685 323.284 695.266 322.259 704.13C321.157 713.402 323.67 720.855 329.216 725.078C332.397 727.443 336.278 728.677 340.241 728.584C351.266 728.584 364.595 720.458 374.198 707.879C380.725 699.334 384.881 689.754 385.896 680.889C386.998 671.606 384.495 664.165 378.939 659.942C375.759 657.573 371.877 656.339 367.914 656.436H367.925Z" fill="black"/>
<path d="M366.402 701.936C376.384 688.866 378.47 673.684 371.061 668.025C363.653 662.367 349.555 668.376 339.572 681.446C329.59 694.517 327.504 709.699 334.913 715.357C342.321 721.016 356.419 715.007 366.402 701.936Z" fill="#961430"/>
<path d="M364.31 665.884C366.752 665.814 369.146 666.563 371.113 668.011C378.522 673.667 376.438 688.849 366.449 701.924C359.018 711.659 349.305 717.481 341.764 717.481C339.322 717.541 336.93 716.789 334.962 715.342C327.553 709.686 329.648 694.504 339.625 681.429C347.056 671.694 356.78 665.884 364.31 665.884ZM364.31 663.679C355.865 663.679 345.491 670.117 337.85 680.095C326.969 694.35 325.094 710.601 333.606 717.095C335.95 718.848 338.816 719.76 341.742 719.686C350.187 719.686 360.562 713.236 368.202 703.258C373.263 696.643 376.559 689.257 377.496 682.487C378.489 675.255 376.692 669.489 372.458 666.258C370.109 664.509 367.239 663.6 364.31 663.679Z" fill="black"/>
<path d="M359.735 697.346C366.339 688.698 367.888 678.782 363.194 675.197C358.5 671.612 349.341 675.716 342.736 684.364C336.132 693.011 334.584 702.928 339.277 706.512C343.971 710.097 353.13 705.993 359.735 697.346Z" fill="#961430"/>
<path d="M359.038 673.898C360.531 673.849 361.997 674.299 363.205 675.177C367.891 678.76 366.347 688.672 359.743 697.326C354.76 703.842 348.322 707.789 343.448 707.789C341.956 707.833 340.493 707.375 339.292 706.488C334.595 702.905 336.15 692.993 342.754 684.35C347.726 677.823 354.165 673.887 359.049 673.887M359.049 671.682C353.338 671.682 346.249 676.092 341.001 683.005C333.537 692.773 332.181 703.853 337.947 708.241C339.535 709.428 341.477 710.046 343.46 709.994C349.159 709.994 356.249 705.584 361.507 698.66C364.739 694.592 366.93 689.797 367.891 684.692C368.685 679.675 367.494 675.673 364.583 673.424C362.994 672.241 361.052 671.627 359.071 671.682H359.049Z" fill="black"/>
<path d="M396.206 515.315C394.904 515.321 393.607 515.135 392.359 514.764C387.463 513.275 384.112 509.395 380.551 504.841C377.243 500.663 374.255 496.242 371.345 491.964C368.126 487.245 364.796 482.361 361.213 477.973L362.922 476.584C366.571 480.994 369.923 485.955 373.164 490.718C376.064 494.963 379.051 499.362 382.293 503.485C385.534 507.608 388.72 511.335 392.998 512.636C398.169 514.212 404.53 511.732 408.433 506.605C409.88 504.673 411.032 502.537 411.851 500.266C408.646 499 405.695 497.166 403.141 494.853C398.808 490.809 395.771 485.571 394.417 479.8C393.063 474.03 393.452 467.988 395.534 462.439C397.662 456.926 402.656 452.12 408.102 453.465C412.38 454.567 415.169 458.856 416.162 465.989C417.255 473.828 417.351 481.774 416.448 489.638C416.127 492.758 415.526 495.843 414.651 498.855C421.414 500.997 428.74 500.48 435.136 497.41L436.128 499.384C429.215 502.764 421.265 503.344 413.935 501.004C413.031 503.489 411.764 505.826 410.175 507.939C408.549 510.138 406.449 511.942 404.031 513.219C401.613 514.496 398.939 515.212 396.206 515.315ZM406.327 455.46C402.634 455.46 399.183 459.242 397.629 463.244C395.746 468.389 395.409 473.972 396.658 479.306C397.908 484.64 400.69 489.492 404.663 493.265C406.995 495.366 409.688 497.028 412.612 498.171C413.431 495.312 413.999 492.386 414.309 489.428C415.184 481.751 415.088 473.995 414.023 466.342C413.416 462.031 411.818 456.695 407.617 455.648C407.195 455.544 406.762 455.488 406.327 455.482V455.46Z" fill="black"/>
<path d="M80.0638 539.657C69.4136 539.657 60.6377 537.011 53.4604 531.675C37.0552 519.47 34.7178 495.833 39.5468 479.042C44.8057 460.674 57.0325 445.382 68.8623 430.531C80.8906 415.493 90.725 402.969 99.8096 391.161L101.563 392.506C92.4669 404.336 82.6216 416.86 70.5822 431.91C58.9178 446.584 46.7902 461.699 41.6636 479.648C37.0662 495.733 39.205 518.324 54.7724 529.9C64.2098 536.912 76.657 539.007 92.8197 536.306L93.1835 538.511C88.8489 539.25 84.461 539.634 80.0638 539.657Z" fill="black"/>
<path d="M169.419 295.388L167.534 294.285C201.27 239.16 223.353 187.519 235.051 136.374C239.527 116.793 241.479 100.829 241.192 86.1328H243.397C243.684 101.017 241.721 117.146 237.201 136.914C225.448 188.191 203.277 240.064 169.419 295.388Z" fill="black"/>
<path d="M390.615 288.85C387.785 288.861 384.983 288.294 382.379 287.186C370.968 282.368 367.12 268.443 369.281 257.749C371.618 246.239 379.402 236.801 386.701 229.084C399.466 215.641 413.897 203.885 429.643 194.101C420.503 191.621 410.294 192.117 402.158 192.999C372.908 196.053 343.835 203.307 315.711 210.33C299.581 214.365 282.9 218.522 266.341 221.862C210.025 233.207 165.065 231.245 128.903 215.876C107.074 206.533 88.304 191.254 74.7256 171.776C60.4592 151.104 54.4175 128.513 57.2509 106.43C62.3004 67.0159 93.0382 38.3067 117.889 21.1628C141.603 4.8568 162.176 -1.87949 180.974 0.446785C210.653 4.16222 231.347 30.3577 238.701 54.6568C241.688 64.8381 243.268 75.3802 243.397 85.9899H241.192C241.071 75.5813 239.521 65.2387 236.584 55.2522C229.44 31.7137 209.396 6.268 180.709 2.65179C162.463 0.36961 142.342 6.99565 119.19 22.9378C94.6588 39.8502 64.4282 68.0853 59.4339 106.684C53.2709 154.764 90.1496 196.968 129.763 213.814C165.506 229.007 210.047 230.925 265.911 219.668C282.448 216.361 299.074 212.182 315.17 208.158C343.372 201.124 372.5 193.826 401.937 190.772C410.857 189.846 422.212 189.339 432.168 192.547C468.087 170.783 510.137 158.954 552.043 159.725C572.439 160.1 586.077 165.094 593.729 175.017C600.002 183.142 601.81 193.76 599.109 206.46L596.904 206.008C599.473 193.881 597.797 183.958 591.943 176.362C584.721 167.013 571.645 162.294 551.966 161.93C511.107 161.159 470.017 172.547 434.792 193.506C439.331 195.282 443.385 198.108 446.622 201.753C458.319 215.137 450.547 234.188 446.622 241.751C440.164 254.189 431.252 265.189 420.426 274.088C411.893 281.276 401.276 288.85 390.615 288.85ZM432.432 194.961C416.23 204.848 401.402 216.829 388.332 230.594C381.243 238.08 373.691 247.22 371.464 258.157C369.447 268.079 373.305 280.923 383.261 285.124C395.388 290.262 408.762 281.012 419.026 272.368C429.662 263.694 438.428 252.952 444.792 240.792C448.474 233.626 455.817 215.611 445.056 203.307C441.653 199.466 437.3 196.588 432.432 194.961Z" fill="black"/>
<path d="M360.086 436.829C353.99 436.929 347.94 435.754 342.324 433.378C338.27 431.521 334.657 428.822 331.726 425.462C328.795 422.101 326.613 418.155 325.324 413.886C323.372 407.271 324.221 400.744 327.606 395.606L329.447 396.83C326.393 401.406 325.677 407.249 327.441 413.257C328.651 417.219 330.681 420.882 333.399 424.009C336.117 427.135 339.462 429.655 343.217 431.405C357.407 437.645 374.308 433.61 385.785 430.071C390.923 428.472 396.104 426.653 401.22 424.657L402.025 426.708C396.898 428.726 391.661 430.567 386.469 432.221C379.148 434.392 369.733 436.829 360.086 436.829Z" fill="black"/>
<path d="M315.049 391.571L317.828 401.406C318.127 402.689 318.923 403.801 320.041 404.497C321.159 405.194 322.509 405.418 323.792 405.121L324.531 404.912C325.781 404.492 326.814 403.593 327.403 402.413C327.992 401.233 328.089 399.868 327.673 398.616L324.895 388.793" fill="#C21333"/>
<path d="M322.627 406.388C321.276 406.345 319.975 405.865 318.92 405.02C317.864 404.176 317.111 403.011 316.773 401.702L313.995 391.835L316.122 391.229L318.901 401.052C319.12 402.053 319.727 402.927 320.588 403.483C321.449 404.038 322.496 404.231 323.498 404.018L324.237 403.808C324.698 403.675 325.126 403.445 325.491 403.133C325.856 402.821 326.15 402.435 326.354 402C326.829 401.029 326.92 399.915 326.607 398.88L323.829 389.046L325.957 388.45L328.735 398.273C329.192 399.839 329.046 401.518 328.327 402.981C327.988 403.692 327.502 404.322 326.902 404.831C326.301 405.341 325.6 405.717 324.843 405.936L324.105 406.134C323.627 406.288 323.129 406.374 322.627 406.388Z" fill="black"/>
<path d="M310.121 381.483L313.759 394.349C314.212 396.063 315.327 397.527 316.859 398.42C318.391 399.313 320.214 399.562 321.929 399.112L322.954 398.825C324.654 398.31 326.079 397.143 326.918 395.578C327.758 394.013 327.942 392.18 327.43 390.479L323.792 377.624" fill="#C21333"/>
<path d="M320.207 400.457C318.862 400.454 317.541 400.092 316.382 399.41C314.586 398.361 313.273 396.651 312.721 394.647L309.083 381.781L311.2 381.185L314.838 394.04C315.236 395.498 316.19 396.741 317.495 397.502C318.114 397.872 318.802 398.111 319.517 398.206C320.231 398.301 320.958 398.249 321.652 398.054L322.677 397.756C323.379 397.566 324.035 397.234 324.603 396.781C325.172 396.328 325.642 395.763 325.984 395.121C326.689 393.785 326.85 392.229 326.436 390.777L322.798 377.922L324.915 377.315L328.553 390.182C329.131 392.179 328.906 394.324 327.925 396.157C327.449 397.056 326.796 397.849 326.006 398.49C325.216 399.13 324.305 399.604 323.327 399.884L322.302 400.17C321.62 400.362 320.915 400.458 320.207 400.457Z" fill="black"/>
<path d="M195.979 109.23C195.979 109.23 158.979 132.24 152.981 162.437C148.88 183.12 182.749 262.765 256.76 350.171C268.678 364.272 336.746 359.234 336.746 359.234L306.262 313.976C306.262 313.976 238.679 268.476 220.807 181.764" fill="#C21333"/>
<path d="M310.366 361.228C289.628 361.228 263.168 359.453 255.925 350.887C182.134 263.734 147.571 184.012 151.903 162.215C157.923 131.897 193.865 109.295 195.397 108.292L196.555 110.166C196.191 110.398 159.897 133.319 154.064 162.645C152.366 171.168 157.372 193.515 176.566 230.78C190.326 257.516 215.562 299.808 257.6 349.464C267.931 361.658 323.75 358.924 334.775 358.284L305.482 314.78C303.597 313.479 287.368 301.969 269.419 281.12C251.878 260.757 229.023 227.031 219.74 182.005L221.945 181.564C239.508 266.81 306.265 312.63 306.937 313.082L307.125 313.203L307.235 313.379L338.733 360.192L336.837 360.335C335.713 360.423 324.335 361.228 310.366 361.228Z" fill="black"/>
<path d="M227.774 206.615C220.322 211.236 213.493 216.794 207.455 223.153C206.729 223.936 206.048 224.761 205.416 225.622C219.825 251.487 238.91 287.12 269.956 324.307L285.303 322.433L308.279 316.921C308.279 316.921 252.195 271.365 227.774 206.615Z" fill="#961430"/>
<path d="M269.496 325.553L269.11 325.09C239.971 290.184 221.063 256.139 207.26 231.278L204.118 225.622L204.537 225.049C205.196 224.155 205.902 223.297 206.653 222.48C212.753 216.03 219.656 210.39 227.193 205.7L228.296 204.994L228.77 206.251C252.804 269.943 308.381 315.641 308.933 316.093L310.663 317.504L285.394 323.601L269.496 325.553ZM206.731 225.798L209.189 230.208C222.893 254.882 241.625 288.641 270.411 323.215L285.107 321.418L305.879 316.391C296.408 308.221 249.287 265.676 227.193 208.346C220.258 212.79 213.89 218.062 208.23 224.045C207.756 224.553 207.227 225.159 206.731 225.798Z" fill="black"/>
<path d="M227.775 206.614C224.705 198.544 222.16 190.283 220.157 181.885C220.157 181.885 197.655 188.5 180.688 166.361C180.688 166.361 185.704 190.286 205.417 225.676C206.049 224.814 206.73 223.99 207.456 223.206C213.491 216.828 220.32 211.252 227.775 206.614Z" fill="black"/>
<path d="M205.294 227.738L204.445 226.239C184.876 191.113 179.65 166.858 179.595 166.616L178.603 161.875L181.546 165.712C197.83 186.924 218.954 181.147 219.847 180.849L220.95 180.529L221.214 181.632C223.206 189.985 225.736 198.202 228.788 206.229L229.108 207.067L228.336 207.552C220.963 212.143 214.209 217.66 208.238 223.968C207.539 224.717 206.887 225.509 206.286 226.338L205.294 227.738ZM182.957 170.783C185.35 179.206 191.711 198.522 205.57 223.703C205.923 223.273 206.286 222.865 206.672 222.469C212.567 216.241 219.211 210.768 226.451 206.174C223.637 198.669 221.27 191.004 219.362 183.219C214.82 184.135 197.477 186.329 182.957 170.783Z" fill="black"/>
<path d="M173.909 151.127C184.658 151.832 201.615 156.573 212.629 156.264L196.62 109.529C196.62 109.529 159.62 132.539 153.623 162.736C151.296 174.467 161.472 204.907 184.03 245.126C177.899 231.802 173.098 217.906 169.697 203.639C166.026 186.473 166.29 166.926 173.909 151.127Z" fill="#961430"/>
<path d="M229.806 180.871C217.403 185.524 201.019 172.426 193.225 151.622C185.43 130.818 189.156 110.19 201.56 105.537L218.946 98.1504L250.753 173.539L229.806 180.871Z" fill="#C21333"/>
<path d="M224.598 182.899C212.68 182.899 199.064 170.397 192.173 152.029C184.18 130.696 188.204 109.385 201.159 104.522L219.515 96.7168L219.945 97.7421L252.205 174.245L230.155 181.962C228.374 182.607 226.492 182.925 224.598 182.899ZM218.336 99.5943L201.986 106.551C190.123 110.961 186.672 131.038 194.268 151.236C201.864 171.433 217.619 184.311 229.438 179.834L249.283 172.911L218.336 99.5943Z" fill="black"/>
<path d="M248.494 173.863C260.9 169.212 264.635 148.576 256.836 127.771C249.036 106.966 232.656 93.8712 220.25 98.5221C207.844 103.173 204.109 123.809 211.908 144.614C219.707 165.418 236.087 178.514 248.494 173.863Z" fill="#C21333"/>
<path d="M225.512 97.5888C236.967 97.5888 250.098 109.805 256.834 127.775C264.64 148.58 260.903 169.207 248.5 173.86C246.814 174.489 245.029 174.807 243.23 174.797C231.786 174.797 218.644 162.581 211.908 144.611C204.113 123.806 207.839 103.178 220.253 98.5259C221.935 97.8959 223.717 97.5783 225.512 97.5888ZM225.512 95.3838C223.449 95.3856 221.402 95.7591 219.471 96.4863C212.723 99.011 208.049 105.637 206.329 115.141C204.686 124.236 205.932 134.986 209.846 145.415C216.825 164.026 230.551 177.024 243.23 177.024C245.293 177.023 247.34 176.65 249.271 175.922C256.03 173.397 260.693 166.771 262.413 157.267C264.056 148.172 262.81 137.422 258.896 126.993C251.917 108.382 238.191 95.3838 225.512 95.3838Z" fill="black"/>
<path d="M246.583 164.617C255.637 161.223 258.122 145.521 252.133 129.545C246.144 113.57 233.95 103.37 224.896 106.765C215.842 110.159 213.357 125.861 219.346 141.836C225.335 157.812 237.529 168.011 246.583 164.617Z" fill="#961430"/>
<path d="M228.569 106.1C237.014 106.1 246.926 115.625 252.141 129.528C258.127 145.503 255.647 161.214 246.628 164.598C245.457 165.034 244.217 165.254 242.968 165.249C234.512 165.249 224.6 155.723 219.385 141.821C213.399 125.845 215.879 110.146 224.898 106.75C226.068 106.313 227.309 106.092 228.558 106.1M228.558 103.895C227.052 103.892 225.558 104.161 224.148 104.688C218.999 106.618 215.515 111.777 214.336 119.219C213.233 126.22 214.336 134.522 217.313 142.592C222.825 157.234 233.343 167.454 242.957 167.454C244.461 167.456 245.955 167.191 247.367 166.671C257.719 162.79 260.718 146.131 254.202 128.756C248.69 114.115 238.172 103.895 228.569 103.895H228.558Z" fill="black"/>
<path d="M244.619 153.741C250.355 151.591 251.794 141.284 247.833 130.719C243.873 120.154 236.012 113.333 230.277 115.483C224.541 117.633 223.102 127.94 227.062 138.505C231.023 149.07 238.883 155.892 244.619 153.741Z" fill="#961430"/>
<path d="M232.492 115.107C237.894 115.107 244.355 121.491 247.828 130.741C251.786 141.303 250.353 151.611 244.619 153.761C243.914 154.022 243.167 154.156 242.414 154.158C237.012 154.158 230.552 147.775 227.079 138.525C223.121 127.963 224.554 117.654 230.287 115.504C230.992 115.238 231.739 115.104 232.492 115.107ZM232.492 112.902C231.469 112.899 230.453 113.078 229.493 113.432C225.932 114.777 223.573 118.36 222.878 123.553C222.305 128.897 223.043 134.301 225.028 139.296C228.799 149.351 235.954 156.363 242.426 156.363C243.45 156.368 244.466 156.185 245.424 155.823C248.985 154.489 251.345 150.895 252.039 145.713C252.607 140.368 251.87 134.966 249.889 129.969C246.119 119.914 238.964 112.902 232.492 112.902Z" fill="black"/>
<path d="M234.888 127.141C235.67 126.757 235.86 125.542 235.312 124.427C234.764 123.312 233.687 122.72 232.905 123.104C232.124 123.488 231.934 124.703 232.482 125.818C233.029 126.932 234.107 127.525 234.888 127.141Z" fill="black"/>
<path d="M243.423 146.68C244.204 146.296 244.394 145.081 243.846 143.966C243.299 142.852 242.221 142.259 241.44 142.643C240.658 143.027 240.468 144.242 241.016 145.357C241.564 146.472 242.641 147.064 243.423 146.68Z" fill="black"/>
<path d="M237.217 143.748C237.999 143.364 238.188 142.149 237.641 141.034C237.093 139.919 236.015 139.326 235.234 139.71C234.452 140.094 234.263 141.309 234.81 142.424C235.358 143.539 236.436 144.132 237.217 143.748Z" fill="black"/>
<path d="M233.826 133.945C234.608 133.561 234.797 132.346 234.249 131.231C233.702 130.116 232.624 129.524 231.843 129.907C231.061 130.291 230.872 131.506 231.419 132.621C231.967 133.736 233.044 134.329 233.826 133.945Z" fill="black"/>
<path d="M240.972 130.427C241.754 130.043 241.944 128.828 241.396 127.714C240.848 126.599 239.771 126.006 238.989 126.39C238.208 126.774 238.018 127.989 238.566 129.104C239.113 130.219 240.191 130.811 240.972 130.427Z" fill="black"/>
<path d="M244.566 140.141C245.347 139.757 245.537 138.542 244.989 137.427C244.442 136.312 243.364 135.72 242.583 136.104C241.801 136.488 241.611 137.703 242.159 138.818C242.707 139.932 243.784 140.525 244.566 140.141Z" fill="black"/>
<path d="M239.159 136.901C239.941 136.517 240.131 135.302 239.583 134.187C239.035 133.072 237.958 132.48 237.176 132.864C236.395 133.247 236.205 134.462 236.753 135.577C237.3 136.692 238.378 137.285 239.159 136.901Z" fill="black"/>
<path d="M217.291 114.478L224.678 121.203L226.982 117.245L221.481 108.116L217.291 114.478Z" fill="black"/>
<path d="M199.936 145.404C189.01 120.046 202.891 103.906 203.034 103.74L204.688 105.207C204.556 105.361 191.601 120.454 201.965 144.533L199.936 145.404Z" fill="black"/>
<path d="M360.36 367.889C360.36 367.889 323.823 391.626 293.934 384.239C278.664 380.468 242.645 343.623 205.513 281.927" fill="#C21333"/>
<path d="M306.391 386.784C302.106 386.811 297.833 386.315 293.668 385.306C278.167 381.481 241.674 344.139 204.564 282.498L206.46 281.396C243.262 342.529 279.126 379.518 294.197 383.201C323.292 390.389 359.399 367.225 359.752 366.994L360.954 368.846C359.664 369.651 332.95 386.784 306.391 386.784Z" fill="black"/>
<path d="M286.968 296.744C292.999 302.94 298.842 309.313 305.579 314.649C305.579 314.649 289.306 332.741 302.117 357.47C302.117 357.47 282.569 343.435 258.888 310.57C259.99 310.36 261.005 309.467 261.997 309.114C270.793 306.021 279.178 301.867 286.968 296.744Z" fill="black"/>
<path d="M305.216 361.052L301.467 358.373C301.269 358.23 281.49 343.853 257.985 311.208L256.981 309.819L258.668 309.488C259.17 309.334 259.649 309.111 260.091 308.827C260.584 308.518 261.109 308.263 261.656 308.066C270.352 304.994 278.644 300.881 286.352 295.817L287.113 295.332L287.741 295.983L290.597 298.926C295.479 304.222 300.709 309.187 306.252 313.788L307.178 314.516L306.396 315.387C305.745 316.103 290.795 333.225 303.088 356.962L305.216 361.052ZM260.609 311.065C277.686 334.537 292.581 348.219 299.196 353.732C296.567 347.381 295.632 340.457 296.482 333.637C297.332 326.817 299.939 320.334 304.047 314.824C298.762 310.348 293.748 305.562 289.031 300.492L286.826 298.199C279.174 303.143 270.966 307.169 262.373 310.194C261.988 310.35 261.619 310.542 261.27 310.767L260.609 311.065Z" fill="black"/>
<path d="M313.054 370.083C316.979 360.05 319.89 342.697 324.84 332.84L360.363 367.172C360.363 367.172 323.826 390.909 293.937 383.522C282.339 380.656 259.087 358.529 232.197 321.021C241.653 332.244 252.197 342.503 263.673 351.649C277.708 362.233 295.547 370.303 313.054 370.083Z" fill="#961430"/>
<path d="M309.846 306.865C300.364 316.115 305.27 336.511 320.794 352.398C336.317 368.285 356.592 373.666 366.073 364.405L380.141 351.803L325.336 291L309.846 306.865Z" fill="#C21333"/>
<path d="M353.7 370.005C343.392 370.005 330.547 363.996 320.008 353.169C312.356 345.342 306.987 336.191 304.87 327.404C302.665 318.408 304.198 310.866 309.06 306.082L325.366 289.39L326.159 290.261L381.693 351.891L366.809 365.231C363.49 368.461 358.915 370.005 353.7 370.005ZM325.3 292.609L310.614 307.647C306.314 311.848 305.036 318.672 307.009 326.886C309.038 335.298 314.208 344.085 321.584 351.626C336.666 367.061 356.28 372.43 365.298 363.621L378.528 351.725L325.3 292.609Z" fill="black"/>
<path d="M380.355 350.439C389.831 341.178 384.925 320.789 369.396 304.899C353.867 289.008 333.596 283.633 324.12 292.893C314.644 302.153 319.551 322.542 335.079 338.433C350.608 354.324 370.879 359.699 380.355 350.439Z" fill="#C21333"/>
<path d="M336.559 288.365C346.537 288.365 359.028 294.286 369.402 304.903C384.926 320.801 389.832 341.186 380.361 350.447C377.208 353.523 372.875 354.978 367.925 354.978C358.003 354.978 345.456 349.058 335.082 338.441C319.558 322.554 314.652 302.157 324.123 292.896C327.276 289.832 331.609 288.365 336.559 288.365ZM336.559 286.16C330.87 286.16 326.041 287.946 322.579 291.32C317.42 296.369 315.821 304.318 318.081 313.701C320.286 322.686 325.721 332.013 333.516 339.984C344.045 350.756 356.911 357.183 367.936 357.183C373.625 357.183 378.454 355.397 381.905 352.024C387.076 346.985 388.663 339.036 386.414 329.643C384.209 320.668 378.774 311.33 370.979 303.37C360.45 292.588 347.584 286.16 336.559 286.16Z" fill="black"/>
<path d="M374.886 342.726C381.801 335.968 377.741 320.598 365.816 308.396C353.892 296.193 338.619 291.78 331.704 298.538C324.788 305.296 328.849 320.666 340.773 332.869C352.697 345.071 367.97 349.484 374.886 342.726Z" fill="#961430"/>
<path d="M340.45 295.388C347.981 295.388 357.672 300.084 365.808 308.408C377.737 320.613 381.794 335.971 374.882 342.74C373.704 343.817 372.326 344.65 370.826 345.193C369.325 345.736 367.733 345.978 366.139 345.904C358.598 345.904 348.907 341.208 340.781 332.884C328.852 320.679 324.795 305.321 331.708 298.552C332.886 297.474 334.267 296.64 335.769 296.097C337.271 295.554 338.866 295.313 340.461 295.388M340.461 293.183C338.572 293.109 336.686 293.41 334.913 294.069C333.14 294.727 331.515 295.73 330.131 297.019C322.226 304.737 326.184 321.197 339.161 334.505C347.407 342.95 357.738 348.187 366.106 348.187C367.998 348.256 369.885 347.95 371.658 347.285C373.431 346.621 375.055 345.612 376.436 344.317C380.372 340.469 381.475 334.394 379.556 327.052C377.748 320.205 373.426 313.039 367.429 306.876C359.182 298.431 348.863 293.183 340.495 293.183H340.461Z" fill="black"/>
<path d="M369.254 334.174C373.635 329.893 370.794 319.88 362.908 311.811C355.023 303.741 345.079 300.67 340.698 304.951C336.317 309.233 339.158 319.245 347.044 327.314C354.929 335.384 364.873 338.455 369.254 334.174Z" fill="#961430"/>
<path d="M346.072 303.03C350.978 303.03 357.439 306.227 362.918 311.85C370.801 319.92 373.646 329.931 369.269 334.209C368.544 334.867 367.697 335.377 366.776 335.708C365.855 336.039 364.877 336.185 363.9 336.138C358.993 336.138 352.533 332.941 347.053 327.318C339.171 319.248 336.326 309.237 340.703 304.959C341.427 304.301 342.274 303.792 343.196 303.461C344.117 303.13 345.094 302.983 346.072 303.03ZM346.072 300.825C343.52 300.728 341.034 301.648 339.159 303.383C333.834 308.587 336.602 319.788 345.477 328.862C351.177 334.694 358.244 338.321 363.9 338.321C365.162 338.37 366.421 338.17 367.606 337.731C368.79 337.292 369.876 336.623 370.801 335.763C373.524 333.106 374.241 328.862 372.808 323.823C371.189 318.688 368.334 314.027 364.495 310.251C358.795 304.419 351.728 300.792 346.072 300.792V300.825Z" fill="black"/>
<path d="M363.461 328.569C364.14 328.024 364.061 326.797 363.283 325.828C362.506 324.859 361.326 324.515 360.646 325.06C359.967 325.604 360.046 326.831 360.824 327.8C361.601 328.769 362.781 329.113 363.461 328.569Z" fill="black"/>
<path d="M349.406 312.54C350.086 311.995 350.006 310.768 349.229 309.799C348.452 308.83 347.271 308.486 346.592 309.031C345.913 309.576 345.992 310.803 346.769 311.772C347.547 312.741 348.727 313.085 349.406 312.54Z" fill="black"/>
<path d="M349.419 319.404C350.098 318.859 350.019 317.632 349.242 316.663C348.465 315.694 347.284 315.35 346.605 315.894C345.926 316.439 346.005 317.666 346.782 318.635C347.559 319.604 348.74 319.948 349.419 319.404Z" fill="black"/>
<path d="M356.862 326.63C357.541 326.085 357.461 324.858 356.684 323.889C355.907 322.92 354.727 322.576 354.047 323.121C353.368 323.666 353.447 324.893 354.225 325.862C355.002 326.831 356.182 327.175 356.862 326.63Z" fill="black"/>
<path d="M364.676 319.871C365.356 319.322 365.272 318.092 364.489 317.123C363.707 316.154 362.522 315.814 361.843 316.362C361.163 316.911 361.247 318.141 362.03 319.11C362.812 320.079 363.997 320.419 364.676 319.871Z" fill="black"/>
<path d="M355.815 314.279C356.494 313.734 356.415 312.507 355.638 311.538C354.861 310.569 353.68 310.225 353.001 310.769C352.322 311.314 352.401 312.541 353.178 313.51C353.955 314.479 355.136 314.823 355.815 314.279Z" fill="black"/>
<path d="M356.44 320.547C357.119 320.002 357.04 318.775 356.262 317.806C355.485 316.837 354.305 316.493 353.625 317.038C352.946 317.583 353.026 318.81 353.803 319.779C354.58 320.748 355.76 321.092 356.44 320.547Z" fill="black"/>
<path d="M364.65 346.358L361.695 336.821L366.26 336.413L372.191 345.266L364.65 346.358Z" fill="black"/>
<path d="M361.286 364.604C353.679 364.604 341.055 362.201 329.313 348.949L330.967 347.482C348.376 367.085 367.537 361.815 367.736 361.705L368.353 363.822C366.041 364.383 363.665 364.646 361.286 364.604Z" fill="black"/>
<path d="M582.209 183.153C584.81 187.155 584.469 191.334 581.415 193.307C580.618 193.859 579.672 194.155 578.703 194.155C577.733 194.155 576.787 193.859 575.99 193.307C575.96 194.581 575.616 195.828 574.986 196.936C574.357 198.044 573.464 198.979 572.385 199.658C570.553 200.755 568.367 201.099 566.286 200.617C564.205 200.135 562.393 198.865 561.23 197.073C560.067 195.282 559.645 193.109 560.051 191.013C560.458 188.916 561.663 187.059 563.411 185.832C564.395 185.174 565.518 184.751 566.691 184.596C567.865 184.442 569.059 184.559 570.18 184.939L569.386 182.933L570.754 182.051L575.99 190.077C576.179 190.447 576.442 190.774 576.763 191.038C577.083 191.302 577.456 191.496 577.855 191.609C578.255 191.722 578.674 191.751 579.085 191.694C579.497 191.637 579.892 191.496 580.246 191.279C582.065 190.11 582.032 187.332 580.18 184.487C575.957 177.982 568.196 176.615 561.184 181.18C554.172 185.744 552.254 193.506 556.553 200.132C560.853 206.758 568.295 208.169 575.064 203.77C576.985 202.565 578.565 200.887 579.651 198.897L580.974 200.937C579.761 202.956 578.106 204.675 576.134 205.964C568.416 211.002 559.464 209.183 554.459 201.488C549.453 193.792 551.581 184.575 559.828 179.217C568.074 173.859 577.214 175.469 582.209 183.153ZM572.683 189.603C572.306 188.964 571.801 188.411 571.201 187.976C570.6 187.542 569.916 187.236 569.192 187.077C568.468 186.919 567.718 186.912 566.991 187.056C566.264 187.2 565.574 187.493 564.965 187.916C564.015 188.511 563.264 189.377 562.807 190.401C562.351 191.425 562.21 192.562 562.402 193.667C562.594 194.772 563.111 195.794 563.887 196.604C564.663 197.414 565.662 197.974 566.758 198.214C567.853 198.453 568.995 198.361 570.038 197.949C571.081 197.536 571.978 196.823 572.613 195.899C573.249 194.975 573.595 193.883 573.607 192.761C573.62 191.64 573.298 190.54 572.683 189.603Z" fill="black"/>
<path d="M140.256 180.033L114.912 189.343L115.672 191.413L141.016 182.103L140.256 180.033Z" fill="#030303"/>
<path d="M112.337 128.254L111.799 130.393L137.982 136.984L138.52 134.846L112.337 128.254Z" fill="#030303"/>
<path d="M144.636 76.3677L142.987 77.8311L160.906 98.0281L162.555 96.5647L144.636 76.3677Z" fill="#030303"/>
<path d="M200.399 50.7319L198.216 51.0186L201.726 77.7488L203.909 77.4622L200.399 50.7319Z" fill="#030303"/>
<path d="M264.855 61.7711L252.589 85.8242L254.553 86.826L266.819 62.7728L264.855 61.7711Z" fill="#030303"/>
<path d="M125.98 290.493L115.595 301.198L129.442 310.856L125.98 290.493Z" fill="#C21333"/>
<path d="M160.522 256.415L165.141 268.675L150.037 302.378L160.522 256.415Z" fill="#C21333"/>
<path d="M177.546 323.413C179.482 323.413 181.051 321.844 181.051 319.907C181.051 317.971 179.482 316.401 177.546 316.401C175.609 316.401 174.04 317.971 174.04 319.907C174.04 321.844 175.609 323.413 177.546 323.413Z" fill="#961430"/>
<path d="M191.075 314.407C191.976 314.407 192.707 313.676 192.707 312.775C192.707 311.874 191.976 311.144 191.075 311.144C190.174 311.144 189.443 311.874 189.443 312.775C189.443 313.676 190.174 314.407 191.075 314.407Z" fill="black"/>
<path d="M135.77 271.871C139.283 271.871 142.132 269.023 142.132 265.51C142.132 261.997 139.283 259.148 135.77 259.148C132.257 259.148 129.409 261.997 129.409 265.51C129.409 269.023 132.257 271.871 135.77 271.871Z" fill="black"/>
<path d="M195.349 296.932L183.817 293.382L173.784 307.968L195.349 296.932Z" fill="#C21333"/>
<path d="M482.41 145.669C487.616 145.669 491.837 141.449 491.837 136.243C491.837 131.037 487.616 126.816 482.41 126.816C477.204 126.816 472.984 131.037 472.984 136.243C472.984 141.449 477.204 145.669 482.41 145.669Z" fill="black"/>
<path d="M82.3014 99.6722C85.3642 99.6722 87.847 97.1894 87.847 94.1266C87.847 91.0639 85.3642 88.5811 82.3014 88.5811C79.2387 88.5811 76.7559 91.0639 76.7559 94.1266C76.7559 97.1894 79.2387 99.6722 82.3014 99.6722Z" fill="black"/>
<path d="M541.999 480.773C546.371 480.773 549.915 477.229 549.915 472.857C549.915 468.485 546.371 464.941 541.999 464.941C537.628 464.941 534.083 468.485 534.083 472.857C534.083 477.229 537.628 480.773 541.999 480.773Z" fill="black"/>
<path d="M402.667 541.577L379.765 549.989L380.525 552.059L403.427 543.646L402.667 541.577Z" fill="#030303"/>
<path d="M427.59 551.615L419.562 574.655L421.644 575.381L429.672 552.341L427.59 551.615Z" fill="#030303"/>
<path d="M450.482 429.036L448.295 429.316L451.395 453.517L453.582 453.237L450.482 429.036Z" fill="#030303"/>
<path d="M508.339 438.208L497.254 459.943L499.219 460.945L510.303 439.21L508.339 438.208Z" fill="#030303"/>
<path d="M334.518 275.851C336.997 275.851 339.006 273.842 339.006 271.364C339.006 268.886 336.997 266.877 334.518 266.877C332.04 266.877 330.031 268.886 330.031 271.364C330.031 273.842 332.04 275.851 334.518 275.851Z" fill="black"/>
<path d="M482.307 345.409C484.323 345.409 485.957 343.775 485.957 341.76C485.957 339.744 484.323 338.11 482.307 338.11C480.292 338.11 478.658 339.744 478.658 341.76C478.658 343.775 480.292 345.409 482.307 345.409Z" fill="black"/>
<path d="M487.634 321.585L491.636 332.643L503.267 326.16L487.634 321.585Z" fill="#C21333"/>
<path d="M549.659 328.926C550.664 328.926 551.479 328.112 551.479 327.107C551.479 326.103 550.664 325.288 549.659 325.288C548.655 325.288 547.84 326.103 547.84 327.107C547.84 328.112 548.655 328.926 549.659 328.926Z" fill="black"/>
<path d="M591.391 248.488C593.407 248.488 595.041 246.854 595.041 244.839C595.041 242.823 593.407 241.189 591.391 241.189C589.376 241.189 587.742 242.823 587.742 244.839C587.742 246.854 589.376 248.488 591.391 248.488Z" fill="black"/>
<path d="M580.233 246.438L569.649 241.333L565.867 254.089L580.233 246.438Z" fill="#C21333"/>
<path d="M557.048 252.986C558.052 252.986 558.867 252.171 558.867 251.167C558.867 250.162 558.052 249.348 557.048 249.348C556.043 249.348 555.229 250.162 555.229 251.167C555.229 252.171 556.043 252.986 557.048 252.986Z" fill="black"/>
<path d="M423.195 291.662L415.4 307.351L387.783 313.095L423.195 291.662Z" fill="#C21333"/>
<path d="M342.543 228.809L353.491 240.087L352.433 284.584L342.543 228.809Z" fill="#C21333"/>
<path d="M401.594 326.943C404.334 326.943 406.555 324.722 406.555 321.982C406.555 319.242 404.334 317.021 401.594 317.021C398.854 317.021 396.633 319.242 396.633 321.982C396.633 324.722 398.854 326.943 401.594 326.943Z" fill="#961430"/>
<path d="M420.953 225.214L417.855 242.843L384.262 277.12L420.953 225.214Z" fill="#C21333"/>
<path d="M441.638 568.082L449.83 559.648L438.915 552.029L441.638 568.082Z" fill="#C21333"/>
<path d="M400.878 591.2L397.769 578.477L416.809 546.835L400.878 591.2Z" fill="#C21333"/>
<path d="M381.177 466.529C383.113 466.529 384.683 464.96 384.683 463.024C384.683 461.087 383.113 459.518 381.177 459.518C379.241 459.518 377.671 461.087 377.671 463.024C377.671 464.96 379.241 466.529 381.177 466.529Z" fill="#961430"/>
<path d="M374.65 532.194L383.349 540.54L398.872 532.028L374.65 532.194Z" fill="#C21333"/>
<path d="M474.761 43.9204L451.715 54.5498L452.638 56.5521L475.685 45.9227L474.761 43.9204Z" fill="#030303"/>
<path d="M447.795 14.3464L433.071 35.0186L434.867 36.2978L449.591 15.6256L447.795 14.3464Z" fill="#030303"/>
<path d="M425.662 15.8369L415.034 21.8786L423.711 32.6611L425.662 15.8369Z" fill="#C21333"/>
<path d="M473.106 4.63672L472.511 18.2416L444.265 44.2937L473.106 4.63672Z" fill="#C21333"/>
<path d="M478.053 73.1239L471.802 62.2422L453.82 66.2332L478.053 73.1239Z" fill="#C21333"/>
<path d="M283.24 550.177C301.605 550.177 316.492 535.29 316.492 516.925C316.492 498.561 301.605 483.674 283.24 483.674C264.876 483.674 249.989 498.561 249.989 516.925C249.989 535.29 264.876 550.177 283.24 550.177Z" fill="#961430"/>
<path d="M280.023 544.223C296.19 544.223 309.295 531.117 309.295 514.951C309.295 498.785 296.19 485.68 280.023 485.68C263.857 485.68 250.752 498.785 250.752 514.951C250.752 531.117 263.857 544.223 280.023 544.223Z" fill="white"/>
<path d="M280.023 545.324C274.015 545.324 268.143 543.543 263.148 540.205C258.153 536.868 254.26 532.124 251.961 526.574C249.662 521.024 249.061 514.916 250.233 509.024C251.405 503.132 254.297 497.72 258.545 493.473C262.793 489.225 268.205 486.332 274.097 485.16C279.989 483.988 286.096 484.589 291.646 486.888C297.197 489.187 301.94 493.08 305.278 498.075C308.615 503.07 310.397 508.943 310.397 514.95C310.388 523.003 307.185 530.724 301.491 536.418C295.797 542.112 288.076 545.315 280.023 545.324ZM280.023 486.781C274.452 486.781 269.005 488.433 264.373 491.529C259.741 494.624 256.13 499.023 253.998 504.17C251.866 509.318 251.308 514.981 252.395 520.446C253.482 525.91 256.165 530.929 260.104 534.869C264.044 538.808 269.063 541.491 274.527 542.578C279.992 543.665 285.655 543.107 290.803 540.975C295.95 538.843 300.349 535.232 303.444 530.6C306.54 525.968 308.192 520.521 308.192 514.95C308.183 507.482 305.212 500.322 299.932 495.041C294.651 489.761 287.491 486.79 280.023 486.781Z" fill="black"/>
<path d="M298.997 514.665C298.997 520.101 296.076 523.882 291.93 523.882C290.832 523.912 289.75 523.614 288.823 523.024C287.895 522.435 287.165 521.582 286.726 520.575C285.913 521.78 284.811 522.763 283.521 523.433C282.231 524.103 280.793 524.439 279.34 524.412C276.965 524.249 274.741 523.19 273.117 521.451C271.493 519.711 270.59 517.42 270.59 515.04C270.59 512.66 271.493 510.369 273.117 508.63C274.741 506.89 276.965 505.832 279.34 505.669C280.687 505.646 282.021 505.933 283.241 506.506C284.46 507.079 285.532 507.925 286.374 508.977L286.859 506.562H288.711V517.455C288.711 519.66 290.089 521.258 292.018 521.258C294.488 521.258 296.175 518.59 296.175 514.721C296.175 505.901 289.56 499.749 280.067 499.749C270.575 499.749 263.861 505.989 263.861 514.985C263.861 523.982 270.112 529.968 279.296 529.968C281.878 530 284.427 529.378 286.704 528.16V530.938C284.297 532.1 281.66 532.71 278.987 532.724C268.436 532.724 261.038 525.448 261.038 514.985C261.038 504.335 268.756 497.025 280.001 497.025C291.247 497.025 298.997 504.203 298.997 514.665ZM285.922 514.93C285.957 514.083 285.817 513.238 285.511 512.448C285.204 511.657 284.737 510.939 284.14 510.338C283.543 509.736 282.828 509.265 282.039 508.953C281.251 508.641 280.407 508.495 279.56 508.524C278.285 508.511 277.035 508.878 275.969 509.577C274.903 510.276 274.069 511.277 273.573 512.451C273.077 513.626 272.941 514.921 273.184 516.173C273.426 517.425 274.035 518.576 274.933 519.481C275.832 520.386 276.979 521.003 278.229 521.254C279.479 521.505 280.776 521.378 281.954 520.89C283.131 520.402 284.138 519.575 284.844 518.514C285.551 517.452 285.926 516.205 285.922 514.93Z" fill="black"/>
<path d="M213.154 464.6H343.514C343.514 464.6 337.869 456.684 330.571 453.73C323.272 450.775 323.36 450.962 317.925 450.268C312.489 449.573 208.094 450.268 208.094 450.268L207.322 453.575" fill="#961430"/>
<path d="M201.558 451.292L178.979 444.832C175.179 443.746 171.204 443.419 167.278 443.869C163.353 444.32 159.554 445.539 156.1 447.458C152.646 449.376 149.603 451.956 147.146 455.051C144.689 458.145 142.866 461.693 141.78 465.492L117.404 550.738L202.737 575.136L225.703 494.775C226.974 490.334 227.357 485.687 226.832 481.098C226.306 476.509 224.882 472.069 222.639 468.031C220.397 463.993 217.381 460.436 213.764 457.564C210.147 454.692 205.999 452.561 201.558 451.292Z" fill="black"/>
<path d="M195.481 389.872H220.949L199.483 482.118H140.555L162.02 389.872H175.261" fill="white"/>
<path d="M199.481 483.222H140.552C140.385 483.226 140.218 483.192 140.066 483.122C139.913 483.052 139.779 482.948 139.673 482.819C139.566 482.689 139.491 482.537 139.452 482.374C139.414 482.21 139.413 482.041 139.45 481.877L160.949 389.631C161.007 389.384 161.148 389.165 161.349 389.01C161.55 388.856 161.798 388.775 162.051 388.782H175.281V390.987H162.889L141.942 481.028H198.61L219.558 390.987H195.479V388.782H220.98C221.145 388.781 221.307 388.817 221.456 388.888C221.605 388.959 221.736 389.062 221.84 389.19C221.943 389.32 222.016 389.472 222.052 389.634C222.088 389.796 222.087 389.965 222.049 390.127L200.584 482.384C200.523 482.629 200.381 482.845 200.18 482.998C199.98 483.15 199.733 483.229 199.481 483.222Z" fill="black"/>
<path d="M180.756 436.001L220.953 389.872L199.487 482.118L180.756 436.001Z" fill="white"/>
<path d="M199.481 483.221C199.262 483.222 199.047 483.157 198.864 483.036C198.681 482.914 198.539 482.74 198.456 482.537L179.713 436.408C179.645 436.224 179.627 436.024 179.662 435.83C179.697 435.636 179.783 435.455 179.912 435.306L220.109 389.177C220.272 388.997 220.489 388.876 220.728 388.832C220.967 388.788 221.213 388.824 221.429 388.934C221.646 389.045 221.819 389.224 221.923 389.443C222.027 389.663 222.056 389.91 222.005 390.147L200.539 482.405C200.487 482.632 200.363 482.836 200.187 482.989C200.011 483.141 199.791 483.234 199.558 483.254L199.481 483.221ZM182.028 436.21L199.194 478.491L218.874 393.929L182.028 436.21Z" fill="black"/>
<path d="M158.772 450.124H149.423C138.564 450.124 128.149 454.436 120.469 462.113C112.788 469.789 108.471 480.201 108.465 491.06V575.479H199.719V491.06C199.716 480.202 195.401 469.79 187.722 462.113C180.043 454.437 169.63 450.124 158.772 450.124Z" fill="#C21333"/>
<path d="M158.771 450.124C169.629 450.124 180.042 454.436 187.721 462.113C195.4 469.789 199.715 480.202 199.718 491.059V575.478H108.464V491.059C108.464 480.197 112.779 469.779 120.46 462.098C128.141 454.417 138.559 450.101 149.422 450.101H158.771M158.771 447.896H149.422C137.978 447.908 127.006 452.459 118.914 460.552C110.822 468.644 106.27 479.615 106.259 491.059V577.683H201.923V491.059C201.911 479.617 197.362 468.647 189.272 460.555C181.182 452.464 170.213 447.911 158.771 447.896Z" fill="black"/>
<path d="M154.096 461.679C145.207 461.679 136.682 465.21 130.396 471.495C124.111 477.781 120.58 486.306 120.58 495.195V559.074C120.58 559.976 120.935 560.841 121.568 561.483C122.202 562.125 123.063 562.491 123.964 562.503H184.128C185.038 562.503 185.911 562.142 186.556 561.499C187.201 560.856 187.565 559.984 187.568 559.074V495.195C187.568 486.313 184.043 477.795 177.767 471.511C171.491 465.227 162.977 461.69 154.096 461.679Z" fill="#C21333"/>
<path d="M154.093 461.678C162.982 461.678 171.507 465.209 177.793 471.494C184.078 477.78 187.609 486.305 187.609 495.194V559.073C187.606 559.983 187.243 560.855 186.598 561.498C185.953 562.141 185.08 562.501 184.17 562.501H123.962C123.053 562.501 122.18 562.14 121.537 561.497C120.894 560.854 120.533 559.982 120.533 559.073V495.194C120.533 486.305 124.064 477.78 130.35 471.494C136.635 465.209 145.16 461.678 154.049 461.678M154.049 459.473C144.578 459.481 135.497 463.248 128.8 469.945C122.103 476.642 118.337 485.723 118.328 495.194V559.073C118.328 559.813 118.474 560.545 118.757 561.229C119.04 561.912 119.455 562.533 119.978 563.056C120.501 563.58 121.122 563.995 121.806 564.278C122.489 564.561 123.222 564.706 123.962 564.706H184.125C185.621 564.706 187.055 564.113 188.113 563.057C189.171 562.001 189.767 560.568 189.77 559.073V495.194C189.759 485.723 185.991 476.644 179.295 469.948C172.598 463.252 163.519 459.484 154.049 459.473Z" fill="black"/>
<path d="M199.604 576.593H214.686C215.733 576.56 216.763 576.322 217.718 575.89C218.673 575.459 219.533 574.844 220.25 574.08C220.966 573.317 221.525 572.419 221.895 571.439C222.265 570.459 222.438 569.415 222.404 568.369V567.024C222.438 565.977 222.265 564.933 221.895 563.953C221.525 562.973 220.966 562.076 220.25 561.312C219.533 560.548 218.673 559.933 217.718 559.502C216.763 559.07 215.733 558.832 214.686 558.799H199.604" fill="#C21333"/>
<path d="M214.686 577.696H199.604V575.491H214.686C216.507 575.422 218.227 574.633 219.467 573.298C220.707 571.963 221.367 570.19 221.301 568.369V567.023C221.367 565.202 220.707 563.429 219.467 562.094C218.227 560.759 216.507 559.97 214.686 559.901H199.604V557.696H214.686C217.092 557.766 219.372 558.787 221.026 560.535C222.679 562.284 223.571 564.618 223.506 567.023V568.369C223.571 570.774 222.679 573.108 221.026 574.857C219.372 576.605 217.092 577.626 214.686 577.696Z" fill="black"/>
<path d="M150.967 314.208L159.401 309.346L191.076 413.609L132.368 447.511L127.848 432.65" fill="white"/>
<path d="M132.367 448.613C132.227 448.615 132.089 448.589 131.959 448.536C131.805 448.475 131.666 448.379 131.553 448.257C131.441 448.135 131.357 447.989 131.309 447.83L126.789 432.968L128.905 432.318L133.018 445.856L189.775 413.09L158.75 310.987L151.529 315.166L150.426 313.259L158.86 308.385C159.004 308.304 159.165 308.256 159.33 308.245C159.494 308.234 159.66 308.26 159.813 308.321C159.967 308.382 160.105 308.478 160.216 308.599C160.328 308.721 160.411 308.867 160.459 309.025L192.145 413.289C192.218 413.528 192.207 413.784 192.115 414.017C192.023 414.249 191.855 414.443 191.638 414.567L132.93 448.469C132.758 448.567 132.564 448.616 132.367 448.613Z" fill="black"/>
<path d="M123.212 417.414L100.677 343.248L140.72 320.129" fill="white"/>
<path d="M122.168 417.744L99.6222 343.567C99.5493 343.328 99.5597 343.071 99.6519 342.839C99.744 342.607 99.9124 342.412 100.129 342.288L140.172 319.136L141.275 321.043L101.993 343.766L124.274 417.093L122.168 417.744Z" fill="black"/>
<path d="M145.88 378.428L159.397 309.346L191.071 413.609L145.88 378.428Z" fill="white"/>
<path d="M191.072 414.712C190.828 414.711 190.592 414.629 190.399 414.48L145.197 379.299C145.032 379.173 144.906 379.002 144.834 378.807C144.761 378.612 144.746 378.4 144.789 378.197L158.306 309.147C158.353 308.903 158.48 308.682 158.668 308.52C158.857 308.358 159.094 308.264 159.342 308.254C159.587 308.243 159.828 308.315 160.027 308.456C160.227 308.598 160.374 308.802 160.444 309.037L192.13 413.3C192.2 413.525 192.196 413.766 192.118 413.988C192.041 414.211 191.894 414.402 191.7 414.535C191.513 414.656 191.294 414.718 191.072 414.712ZM147.115 377.976L189.01 410.577L159.629 313.866L147.115 377.976Z" fill="black"/>
<path d="M153.223 494.004C157.278 494.004 160.565 490.716 160.565 486.661C160.565 482.606 157.278 479.318 153.223 479.318C149.167 479.318 145.88 482.606 145.88 486.661C145.88 490.716 149.167 494.004 153.223 494.004Z" fill="black"/>
<path d="M213.488 569.779C214.864 569.779 215.979 568.664 215.979 567.288C215.979 565.911 214.864 564.796 213.488 564.796C212.112 564.796 210.996 565.911 210.996 567.288C210.996 568.664 212.112 569.779 213.488 569.779Z" fill="black"/>
<path d="M186.167 499.309L157.094 562.625H183.973C184.444 562.627 184.91 562.535 185.346 562.356C185.781 562.176 186.177 561.912 186.51 561.579C186.843 561.246 187.107 560.851 187.286 560.415C187.466 559.98 187.557 559.513 187.556 559.042V496.905L186.167 499.309Z" fill="#961430"/>
<path d="M209.431 577.794L229.276 612.787L239.264 577.794H209.431Z" fill="#961430"/>
<path d="M577.378 300.349L563.729 296.05L568.955 278.773H577.378V300.349Z" fill="white"/>
</svg>
