<svg width="420" height="80" viewBox="0 0 420 80" fill="none" xmlns="http://www.w3.org/2000/svg">
<path d="M71.1113 20.3235H89.0789V26.3904C93.0039 23.6439 99.2826 20.5711 109.509 20.5711C122.894 20.5711 138.178 22.9422 138.178 43.4619C138.178 58.3269 124.71 65.0939 109.867 65.0939C100.156 65.0939 91.5926 61.9697 89.0781 59.3638V80H71.1105V20.3235H71.1113ZM118.966 42.9619C118.966 35.1548 113.122 33.8085 103.938 33.8085C96.6587 33.8085 90.881 36.4385 89.0781 39.1793V46.4511C93.6295 52.2914 106.906 51.8967 106.906 51.8967C106.906 51.8967 118.966 52.2094 118.966 42.9619Z" fill="black"/>
<path d="M231.51 61.5461V65.0666H213.542C213.542 65.0666 213.542 56.9356 213.542 50.3044C213.542 43.6797 213.984 33.7209 201.652 33.7209C194.401 33.7209 191.07 36.2029 188.209 39.2171V65.0666H170.072V20.3452H188.209V26.4973C193.155 23.0258 197.422 19.9562 207.634 19.9562C216.013 19.9562 225.196 21.0268 228.878 29.4641C231.527 35.543 231.523 44.7793 231.51 61.5461Z" fill="black"/>
<path d="M302.878 42.7859C302.878 60.1266 289.992 65.5296 269.589 65.5296C248.697 65.5296 236.878 59.9956 236.878 42.7859C236.878 24.2452 251.773 20.0454 269.142 20.0454C286.714 20.0454 302.878 23.6825 302.878 42.7859ZM283.749 42.7859C283.749 34.3293 275.208 32.717 269.569 32.717C263.936 32.717 256.011 34.8333 256.011 42.421C256.011 49.4846 260.341 52.8628 269.757 52.8628C278.332 52.8628 283.749 50.4668 283.749 42.7859Z" fill="black"/>
<path d="M348.526 53.5509C340.809 53.5509 335.751 50.4965 335.751 43.1532L335.706 33.7345H348.525V20.3235H335.706V10.3671H317.732C317.732 10.3671 317.732 15.0194 317.732 20.3235H304.909V33.7362H317.732C317.732 37.5083 317.732 40.4501 317.732 43.7721C317.732 59.9208 325.992 66.2707 348.525 66.2707C349.936 66.2707 351.283 66.2433 352.58 66.1935V53.2197C351.332 53.444 349.98 53.5509 348.526 53.5509Z" fill="black"/>
<path d="M32.8296 53.4159C23.9528 53.4159 20.1975 51.2175 19.0347 49.3608C18.6728 48.7909 18.5088 48.2339 18.4645 47.7355H18.4469V46.5146H64.4032C65.4542 26.3527 52.6226 19.7633 32.5956 19.7633C10.5309 19.7633 0 28.5132 0 42.6701C0 60.3508 11.3206 65.5248 33.4954 65.5248C33.4954 65.5248 33.5003 65.5215 33.5035 65.5143C49.4953 65.3793 60.6961 61.7679 64.4514 51.4506H43.5391C41.5448 52.6209 38.1932 53.4159 32.8296 53.4159ZM32.6929 32.68C43.2456 32.68 46.1091 36.5968 46.1091 39.5627H18.4469C18.4461 37.3781 20.7676 32.68 32.6929 32.68Z" fill="black"/>
<path d="M388.36 53.4159C379.484 53.4159 375.728 51.2175 374.566 49.3608C374.207 48.7909 374.037 48.2339 373.998 47.7355H373.978V46.5146H419.94C420.988 26.3527 408.157 19.7633 388.128 19.7633C366.06 19.7633 355.536 28.5132 355.536 42.6701C355.536 60.3508 366.851 65.5248 389.024 65.5248C389.024 65.5248 389.038 65.5215 389.038 65.5143C405.03 65.3793 416.232 61.7679 419.986 51.4506H399.071C397.078 52.6209 393.726 53.4159 388.36 53.4159ZM388.225 32.68C398.778 32.68 401.641 36.5968 401.641 39.5627H373.978C373.977 37.3781 376.3 32.68 388.225 32.68Z" fill="black"/>
<path d="M148.01 20.3428H144.278V65.0666H162.244V20.3444H148.017L148.01 20.3428Z" fill="black"/>
<path d="M162.256 5.5316V0H144.275V17.9741C153.534 17.9741 162.256 13.9576 162.256 5.5316Z" fill="black"/>
</svg>
