<svg width="98" height="33" viewBox="0 0 98 33" fill="none" xmlns="http://www.w3.org/2000/svg">
<path d="M9.26916 14.9388C9.81733 12.8933 11.9199 10.7907 13.9654 10.2425L26.7181 6.82497C28.7636 6.27679 29.9774 7.49063 29.4293 9.53614L26.0117 22.2888C25.4635 24.3343 23.3609 26.4369 21.3154 26.9851L8.56275 30.4027C6.51724 30.9508 5.3034 29.737 5.85158 27.6915L9.26916 14.9388Z" fill="#667085"/>
<path d="M4.15588 9.82629C4.70405 7.78077 6.80665 5.67817 8.85217 5.13L21.6048 1.71242C23.6503 1.16424 24.8642 2.37807 24.316 4.42359L20.8984 17.1762C20.3502 19.2217 18.2476 21.3243 16.2021 21.8725L3.44947 25.2901C1.40396 25.8383 0.190123 24.6244 0.738299 22.5789L4.15588 9.82629Z" fill="#575C66"/>
<path d="M41.2784 21.0094H45.6651V22.7268H39.1504V9.75342H41.2784V21.0094Z" fill="#667085"/>
<path d="M46.7353 17.5374C46.7353 16.5045 46.9469 15.5899 47.37 14.7934C47.8055 13.997 48.3904 13.381 49.1247 12.9454C49.8713 12.4974 50.6927 12.2734 51.5887 12.2734C52.3975 12.2734 53.1007 12.4352 53.698 12.7588C54.3078 13.0699 54.7931 13.4619 55.154 13.9348V12.4414H57.3007V22.7268H55.154V21.1961C54.7931 21.6814 54.3015 22.0859 53.6793 22.4094C53.0571 22.733 52.3478 22.8948 51.5513 22.8948C50.6678 22.8948 49.8589 22.6708 49.1247 22.2228C48.3904 21.7623 47.8055 21.1276 47.37 20.3188C46.9469 19.4974 46.7353 18.5703 46.7353 17.5374ZM55.154 17.5748C55.154 16.8654 55.0047 16.2494 54.706 15.7268C54.4198 15.2041 54.0402 14.8059 53.5673 14.5321C53.0944 14.2583 52.5842 14.1214 52.0367 14.1214C51.4891 14.1214 50.9789 14.2583 50.506 14.5321C50.0331 14.7934 49.6473 15.1854 49.3487 15.7081C49.0624 16.2183 48.9193 16.8281 48.9193 17.5374C48.9193 18.2468 49.0624 18.869 49.3487 19.4041C49.6473 19.9392 50.0331 20.3499 50.506 20.6361C50.9913 20.9099 51.5015 21.0468 52.0367 21.0468C52.5842 21.0468 53.0944 20.9099 53.5673 20.6361C54.0402 20.3623 54.4198 19.9641 54.706 19.4414C55.0047 18.9063 55.154 18.2841 55.154 17.5748Z" fill="#667085"/>
<path d="M69.3544 12.4414L63.045 27.5614H60.8424L62.933 22.5588L58.8824 12.4414H61.253L64.1464 20.2814L67.1517 12.4414H69.3544Z" fill="#667085"/>
<path d="M80.3869 17.3321C80.3869 17.7179 80.3621 18.0663 80.3123 18.3774H72.4536C72.5158 19.1988 72.8207 19.8583 73.3683 20.3561C73.9158 20.8539 74.5878 21.1028 75.3843 21.1028C76.5292 21.1028 77.3381 20.6236 77.8109 19.6654H80.1069C79.7958 20.6112 79.2296 21.389 78.4083 21.9988C77.5994 22.5961 76.5914 22.8948 75.3843 22.8948C74.4012 22.8948 73.5176 22.677 72.7336 22.2414C71.9621 21.7934 71.3523 21.1712 70.9043 20.3748C70.4687 19.5659 70.2509 18.6325 70.2509 17.5748C70.2509 16.517 70.4625 15.5899 70.8856 14.7934C71.3212 13.9845 71.9247 13.3623 72.6963 12.9268C73.4803 12.4912 74.3763 12.2734 75.3843 12.2734C76.3549 12.2734 77.2198 12.485 77.9789 12.9081C78.7381 13.3312 79.3292 13.9285 79.7523 14.7001C80.1754 15.4592 80.3869 16.3365 80.3869 17.3321ZM78.1656 16.6601C78.1532 15.8761 77.8732 15.2476 77.3256 14.7748C76.7781 14.3019 76.0998 14.0654 75.2909 14.0654C74.5567 14.0654 73.9283 14.3019 73.4056 14.7748C72.8829 15.2352 72.5718 15.8636 72.4723 16.6601H78.1656Z" fill="#667085"/>
<path d="M84.6091 13.9348C84.9202 13.4121 85.3309 13.0076 85.8411 12.7214C86.3638 12.4228 86.9798 12.2734 87.6891 12.2734V14.4761H87.1478C86.314 14.4761 85.6793 14.6876 85.2438 15.1108C84.8207 15.5339 84.6091 16.2681 84.6091 17.3134V22.7268H82.4811V12.4414H84.6091V13.9348Z" fill="#667085"/>
<path d="M93.3785 22.8948C92.5696 22.8948 91.8416 22.7516 91.1945 22.4654C90.5598 22.1668 90.0558 21.7685 89.6825 21.2708C89.3092 20.7605 89.1101 20.1943 89.0852 19.5721H91.2878C91.3252 20.0076 91.5305 20.3748 91.9038 20.6734C92.2896 20.9596 92.7687 21.1028 93.3412 21.1028C93.9385 21.1028 94.3989 20.9908 94.7225 20.7668C95.0585 20.5303 95.2265 20.2316 95.2265 19.8708C95.2265 19.485 95.0398 19.1988 94.6665 19.0121C94.3056 18.8254 93.7269 18.6201 92.9305 18.3961C92.1589 18.1845 91.5305 17.9792 91.0452 17.7801C90.5598 17.581 90.1367 17.2761 89.7758 16.8654C89.4274 16.4548 89.2532 15.9134 89.2532 15.2414C89.2532 14.6939 89.4149 14.1961 89.7385 13.7481C90.0621 13.2876 90.5225 12.9268 91.1198 12.6654C91.7296 12.4041 92.4265 12.2734 93.2105 12.2734C94.3803 12.2734 95.3198 12.5721 96.0292 13.1694C96.7509 13.7543 97.1367 14.557 97.1865 15.5774H95.0585C95.0212 15.117 94.8345 14.7499 94.4985 14.4761C94.1625 14.2023 93.7083 14.0654 93.1358 14.0654C92.5758 14.0654 92.1465 14.1712 91.8478 14.3828C91.5492 14.5943 91.3998 14.8743 91.3998 15.2228C91.3998 15.4965 91.4994 15.7268 91.6985 15.9134C91.8976 16.1001 92.1403 16.2494 92.4265 16.3614C92.7127 16.461 93.1358 16.5916 93.6958 16.7534C94.4425 16.9525 95.0523 17.1579 95.5252 17.3694C96.0105 17.5685 96.4274 17.8672 96.7758 18.2654C97.1243 18.6636 97.3047 19.1925 97.3172 19.8521C97.3172 20.437 97.1554 20.9596 96.8318 21.4201C96.5083 21.8805 96.0478 22.2414 95.4505 22.5028C94.8656 22.7641 94.1749 22.8948 93.3785 22.8948Z" fill="#667085"/>
</svg>
