<svg width="396" height="213" viewBox="0 0 396 213" fill="none" xmlns="http://www.w3.org/2000/svg">
<path d="M380.384 61.8295L381.851 62.5055L381.341 60.9729L375.649 43.8558L378.669 42.7924L386.527 66.0437L363.259 73.9073L362.198 70.8946L377.741 65.7553L379.435 65.1952L377.812 64.454C343.276 48.6803 317.939 46.614 299.751 50.8185C281.554 55.0249 270.596 65.4884 264.793 74.5997L264.175 75.5696L265.32 75.6729C272.4 76.3112 278.462 79.897 282.851 84.7402C287.245 89.5896 289.921 95.6567 290.266 101.185L290.266 101.19C290.926 110.681 285.385 118.194 275.429 121.194C271.662 122.265 268.201 122.261 265.201 121.251C262.204 120.243 259.615 118.214 257.613 115.147L257.611 115.144C255.102 111.344 253.859 105.977 254.002 99.833C254.146 93.6983 255.672 86.8422 258.64 80.1153L259.215 78.8128L257.833 79.153C251.082 80.8144 244.209 85.4318 237.71 92.6408C231.319 99.7298 225.258 109.359 219.997 121.26L217.002 120.005C232.575 85.2106 249.471 77.0377 260.071 75.6568L260.42 75.6113L260.592 75.3039C262.38 72.1009 264.684 68.8833 267.404 65.8609L267.404 65.861L267.411 65.8538C272.733 59.7772 283.435 50.7072 301.542 47.1756C319.653 43.6435 345.249 45.6365 380.384 61.8295ZM287.199 101.292L287.199 101.284L287.199 101.276C286.613 91.9627 279.063 81.1889 267.037 79.1426L267.022 79.1401L267.006 79.1382C265.528 78.9523 264.263 78.8683 263.018 78.7856L263.012 78.7852L262.539 78.7538L262.334 79.1812L262.334 79.1824L262.333 79.1836L262.332 79.1849L262.332 79.1861L262.331 79.1874L262.331 79.1886L262.33 79.1899L262.329 79.1911L262.329 79.1924L262.328 79.1937L262.328 79.1949L262.327 79.1962L262.326 79.1975L262.326 79.1988L262.325 79.2001L262.324 79.2014L262.324 79.2027L262.323 79.204L262.323 79.2053L262.322 79.2066L262.321 79.208L262.321 79.2093L262.32 79.2106L262.319 79.212L262.319 79.2133L262.318 79.2146L262.317 79.216L262.317 79.2173L262.316 79.2187L262.316 79.2201L262.315 79.2214L262.314 79.2228L262.314 79.2242L262.313 79.2255L262.312 79.2269L262.312 79.2283L262.311 79.2297L262.31 79.2311L262.31 79.2325L262.309 79.2339L262.308 79.2353L262.308 79.2367L262.307 79.2381L262.306 79.2395L262.306 79.241L262.305 79.2424L262.304 79.2438L262.303 79.2452L262.303 79.2467L262.302 79.2481L262.301 79.2496L262.301 79.251L262.3 79.2525L262.299 79.2539L262.299 79.2554L262.298 79.2569L262.297 79.2583L262.296 79.2598L262.296 79.2613L262.295 79.2628L262.294 79.2642L262.294 79.2657L262.293 79.2672L262.292 79.2687L262.291 79.2702L262.291 79.2717L262.29 79.2732L262.289 79.2747L262.289 79.2762L262.288 79.2777L262.287 79.2793L262.286 79.2808L262.286 79.2823L262.285 79.2838L262.284 79.2854L262.283 79.2869L262.283 79.2885L262.282 79.29L262.281 79.2915L262.281 79.2931L262.28 79.2946L262.279 79.2962L262.278 79.2978L262.278 79.2993L262.277 79.3009L262.276 79.3025L262.275 79.304L262.275 79.3056L262.274 79.3072L262.273 79.3088L262.272 79.3103L262.272 79.3119L262.271 79.3135L262.27 79.3151L262.269 79.3167L262.268 79.3183L262.268 79.3199L262.267 79.3215L262.266 79.3231L262.265 79.3247L262.265 79.3264L262.264 79.328L262.263 79.3296L262.262 79.3312L262.261 79.3328L262.261 79.3345L262.26 79.3361L262.259 79.3377L262.258 79.3394L262.258 79.341L262.257 79.3427L262.256 79.3443L262.255 79.346L262.254 79.3476L262.254 79.3493L262.253 79.3509L262.252 79.3526L262.251 79.3542L262.25 79.3559L262.25 79.3576L262.249 79.3592L262.248 79.3609L262.247 79.3626L262.246 79.3643L262.246 79.3659L262.245 79.3676L262.244 79.3693L262.243 79.371L262.242 79.3727L262.242 79.3744L262.241 79.3761L262.24 79.3778L262.239 79.3795L262.238 79.3812L262.238 79.3829L262.237 79.3846L262.236 79.3863L262.235 79.388L262.234 79.3897L262.233 79.3914L262.233 79.3931L262.232 79.3948L262.231 79.3966L262.23 79.3983L262.229 79.4L262.228 79.4017L262.228 79.4035L262.227 79.4052L262.226 79.4069L262.225 79.4087L262.224 79.4104L262.223 79.4121L262.223 79.4139L262.222 79.4156L262.221 79.4174L262.22 79.4191L262.219 79.4209L262.218 79.4226L262.218 79.4244L262.217 79.4261L262.216 79.4279L262.215 79.4296L262.214 79.4314L262.213 79.4332L262.213 79.4349L262.212 79.4367L262.211 79.4384L262.21 79.4402L262.209 79.442L262.208 79.4438L262.207 79.4455L262.207 79.4473L262.206 79.4491L262.205 79.4509L262.204 79.4526L262.203 79.4544L262.202 79.4562L262.202 79.458L262.201 79.4598L262.2 79.4615L262.199 79.4633L262.198 79.4651L262.197 79.4669L262.196 79.4687L262.196 79.4705L262.195 79.4723L262.194 79.4741L262.193 79.4759L262.192 79.4777L262.191 79.4795L262.19 79.4813L262.189 79.4831L262.189 79.4849L262.188 79.4867L262.187 79.4885L262.186 79.4903L262.185 79.4921L262.184 79.4939L262.183 79.4957L262.183 79.4975L262.182 79.4994L262.181 79.5012L262.18 79.503L262.179 79.5048L262.178 79.5066L262.177 79.5084L262.176 79.5103L262.176 79.5121L262.175 79.5139L262.174 79.5157L262.173 79.5175L262.172 79.5194L262.171 79.5212L262.17 79.523L262.169 79.5248L262.169 79.5267L262.168 79.5285L262.167 79.5303L262.166 79.5321L262.165 79.534L262.164 79.5358L262.163 79.5376L262.162 79.5395L262.162 79.5413L262.161 79.5431L262.16 79.545L262.159 79.5468L262.158 79.5486L262.157 79.5505L262.156 79.5523L262.155 79.5541L262.155 79.556L262.154 79.5578L262.153 79.5596L262.152 79.5615L262.151 79.5633L262.15 79.5651L262.149 79.567L262.148 79.5688L262.148 79.5707L262.147 79.5725L262.146 79.5743L262.145 79.5762L262.144 79.578L262.143 79.5798L262.142 79.5817L262.141 79.5835L262.14 79.5854L262.14 79.5872L262.139 79.589L262.138 79.5909L262.137 79.5927L262.136 79.5946L262.135 79.5964L262.134 79.5983L262.133 79.6001L262.133 79.6019L262.132 79.6038L262.131 79.6056L262.13 79.6075L262.129 79.6093L262.128 79.6111L262.127 79.613L262.126 79.6148L262.125 79.6167L262.125 79.6185L262.124 79.6203L262.123 79.6222L262.122 79.624L262.121 79.6259L262.12 79.6277L262.119 79.6295L262.118 79.6314L262.118 79.6332L262.117 79.6351L262.116 79.6369L262.115 79.6387L262.114 79.6406L262.113 79.6424L262.112 79.6442L262.111 79.6461L262.111 79.6479L262.11 79.6497L262.109 79.6516L262.108 79.6534L262.107 79.6552L262.106 79.6571L262.105 79.6589L262.104 79.6607L262.103 79.6626L262.103 79.6644L262.102 79.6662L262.101 79.6681L262.1 79.6699L262.099 79.6717L262.098 79.6735L262.097 79.6754L262.096 79.6772L262.096 79.679L262.095 79.6808L262.094 79.6827L262.093 79.6845L262.092 79.6863L262.091 79.6881L262.09 79.6899L262.09 79.6918L262.089 79.6936L262.088 79.6954L262.087 79.6972L262.086 79.699L262.085 79.7008L262.084 79.7026L262.083 79.7045L262.083 79.7063L262.082 79.7081L262.081 79.7099L262.08 79.7117L262.079 79.7135L262.078 79.7153L262.077 79.7171L262.076 79.7189L262.076 79.7207L262.075 79.7225L262.074 79.7243L262.073 79.7261L262.072 79.7279L262.071 79.7297L262.07 79.7315L262.07 79.7333L262.069 79.7351L262.068 79.7369L262.067 79.7386L262.066 79.7404L262.065 79.7422L262.064 79.744L262.064 79.7458L262.063 79.7476L262.062 79.7493L262.061 79.7511L262.06 79.7529L262.059 79.7547L262.059 79.7564L262.058 79.7582L262.057 79.76L262.056 79.7617L262.055 79.7635L262.054 79.7653L262.053 79.767L262.053 79.7688L262.052 79.7706L262.051 79.7723L262.05 79.7741L262.049 79.7758L262.048 79.7776L262.048 79.7793L262.047 79.7811L262.046 79.7828L262.045 79.7846L262.044 79.7863L262.043 79.7881L262.043 79.7898L262.042 79.7915L262.041 79.7933L262.04 79.795L262.039 79.7967L262.038 79.7985L262.038 79.8002L262.037 79.8019L262.036 79.8036L262.035 79.8054L262.034 79.8071L262.033 79.8088L262.033 79.8105L262.032 79.8122L262.031 79.8139L262.03 79.8156L262.029 79.8173L262.029 79.819L262.028 79.8207L262.027 79.8224L262.026 79.8241L262.025 79.8258L262.024 79.8275L262.024 79.8292L262.023 79.8309L262.022 79.8326L262.021 79.8343L262.02 79.8359L262.02 79.8376L262.019 79.8393L262.018 79.841L262.017 79.8426L262.016 79.8443L262.016 79.846L262.015 79.8476L262.014 79.8493L262.013 79.8509L262.012 79.8526L262.012 79.8542L262.011 79.8559L262.01 79.8575L262.009 79.8592L262.009 79.8608L262.008 79.8625L262.007 79.8641L262.006 79.8657L262.005 79.8673L262.005 79.869L262.004 79.8706L262.003 79.8722L262.002 79.8738L262.001 79.8754L262.001 79.8771L262 79.8787L261.999 79.8803L261.998 79.8819L261.998 79.8835L261.997 79.8851L261.996 79.8867L261.995 79.8883L261.995 79.8898L261.994 79.8914L261.993 79.893L261.992 79.8946L261.992 79.8962L261.991 79.8977L261.99 79.8993L261.989 79.9009L261.989 79.9024L261.988 79.904L261.987 79.9055L261.986 79.9071L261.986 79.9087L261.985 79.9102L261.984 79.9117L261.983 79.9133L261.983 79.9148L261.982 79.9163L261.981 79.9179L261.98 79.9194L261.98 79.9209L261.979 79.9224L261.978 79.924L261.978 79.9255L261.977 79.927L261.976 79.9285L261.975 79.93L261.975 79.9315L261.974 79.933L261.973 79.9345L261.972 79.936L261.972 79.9374L261.971 79.9389L261.97 79.9404L261.97 79.9419L261.969 79.9433L261.968 79.9448L261.968 79.9463L261.967 79.9477L261.966 79.9492L261.965 79.9506L261.965 79.9521L261.964 79.9535L261.963 79.9549L261.963 79.9564L261.962 79.9578L261.961 79.9592L261.961 79.9607L261.96 79.9621L261.959 79.9635L261.959 79.9649L261.958 79.9663L261.957 79.9677L261.957 79.9691L261.956 79.9705L261.955 79.9719L261.955 79.9733L261.954 79.9747L261.953 79.976L261.953 79.9774L261.952 79.9788L261.951 79.9801L261.951 79.9815L261.95 79.9829L261.949 79.9842L261.949 79.9856L261.948 79.9869L261.947 79.9882L261.947 79.9896L261.946 79.9909L261.946 79.9922L261.945 79.9936L261.944 79.9949L261.944 79.9962L261.943 79.9975L261.942 79.9988L261.942 80.0001L261.941 80.0014L261.941 80.0027L261.94 80.004L261.939 80.0052L261.939 80.0065L261.938 80.0078L261.937 80.0091L261.937 80.0103L261.936 80.0116L261.936 80.0128L261.935 80.0141L261.934 80.0153L261.934 80.0166L261.933 80.0178L261.933 80.019C258.883 86.3846 257.329 92.8937 257.123 98.7261C256.917 104.548 258.054 109.75 260.449 113.453L260.449 113.453L260.453 113.458C262.016 115.826 264.03 117.491 266.449 118.303C268.865 119.115 271.618 119.053 274.622 118.085C280.404 116.228 283.627 113.212 285.36 110.021C287.082 106.851 287.291 103.587 287.199 101.292Z" fill="black" stroke="#C50830" stroke-width="1.4"/>
<path d="M184.315 212.809L192.552 181.948L156.527 181.02L156.161 185.565L149.464 212.854" fill="#C21333"/>
<path d="M150.076 213L148.852 212.703L155.536 185.465L155.903 180.971C155.915 180.812 155.987 180.664 156.104 180.557C156.221 180.449 156.375 180.39 156.534 180.39L192.571 181.312C192.667 181.315 192.76 181.341 192.844 181.385C192.928 181.43 193.001 181.494 193.057 181.571C193.114 181.646 193.154 181.734 193.172 181.827C193.191 181.919 193.188 182.015 193.165 182.107L184.921 212.975L183.702 212.647L191.738 182.555L157.108 181.64L156.793 185.592V185.693L150.076 213Z" fill="black"/>
<path d="M174.682 184.038L166.388 212.829L184.315 212.81L192.553 181.949L174.682 184.038Z" fill="black"/>
<path d="M122.567 119.071H215.492C218.649 119.072 221.764 119.788 224.604 121.166C227.444 122.543 229.934 124.547 231.889 127.026C233.843 129.504 235.21 132.394 235.888 135.477C236.565 138.56 236.535 141.756 235.799 144.826L224.437 192.106H121.159L122.567 119.071Z" fill="#C21333"/>
<path d="M224.949 192.737H120.517L121.95 118.439H215.493C218.743 118.441 221.95 119.179 224.873 120.597C227.797 122.016 230.362 124.078 232.374 126.629C234.387 129.18 235.796 132.154 236.496 135.327C237.195 138.5 237.167 141.791 236.413 144.952L224.949 192.737ZM121.804 191.474H223.952L235.182 144.68C235.897 141.704 235.927 138.604 235.271 135.613C234.615 132.623 233.29 129.821 231.395 127.416C229.5 125.012 227.085 123.069 224.33 121.733C221.576 120.397 218.555 119.702 215.493 119.702H123.187L121.804 191.474Z" fill="black"/>
<path d="M107.245 28.2993L101.299 34.4287L109.227 39.9584L107.245 28.2993Z" fill="#A3112B"/>
<path d="M127.022 8.7876L129.667 15.807L121.019 35.1041L127.022 8.7876Z" fill="#A3112B"/>
<path d="M136.771 47.148C137.88 47.148 138.778 46.2493 138.778 45.1407C138.778 44.032 137.88 43.1333 136.771 43.1333C135.662 43.1333 134.764 44.032 134.764 45.1407C134.764 46.2493 135.662 47.148 136.771 47.148Z" fill="#961430"/>
<path d="M144.516 41.9905C145.032 41.9905 145.451 41.5723 145.451 41.0563C145.451 40.5404 145.032 40.1221 144.516 40.1221C144 40.1221 143.582 40.5404 143.582 41.0563C143.582 41.5723 144 41.9905 144.516 41.9905Z" fill="black"/>
<path d="M113.851 22.6366C115.863 22.6366 117.494 21.0059 117.494 18.9943C117.494 16.9828 115.863 15.3521 113.851 15.3521C111.84 15.3521 110.209 16.9828 110.209 18.9943C110.209 21.0059 111.84 22.6366 113.851 22.6366Z" fill="black"/>
<path d="M146.964 31.9852L140.361 29.9526L134.617 38.304L146.964 31.9852Z" fill="#A3112B"/>
<path d="M197.287 176.981C207.802 176.981 216.326 168.458 216.326 157.943C216.326 147.429 207.802 138.905 197.287 138.905C186.773 138.905 178.249 147.429 178.249 157.943C178.249 168.458 186.773 176.981 197.287 176.981Z" fill="#961430"/>
<path d="M195.444 173.571C204.7 173.571 212.204 166.068 212.204 156.812C212.204 147.556 204.7 140.052 195.444 140.052C186.188 140.052 178.685 147.556 178.685 156.812C178.685 166.068 186.188 173.571 195.444 173.571Z" fill="white"/>
<path d="M195.444 174.202C192.005 174.202 188.643 173.182 185.783 171.271C182.923 169.36 180.694 166.644 179.378 163.466C178.061 160.289 177.717 156.792 178.388 153.418C179.059 150.045 180.715 146.946 183.147 144.514C185.579 142.082 188.678 140.426 192.052 139.755C195.425 139.084 198.922 139.428 202.1 140.744C205.277 142.06 207.993 144.289 209.904 147.149C211.815 150.009 212.835 153.372 212.835 156.811C212.83 161.422 210.996 165.842 207.736 169.103C204.476 172.363 200.055 174.197 195.444 174.202ZM195.444 140.683C192.255 140.683 189.136 141.629 186.484 143.401C183.832 145.173 181.765 147.692 180.544 150.639C179.323 153.586 179.004 156.829 179.626 159.958C180.248 163.086 181.784 165.96 184.04 168.216C186.296 170.471 189.169 172.007 192.298 172.63C195.427 173.252 198.669 172.932 201.616 171.712C204.564 170.491 207.082 168.424 208.855 165.772C210.627 163.119 211.573 160.001 211.573 156.811C211.568 152.535 209.867 148.436 206.843 145.412C203.82 142.389 199.72 140.688 195.444 140.683Z" fill="black"/>
<path d="M206.308 156.648C206.308 159.76 204.635 161.925 202.262 161.925C201.633 161.943 201.013 161.771 200.482 161.434C199.952 161.097 199.534 160.608 199.282 160.032C198.817 160.722 198.186 161.284 197.447 161.668C196.708 162.052 195.885 162.244 195.053 162.228C193.693 162.135 192.42 161.529 191.49 160.533C190.56 159.537 190.043 158.225 190.043 156.863C190.043 155.5 190.56 154.188 191.49 153.192C192.42 152.196 193.693 151.591 195.053 151.497C195.824 151.484 196.588 151.648 197.286 151.977C197.985 152.305 198.598 152.789 199.08 153.391L199.358 152.009H200.418V158.245C200.418 159.508 201.207 160.423 202.312 160.423C203.726 160.423 204.692 158.895 204.692 156.68C204.692 151.63 200.904 148.108 195.469 148.108C190.034 148.108 186.19 151.68 186.19 156.831C186.19 161.982 189.769 165.41 195.028 165.41C196.506 165.428 197.965 165.072 199.27 164.375V165.965C197.891 166.631 196.381 166.98 194.851 166.988C188.81 166.988 184.574 162.822 184.574 156.831C184.574 150.733 188.993 146.548 195.432 146.548C201.87 146.548 206.308 150.658 206.308 156.648ZM198.821 156.8C198.842 156.315 198.762 155.831 198.586 155.378C198.411 154.926 198.143 154.515 197.801 154.17C197.459 153.826 197.05 153.556 196.599 153.377C196.147 153.199 195.664 153.115 195.179 153.132C194.449 153.125 193.733 153.334 193.123 153.735C192.513 154.135 192.035 154.708 191.751 155.38C191.467 156.053 191.389 156.795 191.528 157.511C191.667 158.228 192.016 158.887 192.53 159.405C193.044 159.923 193.701 160.277 194.417 160.42C195.133 160.564 195.875 160.492 196.549 160.212C197.224 159.933 197.8 159.459 198.205 158.852C198.609 158.244 198.824 157.53 198.821 156.8Z" fill="black"/>
<path d="M157.157 127.985H231.795C231.795 127.985 228.563 123.453 224.384 121.761C220.205 120.069 220.256 120.176 217.144 119.779C214.032 119.381 154.259 119.779 154.259 119.779L153.817 121.673" fill="#961430"/>
<path d="M150.519 120.364L137.591 116.665C135.416 116.044 133.139 115.856 130.892 116.114C128.644 116.372 126.469 117.07 124.492 118.169C122.514 119.267 120.772 120.745 119.365 122.516C117.958 124.288 116.914 126.32 116.293 128.495L102.336 177.303L151.194 191.272L164.343 145.261C165.071 142.718 165.29 140.057 164.989 137.43C164.689 134.803 163.873 132.26 162.589 129.948C161.305 127.636 159.579 125.6 157.507 123.955C155.436 122.311 153.062 121.091 150.519 120.364Z" fill="black"/>
<path d="M147.039 85.1982H161.621L149.331 138.014H115.591L127.881 85.1982H135.462" fill="white"/>
<path d="M149.33 138.645H115.59C115.494 138.647 115.399 138.628 115.312 138.588C115.224 138.548 115.147 138.488 115.086 138.414C115.026 138.34 114.982 138.252 114.96 138.159C114.938 138.066 114.938 137.968 114.959 137.875L127.268 85.0585C127.301 84.9173 127.382 84.7919 127.497 84.7034C127.612 84.6148 127.754 84.5686 127.899 84.5725H135.474V85.835H128.379L116.385 137.389H148.831L160.825 85.835H147.039V84.5725H161.639C161.734 84.5722 161.827 84.593 161.912 84.6334C161.997 84.6738 162.072 84.7328 162.132 84.806C162.191 84.8806 162.232 84.9677 162.253 85.0606C162.274 85.1535 162.273 85.2499 162.252 85.3426L149.961 138.165C149.927 138.305 149.845 138.429 149.73 138.516C149.616 138.604 149.474 138.649 149.33 138.645Z" fill="black"/>
<path d="M138.607 111.609L161.623 85.1982L149.332 138.014L138.607 111.609Z" fill="white"/>
<path d="M149.33 138.645C149.204 138.645 149.081 138.608 148.977 138.539C148.872 138.469 148.791 138.369 148.743 138.253L138.012 111.842C137.973 111.736 137.963 111.622 137.983 111.511C138.003 111.4 138.052 111.296 138.126 111.211L161.141 84.7996C161.234 84.6964 161.358 84.6268 161.495 84.6017C161.632 84.5766 161.773 84.5973 161.897 84.6606C162.021 84.7239 162.12 84.8263 162.18 84.9519C162.239 85.0774 162.256 85.2191 162.226 85.355L149.936 138.177C149.906 138.307 149.835 138.425 149.734 138.512C149.633 138.599 149.507 138.652 149.374 138.664L149.33 138.645ZM139.338 111.728L149.166 135.937L160.434 87.5202L139.338 111.728Z" fill="black"/>
<path d="M188.341 29.9149L196.451 17.7969L233.507 57.3877L214.741 85.4269L177.685 45.8361L181.901 39.5358" fill="white"/>
<path d="M234.031 57.7385L215.265 85.7777C215.213 85.8588 215.144 85.9271 215.062 85.9773C214.981 86.0276 214.888 86.0586 214.793 86.0679C214.697 86.0771 214.601 86.0645 214.511 86.0309C214.421 85.9973 214.34 85.9436 214.274 85.8739L177.228 46.2674C177.129 46.1611 177.07 46.0241 177.06 45.8793C177.051 45.7345 177.091 45.5908 177.175 45.4725L181.389 39.1774L182.438 39.8796L178.491 45.776L214.663 84.418L232.71 57.4542L196.538 18.8122L188.87 30.2692L187.821 29.567L195.942 17.4333C195.994 17.3547 196.063 17.2889 196.144 17.2405C196.225 17.1922 196.316 17.1626 196.41 17.154C196.505 17.1463 196.6 17.1602 196.689 17.1947C196.778 17.2291 196.858 17.2831 196.922 17.3528L233.984 56.9471C234.081 57.0537 234.139 57.1904 234.147 57.3344C234.156 57.4784 234.115 57.621 234.031 57.7385Z" fill="black"/>
<path d="M205.599 51.6122L196.452 17.7954L233.508 57.3862L205.599 51.6122Z" fill="white"/>
<path d="M234.031 57.739C233.961 57.8438 233.862 57.9255 233.746 57.9737C233.63 58.0218 233.502 58.0342 233.379 58.0092L205.461 52.2369C205.352 52.2106 205.251 52.1554 205.17 52.0771C205.089 51.9987 205.03 51.9 205 51.7913L195.852 17.9746C195.819 17.8398 195.83 17.6976 195.885 17.57C195.94 17.4424 196.036 17.3366 196.157 17.269C196.279 17.2013 196.419 17.1757 196.557 17.196C196.694 17.2163 196.821 17.2814 196.918 17.3813L233.979 56.9756C234.071 57.073 234.129 57.1969 234.145 57.3293C234.161 57.4618 234.136 57.596 234.071 57.7128L234.031 57.739ZM206.104 51.072L231.689 56.3691L197.72 20.0754L206.104 51.072Z" fill="black"/>
<path d="M265.104 156.341L253.972 146.923L297.467 114.539L323.226 136.331L279.73 168.715L273.942 163.818" fill="white"/>
<path d="M297.875 114.058L323.633 135.849C323.708 135.909 323.768 135.986 323.809 136.073C323.85 136.16 323.87 136.255 323.869 136.351C323.867 136.447 323.844 136.541 323.8 136.627C323.757 136.712 323.694 136.787 323.618 136.845L280.108 169.217C279.991 169.303 279.848 169.347 279.704 169.34C279.559 169.333 279.42 169.277 279.312 169.18L273.529 164.288L274.344 163.324L279.761 167.907L322.215 136.295L297.444 115.339L254.991 146.951L265.516 155.855L264.7 156.819L253.554 147.389C253.481 147.328 253.424 147.252 253.385 147.166C253.346 147.08 253.327 146.987 253.328 146.892C253.331 146.797 253.356 146.704 253.4 146.619C253.444 146.535 253.507 146.462 253.583 146.405L297.083 114.016C297.2 113.932 297.342 113.889 297.486 113.897C297.63 113.905 297.767 113.961 297.875 114.058Z" fill="black"/>
<path d="M288.599 141.625L253.97 146.924L297.466 114.54L288.599 141.625Z" fill="white"/>
<path d="M297.875 114.057C297.972 114.138 298.042 114.246 298.077 114.367C298.112 114.487 298.109 114.616 298.071 114.735L289.205 141.83C289.167 141.936 289.101 142.03 289.014 142.102C288.927 142.173 288.822 142.221 288.711 142.238L254.082 147.537C253.944 147.556 253.804 147.528 253.683 147.459C253.563 147.39 253.468 147.283 253.415 147.155C253.361 147.027 253.351 146.884 253.387 146.75C253.423 146.615 253.502 146.497 253.612 146.412L297.111 114.023C297.218 113.943 297.348 113.899 297.481 113.898C297.615 113.896 297.745 113.937 297.854 114.014L297.875 114.057ZM288.12 141.06L296.252 116.231L256.379 145.917L288.12 141.06Z" fill="black"/>
<path d="M1.80037 44.5036L1.07886 29.9397L54.4384 39.6016L56.1078 73.3002L2.74832 63.6383L2.3732 56.0664" fill="white"/>
<path d="M55.0694 39.5698L56.7389 73.2684C56.746 73.3641 56.7312 73.4602 56.6955 73.5494C56.6599 73.6386 56.6044 73.7184 56.5332 73.7829C56.462 73.8474 56.3771 73.8947 56.2849 73.9214C56.1927 73.9481 56.0956 73.9534 56.001 73.9369L2.6405 64.2561C2.49779 64.2298 2.36851 64.1552 2.2744 64.0447C2.18029 63.9343 2.12711 63.7948 2.12381 63.6497L1.749 56.0841L3.00994 56.0216L3.36101 63.1081L55.4449 72.5361L53.8395 40.13L1.75558 30.7019L2.43773 44.4714L1.17679 44.5339L0.454352 29.9511C0.449366 29.8569 0.465545 29.7628 0.501698 29.6757C0.53785 29.5886 0.593053 29.5108 0.66326 29.4478C0.734841 29.385 0.819698 29.3392 0.911475 29.3139C1.00325 29.2886 1.09958 29.2843 1.19323 29.3015L54.559 38.963C54.7006 38.9906 54.8285 39.0659 54.9214 39.1763C55.0142 39.2867 55.0665 39.4255 55.0694 39.5698Z" fill="black"/>
<path d="M28.5976 51.618L1.07996 29.9379L54.4395 39.5998L28.5976 51.618Z" fill="white"/>
<path d="M55.0677 39.5707C55.0745 39.6962 55.0437 39.8209 54.9793 39.9288C54.9148 40.0367 54.8196 40.123 54.7058 40.1764L28.8579 52.2012C28.7542 52.2456 28.6405 52.2614 28.5287 52.2469C28.4168 52.2324 28.3109 52.1883 28.2218 52.119L0.704208 30.4389C0.59655 30.351 0.520933 30.23 0.489071 30.0947C0.45721 29.9594 0.470887 29.8173 0.527997 29.6906C0.585107 29.5639 0.682456 29.4596 0.804922 29.3938C0.927388 29.3281 1.06812 29.3046 1.2053 29.327L54.5711 38.9886C54.7025 39.0123 54.8229 39.0771 54.9151 39.1736C55.0073 39.2701 55.0666 39.3934 55.0844 39.5256L55.0677 39.5707ZM28.6789 50.8829L52.3711 39.8686L3.45651 31.0104L28.6789 50.8829Z" fill="black"/>
<path d="M65.8712 139.914L57.7606 127.796L20.7044 167.387L39.4711 195.426L76.5272 155.836L72.3104 149.535" fill="white"/>
<path d="M20.1805 167.738L38.9471 195.777C38.9985 195.858 39.0678 195.927 39.1496 195.977C39.2314 196.027 39.3236 196.058 39.4192 196.067C39.5147 196.077 39.6112 196.064 39.7011 196.03C39.7911 195.997 39.8721 195.943 39.9382 195.873L76.9838 156.267C77.0827 156.161 77.1419 156.024 77.1515 155.879C77.1611 155.734 77.1206 155.59 77.0367 155.472L72.8234 149.177L71.7742 149.879L75.7207 155.775L39.5487 194.418L21.5018 167.454L57.6738 128.812L65.3419 140.269L66.3911 139.566L58.27 127.433C58.2178 127.354 58.1487 127.288 58.0677 127.24C57.9867 127.192 57.896 127.162 57.8021 127.154C57.7072 127.146 57.6118 127.16 57.523 127.194C57.4342 127.229 57.3544 127.283 57.2894 127.352L20.2281 166.947C20.1309 167.053 20.0732 167.19 20.0645 167.334C20.0559 167.478 20.0968 167.621 20.1805 167.738Z" fill="black"/>
<path d="M48.6128 161.612L57.7602 127.795L20.704 167.386L48.6128 161.612Z" fill="white"/>
<path d="M20.1814 167.739C20.2508 167.843 20.3499 167.925 20.466 167.973C20.5821 168.021 20.71 168.034 20.8332 168.009L48.7507 162.236C48.8604 162.21 48.9611 162.155 49.0422 162.077C49.1233 161.998 49.182 161.9 49.2121 161.791L58.3595 127.974C58.3934 127.839 58.3819 127.697 58.3267 127.569C58.2716 127.442 58.1759 127.336 58.0544 127.268C57.933 127.201 57.7926 127.175 57.6551 127.196C57.5176 127.216 57.3906 127.281 57.2939 127.381L20.2325 166.975C20.1413 167.073 20.0833 167.196 20.0669 167.329C20.0504 167.461 20.0764 167.596 20.1411 167.712L20.1814 167.739ZM48.1078 161.072L22.5231 166.369L56.4917 130.075L48.1078 161.072Z" fill="black"/>
<path d="M126.02 119.695H120.667C114.45 119.695 108.487 122.164 104.09 126.559C99.6923 130.955 97.2201 136.916 97.2168 143.133V191.468H149.465V143.133C149.463 136.917 146.992 130.955 142.596 126.56C138.199 122.164 132.237 119.695 126.02 119.695Z" fill="#C21333"/>
<path d="M126.021 119.695C132.238 119.695 138.2 122.164 142.597 126.559C146.993 130.955 149.464 136.916 149.466 143.133V191.467H97.2176V143.133C97.2176 136.914 99.6883 130.949 104.086 126.551C108.484 122.153 114.449 119.682 120.668 119.682H126.021M126.021 118.42H120.668C114.116 118.427 107.834 121.032 103.201 125.666C98.5676 130.299 95.9618 136.581 95.9551 143.133V192.73H150.728V143.133C150.721 136.582 148.116 130.301 143.485 125.668C138.853 121.035 132.572 118.428 126.021 118.42Z" fill="black"/>
<path d="M123.345 126.311C118.256 126.311 113.375 128.333 109.776 131.932C106.177 135.53 104.155 140.411 104.155 145.501V182.075C104.155 182.591 104.359 183.087 104.721 183.454C105.084 183.822 105.577 184.032 106.093 184.038H140.54C141.061 184.038 141.561 183.832 141.931 183.464C142.3 183.096 142.508 182.596 142.51 182.075V145.501C142.51 140.416 140.491 135.539 136.898 131.941C133.305 128.342 128.43 126.318 123.345 126.311Z" fill="#C21333"/>
<path d="M123.342 126.31C128.431 126.31 133.312 128.332 136.911 131.931C140.51 135.53 142.532 140.411 142.532 145.5V182.074C142.53 182.596 142.322 183.095 141.952 183.463C141.583 183.831 141.083 184.037 140.562 184.037H106.09C105.569 184.037 105.07 183.831 104.702 183.462C104.334 183.094 104.127 182.595 104.127 182.074V145.5C104.127 140.411 106.149 135.53 109.747 131.931C113.346 128.332 118.227 126.31 123.317 126.31M123.317 125.048C117.894 125.053 112.695 127.209 108.86 131.044C105.026 134.878 102.869 140.077 102.864 145.5V182.074C102.864 182.498 102.948 182.917 103.11 183.309C103.272 183.7 103.51 184.056 103.809 184.355C104.109 184.655 104.464 184.892 104.856 185.054C105.247 185.217 105.666 185.3 106.09 185.3H140.537C141.393 185.3 142.214 184.96 142.82 184.356C143.426 183.751 143.767 182.93 143.769 182.074V145.5C143.762 140.078 141.605 134.88 137.771 131.046C133.937 127.211 128.739 125.055 123.317 125.048Z" fill="black"/>
<path d="M149.399 192.106H158.035C158.634 192.087 159.224 191.95 159.771 191.703C160.317 191.456 160.81 191.104 161.22 190.667C161.631 190.23 161.951 189.716 162.162 189.155C162.374 188.593 162.473 187.996 162.454 187.397V186.627C162.473 186.027 162.374 185.43 162.162 184.869C161.951 184.308 161.631 183.794 161.22 183.356C160.81 182.919 160.317 182.567 159.771 182.32C159.224 182.073 158.634 181.936 158.035 181.917H149.399" fill="#C21333"/>
<path d="M158.035 192.736H149.399V191.474H158.035C159.077 191.434 160.062 190.983 160.772 190.218C161.482 189.454 161.86 188.439 161.822 187.396V186.626C161.86 185.583 161.482 184.568 160.772 183.804C160.062 183.039 159.077 182.588 158.035 182.548H149.399V181.286H158.035C159.412 181.325 160.718 181.91 161.665 182.911C162.611 183.912 163.122 185.248 163.085 186.626V187.396C163.122 188.774 162.611 190.11 161.665 191.111C160.718 192.112 159.412 192.697 158.035 192.736Z" fill="black"/>
<path d="M121.551 41.877L126.38 39.0933L144.515 98.7899L110.902 118.201L108.313 109.691" fill="white"/>
<path d="M110.903 118.832C110.823 118.833 110.744 118.818 110.67 118.788C110.581 118.753 110.502 118.698 110.437 118.628C110.373 118.558 110.325 118.475 110.297 118.384L107.709 109.874L108.921 109.502L111.276 117.254L143.772 98.4931L126.009 40.0337L121.874 42.4261L121.243 41.3341L126.072 38.544C126.154 38.4973 126.246 38.4697 126.34 38.4634C126.435 38.457 126.53 38.4719 126.617 38.5071C126.705 38.5422 126.784 38.5967 126.848 38.6665C126.912 38.7362 126.96 38.8195 126.987 38.9101L145.129 98.6067C145.171 98.7436 145.165 98.8906 145.112 99.0237C145.059 99.1567 144.963 99.2679 144.839 99.3389L111.225 118.75C111.127 118.805 111.016 118.834 110.903 118.832Z" fill="black"/>
<path d="M105.661 100.968L92.7588 58.5047L115.686 45.2676" fill="white"/>
<path d="M105.064 101.157L92.1554 58.6866C92.1136 58.5497 92.1196 58.4027 92.1724 58.2696C92.2251 58.1366 92.3216 58.0254 92.4458 57.9543L115.373 44.6982L116.004 45.7903L93.5126 58.8002L106.27 100.784L105.064 101.157Z" fill="black"/>
<path d="M118.641 78.6469L126.38 39.0933L144.515 98.7899L118.641 78.6469Z" fill="white"/>
<path d="M144.515 99.4221C144.376 99.4217 144.24 99.3751 144.13 99.2896L118.249 79.1466C118.155 79.0741 118.083 78.9764 118.041 78.8647C118 78.753 117.991 78.6319 118.016 78.5154L125.755 38.9806C125.781 38.841 125.855 38.7146 125.962 38.6218C126.07 38.529 126.206 38.4753 126.348 38.4693C126.488 38.4633 126.626 38.5041 126.74 38.5853C126.855 38.6664 126.939 38.7833 126.979 38.9175L145.121 98.6141C145.161 98.7428 145.158 98.8809 145.114 99.0081C145.07 99.1353 144.986 99.245 144.875 99.3211C144.768 99.3903 144.642 99.4255 144.515 99.4221ZM119.347 78.3891L143.335 97.055L126.512 41.6823L119.347 78.3891Z" fill="black"/>
<path d="M122.845 144.821C125.167 144.821 127.049 142.939 127.049 140.617C127.049 138.295 125.167 136.413 122.845 136.413C120.523 136.413 118.641 138.295 118.641 140.617C118.641 142.939 120.523 144.821 122.845 144.821Z" fill="black"/>
<path d="M157.349 188.204C158.137 188.204 158.776 187.566 158.776 186.778C158.776 185.99 158.137 185.351 157.349 185.351C156.562 185.351 155.923 185.99 155.923 186.778C155.923 187.566 156.562 188.204 157.349 188.204Z" fill="black"/>
<path d="M141.706 147.856L125.061 184.108H140.45C140.72 184.109 140.987 184.057 141.236 183.954C141.486 183.851 141.712 183.7 141.903 183.509C142.093 183.319 142.245 183.092 142.347 182.843C142.45 182.594 142.503 182.326 142.502 182.057V146.48L141.706 147.856Z" fill="#961430"/>
<path d="M155.025 192.792L166.388 212.828L172.107 192.792H155.025Z" fill="#961430"/>
</svg>
