<svg width="249" height="157" viewBox="0 0 249 157" fill="none" xmlns="http://www.w3.org/2000/svg">
<path d="M141.054 156.852L147.372 133.144L119.739 132.432L119.459 135.923L114.321 156.886" fill="#C21333"/>
<path d="M114.791 157L113.852 156.772L118.979 135.848L119.26 132.395C119.27 132.274 119.325 132.16 119.415 132.077C119.505 131.995 119.622 131.949 119.744 131.949L147.387 132.657C147.46 132.66 147.531 132.679 147.596 132.714C147.661 132.748 147.716 132.797 147.76 132.856C147.803 132.914 147.833 132.981 147.848 133.053C147.862 133.124 147.86 133.198 147.842 133.268L141.518 156.981L140.584 156.729L146.748 133.612L120.185 132.909L119.943 135.945V136.023L114.791 157Z" fill="black"/>
<path d="M133.665 134.752L127.303 156.869L141.054 156.854L147.373 133.146L133.665 134.752Z" fill="black"/>
<path d="M93.6901 84.8428H164.968C167.389 84.8435 169.779 85.3937 171.957 86.4521C174.136 87.5105 176.046 89.0496 177.545 90.9537C179.044 92.8578 180.093 95.0774 180.612 97.4457C181.132 99.8141 181.109 102.269 180.545 104.628L171.829 140.948H92.6104L93.6901 84.8428Z" fill="#C21333"/>
<path d="M172.222 141.433H92.1172L93.2163 84.3574H164.969C167.461 84.3589 169.921 84.9256 172.164 86.0152C174.406 87.1047 176.373 88.6888 177.917 90.6485C179.461 92.6082 180.542 94.8926 181.079 97.3304C181.615 99.7682 181.593 102.296 181.015 104.724L172.222 141.433ZM93.1049 140.463H171.457L180.071 104.516C180.619 102.229 180.643 99.8475 180.139 97.5505C179.636 95.2534 178.62 93.1005 177.166 91.2536C175.713 89.4067 173.86 87.9139 171.747 86.8874C169.635 85.8609 167.317 85.3275 164.969 85.3273H94.1653L93.1049 140.463Z" fill="black"/>
<path d="M81.9371 15.1123L77.376 19.8209L83.4574 24.0688L81.9371 15.1123Z" fill="#A3112B"/>
<path d="M97.1066 0.123047L99.1354 5.51537L92.502 20.3394L97.1066 0.123047Z" fill="#A3112B"/>
<path d="M104.585 29.5919C105.435 29.5919 106.124 28.9015 106.124 28.0499C106.124 27.1982 105.435 26.5078 104.585 26.5078C103.734 26.5078 103.045 27.1982 103.045 28.0499C103.045 28.9015 103.734 29.5919 104.585 29.5919Z" fill="#961430"/>
<path d="M110.526 25.6297C110.922 25.6297 111.243 25.3084 111.243 24.912C111.243 24.5157 110.922 24.1943 110.526 24.1943C110.13 24.1943 109.81 24.5157 109.81 24.912C109.81 25.3084 110.13 25.6297 110.526 25.6297Z" fill="black"/>
<path d="M87.0047 10.762C88.5477 10.762 89.7985 9.50931 89.7985 7.96402C89.7985 6.41873 88.5477 5.16602 87.0047 5.16602C85.4618 5.16602 84.2109 6.41873 84.2109 7.96402C84.2109 9.50931 85.4618 10.762 87.0047 10.762Z" fill="black"/>
<path d="M112.403 17.9443L107.339 16.3828L102.933 22.7983L112.403 17.9443Z" fill="#A3112B"/>
<path d="M151.004 129.331C159.069 129.331 165.607 122.783 165.607 114.705C165.607 106.628 159.069 100.08 151.004 100.08C142.938 100.08 136.4 106.628 136.4 114.705C136.4 122.783 142.938 129.331 151.004 129.331Z" fill="#961430"/>
<path d="M149.59 126.71C156.689 126.71 162.445 120.946 162.445 113.836C162.445 106.725 156.689 100.961 149.59 100.961C142.49 100.961 136.734 106.725 136.734 113.836C136.734 120.946 142.49 126.71 149.59 126.71Z" fill="white"/>
<path d="M149.591 127.194C146.952 127.194 144.373 126.41 142.179 124.942C139.986 123.474 138.276 121.388 137.266 118.947C136.257 116.506 135.993 113.819 136.507 111.228C137.022 108.636 138.292 106.256 140.158 104.388C142.024 102.519 144.4 101.247 146.988 100.731C149.576 100.216 152.258 100.48 154.695 101.492C157.133 102.503 159.216 104.215 160.682 106.412C162.148 108.609 162.93 111.192 162.93 113.834C162.926 117.376 161.52 120.772 159.019 123.277C156.518 125.781 153.127 127.19 149.591 127.194ZM149.591 101.444C147.144 101.444 144.752 102.171 142.717 103.533C140.683 104.894 139.097 106.829 138.161 109.093C137.225 111.357 136.98 113.848 137.457 116.251C137.934 118.655 139.113 120.862 140.843 122.595C142.573 124.328 144.777 125.508 147.177 125.986C149.577 126.464 152.064 126.219 154.325 125.281C156.585 124.343 158.517 122.755 159.877 120.718C161.236 118.68 161.962 116.285 161.962 113.834C161.958 110.549 160.653 107.4 158.334 105.078C156.015 102.755 152.87 101.448 149.591 101.444Z" fill="black"/>
<path d="M157.923 113.71C157.923 116.101 156.64 117.764 154.819 117.764C154.337 117.777 153.861 117.646 153.454 117.386C153.047 117.127 152.726 116.752 152.534 116.309C152.177 116.839 151.693 117.271 151.126 117.566C150.559 117.861 149.928 118.009 149.29 117.997C148.247 117.925 147.27 117.46 146.557 116.694C145.843 115.929 145.447 114.922 145.447 113.875C145.447 112.828 145.843 111.82 146.557 111.055C147.27 110.29 148.247 109.825 149.29 109.753C149.881 109.743 150.467 109.869 151.003 110.121C151.538 110.373 152.009 110.745 152.379 111.208L152.592 110.146H153.405V114.937C153.405 115.907 154.01 116.61 154.858 116.61C155.942 116.61 156.683 115.436 156.683 113.734C156.683 109.855 153.778 107.149 149.609 107.149C145.44 107.149 142.492 109.894 142.492 113.851C142.492 117.808 145.237 120.441 149.27 120.441C150.404 120.455 151.524 120.181 152.524 119.645V120.867C151.467 121.378 150.309 121.647 149.135 121.653C144.501 121.653 141.252 118.452 141.252 113.851C141.252 109.166 144.641 105.951 149.58 105.951C154.519 105.951 157.923 109.108 157.923 113.71ZM152.18 113.826C152.196 113.454 152.134 113.082 152 112.734C151.865 112.387 151.66 112.071 151.398 111.806C151.135 111.542 150.821 111.334 150.475 111.197C150.129 111.06 149.758 110.996 149.386 111.009C148.826 111.003 148.278 111.164 147.809 111.472C147.341 111.779 146.975 112.219 146.757 112.736C146.539 113.253 146.48 113.822 146.586 114.373C146.692 114.924 146.96 115.43 147.354 115.828C147.749 116.226 148.253 116.497 148.802 116.608C149.351 116.718 149.92 116.662 150.438 116.448C150.955 116.233 151.397 115.869 151.707 115.403C152.017 114.936 152.182 114.387 152.18 113.826Z" fill="black"/>
<path d="M120.222 91.6907H177.473C177.473 91.6907 174.993 88.209 171.788 86.9094C168.583 85.6098 168.621 85.6923 166.234 85.3868C163.847 85.0813 117.999 85.3868 117.999 85.3868L117.66 86.8415" fill="#961430"/>
<path d="M115.13 85.8366L105.214 82.995C103.546 82.5173 101.8 82.3735 100.076 82.5717C98.3515 82.7699 96.6834 83.3062 95.1664 84.1501C93.6494 84.9939 92.3132 86.1288 91.2341 87.4898C90.1551 88.8508 89.3542 90.4114 88.8774 92.0824L78.1719 129.577L115.648 140.308L125.734 104.962C126.292 103.009 126.461 100.965 126.23 98.9464C125.999 96.9281 125.374 94.975 124.389 93.199C123.404 91.4229 122.08 89.8585 120.491 88.5953C118.902 87.332 117.081 86.3946 115.13 85.8366Z" fill="black"/>
<path d="M112.46 58.8223H123.645L114.218 99.3957H88.3379L97.7651 58.8223H103.58" fill="white"/>
<path d="M114.218 99.8794H88.3379C88.2643 99.8812 88.1912 99.8661 88.1242 99.8354C88.0573 99.8047 87.9982 99.759 87.9515 99.702C87.9048 99.6449 87.8717 99.578 87.8548 99.5062C87.8378 99.4344 87.8375 99.3597 87.8537 99.2878L97.2955 58.7144C97.321 58.6059 97.3831 58.5095 97.4713 58.4415C97.5595 58.3735 97.6684 58.338 97.7797 58.341H103.59V59.3108H98.1476L88.948 98.9144H113.836L123.035 59.3108H112.46V58.341H123.66C123.732 58.3407 123.804 58.3567 123.869 58.3878C123.934 58.4188 123.992 58.4642 124.037 58.5204C124.083 58.5777 124.115 58.6446 124.131 58.7159C124.147 58.7873 124.146 58.8614 124.129 58.9326L114.702 99.5108C114.676 99.6184 114.613 99.7137 114.525 99.7807C114.437 99.8478 114.329 99.8826 114.218 99.8794Z" fill="black"/>
<path d="M105.993 79.1114L123.647 58.8223L114.22 99.3957L105.993 79.1114Z" fill="white"/>
<path d="M114.218 99.8783C114.121 99.8788 114.027 99.8504 113.947 99.7968C113.866 99.7433 113.804 99.6669 113.767 99.5776L105.536 79.2885C105.506 79.2072 105.498 79.1194 105.514 79.0341C105.529 78.9488 105.567 78.8692 105.623 78.8036L123.277 58.5145C123.348 58.4352 123.444 58.3818 123.549 58.3625C123.654 58.3432 123.762 58.3591 123.857 58.4077C123.952 58.4563 124.028 58.535 124.074 58.6315C124.119 58.7279 124.132 58.8368 124.11 58.9412L114.682 99.5194C114.659 99.6193 114.605 99.7092 114.528 99.7763C114.45 99.8434 114.354 99.8842 114.251 99.8928L114.218 99.8783ZM106.553 79.2012L114.092 97.798L122.735 60.6045L106.553 79.2012Z" fill="black"/>
<path d="M144.141 16.3528L150.362 7.04377L178.786 37.4575L164.391 58.9972L135.967 28.5835L139.202 23.7436" fill="white"/>
<path d="M179.188 37.7269L164.793 59.2667C164.754 59.3289 164.7 59.3814 164.638 59.42C164.575 59.4587 164.504 59.4824 164.431 59.4896C164.358 59.4967 164.284 59.487 164.215 59.4612C164.146 59.4354 164.084 59.3941 164.033 59.3406L135.617 28.9148C135.541 28.8332 135.496 28.7279 135.488 28.6167C135.481 28.5054 135.512 28.3951 135.577 28.3041L138.808 23.4683L139.613 24.0077L136.586 28.5373L164.332 58.2221L178.174 37.5085L150.429 7.82369L144.547 16.625L143.742 16.0855L149.971 6.76439C150.011 6.70405 150.065 6.65346 150.127 6.61633C150.189 6.57921 150.258 6.55649 150.33 6.54986C150.403 6.54397 150.476 6.55464 150.544 6.58108C150.613 6.60753 150.674 6.64905 150.724 6.70256L179.151 37.1189C179.226 37.2009 179.27 37.3059 179.277 37.4165C179.284 37.5271 179.252 37.6367 179.188 37.7269Z" fill="black"/>
<path d="M157.379 33.0205L150.362 7.04239L178.786 37.4561L157.379 33.0205Z" fill="white"/>
<path d="M179.187 37.7273C179.134 37.8078 179.058 37.8706 178.969 37.9076C178.88 37.9445 178.782 37.954 178.687 37.9348L157.273 33.5005C157.189 33.4804 157.112 33.438 157.05 33.3778C156.988 33.3176 156.943 33.2418 156.919 33.1583L149.903 7.18021C149.877 7.07667 149.886 6.96742 149.928 6.8694C149.97 6.77139 150.044 6.6901 150.137 6.63815C150.23 6.58621 150.338 6.56651 150.443 6.58211C150.549 6.59771 150.646 6.64774 150.72 6.72444L179.148 37.1408C179.218 37.2157 179.263 37.3108 179.275 37.4126C179.288 37.5143 179.268 37.6175 179.218 37.7072L179.187 37.7273ZM157.766 32.6057L177.391 36.675L151.336 8.79406L157.766 32.6057Z" fill="black"/>
<path d="M203.022 113.475L194.483 106.24L227.846 81.3622L247.604 98.1026L214.241 122.98L209.802 119.219" fill="white"/>
<path d="M228.159 80.9919L247.917 97.7323C247.975 97.7786 248.021 97.8373 248.052 97.9041C248.083 97.9709 248.099 98.0439 248.098 98.1177C248.097 98.1914 248.079 98.2639 248.046 98.3297C248.012 98.3955 247.964 98.4527 247.906 98.4972L214.531 123.365C214.442 123.432 214.332 123.465 214.221 123.46C214.11 123.455 214.004 123.411 213.921 123.337L209.485 119.579L210.111 118.838L214.265 122.359L246.829 98.0744L227.829 81.9761L195.265 106.26L203.338 113.101L202.713 113.841L194.163 106.597C194.107 106.55 194.063 106.492 194.033 106.426C194.003 106.36 193.989 106.288 193.99 106.216C193.993 106.142 194.011 106.071 194.045 106.006C194.079 105.941 194.127 105.885 194.186 105.841L227.552 80.9601C227.642 80.8951 227.751 80.8628 227.861 80.8686C227.972 80.8744 228.077 80.9179 228.159 80.9919Z" fill="black"/>
<path d="M221.044 102.169L194.482 106.239L227.845 81.3614L221.044 102.169Z" fill="white"/>
<path d="M228.16 80.9918C228.234 81.0538 228.288 81.1365 228.314 81.2293C228.341 81.3221 228.34 81.4208 228.31 81.5127L221.51 102.327C221.48 102.408 221.429 102.48 221.363 102.535C221.296 102.591 221.216 102.627 221.13 102.64L194.568 106.711C194.463 106.725 194.355 106.704 194.263 106.651C194.17 106.598 194.098 106.516 194.057 106.417C194.016 106.319 194.008 106.209 194.035 106.106C194.063 106.003 194.123 105.912 194.208 105.846L227.574 80.9651C227.656 80.9039 227.755 80.8703 227.858 80.8692C227.96 80.868 228.06 80.8994 228.144 80.9588L228.16 80.9918ZM220.677 101.736L226.915 82.6615L196.33 105.466L220.677 101.736Z" fill="black"/>
<path d="M1.05641 27.5603L0.502986 16.3723L41.4323 23.7946L42.7128 49.6819L1.78354 42.2596L1.4958 36.4428" fill="white"/>
<path d="M41.9162 23.7701L43.1967 49.6574C43.2022 49.731 43.1908 49.8048 43.1634 49.8733C43.1361 49.9418 43.0935 50.0031 43.0389 50.0527C42.9844 50.1022 42.9192 50.1386 42.8485 50.1591C42.7777 50.1796 42.7032 50.1837 42.6307 50.171L1.70067 42.7342C1.59121 42.714 1.49204 42.6567 1.41985 42.5718C1.34767 42.487 1.30688 42.3798 1.30434 42.2684L1.01685 36.4564L1.98405 36.4084L2.25334 41.8523L42.2041 49.0949L40.9727 24.2005L1.0219 16.9578L1.54514 27.5356L0.577939 27.5836L0.0237918 16.3811C0.0199669 16.3087 0.0323774 16.2364 0.0601077 16.1695C0.0878382 16.1026 0.130181 16.0428 0.184034 15.9944C0.23894 15.9462 0.304029 15.911 0.374426 15.8915C0.444824 15.8721 0.518709 15.8688 0.590545 15.882L41.5247 23.304C41.6333 23.3252 41.7314 23.383 41.8026 23.4678C41.8738 23.5526 41.9139 23.6593 41.9162 23.7701Z" fill="black"/>
<path d="M21.6108 33.0254L0.503446 16.3707L41.4327 23.793L21.6108 33.0254Z" fill="white"/>
<path d="M41.9151 23.7713C41.9204 23.8677 41.8968 23.9635 41.8473 24.0464C41.7979 24.1293 41.7248 24.1955 41.6376 24.2366L21.811 33.4741C21.7315 33.5081 21.6443 33.5203 21.5585 33.5091C21.4726 33.498 21.3914 33.4641 21.3231 33.4109L0.215772 16.7562C0.133194 16.6886 0.0751919 16.5957 0.0507524 16.4918C0.0263129 16.3878 0.036804 16.2787 0.0806103 16.1814C0.124416 16.084 0.199088 16.0039 0.293025 15.9534C0.386962 15.9029 0.494913 15.8848 0.600136 15.902L41.5343 23.3241C41.635 23.3423 41.7274 23.3921 41.7981 23.4662C41.8689 23.5404 41.9143 23.635 41.928 23.7366L41.9151 23.7713ZM21.6737 32.4613L39.8467 24.0001L2.32692 17.1952L21.6737 32.4613Z" fill="black"/>
<path d="M50.2019 100.855L43.9807 91.5457L15.5568 121.959L29.9517 143.499L58.3756 113.085L55.1411 108.246" fill="white"/>
<path d="M15.1548 122.229L29.5497 143.769C29.5892 143.831 29.6423 143.883 29.705 143.922C29.7678 143.961 29.8385 143.984 29.9118 143.992C29.9851 143.999 30.0591 143.989 30.1281 143.963C30.1971 143.937 30.2593 143.896 30.3099 143.843L58.7257 113.417C58.8015 113.335 58.8469 113.23 58.8543 113.119C58.8617 113.007 58.8306 112.897 58.7662 112.806L55.5344 107.97L54.7297 108.51L57.7568 113.039L30.0111 142.724L16.1683 122.01L43.914 92.3256L49.7958 101.127L50.6006 100.587L44.3713 91.2663C44.3313 91.206 44.2783 91.1554 44.2161 91.1183C44.154 91.0812 44.0844 91.0584 44.0124 91.0518C43.9396 91.0459 43.8664 91.0566 43.7983 91.083C43.7302 91.1095 43.669 91.151 43.6192 91.2045L15.1913 121.621C15.1168 121.703 15.0725 121.808 15.0659 121.918C15.0592 122.029 15.0906 122.139 15.1548 122.229Z" fill="black"/>
<path d="M36.9641 117.522L43.9806 91.5443L15.5567 121.958L36.9641 117.522Z" fill="white"/>
<path d="M15.1554 122.229C15.2086 122.31 15.2846 122.373 15.3737 122.41C15.4628 122.446 15.5608 122.456 15.6553 122.437L37.0694 118.002C37.1536 117.982 37.2308 117.94 37.293 117.88C37.3552 117.82 37.4002 117.744 37.4233 117.66L44.4398 91.6822C44.4658 91.5786 44.457 91.4694 44.4147 91.3714C44.3724 91.2733 44.299 91.1921 44.2058 91.1401C44.1127 91.0882 44.005 91.0685 43.8995 91.0841C43.794 91.0997 43.6967 91.1497 43.6225 91.2264L15.1946 121.643C15.1246 121.718 15.0802 121.813 15.0675 121.915C15.0549 122.016 15.0749 122.119 15.1245 122.209L15.1554 122.229ZM36.5763 117.108L16.9516 121.177L43.0072 93.296L36.5763 117.108Z" fill="black"/>
<path d="M96.3389 85.3223H92.2329C87.4639 85.3223 82.8901 87.2189 79.517 90.5953C76.144 93.9716 74.2477 98.5513 74.2451 103.327V140.458H114.322V103.327C114.321 98.5517 112.425 93.972 109.053 90.5955C105.681 87.2191 101.107 85.3223 96.3389 85.3223Z" fill="#C21333"/>
<path d="M96.3395 85.3223C101.108 85.3223 105.681 87.2191 109.054 90.5956C112.426 93.9721 114.321 98.5517 114.322 103.327V140.458H74.2457V103.327C74.2457 98.5496 76.1409 93.9675 79.5142 90.589C82.8876 87.2106 87.4628 85.3126 92.2335 85.3126H96.3395M96.3395 84.3428H92.2335C87.2076 84.3479 82.389 86.3497 78.8351 89.9089C75.2813 93.4681 73.2825 98.294 73.2773 103.327V141.428H115.291V103.327C115.286 98.2948 113.288 93.4697 109.735 89.9106C106.182 86.3516 101.365 84.3492 96.3395 84.3428Z" fill="black"/>
<path d="M94.2869 90.4053C90.383 90.4053 86.6391 91.9584 83.8786 94.723C81.1182 97.4876 79.5674 101.237 79.5674 105.147V133.243C79.5674 133.64 79.7233 134.021 80.0016 134.303C80.2798 134.585 80.6579 134.746 81.0539 134.751H107.476C107.876 134.751 108.26 134.593 108.543 134.31C108.826 134.027 108.986 133.644 108.987 133.243V105.147C108.987 101.241 107.439 97.4939 104.683 94.7298C101.926 91.9658 98.1873 90.4104 94.2869 90.4053Z" fill="#C21333"/>
<path d="M94.2844 90.4034C98.1882 90.4034 101.932 91.9566 104.693 94.7212C107.453 97.4857 109.004 101.235 109.004 105.145V133.241C109.003 133.642 108.843 134.025 108.56 134.308C108.277 134.591 107.893 134.75 107.493 134.749H81.0514C80.652 134.749 80.269 134.591 79.9866 134.308C79.7042 134.025 79.5455 133.641 79.5455 133.241V105.145C79.5455 101.235 81.0963 97.4857 83.8568 94.7212C86.6172 91.9566 90.3612 90.4034 94.265 90.4034M94.265 89.4336C90.1055 89.4374 86.1175 91.094 83.1763 94.0396C80.2351 96.9853 78.581 100.979 78.5771 105.145V133.241C78.5771 133.567 78.6411 133.889 78.7655 134.19C78.8898 134.49 79.0721 134.763 79.3018 134.994C79.5316 135.224 79.8043 135.406 80.1045 135.531C80.4047 135.655 80.7265 135.719 81.0514 135.719H107.474C108.13 135.719 108.76 135.458 109.225 134.994C109.69 134.529 109.952 133.899 109.953 133.241V105.145C109.948 100.98 108.293 96.9864 105.352 94.041C102.411 91.0957 98.4241 89.4387 94.265 89.4336Z" fill="black"/>
<path d="M114.271 140.949H120.895C121.355 140.934 121.807 140.829 122.227 140.64C122.646 140.45 123.024 140.179 123.339 139.843C123.653 139.507 123.899 139.113 124.061 138.682C124.224 138.251 124.299 137.792 124.285 137.331V136.74C124.299 136.279 124.224 135.82 124.061 135.389C123.899 134.958 123.653 134.563 123.339 134.227C123.024 133.891 122.646 133.621 122.227 133.431C121.807 133.242 121.355 133.136 120.895 133.122H114.271" fill="#C21333"/>
<path d="M120.895 141.433H114.271V140.463H120.895C121.695 140.433 122.45 140.086 122.995 139.499C123.539 138.912 123.829 138.132 123.8 137.331V136.739C123.829 135.938 123.539 135.158 122.995 134.571C122.45 133.984 121.695 133.637 120.895 133.607H114.271V132.637H120.895C121.952 132.667 122.953 133.116 123.679 133.885C124.406 134.655 124.797 135.681 124.769 136.739V137.331C124.797 138.389 124.406 139.415 123.679 140.184C122.953 140.954 121.952 141.403 120.895 141.433Z" fill="black"/>
<path d="M92.9104 25.5418L96.6144 23.4033L110.525 69.2624L84.742 84.1737L82.7568 77.6369" fill="white"/>
<path d="M84.743 84.6591C84.6816 84.66 84.6207 84.6485 84.5638 84.6252C84.4959 84.5984 84.435 84.5565 84.3855 84.5028C84.336 84.449 84.2993 84.3848 84.2782 84.3148L82.293 77.7781L83.2226 77.492L85.0287 83.4468L109.955 69.035L96.3297 24.1264L93.1583 25.9642L92.6741 25.1253L96.3781 22.982C96.4413 22.9461 96.5117 22.925 96.5842 22.92C96.6566 22.9151 96.7293 22.9266 96.7967 22.9536C96.8641 22.9806 96.9246 23.0225 96.9737 23.0761C97.0227 23.1297 97.0592 23.1936 97.0802 23.2632L110.996 69.1222C111.028 69.2274 111.023 69.3403 110.983 69.4426C110.942 69.5448 110.869 69.6302 110.773 69.6847L84.9899 84.5961C84.9147 84.6388 84.8294 84.6606 84.743 84.6591Z" fill="black"/>
<path d="M80.7221 70.936L70.8252 38.3153L88.4111 28.1465" fill="white"/>
<path d="M80.2646 71.0804L70.3629 38.4548C70.3308 38.3497 70.3354 38.2367 70.3759 38.1345C70.4164 38.0323 70.4903 37.9469 70.5856 37.8923L88.1715 27.709L88.6557 28.5479L71.4039 38.5421L81.1894 70.7943L80.2646 71.0804Z" fill="black"/>
<path d="M90.6777 53.7895L96.6139 23.4043L110.525 69.2633L90.6777 53.7895Z" fill="white"/>
<path d="M110.525 69.7483C110.418 69.748 110.314 69.7122 110.23 69.6465L90.3781 54.1726C90.3056 54.1169 90.2503 54.0419 90.2186 53.9561C90.1869 53.8703 90.18 53.7772 90.1989 53.6877L96.1351 23.3171C96.1557 23.2098 96.2119 23.1127 96.2945 23.0414C96.3771 22.9701 96.4813 22.9289 96.5903 22.9243C96.6977 22.9197 96.8036 22.951 96.8912 23.0134C96.9789 23.0757 97.0434 23.1655 97.0744 23.2686L110.99 69.1276C111.021 69.2265 111.019 69.3325 110.985 69.4302C110.951 69.5279 110.887 69.6122 110.801 69.6707C110.719 69.7239 110.623 69.7509 110.525 69.7483ZM91.2206 53.5907L109.62 67.9298L96.7161 25.3925L91.2206 53.5907Z" fill="black"/>
<path d="M93.9025 104.624C95.6834 104.624 97.1272 103.178 97.1272 101.395C97.1272 99.611 95.6834 98.165 93.9025 98.165C92.1215 98.165 90.6777 99.611 90.6777 101.395C90.6777 103.178 92.1215 104.624 93.9025 104.624Z" fill="black"/>
<path d="M120.37 137.952C120.974 137.952 121.464 137.461 121.464 136.856C121.464 136.25 120.974 135.76 120.37 135.76C119.765 135.76 119.275 136.25 119.275 136.856C119.275 137.461 119.765 137.952 120.37 137.952Z" fill="black"/>
<path d="M108.371 106.956L95.6025 134.805H107.407C107.614 134.805 107.819 134.765 108.01 134.686C108.201 134.607 108.375 134.491 108.521 134.344C108.668 134.198 108.783 134.024 108.862 133.832C108.941 133.641 108.981 133.436 108.981 133.229V105.898L108.371 106.956Z" fill="#961430"/>
<path d="M118.587 141.476L127.302 156.867L131.689 141.476H118.587Z" fill="#961430"/>
</svg>
