<svg width="126" height="33" viewBox="0 0 126 33" fill="none" xmlns="http://www.w3.org/2000/svg">
<path fill-rule="evenodd" clip-rule="evenodd" d="M15.5837 24.3711C20.1738 24.3711 23.8948 20.6501 23.8948 16.06C23.8948 11.4699 20.1738 7.74887 15.5837 7.74887C10.9936 7.74887 7.27255 11.4699 7.27255 16.06C7.27255 20.6501 10.9936 24.3711 15.5837 24.3711ZM15.5837 30.7266C23.6838 30.7266 30.2503 24.1602 30.2503 16.06C30.2503 7.9598 23.6838 1.39331 15.5837 1.39331C7.48348 1.39331 0.916992 7.9598 0.916992 16.06C0.916992 24.1602 7.48348 30.7266 15.5837 30.7266Z" fill="#667085"/>
<path d="M15.751 16.3811C17.2784 14.8537 19.7548 14.8537 21.2822 16.3811L28.8875 23.9864C30.4149 25.5138 30.4149 27.9901 28.8875 29.5175C27.3601 31.0449 24.8837 31.0449 23.3564 29.5175L15.751 21.9122C14.2236 20.3848 14.2236 17.9084 15.751 16.3811Z" fill="#667085"/>
<path d="M17.8867 24.0479L22.7169 28.8781C25.0337 27.586 26.9639 25.684 28.2904 23.3893L23.4997 18.5986C22.6582 21.2249 20.5461 23.2825 17.8867 24.0479Z" fill="#667085"/>
<path d="M53.9305 24.1268C53.5074 24.6495 52.991 25.0477 52.3812 25.3215C51.7838 25.5952 51.1243 25.7321 50.4025 25.7321C49.4318 25.7321 48.5545 25.5206 47.7705 25.0975C46.9865 24.6868 46.0905 23.9526 45.0825 22.8948C43.9003 22.7455 42.8425 22.3659 41.9092 21.7561C40.9883 21.1464 40.2665 20.3624 39.7438 19.4041C39.2336 18.4335 38.9785 17.3632 38.9785 16.1935C38.9785 14.9117 39.2834 13.7606 39.8932 12.7401C40.5154 11.7072 41.3678 10.8984 42.4505 10.3135C43.5456 9.72858 44.7714 9.43613 46.1278 9.43613C47.4843 9.43613 48.7038 9.72858 49.7865 10.3135C50.8692 10.8984 51.7216 11.7072 52.3438 12.7401C52.9661 13.7606 53.2772 14.9117 53.2772 16.1935C53.2772 17.7117 52.8478 19.0432 51.9892 20.1881C51.143 21.333 50.0167 22.1295 48.6105 22.5775C48.9216 22.901 49.2203 23.1312 49.5065 23.2681C49.8052 23.4175 50.1225 23.4921 50.4585 23.4921C51.2674 23.4921 51.9767 23.1686 52.5865 22.5215L53.9305 24.1268ZM42.0398 16.1935C42.0398 17.0024 42.2141 17.7241 42.5625 18.3588C42.9234 18.9935 43.415 19.4912 44.0372 19.8521C44.6594 20.2006 45.3563 20.3748 46.1278 20.3748C46.8994 20.3748 47.5963 20.2006 48.2185 19.8521C48.8407 19.4912 49.3261 18.9935 49.6745 18.3588C50.0354 17.7241 50.2158 17.0024 50.2158 16.1935C50.2158 15.3846 50.0354 14.6628 49.6745 14.0281C49.3261 13.3935 48.8407 12.9019 48.2185 12.5535C47.5963 12.1926 46.8994 12.0121 46.1278 12.0121C45.3563 12.0121 44.6594 12.1926 44.0372 12.5535C43.415 12.9019 42.9234 13.3935 42.5625 14.0281C42.2141 14.6628 42.0398 15.3846 42.0398 16.1935Z" fill="#667085"/>
<path d="M65.4618 12.6841V22.7268H62.6992V21.5321C62.3134 21.9677 61.853 22.3037 61.3179 22.5401C60.7827 22.7641 60.2041 22.8761 59.5819 22.8761C58.2627 22.8761 57.2174 22.4966 56.4458 21.7375C55.6743 20.9784 55.2885 19.8521 55.2885 18.3588V12.6841H58.2005V17.9295C58.2005 19.5472 58.8787 20.3561 60.2352 20.3561C60.9321 20.3561 61.4921 20.1321 61.9152 19.6841C62.3383 19.2237 62.5498 18.5455 62.5498 17.6495V12.6841H65.4618Z" fill="#667085"/>
<path d="M72.9383 22.8761C71.8805 22.8761 70.9285 22.6584 70.0823 22.2228C69.2485 21.7748 68.5952 21.1588 68.1223 20.3748C67.6494 19.5908 67.413 18.701 67.413 17.7055C67.413 16.7099 67.6494 15.8201 68.1223 15.0361C68.5952 14.2521 69.2485 13.6424 70.0823 13.2068C70.9285 12.7588 71.8805 12.5348 72.9383 12.5348C73.9961 12.5348 74.9418 12.7588 75.7756 13.2068C76.6094 13.6424 77.2627 14.2521 77.7356 15.0361C78.2085 15.8201 78.445 16.7099 78.445 17.7055C78.445 18.701 78.2085 19.5908 77.7356 20.3748C77.2627 21.1588 76.6094 21.7748 75.7756 22.2228C74.9418 22.6584 73.9961 22.8761 72.9383 22.8761ZM72.9383 20.4868C73.685 20.4868 74.2947 20.2379 74.7676 19.7401C75.253 19.2299 75.4956 18.5517 75.4956 17.7055C75.4956 16.8592 75.253 16.1872 74.7676 15.6895C74.2947 15.1792 73.685 14.9241 72.9383 14.9241C72.1916 14.9241 71.5756 15.1792 71.0903 15.6895C70.605 16.1872 70.3623 16.8592 70.3623 17.7055C70.3623 18.5517 70.605 19.2299 71.0903 19.7401C71.5756 20.2379 72.1916 20.4868 72.9383 20.4868Z" fill="#667085"/>
<path d="M86.8687 22.2415C86.5825 22.453 86.2278 22.6148 85.8047 22.7268C85.3941 22.8264 84.9585 22.8761 84.4981 22.8761C83.3034 22.8761 82.3763 22.5712 81.7167 21.9615C81.0696 21.3517 80.7461 20.4557 80.7461 19.2735V15.1481H79.1967V12.9081H80.7461V10.4628H83.6581V12.9081H86.1594V15.1481H83.6581V19.2361C83.6581 19.6592 83.7638 19.989 83.9754 20.2255C84.1994 20.4495 84.5105 20.5615 84.9087 20.5615C85.3692 20.5615 85.7612 20.437 86.0847 20.1881L86.8687 22.2415Z" fill="#667085"/>
<path d="M88.5034 12.6841H91.4154V22.7268H88.5034V12.6841ZM89.9594 11.2841C89.4243 11.2841 88.9887 11.1286 88.6527 10.8175C88.3167 10.5064 88.1487 10.1206 88.1487 9.66013C88.1487 9.19969 88.3167 8.81391 88.6527 8.5028C88.9887 8.19169 89.4243 8.03613 89.9594 8.03613C90.4945 8.03613 90.93 8.18547 91.266 8.48413C91.602 8.7828 91.77 9.15613 91.77 9.60413C91.77 10.0895 91.602 10.4939 91.266 10.8175C90.93 11.1286 90.4945 11.2841 89.9594 11.2841Z" fill="#667085"/>
<path d="M103.955 17.7428C103.955 17.7801 103.937 18.0415 103.899 18.5268H96.3019C96.4388 19.149 96.7624 19.6406 97.2726 20.0015C97.7828 20.3624 98.4175 20.5428 99.1766 20.5428C99.6993 20.5428 100.16 20.4681 100.558 20.3188C100.969 20.157 101.348 19.9081 101.697 19.5721L103.246 21.2521C102.3 22.3348 100.919 22.8761 99.1019 22.8761C97.9695 22.8761 96.9677 22.6584 96.0966 22.2228C95.2255 21.7748 94.5535 21.1588 94.0806 20.3748C93.6077 19.5908 93.3713 18.701 93.3713 17.7055C93.3713 16.7224 93.6015 15.8388 94.0619 15.0548C94.5348 14.2584 95.1757 13.6424 95.9846 13.2068C96.806 12.7588 97.7206 12.5348 98.7286 12.5348C99.7117 12.5348 100.602 12.7464 101.398 13.1695C102.194 13.5926 102.817 14.2024 103.265 14.9988C103.725 15.7828 103.955 16.6975 103.955 17.7428ZM98.7473 14.7375C98.0877 14.7375 97.534 14.9241 97.0859 15.2975C96.638 15.6708 96.3642 16.181 96.2646 16.8281H101.211C101.112 16.1935 100.838 15.6895 100.39 15.3161C99.9419 14.9304 99.3944 14.7375 98.7473 14.7375Z" fill="#667085"/>
<path d="M111.998 12.5348C113.242 12.5348 114.244 12.9081 115.003 13.6548C115.775 14.4015 116.161 15.509 116.161 16.9775V22.7268H113.249V17.4255C113.249 16.629 113.074 16.0379 112.726 15.6521C112.378 15.2539 111.874 15.0548 111.214 15.0548C110.48 15.0548 109.895 15.285 109.459 15.7455C109.024 16.1935 108.806 16.8655 108.806 17.7615V22.7268H105.894V12.6841H108.675V13.8601C109.061 13.437 109.54 13.1135 110.113 12.8895C110.685 12.653 111.314 12.5348 111.998 12.5348Z" fill="#667085"/>
<path d="M125.278 22.2415C124.991 22.453 124.637 22.6148 124.214 22.7268C123.803 22.8264 123.367 22.8761 122.907 22.8761C121.712 22.8761 120.785 22.5712 120.126 21.9615C119.478 21.3517 119.155 20.4557 119.155 19.2735V15.1481H117.606V12.9081H119.155V10.4628H122.067V12.9081H124.568V15.1481H122.067V19.2361C122.067 19.6592 122.173 19.989 122.384 20.2255C122.608 20.4495 122.919 20.5615 123.318 20.5615C123.778 20.5615 124.17 20.437 124.494 20.1881L125.278 22.2415Z" fill="#667085"/>
</svg>
