<svg width="86" height="60" viewBox="0 0 86 60" fill="none" xmlns="http://www.w3.org/2000/svg">
<g clip-path="url(#clip0_3211_38)">
<mask id="mask0_3211_38" style="mask-type:luminance" maskUnits="userSpaceOnUse" x="0" y="0" width="86" height="60">
<path d="M86 0.880859H0V59.6676H86V0.880859Z" fill="white"/>
</mask>
<g mask="url(#mask0_3211_38)">
<path d="M8.77902 33.3561C8.50894 33.2868 7.98031 33.25 7.21391 33.25H4.07446V37.3634H7.24854C8.31271 37.3634 9.06989 37.1764 9.49924 36.8091C9.9217 36.4442 10.1271 35.9384 10.1271 35.2639C10.1271 34.7813 10.0025 34.3632 9.75548 34.026C9.50617 33.6842 9.18761 33.4647 8.77902 33.3561Z" fill="black"/>
<path d="M22.5972 36.0206C22.8074 35.7041 22.9089 35.3715 22.9089 35.0019C22.9089 34.4616 22.7126 34.0296 22.3111 33.6832C21.9024 33.3322 21.2329 33.1543 20.3165 33.1543H16.3784V36.926H19.894C20.6628 36.926 21.2652 36.8497 21.6877 36.6995C22.0917 36.5564 22.3895 36.3324 22.5972 36.0206Z" fill="black"/>
<path d="M0.0671387 29.4785V46.3414H57.563V29.4785H0.0671387ZM11.2537 38.1329C10.4989 38.9321 9.14385 39.3362 7.22325 39.3362H4.07455V44.5399H1.86771V31.2802H7.06859C7.9527 31.2802 8.64061 31.3217 9.11384 31.4048C9.7879 31.5133 10.365 31.7282 10.829 32.0376C11.2976 32.3541 11.6785 32.7975 11.9624 33.3611C12.2441 33.9224 12.3872 34.5436 12.3872 35.2112C12.3872 36.3567 12.0063 37.3383 11.2537 38.1329ZM23.6984 44.5399L21.8864 41.7729C21.383 41.0154 20.9652 40.4288 20.6421 40.0269C20.3282 39.6435 20.0511 39.3709 19.8134 39.2231C19.5757 39.0752 19.3309 38.969 19.0863 38.9113C18.9108 38.8743 18.6014 38.8558 18.1698 38.8558H16.3785V44.5399H14.1716V31.2802H20.245C21.4593 31.2802 22.3618 31.3956 23.0059 31.6381C23.6616 31.8852 24.1925 32.3264 24.5849 32.9499C24.9704 33.5667 25.1666 34.2572 25.1666 35.0033C25.1666 35.9688 24.8411 36.7956 24.1947 37.4585C23.6708 37.999 22.9113 38.38 21.9326 38.5972C22.1288 38.7127 22.2926 38.8304 22.4289 38.9483C22.9528 39.4171 23.4514 40.0037 23.9154 40.6967L26.4432 44.5399H23.6984ZM29.9405 44.5399H27.7359V31.2802H29.9405V44.5399ZM43.3777 44.5399H41.2355L34.6681 34.9941V44.5399H32.5351V31.2802H34.675L41.2424 40.8167V31.2802H43.3777V44.5399ZM51.4018 33.2502V44.5399H49.1973V33.2502H44.8574V31.2802H55.7624V33.2502H51.4018Z" fill="black"/>
<path d="M12.5671 23.4587C12.5671 24.2531 12.3293 25.0107 11.863 25.7106C11.399 26.4081 10.725 26.9578 9.85933 27.3412C9.00984 27.72 8.04029 27.9117 6.98303 27.9117C5.65569 27.9117 4.52226 27.72 3.61275 27.3389C2.68938 26.9531 1.953 26.3595 1.42436 25.5789C1.1612 25.1886 0.95806 24.7705 0.819555 24.3271C0.681049 23.8836 0.602562 23.4148 0.588712 22.9251L0.581787 22.6525L2.91791 22.4539L2.95022 22.731C3.03102 23.3754 3.21108 23.909 3.49271 24.3131C3.76972 24.7105 4.21293 25.0408 4.8085 25.2925C5.42254 25.5535 6.12431 25.6828 6.89532 25.6828C7.57861 25.6828 8.19034 25.5836 8.70742 25.3895C9.20604 25.2002 9.57771 24.9461 9.81316 24.6273C10.0486 24.3131 10.1617 23.9783 10.1617 23.6087C10.1617 23.2392 10.0555 22.9228 9.83393 22.6456C9.61002 22.3638 9.21759 22.1191 8.6705 21.9158C8.29883 21.7749 7.45396 21.5507 6.15431 21.2482C4.80388 20.9317 3.87821 20.6408 3.32419 20.3544C2.59935 19.9871 2.04763 19.5161 1.68521 18.9593C1.32048 18.4005 1.13581 17.763 1.13581 17.07C1.13581 16.3124 1.35972 15.5965 1.80063 14.9405C2.24155 14.2846 2.8902 13.781 3.73048 13.4438C4.54766 13.1159 5.46871 12.9473 6.46595 12.9473C7.56015 12.9473 8.54123 13.1228 9.3838 13.4692C10.2448 13.8203 10.9166 14.3492 11.3829 15.0398C11.8492 15.7281 12.1008 16.5157 12.1354 17.3818L12.147 17.6613L9.77391 17.8345L9.7439 17.5573C9.65388 16.7513 9.36532 16.1624 8.85979 15.7604C8.35194 15.3539 7.57168 15.1484 6.54443 15.1484C5.51719 15.1484 4.68386 15.3332 4.21525 15.7004C3.76049 16.0538 3.53887 16.4626 3.53887 16.9476C3.53887 17.3634 3.68892 17.6959 3.99825 17.9638C4.22216 18.1625 4.87776 18.4859 6.72681 18.89C8.30115 19.2366 9.35609 19.5321 9.95167 19.7954C10.8312 20.1904 11.4937 20.7008 11.9184 21.3153C12.3478 21.9343 12.5671 22.6549 12.5671 23.4587Z" fill="black"/>
<path d="M25.8823 25.4569V27.6765H14.6172V13.1855H25.5499V15.4051H17.0894V19.0891H25.012V21.2994H17.0894V25.4569H25.8823Z" fill="black"/>
<path d="M42.1082 13.1855V27.6765H39.7051V17.4076L36.0346 27.6765H33.9179L30.2683 17.2436V27.6765H27.8652V13.1855H31.2125L34.6681 23.2303C34.8273 23.6991 34.9659 24.1103 35.0837 24.4614C35.2175 24.0618 35.3814 23.5952 35.5684 23.0594L39.0657 13.1855H42.1082Z" fill="black"/>
<path d="M51.0393 13.1855H48.6086L42.8813 27.6765H45.5176L47.0896 23.4613H52.6829L54.3542 27.6765H57.1428L51.0393 13.1855ZM47.8584 21.385L49.2804 17.6963C49.4904 17.1397 49.6704 16.5762 49.8228 16.0127C50.0166 16.5738 50.2521 17.2137 50.5292 17.925L51.8703 21.385H47.8584Z" fill="black"/>
<path d="M86.0651 8.72285L85.5642 10.0694C83.8443 14.7072 82.1224 19.3451 80.4003 23.9829L79.8901 25.3618L78.5027 24.879C76.6629 24.2393 75.6103 23.9298 74.4975 23.6018C73.8467 23.4101 73.1818 23.2137 72.3507 22.9505V40.2338L71.3467 40.5848C64.5367 42.9731 58.087 46.2713 52.1729 50.3872C48.2163 53.1426 44.5135 56.2583 41.1225 59.6836L38.8486 57.7112C42.4083 54.1011 46.298 50.8214 50.4577 47.9228C51.2356 47.3823 52.0206 46.8556 52.817 46.3407C54.3681 45.3405 55.9495 44.3912 57.5631 43.495C61.3419 41.3979 65.2823 39.5963 69.3499 38.1113V18.7562L71.342 19.4467C73.1794 20.0842 74.2322 20.3936 75.3448 20.7217C76.1458 20.9573 76.9676 21.1998 78.0941 21.5716C79.4815 17.8392 80.8665 14.1044 82.2515 10.372L68.1564 4.41993C65.6495 6.70189 62.3461 7.99299 58.9389 7.99299C55.5315 7.99299 52.2398 6.70651 49.7351 4.43378L35.6746 10.372L36.7202 13.1875L33.9063 14.2314L31.8611 8.72285L50.4485 0.874566L51.164 1.63214C53.2025 3.79862 55.9633 4.99042 58.9389 4.99042C61.9143 4.99042 64.6845 3.79399 66.7252 1.62059L67.4407 0.858398L86.0651 8.72285Z" fill="black"/>
</g>
</g>
<defs>
<clipPath id="clip0_3211_38">
<rect width="86" height="58.7867" fill="white" transform="translate(0 0.880859)"/>
</clipPath>
</defs>
</svg>
