<svg width="142" height="41" viewBox="0 0 142 41" fill="none" xmlns="http://www.w3.org/2000/svg">
<rect x="0.75" y="16.0601" width="7.99999" height="7.99999" fill="#4D576B"/>
<rect x="24.75" y="24.0601" width="8" height="7.99999" transform="rotate(180 24.75 24.0601)" fill="#4D576B"/>
<path d="M8.75 16.06L16.75 8.06006V16.06L8.75 24.06V16.06Z" fill="#667085"/>
<path d="M16.75 24.0601L8.75001 32.0601L8.75001 24.0601L16.75 16.0601L16.75 24.0601Z" fill="#667085"/>
<path d="M0.75 16.06L16.75 0.0600586V8.06005L8.74999 16.06H0.75Z" fill="#667085"/>
<path d="M24.75 24.0601L8.75002 40.0601L8.75002 32.0601L16.75 24.0601L24.75 24.0601Z" fill="#667085"/>
<path d="M42.1734 28.6268C40.9134 28.6268 39.6923 28.4479 38.5101 28.0901C37.3434 27.7324 36.4178 27.2579 35.7334 26.6668L36.7834 24.3101C37.4523 24.839 38.269 25.2746 39.2334 25.6168C40.2134 25.9435 41.1934 26.1068 42.1734 26.1068C43.3867 26.1068 44.2889 25.9124 44.8801 25.5235C45.4867 25.1346 45.7901 24.6212 45.7901 23.9835C45.7901 23.5168 45.619 23.1357 45.2767 22.8401C44.9501 22.529 44.5301 22.2879 44.0167 22.1168C43.5034 21.9457 42.8034 21.7512 41.9167 21.5335C40.6723 21.2379 39.6612 20.9423 38.8834 20.6468C38.1212 20.3512 37.4601 19.8923 36.9001 19.2701C36.3556 18.6323 36.0834 17.7768 36.0834 16.7035C36.0834 15.8012 36.3245 14.9846 36.8067 14.2535C37.3045 13.5068 38.0434 12.9157 39.0234 12.4801C40.019 12.0446 41.2323 11.8268 42.6634 11.8268C43.659 11.8268 44.639 11.9512 45.6034 12.2001C46.5678 12.449 47.4001 12.8068 48.1001 13.2735L47.1434 15.6301C46.4278 15.2101 45.6812 14.8912 44.9034 14.6735C44.1256 14.4557 43.3712 14.3468 42.6401 14.3468C41.4423 14.3468 40.5478 14.549 39.9567 14.9535C39.3812 15.3579 39.0934 15.8946 39.0934 16.5635C39.0934 17.0301 39.2567 17.4112 39.5834 17.7068C39.9256 18.0023 40.3534 18.2357 40.8667 18.4068C41.3801 18.5779 42.0801 18.7723 42.9667 18.9901C44.1801 19.2701 45.1756 19.5657 45.9534 19.8768C46.7312 20.1723 47.3923 20.6312 47.9367 21.2535C48.4967 21.8757 48.7767 22.7157 48.7767 23.7735C48.7767 24.6757 48.5278 25.4924 48.0301 26.2235C47.5478 26.9546 46.8089 27.5379 45.8134 27.9735C44.8178 28.409 43.6045 28.6268 42.1734 28.6268Z" fill="#667085"/>
<path d="M51.5045 15.9335H54.4212V28.3935H51.5045V15.9335ZM52.9745 13.8801C52.4456 13.8801 52.0023 13.7168 51.6445 13.3901C51.2868 13.0479 51.1079 12.6279 51.1079 12.1301C51.1079 11.6323 51.2868 11.2201 51.6445 10.8935C52.0023 10.5512 52.4456 10.3801 52.9745 10.3801C53.5034 10.3801 53.9468 10.5435 54.3045 10.8701C54.6623 11.1812 54.8412 11.5779 54.8412 12.0601C54.8412 12.5735 54.6623 13.009 54.3045 13.3668C53.9623 13.709 53.519 13.8801 52.9745 13.8801Z" fill="#667085"/>
<path d="M62.0993 28.5568C61.0882 28.5568 60.1004 28.4246 59.136 28.1601C58.1715 27.8957 57.4015 27.5612 56.826 27.1568L57.946 24.9401C58.506 25.3135 59.1749 25.6168 59.9527 25.8501C60.746 26.0679 61.5238 26.1768 62.286 26.1768C64.0282 26.1768 64.8993 25.7179 64.8993 24.8001C64.8993 24.3646 64.6738 24.0612 64.2227 23.8901C63.7871 23.719 63.0793 23.5557 62.0993 23.4001C61.0727 23.2446 60.2327 23.0657 59.5793 22.8635C58.9415 22.6612 58.3815 22.3112 57.8993 21.8135C57.4327 21.3001 57.1993 20.5924 57.1993 19.6901C57.1993 18.5079 57.6893 17.5668 58.6693 16.8668C59.6649 16.1512 61.0027 15.7935 62.6827 15.7935C63.5382 15.7935 64.3938 15.8946 65.2493 16.0968C66.1049 16.2835 66.8049 16.5401 67.3493 16.8668L66.2293 19.0835C65.1715 18.4612 63.9815 18.1501 62.6593 18.1501C61.8038 18.1501 61.1504 18.2823 60.6993 18.5468C60.2638 18.7957 60.046 19.1301 60.046 19.5501C60.046 20.0168 60.2793 20.3512 60.746 20.5535C61.2282 20.7401 61.9671 20.919 62.9627 21.0901C63.9582 21.2457 64.7749 21.4246 65.4127 21.6268C66.0504 21.829 66.5949 22.1712 67.046 22.6535C67.5127 23.1357 67.746 23.8201 67.746 24.7068C67.746 25.8735 67.2404 26.8068 66.2293 27.5068C65.2182 28.2068 63.8415 28.5568 62.0993 28.5568Z" fill="#667085"/>
<path d="M81.6966 15.9335L75.8633 29.3968C75.3188 30.7501 74.6577 31.699 73.8799 32.2435C73.1021 32.8035 72.161 33.0835 71.0566 33.0835C70.4344 33.0835 69.8199 32.9824 69.2133 32.7801C68.6066 32.5779 68.1088 32.2979 67.7199 31.9401L68.8866 29.7935C69.1666 30.0579 69.4933 30.2679 69.8666 30.4235C70.2555 30.579 70.6444 30.6568 71.0333 30.6568C71.5466 30.6568 71.9666 30.5246 72.2933 30.2601C72.6355 29.9957 72.9466 29.5524 73.2266 28.9301L73.4366 28.4401L67.9999 15.9335H71.0333L74.9533 25.1501L78.8966 15.9335H81.6966Z" fill="#667085"/>
<path d="M90.4262 15.7935C91.6395 15.7935 92.7206 16.0579 93.6695 16.5868C94.6339 17.1157 95.3884 17.8623 95.9328 18.8268C96.4773 19.7912 96.7495 20.9035 96.7495 22.1635C96.7495 23.4235 96.4773 24.5435 95.9328 25.5235C95.3884 26.4879 94.6339 27.2346 93.6695 27.7635C92.7206 28.2924 91.6395 28.5568 90.4262 28.5568C88.7462 28.5568 87.4162 27.9968 86.4362 26.8768V32.9201H83.5195V15.9335H86.2962V17.5668C86.7784 16.9757 87.3695 16.5323 88.0695 16.2368C88.785 15.9412 89.5706 15.7935 90.4262 15.7935ZM90.0995 26.0601C91.1728 26.0601 92.0517 25.7023 92.7362 24.9868C93.4362 24.2712 93.7862 23.3301 93.7862 22.1635C93.7862 20.9968 93.4362 20.0557 92.7362 19.3401C92.0517 18.6246 91.1728 18.2668 90.0995 18.2668C89.3995 18.2668 88.7695 18.4301 88.2095 18.7568C87.6495 19.0679 87.2062 19.519 86.8795 20.1101C86.5528 20.7012 86.3895 21.3857 86.3895 22.1635C86.3895 22.9412 86.5528 23.6257 86.8795 24.2168C87.2062 24.8079 87.6495 25.2668 88.2095 25.5935C88.7695 25.9046 89.3995 26.0601 90.0995 26.0601Z" fill="#667085"/>
<path d="M106.586 15.7935C108.157 15.7935 109.417 16.2523 110.366 17.1701C111.314 18.0879 111.789 19.449 111.789 21.2535V28.3935H108.872V21.6268C108.872 20.5379 108.616 19.7212 108.102 19.1768C107.589 18.6168 106.858 18.3368 105.909 18.3368C104.836 18.3368 103.988 18.6635 103.366 19.3168C102.743 19.9546 102.432 20.8801 102.432 22.0935V28.3935H99.5156V11.0801H102.432V17.3801C102.914 16.8668 103.506 16.4779 104.206 16.2135C104.921 15.9335 105.714 15.7935 106.586 15.7935Z" fill="#667085"/>
<path d="M127.552 15.9335V28.3935H124.776V26.8068C124.309 27.3668 123.726 27.8024 123.026 28.1135C122.326 28.409 121.571 28.5568 120.762 28.5568C119.098 28.5568 117.783 28.0979 116.819 27.1801C115.87 26.2468 115.396 24.8701 115.396 23.0501V15.9335H118.312V22.6535C118.312 23.7735 118.561 24.6135 119.059 25.1735C119.572 25.7179 120.296 25.9901 121.229 25.9901C122.271 25.9901 123.096 25.6712 123.702 25.0335C124.324 24.3801 124.636 23.4468 124.636 22.2335V15.9335H127.552Z" fill="#667085"/>
<path d="M135.221 28.5568C134.21 28.5568 133.222 28.4246 132.258 28.1601C131.293 27.8957 130.523 27.5612 129.948 27.1568L131.068 24.9401C131.628 25.3135 132.297 25.6168 133.074 25.8501C133.868 26.0679 134.645 26.1768 135.408 26.1768C137.15 26.1768 138.021 25.7179 138.021 24.8001C138.021 24.3646 137.795 24.0612 137.344 23.8901C136.909 23.719 136.201 23.5557 135.221 23.4001C134.194 23.2446 133.354 23.0657 132.701 22.8635C132.063 22.6612 131.503 22.3112 131.021 21.8135C130.554 21.3001 130.321 20.5924 130.321 19.6901C130.321 18.5079 130.811 17.5668 131.791 16.8668C132.787 16.1512 134.124 15.7935 135.804 15.7935C136.66 15.7935 137.515 15.8946 138.371 16.0968C139.227 16.2835 139.927 16.5401 140.471 16.8668L139.351 19.0835C138.293 18.4612 137.103 18.1501 135.781 18.1501C134.925 18.1501 134.272 18.2823 133.821 18.5468C133.385 18.7957 133.168 19.1301 133.168 19.5501C133.168 20.0168 133.401 20.3512 133.868 20.5535C134.35 20.7401 135.089 20.919 136.084 21.0901C137.08 21.2457 137.897 21.4246 138.534 21.6268C139.172 21.829 139.717 22.1712 140.168 22.6535C140.634 23.1357 140.868 23.8201 140.868 24.7068C140.868 25.8735 140.362 26.8068 139.351 27.5068C138.34 28.2068 136.963 28.5568 135.221 28.5568Z" fill="#667085"/>
</svg>
