<svg width="287" height="64" viewBox="0 0 287 64" fill="none" xmlns="http://www.w3.org/2000/svg">
    <path d="M40 22.2735L41.6966 14.0737C41.9908 12.6555 43.3933 11.7415 44.7958 12.0356C46.2141 12.3298 47.1281 13.7165 46.834 15.1348L45.3579 22.2735H63.8218L63.8586 22.0949C65.2716 15.2189 60.8434 8.50043 53.9674 7.08215L33.7858 2.93237L29.7831 22.2735H40.0052H40Z" fill="#00A287"></path>
    <path d="M25.7594 41.6989L24.1047 49.699C23.8473 50.9387 22.7547 51.7896 21.5413 51.7896C21.3627 51.7896 21.1841 51.7739 21.0055 51.7371C19.5872 51.443 18.6732 50.0562 18.9674 48.6379L20.4014 41.7041H1.2179L1.18639 41.8669C-0.22664 48.743 4.20154 55.4614 11.0776 56.8797L31.9525 61.1713L35.9815 41.7041H25.7594V41.6989Z" fill="#00A287"></path>
    <path d="M26.8468 36.4513H37.0689L38.9179 27.5214H28.6958L26.8468 36.4513Z" fill="#00A287"></path>
    <path d="M23.3378 27.5211H15.3009C13.8511 27.5211 12.6797 26.3497 12.6797 24.8999C12.6797 23.4501 13.8564 22.2787 15.3009 22.2787H24.4252L28.6485 1.87653L22.6392 0.642105C15.7632 -0.770921 9.03946 3.65726 7.62643 10.5333L2.3 36.451H21.4888L23.3378 27.5159V27.5211Z" fill="#00A287"></path>
    <path d="M42.4215 36.4511H49.9279C51.3777 36.4511 52.5491 37.6225 52.5491 39.0723C52.5491 40.5221 51.3724 41.6935 49.9279 41.6935H41.3342L37.0846 62.2166L42.4005 63.3092C49.2765 64.7222 55.995 60.294 57.4133 53.418L62.7397 27.516H44.2705L42.4215 36.4511Z" fill="#00A287"></path>
    <path d="M81.479 40.1518V26.079H78.3505V22.5621H81.479V14.4103H85.61V22.5621H89.909V26.079H85.61V39.4799C85.61 44.393 86.4499 45.4534 88.4603 45.4534C89.1846 45.4534 89.8565 45.3431 90.2502 45.1751L90.6964 48.8023C89.6938 49.0805 88.6335 49.2484 87.5732 49.2484C83.4421 49.2484 81.4895 46.7341 81.4895 40.1465L81.479 40.1518Z" fill="currentColor"></path>
    <path d="M93.6569 40.2615C93.6569 34.2305 98.7378 30.8239 104.601 30.8239C107.614 30.8239 110.238 31.606 112.527 33.2227V31.606C112.527 27.5328 110.18 25.407 105.714 25.407C103.031 25.407 100.244 26.2469 97.8402 27.6431L96.3338 24.4045C99.1787 22.7301 102.863 21.7223 106.107 21.7223C112.752 21.7223 116.379 24.8506 116.379 31.0444V48.8015H112.915L112.637 46.7911C110.18 48.5233 107.33 49.5258 104.092 49.5258C97.4466 49.5258 93.6516 45.7308 93.6516 40.2562L93.6569 40.2615ZM104.879 46.1823C107.892 46.1823 110.348 45.122 112.469 43.5053V37.1961C110.348 35.0755 107.724 34.1832 104.879 34.1832C100.302 34.1832 97.6198 36.582 97.6198 40.104C97.6198 43.626 100.297 46.1875 104.879 46.1875V46.1823Z" fill="currentColor"></path>
    <path d="M123.304 58.6862L125.036 55.2218C128.107 57.0642 131.345 57.9566 134.19 57.9566C139.271 57.9566 142.232 55.1641 142.232 50.1984C142.232 48.9702 142.29 47.5739 142.342 46.5136C139.665 48.7444 136.873 49.642 133.686 49.642C125.981 49.642 120.957 43.9468 120.957 35.6847C120.957 27.4227 126.374 21.7274 134.416 21.7274C138.825 21.7274 142.736 22.9557 146.305 25.47V50.0357C146.305 57.4632 141.56 61.6519 134.243 61.6519C130.39 61.6519 126.479 60.4236 123.298 58.6915L123.304 58.6862ZM134.3 45.9572C137.203 45.9572 139.828 45.0648 142.174 42.7185V27.6431C139.886 26.0789 137.371 25.407 134.468 25.407C128.773 25.407 125.146 29.6483 125.146 35.627C125.146 41.6057 128.715 45.9572 134.3 45.9572V45.9572Z" fill="currentColor"></path>
    <path d="M149.707 23.1236V22.5673H154.005L158.582 33.8472C159.979 37.364 161.317 40.9962 162.157 43.1693C162.939 41.0487 164.278 37.364 165.674 33.8472L170.251 22.5673H174.382V23.1236L163.438 48.8066H160.645L149.701 23.1236H149.707Z" fill="#00A287"></path>
    <path d="M175.333 35.7946C175.333 27.7533 180.749 21.7223 188.733 21.7223C195.824 21.7223 201.126 26.6353 201.126 34.3407C201.126 35.1228 201.068 35.7946 201.016 36.0151H179.411V36.1253C179.411 42.2666 183.321 46.009 188.849 46.009C192.754 46.009 195.604 44.6706 197.557 41.5999L200.517 43.668C198.228 47.631 193.987 49.6413 188.738 49.6413C180.807 49.6413 175.338 44.3924 175.338 35.7946H175.333ZM179.631 32.6663H196.995C196.549 28.1417 193.2 25.1288 188.623 25.1288C184.046 25.1288 180.471 28.1417 179.631 32.6663Z" fill="#00A287"></path>
    <path d="M206.145 22.5621H209.94L210.16 25.9109C212.223 23.1762 215.241 21.7223 218.758 21.7223C224.064 21.7223 227.634 25.0186 227.634 30.8239V48.8015H223.503V31.4958C223.503 27.5328 221.214 25.4123 217.808 25.4123C213.677 25.4123 210.27 28.5931 210.27 33.3434V48.8067H206.139V22.5621H206.145Z" fill="#00A287"></path>
    <path d="M233.723 40.5396V22.562H237.854V39.8677C237.854 43.8306 240.143 45.9512 243.549 45.9512C247.628 45.9512 251.087 42.7703 251.087 38.0201V22.5568H255.218V48.7961H251.365L251.197 45.5575C249.076 48.2345 246.116 49.6307 242.599 49.6307C237.293 49.6307 233.723 46.3344 233.723 40.5291V40.5396Z" fill="#00A287"></path>
    <path d="M260.184 35.7946C260.184 27.7533 265.601 21.7223 273.585 21.7223C280.676 21.7223 285.977 26.6353 285.977 34.3407C285.977 35.1228 285.925 35.7946 285.867 36.0151H264.257V36.1253C264.257 42.2666 268.168 46.009 273.695 46.009C277.605 46.009 280.45 44.6706 282.403 41.5999L285.363 43.668C283.075 47.631 278.828 49.6413 273.579 49.6413C265.653 49.6413 260.179 44.3924 260.179 35.7946H260.184ZM264.483 32.6663H281.846C281.4 28.1417 278.051 25.1288 273.469 25.1288C268.887 25.1288 265.317 28.1417 264.483 32.6663Z" fill="#00A287"></path>
</svg>