<?xml version="1.0" encoding="UTF-8"?> <svg xmlns="http://www.w3.org/2000/svg" width="150" height="40" viewBox="0 0 150 40" fill="none"><path fill-rule="evenodd" clip-rule="evenodd" d="M40 20C40 31.0457 31.0457 40 20 40C8.95434 40 0 31.0457 0 20C0 8.95434 8.95434 0 20 0C31.0457 0 40 8.95434 40 20ZM9.16797 4.63082H12.2999V12.5215C12.2999 13.6819 12.3601 14.2464 12.7587 14.8005C13.1573 15.3551 13.8312 15.6322 14.7803 15.6322C15.7294 15.6322 16.4031 15.3615 16.8017 14.8199C17.2003 14.2783 17.5389 13.708 17.5389 12.5215V4.63082H20.6706V13.0437C20.6706 13.3017 20.6613 13.5498 20.6423 13.7884C20.6233 14.027 20.5726 14.3429 20.4904 14.7361C20.408 15.1294 20.294 15.4839 20.1488 15.7997C20.0031 16.1159 19.7882 16.4543 19.5033 16.8151C19.2187 17.1763 18.8801 17.4759 18.4878 17.7145C18.0954 17.953 17.5924 18.1528 16.9789 18.3138C16.3649 18.4749 15.6787 18.5557 14.9193 18.5557C13.8565 18.5557 12.9421 18.4039 12.1765 18.1011C11.4108 17.7983 10.8413 17.4502 10.4682 17.0567C10.0948 16.6637 9.80049 16.1769 9.58554 15.5967C9.37019 15.0165 9.24696 14.5522 9.21544 14.2041C9.18373 13.8561 9.16797 13.4692 9.16797 13.0437V4.63082ZM12.2999 22.8027H9.16797V31.2156C9.16797 31.6411 9.18373 32.0279 9.21544 32.376C9.24696 32.7241 9.37019 33.1883 9.58554 33.7685C9.80049 34.3488 10.0948 34.8356 10.4682 35.2285C10.8413 35.6221 11.4108 35.9704 12.1765 36.273C12.9421 36.5758 13.8565 36.7275 14.9193 36.7275C15.6787 36.7275 16.3649 36.6467 16.9789 36.4857C17.5924 36.3247 18.0954 36.1249 18.4878 35.8863C18.8801 35.6477 19.2187 35.3481 19.5033 34.9869C19.7882 34.6261 20.0031 34.2877 20.1488 33.9716C20.294 33.6558 20.408 33.3013 20.4904 32.9079C20.5726 32.5148 20.6233 32.1989 20.6423 31.9603C20.6613 31.7217 20.6706 31.4736 20.6706 31.2156V22.8027H17.5389V30.6934C17.5389 31.8799 17.2003 32.4502 16.8017 32.9918C16.4031 33.5334 15.7294 33.8041 14.7803 33.8041C13.8312 33.8041 13.1573 33.5269 12.7587 32.9724C12.3601 32.4182 12.2999 31.8538 12.2999 30.6934V22.8027Z" fill="#3258B3"></path><path d="M52.7048 16.2841C51.67 16.2841 50.8032 16.0787 50.1044 15.668C49.4109 15.2519 48.8855 14.6865 48.5281 13.9717C48.176 13.2516 48 12.4328 48 11.5153V4.8421H50.3684V11.5793C50.3684 12.4114 50.5738 13.0329 50.9845 13.4436C51.4006 13.8544 51.974 14.0597 52.7048 14.0597C53.4303 14.0597 53.9984 13.8544 54.4091 13.4436C54.8252 13.0329 55.0332 12.4114 55.0332 11.5793V4.8421H57.4097V11.5153C57.4097 12.4274 57.231 13.2436 56.8736 13.9637C56.5215 14.6838 55.9961 15.2519 55.2973 15.668C54.5985 16.0787 53.7343 16.2841 52.7048 16.2841Z" fill="#3258B3"></path><path d="M59.8497 16.0441V4.52205H62.1861V10.8432L64.8586 7.96265H67.5791L64.7466 11.1712L67.8911 16.0441H65.1146L63.0503 12.6995L62.1861 13.5956V16.0441H59.8497Z" fill="#3258B3"></path><path d="M69.2576 16.0441V7.96265H71.594V8.96283C71.8554 8.51475 72.1915 8.19469 72.6022 8.00266C73.013 7.81063 73.461 7.71461 73.9464 7.71461C74.1171 7.71461 74.2745 7.72528 74.4185 7.74661C74.5626 7.76262 74.7039 7.78395 74.8426 7.81063L74.5546 10.219C74.3839 10.155 74.2025 10.107 74.0105 10.075C73.8184 10.0377 73.6291 10.019 73.4424 10.019C72.9036 10.019 72.4609 10.1764 72.1141 10.4911C71.7674 10.8058 71.594 11.2539 71.594 11.8353V16.0441H69.2576Z" fill="#3258B3"></path><path d="M79.393 16.2841C78.6196 16.2841 77.9288 16.1054 77.3207 15.748C76.7126 15.3853 76.2325 14.8812 75.8804 14.2358C75.5337 13.5903 75.3603 12.8462 75.3603 12.0034C75.3603 11.3686 75.459 10.7898 75.6564 10.2671C75.8591 9.7443 76.1418 9.29355 76.5045 8.91482C76.8673 8.53075 77.294 8.23737 77.7847 8.03466C78.2808 7.82663 78.8169 7.72261 79.393 7.72261C80.1612 7.72261 80.8093 7.88797 81.3374 8.2187C81.8708 8.54942 82.2602 8.9815 82.5056 9.51493L82.1775 10.019V7.96265H84.2099V16.0441H82.1775V13.9877L82.5056 14.4918C82.2602 15.0252 81.8708 15.4573 81.3374 15.788C80.8093 16.1188 80.1612 16.2841 79.393 16.2841ZM79.7691 14.2598C80.1745 14.2598 80.5372 14.1691 80.8573 13.9877C81.1773 13.801 81.4281 13.5396 81.6094 13.2036C81.7961 12.8675 81.8895 12.4674 81.8895 12.0034C81.8895 11.5393 81.7961 11.1392 81.6094 10.8032C81.4281 10.4671 81.1773 10.2084 80.8573 10.027C80.5372 9.84032 80.1745 9.74697 79.7691 9.74697C79.369 9.74697 79.009 9.84032 78.6889 10.027C78.3689 10.2084 78.1155 10.4671 77.9288 10.8032C77.7474 11.1392 77.6567 11.5393 77.6567 12.0034C77.6567 12.4674 77.7474 12.8675 77.9288 13.2036C78.1155 13.5396 78.3689 13.801 78.6889 13.9877C79.009 14.1691 79.369 14.2598 79.7691 14.2598Z" fill="#3258B3"></path><path d="M86.4794 16.0441V7.96265H88.8158V16.0441H86.4794ZM87.6476 6.68243C87.2582 6.68243 86.9222 6.56241 86.6394 6.32236C86.3567 6.07699 86.2154 5.7516 86.2154 5.34619C86.2154 4.93545 86.3567 4.61006 86.6394 4.37002C86.9222 4.12464 87.2582 4.00195 87.6476 4.00195C88.037 4.00195 88.3731 4.12464 88.6558 4.37002C88.9385 4.61006 89.0799 4.93545 89.0799 5.34619C89.0799 5.7516 88.9385 6.07699 88.6558 6.32236C88.3731 6.56241 88.037 6.68243 87.6476 6.68243Z" fill="#3258B3"></path><path d="M91.0896 16.0441V7.96265H93.426V8.87481C93.7354 8.46941 94.1008 8.17602 94.5222 7.99466C94.9489 7.81329 95.3944 7.72261 95.8584 7.72261C96.6106 7.72261 97.2293 7.87197 97.7148 8.17069C98.2055 8.46407 98.5682 8.84547 98.803 9.31489C99.043 9.78431 99.163 10.2777 99.163 10.7952V16.0441H96.8266V11.5233C96.8266 11.0112 96.6826 10.6031 96.3945 10.2991C96.1118 9.99501 95.7011 9.84298 95.1623 9.84298C94.8209 9.84298 94.5195 9.92033 94.2582 10.075C93.9968 10.2244 93.7914 10.4351 93.642 10.7071C93.498 10.9792 93.426 11.2939 93.426 11.6513V16.0441H91.0896Z" fill="#3258B3"></path><path d="M105.134 16.2841C104.254 16.2841 103.48 16.1054 102.813 15.748C102.147 15.3906 101.626 14.8919 101.253 14.2518C100.88 13.6116 100.693 12.8622 100.693 12.0034C100.693 11.3793 100.8 10.8058 101.013 10.2831C101.232 9.7603 101.536 9.30956 101.925 8.93082C102.32 8.54675 102.781 8.2507 103.309 8.04267C103.843 7.8293 104.427 7.72261 105.062 7.72261C105.76 7.72261 106.379 7.8453 106.918 8.09068C107.462 8.33605 107.913 8.68011 108.27 9.12286C108.628 9.56027 108.876 10.075 109.014 10.6671C109.158 11.2592 109.172 11.902 109.054 12.5955H102.861C102.861 12.9689 102.957 13.2943 103.149 13.5716C103.347 13.849 103.621 14.0677 103.973 14.2278C104.331 14.3825 104.747 14.4598 105.222 14.4598C105.691 14.4598 106.139 14.3958 106.566 14.2678C106.993 14.1397 107.395 13.945 107.774 13.6837L108.55 15.2839C108.294 15.4813 107.974 15.6573 107.59 15.812C107.206 15.9614 106.798 16.0761 106.366 16.1561C105.939 16.2414 105.528 16.2841 105.134 16.2841ZM102.997 10.9872H106.814C106.798 10.5124 106.63 10.1364 106.31 9.85899C105.995 9.5816 105.56 9.44291 105.006 9.44291C104.451 9.44291 103.989 9.5816 103.621 9.85899C103.259 10.1364 103.051 10.5124 102.997 10.9872Z" fill="#3258B3"></path><path d="M52.7048 35.9976C51.67 35.9976 50.8032 35.7923 50.1044 35.3815C49.4109 34.9655 48.8855 34.4 48.5281 33.6852C48.176 32.9651 48 32.1463 48 31.2288V24.5556H50.3684V31.2928C50.3684 32.125 50.5738 32.7464 50.9845 33.1571C51.4006 33.5679 51.974 33.7733 52.7048 33.7733C53.4303 33.7733 53.9984 33.5679 54.4091 33.1571C54.8252 32.7464 55.0332 32.125 55.0332 31.2928V24.5556H57.4097V31.2288C57.4097 32.141 57.231 32.9571 56.8736 33.6772C56.5215 34.3974 55.9961 34.9655 55.2973 35.3815C54.5985 35.7923 53.7343 35.9976 52.7048 35.9976Z" fill="#3258B3"></path><path d="M59.8497 35.7576V27.6762H62.1861V28.5883C62.4955 28.1829 62.8609 27.8895 63.2823 27.7082C63.7091 27.5268 64.1545 27.4361 64.6186 27.4361C65.3707 27.4361 65.9895 27.5855 66.4749 27.8842C66.9656 28.1776 67.3284 28.559 67.5631 29.0284C67.8031 29.4978 67.9231 29.9913 67.9231 30.5087V35.7576H65.5867V31.2368C65.5867 30.7247 65.4427 30.3166 65.1546 30.0126C64.8719 29.7085 64.4612 29.5565 63.9224 29.5565C63.581 29.5565 63.2797 29.6339 63.0183 29.7885C62.7569 29.9379 62.5515 30.1486 62.4022 30.4207C62.2581 30.6927 62.1861 31.0074 62.1861 31.3648V35.7576H59.8497Z" fill="#3258B3"></path><path d="M75.03 35.9976C74.5179 35.9976 74.0512 35.9203 73.6298 35.7656C73.2084 35.6162 72.843 35.4055 72.5336 35.1335C72.2295 34.8614 71.9948 34.5467 71.8294 34.1893L72.1495 33.6692V35.7576H70.1171V24.2356H72.4456V29.5165L71.9255 28.9804C72.2935 28.4843 72.7309 28.1029 73.2377 27.8362C73.7498 27.5695 74.3339 27.4361 74.99 27.4361C75.7901 27.4361 76.4943 27.6255 77.1024 28.0042C77.7158 28.383 78.1959 28.8977 78.5426 29.5485C78.8894 30.194 79.0627 30.9167 79.0627 31.7169C79.0627 32.3463 78.9614 32.9251 78.7587 33.4532C78.5613 33.976 78.2813 34.4267 77.9185 34.8054C77.5558 35.1842 77.1291 35.4776 76.6383 35.6856C76.1529 35.8936 75.6168 35.9976 75.03 35.9976ZM74.5979 33.9733C75.014 33.9733 75.3847 33.8826 75.7101 33.7012C76.0355 33.5145 76.2916 33.2532 76.4783 32.9171C76.665 32.581 76.7583 32.181 76.7583 31.7169C76.7583 31.2528 76.665 30.8527 76.4783 30.5167C76.2969 30.1806 76.0409 29.9219 75.7101 29.7405C75.3847 29.5538 75.014 29.4605 74.5979 29.4605C74.1819 29.4605 73.8111 29.5538 73.4857 29.7405C73.1604 29.9219 72.9043 30.1806 72.7176 30.5167C72.5362 30.8527 72.4456 31.2528 72.4456 31.7169C72.4456 32.181 72.5389 32.581 72.7256 32.9171C72.9123 33.2532 73.1684 33.5145 73.4937 33.7012C73.8191 33.8826 74.1872 33.9733 74.5979 33.9733Z" fill="#3258B3"></path><path d="M80.6659 35.7576V27.6762H83.0023V28.6764C83.2637 28.2283 83.5997 27.9082 84.0105 27.7162C84.4212 27.5241 84.8693 27.4281 85.3547 27.4281C85.5254 27.4281 85.6828 27.4388 85.8268 27.4601C85.9708 27.4761 86.1122 27.4975 86.2509 27.5242L85.9628 29.9326C85.7921 29.8686 85.6108 29.8206 85.4187 29.7885C85.2267 29.7512 85.0373 29.7325 84.8506 29.7325C84.3119 29.7325 83.8691 29.8899 83.5224 30.2046C83.1757 30.5193 83.0023 30.9674 83.0023 31.5489V35.7576H80.6659Z" fill="#3258B3"></path><path d="M91.2094 35.9976C90.3292 35.9976 89.5557 35.8189 88.889 35.4615C88.2222 35.1042 87.7021 34.6054 87.3287 33.9653C86.9553 33.3252 86.7686 32.5757 86.7686 31.7169C86.7686 31.0928 86.8753 30.5193 87.0886 29.9966C87.3073 29.4738 87.6114 29.0231 88.0008 28.6443C88.3955 28.2603 88.857 27.9642 89.385 27.7562C89.9185 27.5428 90.5026 27.4361 91.1374 27.4361C91.8361 27.4361 92.4549 27.5588 92.9937 27.8042C93.5378 28.0496 93.9885 28.3936 94.3459 28.8364C94.7033 29.2738 94.9514 29.7886 95.09 30.3807C95.2341 30.9728 95.2474 31.6155 95.1301 32.309H88.937C88.937 32.6824 89.033 33.0078 89.225 33.2852C89.4224 33.5625 89.6971 33.7813 90.0492 33.9413C90.4066 34.096 90.8226 34.1733 91.2974 34.1733C91.7668 34.1733 92.2149 34.1093 92.6416 33.9813C93.0684 33.8533 93.4711 33.6586 93.8498 33.3972L94.626 34.9975C94.3699 35.1948 94.0499 35.3709 93.6658 35.5256C93.2817 35.6749 92.8737 35.7896 92.4416 35.8696C92.0148 35.955 91.6041 35.9976 91.2094 35.9976ZM89.073 30.7007H92.8897C92.8737 30.226 92.7056 29.8499 92.3856 29.5725C92.0709 29.2951 91.6361 29.1564 91.0813 29.1564C90.5266 29.1564 90.0652 29.2951 89.6971 29.5725C89.3344 29.8499 89.1263 30.226 89.073 30.7007Z" fill="#3258B3"></path><path d="M100.272 35.9976C99.4982 35.9976 98.8075 35.8189 98.1993 35.4615C97.5912 35.0988 97.1112 34.5947 96.7591 33.9493C96.4124 33.3038 96.239 32.5597 96.239 31.7169C96.239 31.0821 96.3377 30.5033 96.5351 29.9806C96.7378 29.4578 97.0205 29.0071 97.3832 28.6283C97.7459 28.2443 98.1727 27.9509 98.6634 27.7482C99.1595 27.5402 99.6956 27.4361 100.272 27.4361C101.04 27.4361 101.688 27.6015 102.216 27.9322C102.749 28.2629 103.139 28.695 103.384 29.2285L103.056 29.7325V27.6762H105.089V35.7576H103.056V33.7012L103.384 34.2053C103.139 34.7388 102.749 35.1708 102.216 35.5016C101.688 35.8323 101.04 35.9976 100.272 35.9976ZM100.648 33.9733C101.053 33.9733 101.416 33.8826 101.736 33.7012C102.056 33.5145 102.307 33.2532 102.488 32.9171C102.675 32.581 102.768 32.181 102.768 31.7169C102.768 31.2528 102.675 30.8527 102.488 30.5167C102.307 30.1806 102.056 29.9219 101.736 29.7405C101.416 29.5538 101.053 29.4605 100.648 29.4605C100.248 29.4605 99.8876 29.5538 99.5676 29.7405C99.2475 29.9219 98.9942 30.1806 98.8075 30.5167C98.6261 30.8527 98.5354 31.2528 98.5354 31.7169C98.5354 32.181 98.6261 32.581 98.8075 32.9171C98.9942 33.2532 99.2475 33.5145 99.5676 33.7012C99.8876 33.8826 100.248 33.9733 100.648 33.9733Z" fill="#3258B3"></path><path d="M107.358 35.7576V24.2356H109.694V30.5567L112.367 27.6762H115.087L112.255 30.8847L115.4 35.7576H112.623L110.559 32.413L109.694 33.3092V35.7576H107.358Z" fill="#3258B3"></path><path d="M119.978 35.9976C119.205 35.9976 118.514 35.8189 117.906 35.4615C117.298 35.0988 116.818 34.5947 116.466 33.9493C116.119 33.3038 115.946 32.5597 115.946 31.7169C115.946 31.0821 116.044 30.5033 116.242 29.9806C116.444 29.4578 116.727 29.0071 117.09 28.6283C117.453 28.2443 117.879 27.9509 118.37 27.7482C118.866 27.5402 119.402 27.4361 119.978 27.4361C120.746 27.4361 121.395 27.6015 121.923 27.9322C122.456 28.2629 122.845 28.695 123.091 29.2285L122.763 29.7325V27.6762H124.795V35.7576H122.763V33.7012L123.091 34.2053C122.845 34.7388 122.456 35.1708 121.923 35.5016C121.395 35.8323 120.746 35.9976 119.978 35.9976ZM120.354 33.9733C120.76 33.9733 121.123 33.8826 121.443 33.7012C121.763 33.5145 122.013 33.2532 122.195 32.9171C122.381 32.581 122.475 32.181 122.475 31.7169C122.475 31.2528 122.381 30.8527 122.195 30.5167C122.013 30.1806 121.763 29.9219 121.443 29.7405C121.123 29.5538 120.76 29.4605 120.354 29.4605C119.954 29.4605 119.594 29.5538 119.274 29.7405C118.954 29.9219 118.701 30.1806 118.514 30.5167C118.333 30.8527 118.242 31.2528 118.242 31.7169C118.242 32.181 118.333 32.581 118.514 32.9171C118.701 33.2532 118.954 33.5145 119.274 33.7012C119.594 33.8826 119.954 33.9733 120.354 33.9733Z" fill="#3258B3"></path><path d="M131.978 35.9976C131.465 35.9976 130.999 35.9203 130.577 35.7656C130.156 35.6162 129.791 35.4055 129.481 35.1335C129.177 34.8614 128.942 34.5467 128.777 34.1893L129.097 33.6692V35.7576H127.065V24.2356H129.393V29.5165L128.873 28.9804C129.241 28.4843 129.678 28.1029 130.185 27.8362C130.697 27.5695 131.281 27.4361 131.938 27.4361C132.738 27.4361 133.442 27.6255 134.05 28.0042C134.663 28.383 135.143 28.8977 135.49 29.5485C135.837 30.194 136.01 30.9167 136.01 31.7169C136.01 32.3463 135.909 32.9251 135.706 33.4532C135.509 33.976 135.229 34.4267 134.866 34.8054C134.503 35.1842 134.077 35.4776 133.586 35.6856C133.1 35.8936 132.564 35.9976 131.978 35.9976ZM131.545 33.9733C131.962 33.9733 132.332 33.8826 132.658 33.7012C132.983 33.5145 133.239 33.2532 133.426 32.9171C133.613 32.581 133.706 32.181 133.706 31.7169C133.706 31.2528 133.613 30.8527 133.426 30.5167C133.244 30.1806 132.988 29.9219 132.658 29.7405C132.332 29.5538 131.962 29.4605 131.545 29.4605C131.129 29.4605 130.759 29.5538 130.433 29.7405C130.108 29.9219 129.852 30.1806 129.665 30.5167C129.484 30.8527 129.393 31.2528 129.393 31.7169C129.393 32.181 129.486 32.581 129.673 32.9171C129.86 33.2532 130.116 33.5145 130.441 33.7012C130.767 33.8826 131.135 33.9733 131.545 33.9733Z" fill="#3258B3"></path><path d="M137.613 35.7576V24.2356H139.95V35.7576H137.613Z" fill="#3258B3"></path><path d="M146 35.9976C145.12 35.9976 144.347 35.8189 143.68 35.4615C143.013 35.1042 142.493 34.6054 142.12 33.9653C141.746 33.3252 141.559 32.5757 141.559 31.7169C141.559 31.0928 141.666 30.5193 141.88 29.9966C142.098 29.4738 142.402 29.0231 142.792 28.6443C143.186 28.2603 143.648 27.9642 144.176 27.7562C144.709 27.5428 145.293 27.4361 145.928 27.4361C146.627 27.4361 147.246 27.5588 147.785 27.8042C148.329 28.0496 148.779 28.3936 149.137 28.8364C149.494 29.2738 149.742 29.7886 149.881 30.3807C150.025 30.9728 150.038 31.6155 149.921 32.309H143.728C143.728 32.6824 143.824 33.0078 144.016 33.2852C144.213 33.5625 144.488 33.7813 144.84 33.9413C145.197 34.096 145.614 34.1733 146.088 34.1733C146.558 34.1733 147.006 34.1093 147.433 33.9813C147.859 33.8533 148.262 33.6586 148.641 33.3972L149.417 34.9975C149.161 35.1948 148.841 35.3709 148.457 35.5256C148.073 35.6749 147.665 35.7896 147.232 35.8696C146.806 35.955 146.395 35.9976 146 35.9976ZM143.864 30.7007H147.681C147.665 30.226 147.497 29.8499 147.176 29.5725C146.862 29.2951 146.427 29.1564 145.872 29.1564C145.317 29.1564 144.856 29.2951 144.488 29.5725C144.125 29.8499 143.917 30.226 143.864 30.7007Z" fill="#3258B3"></path></svg> 