<?xml version="1.0"?>
<svg xmlns="http://www.w3.org/2000/svg" viewBox="0 0 64 64" width="512" height="512"><g id="_13-castle_tower" data-name="13-castle tower"><path d="M52,56H49L47.06,22H48a3,3,0,0,0,1.57-5.55l3.26-4.9A1,1,0,0,0,53,11h0V1a1,1,0,0,0-1-1H47a1,1,0,0,0-1,1V4H42V1a1,1,0,0,0-1-1H35a1,1,0,0,0-1,1V4H30V1a1,1,0,0,0-1-1H23a1,1,0,0,0-1,1V4H18V1a1,1,0,0,0-1-1H12a1,1,0,0,0-1,1V11h0a1,1,0,0,0,.16.55l3.26,4.9A3,3,0,0,0,16,22h.94L15.05,56H12a5,5,0,0,0-5,5v2a1,1,0,0,0,1,1H56a1,1,0,0,0,1-1V61A5,5,0,0,0,52,56ZM16,2V5a1,1,0,0,0,1,1h6a1,1,0,0,0,1-1V2h4V5a1,1,0,0,0,1,1h6a1,1,0,0,0,1-1V2h4V5a1,1,0,0,0,1,1h6a1,1,0,0,0,1-1V2h3v8H13V2ZM50.13,12l-2.67,4H16.54l-2.67-4ZM15,19a1,1,0,0,1,1-1H48a1,1,0,0,1,0,2H16A1,1,0,0,1,15,19Zm3.5,11H26a1,1,0,0,0,0-2H18.61L19,22h26.1l.89,16H38a1,1,0,0,0,0,2h8l.62,11H41a1,1,0,0,0,0,2h5.78l.16,3H38V52a6,6,0,0,0-12,0v4H17.06ZM36,56H28V52a4,4,0,0,1,8,0Zm19,6H9V61a3,3,0,0,1,3-3H52a3,3,0,0,1,3,3Z"/><path d="M21,42h6a1,1,0,0,0,1-1V38a4,4,0,0,0-8,0v3A1,1,0,0,0,21,42Zm1-4a2,2,0,0,1,4,0v2H22Z"/><path d="M37,32h6a1,1,0,0,0,1-1V28a4,4,0,0,0-8,0v3A1,1,0,0,0,37,32Zm1-4a2,2,0,0,1,4,0v2H38Z"/><path d="M35,38H33a1,1,0,0,0,0,2h2a1,1,0,0,0,0-2Z"/><path d="M26,45h8a1,1,0,0,0,0-2H26a1,1,0,0,0,0,2Z"/><path d="M36,44a1,1,0,0,0,1,1h2a1,1,0,0,0,0-2H37A1,1,0,0,0,36,44Z"/><path d="M38,34H30a1,1,0,0,0,0,2h8a1,1,0,0,0,0-2Z"/><path d="M43,34H41a1,1,0,0,0,0,2h2a1,1,0,0,0,0-2Z"/><path d="M29,30h2a1,1,0,0,0,0-2H29a1,1,0,0,0,0,2Z"/><path d="M23,51H21a1,1,0,0,0,0,2h2a1,1,0,0,0,0-2Z"/><path d="M26,24H24a1,1,0,0,0,0,2h2a1,1,0,0,0,0-2Z"/></g></svg>
