<svg id="Layer_1" enable-background="new 0 0 512 512" viewBox="0 0 512 512" xmlns="http://www.w3.org/2000/svg"><path d="m345.3 383.3c-8.7-3.1-17.7-6.2-25.7-9.9-10.6-4.9-16.9-14.8-16.9-26.4v-5.5c14.3-10.8 24.6-26.6 28.4-44.7h5.3c13.8 0 25.1-11.3 25.1-25.1v-21.8c0-5.4.1-10.6.2-15.7.4-20.5.7-38.2-5.6-52.2-7.1-15.9-21.4-24.5-44.7-26.9l7.5-10.7c3.3-4.6 3.7-10.4 1.1-15.4-2.5-5-7.6-8-13.2-8h-62.8c-24.4 0-47.3 7.8-64.6 21.9-18.8 15.4-29.2 37.5-29.2 62v66.8c0 13.8 11.2 25.1 25.1 25.1h5.3c3.8 18.3 14.3 34.2 28.8 45v5.1c0 11.6-6.3 21.5-16.9 26.4-7.9 3.7-17 6.9-25.7 9.9-30.9 10.9-66 23.2-66 65v48.9c0 8.2 6.7 14.8 14.8 14.8h280.5c8.2 0 14.8-6.7 14.8-14.8v-48.9c.3-41.7-34.7-54-65.6-64.9zm.3-111.6c0 5-4.2 9.2-9.2 9.2h-3.7v-40.2h3.7c5 0 9.2 4.1 9.2 9.2zm-101.4-134.9h60.6l-7.4 10.5c-3.1 4.4-3.6 10-1.3 14.8s6.8 8 12.1 8.5c35 3 38.1 18.6 37.7 55.9-2.9-1.2-6.1-1.9-9.5-1.9h-5.8c-4.3-10.8-14.8-18.4-27.1-18.4h-5.5c-4.5 0-8.1-1.1-11.8-3.6l-9.5-6.4c-12.8-8.5-28.7-8.5-41.4 0l-9.5 6.3c-3.8 2.5-7.4 3.6-11.9 3.6h-5.5c-12.3 0-22.8 7.6-27.1 18.4h-5.8c-3.2 0-6.3.6-9.1 1.7v-21.6c-.1-44.4 39.1-67.8 77.8-67.8zm-77.9 134.9v-21.8c0-5 4.1-9.2 9.1-9.2h3.8v40.2h-3.8c-4.9-.1-9.1-4.3-9.1-9.2zm28.9 9.7v-46c0-7.3 5.9-13.2 13.2-13.2h5.5c7.6 0 14.4-2.1 20.7-6.3l9.5-6.4c7.4-4.9 16.3-4.9 23.7 0l9.5 6.4c6.4 4.2 13.1 6.3 20.7 6.3h5.6c7.3 0 13.2 5.9 13.2 13.2v46c0 20.2-10.2 38.1-25.8 48.8-.4.2-.8.5-1.2.8-9.3 6-20.3 9.6-32.2 9.6h-3.3c-11.7 0-22.7-3.4-31.9-9.4-.4-.3-.8-.6-1.2-.8-15.6-10.5-26-28.6-26-49zm59.2 75.2h3.3c10.4 0 20.3-2.1 29.3-6 .8 9.6 4.5 18.5 10.5 25.6-7.4 16-23.4 26.5-41.3 26.5s-33.9-10.5-41.3-26.5c6-7 9.7-15.8 10.5-25.4 8.9 3.7 18.7 5.8 29 5.8zm140.9 139.5h-70.5v-35.3c0-4.4-3.6-8-8-8s-8 3.6-8 8v35.3h-105.3v-35.3c0-4.4-3.6-8-8-8s-8 3.6-8 8v35.3h-70.5v-47.8c0-30.5 25.6-39.5 55.3-49.9 9.1-3.2 18.5-6.5 27.1-10.5.9-.4 1.8-.9 2.7-1.4 10.6 19.6 31.2 32.2 54 32.2s43.4-12.6 54-32.2c.9.5 1.8.9 2.7 1.4 8.6 4 18 7.3 27.1 10.5 29.7 10.4 55.3 19.5 55.3 49.9zm111.8-166.4-47.9-47.9c-3.7-3.7-9.1-4.8-14-2.7-4.7 2-7.8 6.6-7.8 11.7v20.8h-90.8c-7.8 0-14.2 6.3-14.2 14.1v26c0 7.8 6.4 14.1 14.2 14.1h90.8v20.7c0 5.2 3.1 9.8 7.8 11.8 1.6.7 3.3 1 4.9 1 3.3 0 6.6-1.3 9-3.8l47.9-47.9c2.4-2.4 3.7-5.6 3.7-9 .2-3.3-1.2-6.5-3.6-8.9zm-53.7 49.1v-17.2c0-6.5-5.3-11.7-11.7-11.7h-93.2v-22.4h93.2c6.5 0 11.7-5.3 11.7-11.7v-17.2l40.2 40.2zm-274-27.1v-26c0-7.8-6.4-14.1-14.2-14.1h-90.7v-20.8c0-5.2-3.1-9.8-7.8-11.7-4.8-2-10.3-.9-13.9 2.8l-48 47.8c-4.9 4.9-4.9 13 0 18l47.8 47.8c2.4 2.5 5.7 3.8 9 3.8 1.7 0 3.3-.3 4.9-1 4.8-2 7.9-6.6 7.9-11.8v-20.7h90.8c7.9 0 14.2-6.3 14.2-14.1zm-15.9-1.8h-93.2c-6.5 0-11.7 5.3-11.7 11.7v17.2l-40.2-40.2 40.2-40.2v17.2c0 6.5 5.3 11.7 11.7 11.7h93.2zm59.7-317.1c0-18.1 14.7-32.8 32.8-32.8s32.8 14.7 32.8 32.8c0 12.8-7.5 24.5-19.2 29.9-3.6 1.6-5.6 4.9-5.6 8.8v4.8c0 4.4-3.6 8-8 8s-8-3.6-8-8v-4.8c0-10.2 5.7-19.1 15-23.3 6-2.7 9.9-8.8 9.9-15.4 0-9.3-7.6-16.9-16.9-16.9s-16.9 7.6-16.9 16.9c0 4.4-3.6 8-8 8s-7.9-3.6-7.9-8zm40.8 73.3c0 4.5-3.6 8.1-8 8.1s-8-3.6-8-8 3.6-8 8-8 8 3.5 8 7.9zm104.1 31.8c0-18.1 14.7-32.8 32.8-32.8s32.8 14.7 32.8 32.8c0 12.8-7.5 24.6-19.2 29.9-3.6 1.6-5.7 4.8-5.7 8.8v4.8c0 4.4-3.6 8-8 8s-8-3.6-8-8v-4.8c0-10.2 5.7-19.1 15-23.3 6-2.7 9.8-8.8 9.8-15.4 0-9.3-7.6-16.9-16.9-16.9s-16.9 7.6-16.9 16.9c0 4.4-3.6 8-8 8-4.2 0-7.7-3.6-7.7-8zm40.8 73.3c0 4.5-3.6 8.1-8 8.1s-8-3.6-8-8 3.6-8 8-8 8 3.5 8 7.9zm-330.6-73.3c0-18.1 14.7-32.8 32.8-32.8s32.8 14.7 32.8 32.8c0 12.8-7.5 24.6-19.2 29.9-3.6 1.6-5.6 4.8-5.6 8.8v4.8c0 4.4-3.6 8-8 8s-8-3.6-8-8v-4.8c0-10.2 5.7-19.1 15-23.3 6-2.7 9.9-8.8 9.9-15.4 0-9.3-7.6-16.9-16.9-16.9s-16.9 7.6-16.9 16.9c0 4.4-3.6 8-8 8s-7.9-3.6-7.9-8zm40.7 73.3c0 4.5-3.6 8.1-8 8.1s-8-3.6-8-8 3.6-8 8-8c4.5 0 8 3.5 8 7.9z"/></svg>