<svg id="Layer_1" enable-background="new 0 0 500 500" viewBox="0 0 500 500" xmlns="http://www.w3.org/2000/svg"><path clip-rule="evenodd" d="m465.101 285.384-23.464 36.061c-2.03 3.104-6.171 3.983-9.272 1.973-3.11-2.024-4.014-6.185-1.979-9.289l23.407-36.055c2.035-3.104 6.219-3.992 9.329-1.968s3.958 6.174 1.979 9.278zm-19.279-22.31c3.053-2.115 3.845-6.293 1.696-9.34-2.092-3.048-6.276-3.805-9.329-1.696l-31.379 21.762c-3.053 2.109-3.788 6.298-1.696 9.34 2.102 3.045 6.331 3.809 9.329 1.69zm-36.072-114.796c2.148-3.042 6.332-3.799 9.385-1.69l31.379 21.762c5.372 3.718 2.743 12.229-3.845 12.229-1.3 0-2.657-.396-3.788-1.204l-31.379-21.756c-3.052-2.11-3.844-6.288-1.752-9.341zm28.1-18.958 21.032 31.905c1.244 1.956 3.392 3.025 5.597 3.025 5.208 0 8.573-5.888 5.597-10.409l-21.032-31.899c-2.035-3.098-6.219-3.952-9.272-1.917-3.11 2.036-3.958 6.203-1.922 9.295zm-26.065 100.447c-4.806 1.278-10.459-.701-16.283-5.722 0-.006-.057-.017-.057-.023-.226-.198-.452-.379-.735-.537 0-.264-2.096-.944-2.883-1.023l-30.022-3.042-51.563-28.41c-5.737-3.2-12.177 3.057-9.216 8.933l45.287 88.178 53.768 79.573c3.644 5.463 8.49 11.759 10.968 17.702 1.3 3.104 1.527 5.196 1.018 5.592-5.604 4.445-13.705 3.537-18.149-2.013l-57.896-72.251c-2.536-3.23-35.504-26.074-48.51-42.489-6.471-8.166-16.899-37.418-22.05-58.15-8.142-32.08-7.18-50.664-2.657-54.848 5.872-5.388 22.871-7.749 33.528-4.868 10.129 2.739 54.742 35.334 70.221 46.469.622.464 1.414.808 2.148 1.018l45.401 11.686c5.366 1.383 6.765 3.278 5.315 7.452-.904 2.595-3.619 5.693-7.633 6.773zm-88.765-16.419 4.636 9.08h11.817zm-7.35 164.505 20.863-39.017-10.573-13.168c-1.979-1.617-4.071-3.279-6.219-4.992l-13.117 40.493c-.17.492-.339.961-.622 1.396l-12.947 21.553c-3.453 5.65-2.435 10.769 3.788 13.592 2.657 1.192 11.703-6.599 18.827-19.857zm-5.767-282.75c12.778 0 23.124 10.398 23.124 23.164s-10.347 23.153-23.124 23.153c-12.778 0-23.181-10.386-23.181-23.153s10.403-23.164 23.181-23.164zm-93.119 130.119-41.104-19.41-27.761-16.594c-2.544-1.549-5.88-1.187-8.028.876-2.205 2.069-2.714 5.337-1.357 7.989l17.923 34.223 30.87 58.93c2.318 4.348.905 8.984-.679 12.105l-47.266 93.803c-3.279 6.451-11.195 9.481-17.47 6.711-1.513-5.153 6.424-22.194 8.651-28.264l22.785-62.305c1.074-2.923 0-6.197-2.601-7.91-23.011-15.102-54.616-47.272-63.606-77.385-.113-.509-.226-1.001-.452-1.464-1.527-5.586-2.262-11.087-1.979-16.385.396-8.792 5.088-23.09 12.099-34.703 2.148-2.386 4.014-5.06 5.484-7.961 2.544-3.093 5.202-5.733 8.028-7.633 4.523-3.047 8.82-3.907 13.06-2.618l90.009 51.314 13.626 11.715c3.915 3.393 1.405 10.431-10.232 4.966zm-50.32-2.794h12.947c-11.28-5.32-7.809-3.413-17.923-9.459zm76.893 173.291c5.88-4.534 7.237-12.732 3.053-18.268l-49.245-65.161-12.495 24.81 43.365 48.08c3.223 3.59 6.898 7.661 10.29 9.849 3.223 2.07 4.24 1.301 5.032.69zm-173.574-221.744c6.276 0 12.043-2.55 16.226-6.666 1.527-2.459 3.166-4.823 4.863-7.039 1.3-2.895 2.035-6.084 2.035-9.448 0-12.766-10.347-23.158-23.124-23.158-12.778 0-23.181 10.392-23.181 23.158 0 12.767 10.404 23.153 23.181 23.153zm394.923 48.453h-31.436c1.102-9.584-4.741-17.03-15.831-19.89l-44.157-11.37c-1.753-1.261-4.071-2.917-6.728-4.857-16.396-11.828-33.754-24.238-47.266-32.708 15.605-4.173 27.195-18.432 27.195-35.337 0-20.179-16.453-36.586-36.58-36.586-20.184 0-36.581 16.407-36.581 36.586 0 8.961 3.223 17.182 8.594 23.554-11.251.662-22.276 4.122-28.156 9.538-9.951 9.171-10.403 32.052-1.357 68.011.283 1.018.565 2.035.792 3.059h-11.138c-.339-4.591-2.544-9.091-6.332-12.348-2.108-1.814-13.86-12.154-15.153-12.874l-91.14-51.976c-.339-.215-.735-.385-1.131-.52-7.35-2.533-14.926-1.815-22.22 2.03-1.979-18.251-17.527-32.493-36.298-32.493-20.184 0-36.58 16.408-36.58 36.575 0 22.985 21.047 40.219 43.365 35.925-4.825 13.037-6.516 23.511-4.467 35.682h-36.806c-3.732 0-6.728 2.997-6.728 6.711 0 3.703 2.997 6.705 6.728 6.705h40.368c10.855 30.525 39.577 60.881 63.323 77.729l-21.032 57.398c-.565 1.606-1.413 3.613-2.318 5.756-5.062 12.231-13.611 32.612.396 39.176 12.901 6.045 28.72.352 35.28-12.721l26.856-53.231 39.86 44.191c6.235 6.878 14.032 15.65 23.69 15.65 4.41 0 7.802-1.877 9.838-3.46 11.647-9.012 14.135-25.595 5.541-36.976l-55.125-72.974c0-3.986-.905-7.836-2.714-11.381l-25.782-49.155h34.376l3.223 1.504c11.986 5.676 20.863 3.149 25.838-1.504h20.128c6.389 20.75 14.361 39.662 20.015 46.746 8.029 10.092 19.902 20.077 31.436 29.23l-14.417 44.49-12.552 20.891c-7.566 12.67-3.728 26.552 9.725 32.696 16.938 7.736 32.791-19.259 36.241-25.714l18.206-33.957 37.711 47.136c9.119 11.363 25.728 13.15 37.089 4.088 4.071-3.257 7.859-9.6 2.94-21.281-3.03-7.204-8.137-13.936-12.269-19.998l-53.542-79.228-23.068-45.101h54.164c10.968 8.537 20.41 8.509 26.517 6.881 4.41-1.17 8.424-3.641 11.534-6.881h37.937c3.731 0 6.728-3.002 6.728-6.705-.002-3.715-2.999-6.712-6.73-6.712z" fill-rule="evenodd"/></svg>